/* XPM */
static char *_98037f3de964632ae7f09b4b9f95d60g4BDVghuxmTIpfyD[] = {
/* columns rows colors chars-per-pixel */
"128 128 19 1 ",
"  c #785448",
". c #795448",
"X c #785548",
"o c #795548",
"O c #785449",
"+ c #795449",
"@ c #785549",
"# c #795549",
"$ c #FF5622",
"% c #FE5722",
"& c #FF5722",
"* c #FF5723",
"= c #BCAEA8",
"- c #BDAEA8",
"; c #BCAFA8",
": c #BDAFA8",
"> c #BCAEA9",
", c #BDAEA9",
"< c #BCAFA9",
/* pixels */
";;;;;;;>;;;;;;;;;;;$&&&&&&&&&&&&&&&&&&&&&&&:;;;;;;;;;;;;;;;;;;;;-;;;;;;;;;;;;;;;;;;%$$&&&&&&&&&&&&&&&&&&&&*;;;;;;;;;;;;;;;;;;;;;",
";;;;;;>;;;;;;;;;;;;$&&&&&&&&&&&&&&&&&&&&&&%;;:;;;;;;;;;;;;;;;;;;;-;;;;;;;;;;;;;;;;;%*$&&&&&&&&&&&&&&&&&&&&&:;;;;;;;;;;;;;;;;;;;;",
";;$$$$$$&&&&%%%$$$$$&&&&&&&&&&&&&&&&&&&&&&$*&&&&%%%$$$$$&%&*%$;;;$$$%%%%%$$$$$$$&&&&*&&&&&&&&&&&&&&&&&&&&&&&%%%$$$$$$$$$$$*$$$;;",
";;$$**$$&&&&%%$$$$$$&&&&&&&&&&&&&&&&&&&&&&&*&&&&%%$$$$$$&&&&%$;;;$$$%%%%%$$$$$$$&&&***&&&&&&&&&&&&&&&&&&&&&&%%$$$$$$$$$*$$**$$;;",
"::******&&&&&&&&***&&&&&&&&&&&&&&&&&&&&&&&&&&&&&&&&&*******&$$;;-$***$%%**$$$$**$$**&&&&&&&&&&&&&&&&&&&&*&&&$$$%$$$$********$$;;",
"::******&&&&&&&&****&&&&&&&&&&&&&&&&&&&&&&&&&&&&&&&&***$**&&$$;;;$**$$&****$$$*$%%**&&&&&&&&&&&&&&&&&&&&**&&$$$%$*$$***$****$$;;",
":;**$$**&&&&&&&&*$$*&&&&&&&&&&&&&&&&&&&&&&&&&&&&&&&&&&**$***$$;;;$$*$**;;;;;;;;;;;:&&&&&&&&&&&&&&&&&&&&&**$;;;;;;;;;;;;;;***$$;;",
";;*$$$$*&&&&&&&&****&&&&&&&&&&&&&&&&&&&&&&&&&&&&&&&&&***$$*$$$;;=$*****;;;;;;;;;;;:&&&&&&&&&&&&&&&&&&&&&$$$;;;;;;;;;;;;;;&*$$$;;",
";;%%&&&&&&&&&&&&&&&&&&&&&&&&&&&&&&&&&&&&&&&&&&&&&&&&&&&&&&&&$$:;:*&&**$;;;;;>;>>;;;%%%&&&&&&&&&&&&&&&&&&&&&:;;;;;;;;;-;-;%**&*::",
";;$$&&&&&&&&&&&&&&&&&&&&&&&&&&&&&&&&&&&&&&&&&&&&&&&&&&&&&&&&$$:;:&&&*$$;;;;;>>;;;;;%%%&&&&&&&&&&&&&&&&&&&&%;;:;;;;;;-;-;;%$$&&::",
"::$*&&&&&&&&&&&&&&&&&&&&&&&&&&&&&&&&&&&&&&&&&&&&&&&&&&&&&&&&$$;;;%&&*&%;;;;$**$*&&&&$$$&&&&&&&&&&&&&&&&&&&$*&&&&$$$$$>;;;%%$$%;;",
";:**&&&&&&&&&&&&&&&&&&&&&&&&&&&&&&&&&&&&&&&&&&&&&&&&&&&&&&&&%%;;;%&&&&%;;;;$****&&&&$$$*&&&&&&&&&&&&&&&&&&&*&&&&$$$$$;;;;%$$$%;;",
";;$***&&&&&&&&&&&&&&&&&&&&&&&&&&&&&&&&&&&&&&&&&&&&&&&&&&&&&&&&;;;$$$***;;;;$*$$$&&&&&&&&&&&&&&&&&&&&&&&&&&&&&&&&$***$;;;:****%;;",
";;$$**&&&&&&&&&&&&&&&&&&&&&&&&&&&&&&&&&&&&&&&&&&&&&&&&&&&&&&&&;;;%****&;;;;%**$$&&&&&&&&&&&&&&&&&&&&&&&&&&&&&&&&$$**$;;;;**$*&;;",
";;$$*&&&&&&&&&&&&&&&&&&&&&&&&&&&&&&&&&&&&&&&&&&&&&&&&&&&&&&&&%;;:&**$*$;;;;%**$*&&&&&&&&&&&&&&&&&&&&&&&&&&&&&&&&$$**$;;;;$$$%%;;",
";;$$&&&&&&&&&&&&&&&&&&&&&&&&&&&&&&&&&&&&&&&&&&&&&&&&&&&&&&&&&%;;;&&*$$$;;;:&****&&&&&&&&&&&&&&&&&&&&&&&&&&&&&&&&$$**$;;;;*$$%%;;",
";;&&&&&&&&&&&&&&&&&&*****$******%%%%%%%%%$$*&&&&&&&&&&&&&&&&**::;%&&&&&:;;;%%$&&&&&&&&&&***&&&&&&&&&&&&&&&&&&&&&$***%;;;;%**&&:;",
";;&&&&&&&&&&&&&&&&&&@@XX  ******%%%%%%      *&&&&&&&&&&&&&&&&*;:;%&*&&%;;;;%$$&&&&&&&&&&***&&&&&&&&&&&&&&&&&&&&&$***%;;;;%*$&&;;",
";;&&&&&&&&&&&&&&%%&&o@ooXX$*&&**%%%%%%X X XX&&**&&&&&&&&&&&&&&::;$$*&&$:;;;&*&&&&&&&&&&&$***&&&&&&&&&&&&&&&&&&&&&&*&&;;;;$$$$$;;",
"%%&&&&&&&&&&&&&&%%%%@oooXX$*&&&*%%%%%%X +XXX&***&&&&&&&&&&&&&&&&%%$$&**$*$%&**&&&&&&&&&&$$$*&&&&&&&&&&&&&&&&&&&&&&&&&&&&%%$$$%%%",
"%$$*&&&&&&&&&&&&%%%%XXoo  *&&&&&&%%%$$XXo XX****&&&&&&&&&&&&&&&&&&&&&&&&&&&&&&&&&&&&&&******$*$*&*&&&&&&&&&&&&&&&&&&&&&&&&&&**&&",
"$$**&&&&&&&&&&&&%%%%  oo  &*&&&&&*%%**XX +++**$$&&&&&&&&&&&&&&&&&&&&&&&&&&&&&&&&&&&&&&*  #   XXXX X&&&&&&&&&&&&&&&&&&&&&&&&&**&&",
"&&*&&&&&&&&&&&&&%%%%   o  **%*&&***$** X+X++***$&&&&&&&&&&&&&&&&&&&&&&&&&&&&&&&&&&&&&&& ##XX X X   %&&&&&&&&&&&&&&&&&&&&&&&&&&&&",
"&&&&&&&&&&&&&&&&%%%%   oo       ***$**oo +X#**$$&&&&&&&&&&&&&&&&&&&&&&&&&&&&&&&&&&&&&&& XXXXXXXX   %&&&&&&&&&&&&&&&&&&&&&&&&&&&&",
"&&&&&&&&&&&&&&&&****O+O#ooXoXoXo$$$*** ooo  &&&&&&&&&&&&&&&&&&&&&&&&&&&&&&&&&&&&&&&&&&& o o XXXX   ***&&&&&&&&&&&&&&&&&&&&&&&&&&",
"&&&&&&&&&&&&&&&&****O+X+ooooooX#**$***  o   &&&&&&&&&&&&&&&&&&&&&&&&&&&&&&&&&&&&&&&&&&& oo ***$$&&&   X&&&&&&&&&&&&&&&&&&&&&&&&&",
"&&&&&&&&&&&&&&&&$$**##X#oo X##o#*****&  ooX &&&&&&&&&&&&&&&&&&&&&&&&&&&&&&&&&&&&&&&&&&*  o *$$**%** XXX&&&&&&&&&&&&&&&&&&&&&&&&&",
"&&&&&&&&&&&&&&&&$$**XO#XooXX###X$***&&  @oXX%&&&&&&&&&&&&&&&&&&&&&&&&&&&&&&&&&&&&&&&&&* o o*$*****&  XX&&&&&&&&&&&&&&&&&&&&&&&&&",
"&&&&&&&&&&&&&&&&****+X++ XOO#OXX******X#ooo@*&&&&&&&&&&&&&&&&&&&&&&&&&&&&&&&&&&&&&&&&&&  oX*$***&**    *&&&&&&&&&&&&&&&&&&&&&&&&",
"&&&&&&&&&&&&&&&&****#+#+X $*****++  XX##@o@o&&&&&&&&&&&&&&&&&&&&&&&&&&&&&&&&&&&&&&&&&&* ooXXXX##   &****&&&&&&&&&&&&&&&&&&&&&&&&",
"&&&&&&&&&&&&&&&&&&&*X# XXX******X++XXXXOX@o@&&&&&&&&&&&&&&&&&&&&&&&&&&&&&&&&&&&&&&&&&&* XXXXXXXX o *&&&&&&&&&&&&&&&&&&&&&&&&&&&&",
"&&&&&&&&&&&&&&&&&&&&##oo X******++X##XXXX@o@&&&&&&&&&&&&&&&&&&&&&&&&&&&&&&&&&&&&&&&&&&* ooo XXXo o &&&&&&&&&&&&&&&&&&&&&&&&&&&&&",
"&&&&&&&&&&&&&&&&&&&&oooooo**&&&&oooooooo####****&&&&&&&&&&&&&&&&&&&&&&&&&&&&&&&&&&&&&&&ooooooooo  o&&&&&&&&&&&&&&&&&&&&&&&&&&&&&",
"&&&&&&&&&&&&&&&&&&&&oooooo**&&&&oooooooo####****&&&&&&&&&&&&&&&&&&&&&&&&&&&&&&&&&&&&&&&oooo&&&&o  o&&&&&&&&&&&&&&&&&&&&&&&&&&&&&",
"&&&&&&&&&&&&&&&&&&**oooooo**&&&&oooooooo####****&&&&&&&&&&&&&&&&&&&&&&&&&&&&&&&&&&&&&&&oooo&&&&o oo*&&&&&&&&&&&&&&&&&&&&&&&&&&&&",
"&&&&&&&&&&&&&&&&&&**oooooo**&&&&******oo####****&&&&&&&&&&&&&&&&&&&&&&&&&&&&&&&&&&&&&&&oooo&&&&o oo*&&&&&&&&&&&&&&&&&&&&&&&&&&&&",
"&&&&&&&&&&&&&&&&****####oo****&&**&&&&oooooo**&&&&&&&&&&&&&&&&&&&&&&&&&&&&&&&&&&&&&&&&&oooo&&&&oooo&&&&&&&&&&&&&&&&&&&&&&&&&&&&&",
"&&&&&&&&&&&&&&&&****####oo****&&**&&&&oooooo**&&&&&&&&&&&&&&&&&&&&&&&&&&&&&&&&&&&&&&&&&oooo&&&&&&&&oooo&&&&&&&&&&&&&&&&&&&&&&&&&",
"&&&&&&&&&&&&&&&&****##oo##********&&&&oooooo&&&&&&&&&&&&&&&&&&&&&&&&&&&&&&&&&&&&&&&&&&&oooo&&&&&&&&oooo&&&&&&&&&&&&&&&&&&&&&&&&&",
"&&&&&&&&&&&&&&&&****##oo##********&&&&oooooo&&&&&&&&&&&&&&&&&&&&&&&&&&&&&&&&&&&&&&&&&&&oooo&&&&&&&&oooo&&&&&&&&&&&&&&&&&&&&&&&&&",
"&&&&&&&&&&&&&&&&&&&&oooo  &&&&&&&&&***oooo##****&&&&&&&&&&&&&&&&&&&&&&&&&&&&&&&&&&&&&&&oooo&&&&&&&&oooo&&&&&&&&&&&&&&&&&&&&&&&&&",
"&&&&&&&&&&&&&&&&&&&&oooo  &&&&&&&&&***oooo##****&&&&&&&&&&&&&&&&&&&&&&&&&&&&&&&&&&&&&&&&&&&&&&&&&&&&&&&&&&&&&&&&&&&&&&&&&&&&&&&&",
"&&&&&&&&&&&&&&&&&&&&oooo  &&&&&&&&****oo####****&&&&&&&&&&&&&&&&&&&&&&&&&&&&&&&&&&&&&&&&&&&&&&&&&&&&&&&&&&&&&&&&&&&&&&&&&&&&&&&&",
"::&&&&&&&&&&&&&&&&&&oooooo&&&&&&&&****oo####****&&&&&&&&&&&&&&:::&&&&&&::::&&&&&&&&&&&&&&&&&&&&&&&&&&&&&&&&&&&&&&&&&&::::&&&&&::",
"::&&&&&&&&&&&&&&**&&oooooo**&&&&&&&&**oooooo**&&&&&&&&&&&&&&&&:::&&&&&&::::&&&&&&&&&&&&&&&&&&&&&&&&&&&&&&&&&&&&&&&&&&::::&&&&&::",
"::&&&&&&&&&&&&&&**&&ooooo **&&&&&&&&**oooooo**&&&&&&&&&&&&&&&&:::&&&&&&::::&&&&&&&&&&&&&&&&&&&&&&&&&&&&&&&&&&&&&&&&&&::::&&&&&::",
"::&&&&&&&&&&&&&&****ooooo **&&&&&&&&**oooooo&&&&&&&&&&&&&&&&&&:::&&&&&&::::&&&&&&&&&&&&&&&&&&&&&&&&&&&&&&&&&&&&&&&&&&::::&&&&&::",
"::&&&&&&&&&&&&&&************&&&&&&&&******&&&&&&&&&&&&&&&&&&&&:::&&&&&&::::&&&&&&&&&&&&&&&&&&&&&&&&&&&&&&&&&&&&&&&&&&::::&&&&&::",
"::&&&&&&&&&&&&&&&&&&&&&&&&&&&&&&&&&&&&&&&&&&&&&&&&&&&&&&&&&&&&:::&&&&&&::::&&&&&&&&&&&&&&&&&&&&&&&&&&&&&&&&&&&&&&&&&&::::&&&&&::",
"::&&&&&&&&&&&&&&&&&&&&&&&&&&&&&&&&&&&&&&&&&&&&&&&&&&&&&&&&&&&&:::&&&&&&::::&&&&&&&&&&&&&&&&&&&&&&&&&&&&&&&&&&&&&&&&&&::::&&&&&::",
"::&&&&&&&&&&&&&&&&&&&&&&&&&&&&&&&&&&&&&&&&&&&&&&&&&&&&&&&&&&&&:::&&&&&&::::&&&&&&&&&&&&&&&&&&&&&&&&&&&&&&&&&&&&&&&&&&::::&&&&&::",
"::&&&&&&&&&&&&&&&&&&&&&&&&&&&&&&&&&&&&&&&&&&&&&&&&&&&&&&&&&&&&:::&&&&&&::::&&&&&&&&&&&&&&&&&&&&&&&&&&&&&&&&&&&&&&&&&&::::&&&&&::",
"::&&&&&&&&&&&&&&&&&&&&&&&&&&&&&&&&&&&&&&&&&&&&&&&&&&&&&&&&&&&&:::&&&&&&::::&&&&&&&&&&&&&&&&&&&&&&&&&&&&&&&&&&&&&&&&&&::::&&&&&::",
"::&&&&&&&&&&&&&&&&&&&&&&&&&&&&&&&&&&&&&&&&&&&&&&&&&&&&&&&&&&&&:::&&&&&&::::::::::::&&&&&&&&&&&&&&&&&&&&&&&&::::::::::::::&&&&&::",
"::&&&&&&&&&&&&&&&&&&&&&&&&&&&&&&&&&&&&&&&&&&&&&&&&&&&&&&&&&&&&:::&&&&&&::::::::::::&&&&&&&&&&&&&&&&&&&&&&&&::::::::::::::&&&&&::",
"::&&&&&&&&&&&&&&&&&&&&&&&&&&&&&&&&&&&&&&&&&&&&&&&&&&&&&&&&&&&&:::&&&&&&::::::::::::&&&&&&&&&&&&&&&&&&&&&&&&::::::::::::::&&&&&::",
"::&&&&&&&&&&&&&&&&&&&&&&&&&&&&&&&&&&&&&&&&&&&&&&&&&&&&&&&&&&&&:::&&&&&&::::::::::::&&&&&&&&&&&&&&&&&&&&&&&&::::::::::::::&&&&&::",
"::&&&&&&&&&&&&&&&&&&&&&&&&&&&&&&&&&&&&&&&&&&&&&&&&&&&&&&&&&&&&:::&&&&&&&&&&&&&&&&&&&&&&&&&&&&&&&&&&&&&&&&&&&&&&&&&&&&&&&&&&&&&::",
"::&&&&&&&&&&&&&&&&&&&&&&&&&&&&&&&&&&&&&&&&&&&&&&&&&&&&&&&&&&&&:::&&&&&&&&&&&&&&&&&&&&&&&&&&&&&&&&&&&&&&&&&&&&&&&&&&&&&&&&&&&&&::",
"::&&&&&&&&&&&&&&&&&&&&&&&&&&&&&&&&&&&&&&&&&&&&&&&&&&&&&&&&&&&&:::&&&&&&&&&&&&&&&&&&&&&&&&&&&&&&&&&&&&&&&&&&&&&&&&&&&&&&&&&&&&&::",
"::&&&&&&&&&&&&&&&&&&&&&&&&&&&&&&&&&&&&&&&&&&&&&&&&&&&&&&&&&&&&:::&&&&&&&&&&&&&&&&&&&&&&&&&&&&&&&&&&&&&&&&&&&&&&&&&&&&&&&&&&&&&::",
"::&&&&&&&&&&&&&&&&&&&&&&&&&&&&&&&&&&&&&&&&&&&&&&&&&&&&&&&&&&&&:::&&&&&&&&&&&&&&&&&&&&&&&&&&&&&&&&&&&&&&&&&&&&&&&&&&&&&&&&&&&&&::",
":::::::::::::::::::&&&&&&&&&&&&&&&&&&&&&&&&::::::::::::::::::::::::::::::::::::::::&&&&&&&&&&&&&&&&&&&&&&&&:::::::::::::::::::::",
":::::::::::::::::::&&&&&&&&&&&&&&&&&&&&&&&&::::::::::::::::::::::::::::::::::::::::&&&&&&&&&&&&&&&&&&&&&&&&:::::::::::::::::::::",
":::::::::::::::::::&&&&&&&&&&&&&&&&&&&&&&&&::::::::::::::::::::::::::::::::::::::::&&&&&&&&&&&&&&&&&&&&&&&&:::::::::::::::::::::",
"::&&&&&&&&&&&&&&&&&&&&&&&&&&&&&&&&&&&&&&&&&&&&&&&&&&&&&&&&&&&&:::&&&&&&&&&&&&&&&&&&&&&&&&&&&&&&&&&&&&&&&&&&&&&&&&&&&&&&&&&&&&&::",
"::&&&&&&&&&&&&&&&&&&&&&&&&&&&&&&&&&&&&&&&&&&&&&&&&&&&&&&&&&&&&:::&&&&&&&&&&&&&&&&&&&&&&&&&&&&&&&&&&&&&&&&&&&&&&&&&&&&&&&&&&&&&::",
"::&&&&&&&&&&&&&&&&&&&&&&&&&&&&&&&&&&&&&&&&&&&&&&&&&&&&&&&&&&&&:::&&&&&&&&&&&&&&&&&&&&&&&&&&&&&&&&&&&&&&&&&&&&&&&&&&&&&&&&&&&&&::",
"::&&&&&&&&&&&&&&&&&&&&&&&&&&&&&&&&&&&&&&&&&&&&&&&&&&&&&&&&&&&&:::&&&&&&&&&&&&&&&&&&&&&&&&&&&&&&&&&&&&&&&&&&&&&&&&&&&&&&&&&&&&&::",
"::&&&&&&&&&&&&&&&&&&&&&&&&&&&&&&&&&&&&&&&&&&&&&&&&&&&&&&&&&&&&:::&&&&&&&&&&&&&&&&&&&&&&&&&&&&&&&&&&&&&&&&&&&&&&&&&&&&&&&&&&&&&::",
"::&&&&&&&&&&&&&&&&&&&&&&&&&&&&&&&&&&&&&&&&&&&&&&&&&&&&&&&&&&&&:::&&&&&&&&&&&&&&&&&&&&&&&&&&&&&&&&&&&&&&&&&&&&&&&&&&&&&&&&&&&&&::",
"::&&&&&&::::::&&&&&&&&&&&&&&&&&&&&&&&&&&&&&&&&&&&&::::::&&&&&&:::&&&&&&&&&&&&&&&&&&&&&&&&&&&&&&&&&&&&&&&&&&&&&&&&&&&&&&&&&&&&&::",
"::&&&&&&::::::&&&&&&&&&&&&&&&&&&&&&&&&&&&&&&&&&&&&::::::&&&&&&:::&&&&&&&&&&&&&&&&&&&&&&&&&&&&&&&&&&&&&&&&&&&&&&&&&&&&&&&&&&&&&::",
"::&&&&&&::::::&&&&&&&&&&&&&&&&&&&&&&&&&&&&&&&&&&&&::::::&&&&&&:::&&&&&&&&&&&&&&&&&&&&&&&&&&&&&&&&&&&&&&&&&&&&&&&&&&&&&&&&&&&&&::",
"::&&&&&&::::::&&&&&&&&&&&&&&&&&&&&&&&&&&&&&&&&&&&&::::::&&&&&&:::&&&&&&&&&&&&&&&&&&&&&&&&&&&&&&&&&&&&&&&&&&&&&&&&&&&&&&&&&&&&&::",
"::&&&&&&::::::&&&&&&&&&&&&&&&&&&&&&&&&&&&&&&&&&&&&::::::&&&&&&:::&&&&&&&&&&&&&&&&&&&&&&&&&&&&&&&&&&&&&&&&&&&&&&&&&&&&&&&&&&&&&::",
"::&&&&&&::::::&&&&&&&&&&&&&&&&&&&&&&&&&&&&&&&&&&&&::::::&&&&&&:::&&&&&&&&&&&&&&&&&&&&&&&&&&&&&&&&&&&&&&&&&&&&&&&&&&&&&&&&&&&&&::",
"::&&&&&&&&&&&&&&&&&&&&&&&&&&&&&&&&&&&&&&&&&&&&&&&&&&&&&&&&&&&&:::&&&&&&&&&&&&&&&&&&&&&&&&&&&&&&&&&&&&&&&&&&&&&&&&&&&&&&&&&&&&&::",
"::&&&&&&&&&&&&&&&&&&&&&&&&&&&&&&&&&&&&&&&&&&&&&&&&&&&&&&&&&&&&:::&&&&&&&&&&&&&&&&&&&&&&&&&&&&&&&&&&&&&&&&&&&&&&&&&&&&&&&&&&&&&::",
"::&&&&&&&&&&&&&&&&&&&&&&&&&&&&&&&&&&&&&&&&&&&&&&&&&&&&&&&&&&&&:::&&&&&&&&&&&&&&&&&&&&&&&&&&&&&&&&&&&&&&&&&&&&&&&&&&&&&&&&&&&&&::",
"::&&&&&&&&&&&&&&&&&&&&&&&&&&&&&&&&&&&&&&&&&&&&&&&&&&&&&&&&&&&&:::&&&&&&&&&&&&&&&&&&&&&&&&&&&&&&&*$$*****&&&&&&&&&&&&&&&&&&&&&&::",
"::&&&&&&&&&&&&&&&&&&&&&&&&&&&&&&&&&&&&&&&&&&&&&&&&&&&&&&&&&&&&:::&&&&&&&&&&&&&&&&&**&&&&&*&&&&&&*$$*****&&&*&&&&&&&&&&&&&&&&&&::",
"::&&&&&&&&&&&&&&&&&&&&&&&&&&&&&&&&&&&&&&&&&&&&&&&&&&&&&&&&&&&&:::&&&&&&&&&&&&&&&&&&oooooo*&&&&&&***** ++   *&&&&&&&&&&&&&&&&&&::",
"&&&&&&&&&&&&&&&&&&&&&&&&&&&&&&&&&&&&&&&&&&&&&&&&&&&&&&&&&&&&&&&&&&&&&&&&&&&&&&&&&&&oooooo&&&&&&&***$* ++o  &&&&&&&&&&&&&&&&&&&&&",
"&&&&&&&&&&&&&&&&&&&&&&&&&&&&&&&&&&&&&&&&&&&&&&&&&&&&&&&&&&&&&&&&&&&&&&&&&&&&&&&&***#ooooo**&*****&&&*  Oooo&&&&&&&&&&&&&&&&&&&&&",
"&&&&&&&&&&&&&&&&&&&&&&&&&&&&&&&&&&&&&&&&&&&&&&&&&&&&&&&&&&&&&&&&&&&&&&&&&&&&&&&&***oooooo*&&****&&&&*X++oo &&&&&&&&&&&&&&&&&&&&&",
"&&&&&&&&&&&&&&&&&&&&&&&&&&    &&&&&&&&&&&&&&&&&&&&&&&&&&&&&&&&&&&&&&&&&&&&&&&&&&***o##ooo*&*****&&&&* XXX  *&&&*&&&&&&&&&&&&&&&&",
"&&&&&&&&&&&&&&&&&&&&&&&&&&    &&&&&&&&&&&&&&&&&&&&&&&&&&&&&&&&&&&&&&&&&&&&&&&&&&***###ooo&&*****&&&&* XXX  &&&&*&&&&&&&&&&&&&&&&",
"&&&&&&&&&&&&&&&&&&&&&&&&**oo  &&&&&&&&&&&&&&&&&&&&&&&&&&&&&&&&&&&&&&&&&&&&&&&&&&***o###########*&&&&&   ooo*****&&&&&&&&&&&&&&&&",
"&&&&&&&&&&&&&&&&&&&&&&&&**oo  &&&&&&&&&&&&&&&&&&&&&&&&&&&&&&&&&&&&&&&&&&&&&&&&&&***o###########*&&&&& o ooo*****&&&&&&&&&&&&&&&&",
"&&&&&&&&&&&&&&&&&&&&&&&&**oooo&&&&&&&&&&&&&&&&&&&&&&&&&&&&&&&&&&&&&&&&&&&&&&&&&&***o###o####ooo*&&&&* ooooo*****&&&&&&&&&&&&&&&&",
"&&&&&&&&&&&&&&&&&&&&&&&&**oooo&&&&&&&&&&&&&&&&&&&&&&&&&&&&&&&&&&&&&&&&&&&&&&&&&&***o###o####ooo*&&&&* ooooo*****&&&&&&&&&&&&&&&&",
"&&&&&&&&&&&&&&&&&&&&&&&&&&  oo**&&&&&&&&&&&&&&&&&&&&&&&&&&&&&&&&&&&&&&&&&&&&&&&&***ooooo##ooooo******oooooo*&&&&&&&&&&&&&&&&&&&&",
"&&&&&&&&&&&&&&&&&&&&&&&&&&o oo**&&&&&&&&&&&&&&&&&&&&&&&&&&&&&&&&&&&&&&&&&&&&&&&&&&*ooooo##oo##o******oooooo*&&&&&&&&&&&&&&&&&&&&",
"&&&&&&&&&&&&&&&&&&&&&&&&** ooo&&&&&&&&&&&&&&&&&&&&&&&&&&&&&&&&&&&&&&&&&&&&&&&&&&&&&ooooo#******oXX##oo@@ooo&&&&&&&&&&&&&&&&&&&&&",
"&&&&&&&&&&&&&&&&&&&&&&&&**oooo&&&&&&&&&&&&&&&&&&&&&&&&&&&&&&&&&&&&&&&&&&&&&&&&&&&&&ooooo#******oXX#oooo@ooo&&&&&&&&&&&&&&&&&&&&&",
"&&&&&&&&&&&&&&&&&&&&&&&&&&oooo&&&&&&&&&&&&&&&&&&&&&&&&&&&&&&&&&&&&&&&&&&&&&&&&&&***#####o&&&&&*oXX######ooo******&&&&&&&&&&&&&&&",
"&&&&&&&&&&&&&&&&&&&&&&&&&&oooo&&&&&&&&&&&&&&&&&&&&&&&&&&&&&&&&&&&&&&&&&&&&&&&&&&***o####o&&&&**ooX######ooo******&&&&&&&&&&&&&&&",
"&&&&&&&&&&&&&&&&&&&&&&&&&&oooo&&&&&&&&&&&&&&&&&&&&&&&&&&&&&&&&&&&&&&&&&&&&&&&&&&***o####o*&&&&&o########ooo*****&&&&&&&&&&&&&&&&",
"&&&&&&&&&&&&&&&&&&&&&&&&&&oooo&&&&&&&&&&&&&&&&&&&&&&&&&&&&&&&&&&&&&&&&&&&&&&&&&&***###ooo*&&&&*o########ooo*****&&&&&&&&&&&&&&&&",
"&&&&&&&&&&&&&&&&&&&&&&&&&&oooo&&&&&&&&&&&&&&&&&&&&&&&&&&&&&&&&&&&&&&&&&&&&&&&&&&***oooooo***&&&&*****X##ooo*&&&&&&&&&&&&&&&&&&&&",
"&&&&&&&&&&&&&&&&&&&&&&&&&&oooo&&&&&&&&&&&&&&&&&&&&&&&&&&&&&&&&&&&&&&&&&&&&&&&&&&***oooooo*&&&&&&*****X##ooo*&&&&&&&&&&&&&&&&&&&&",
"&&&&&&&&&&&&&&&&&&&&&&&&&&oooooooooooooooo&&&&&&&&&&&&&&&&&&&&&&&&&&&&&&&&&&&&&&***oooooo&&&&&&&*****###ooo&&&&&&&&&&&&&&&&&&&&&",
"&&&&&&&&&&&&&&&&&&&&&&&&&&oooooooooooooooo&&&&&&&&&&&&&&&&&&&&&&&&&&&&&&&&&&&&&&***oooooo&&&&&&&*****###ooo&&&&&&&&&&&&&&&&&&&&&",
"&&&&&&&&&&&&&&&&&&&&&&&&&&oooooooooooooooo&&&&&&&&&&&&&&&&&&&&&&&&&&&&&&&&&&&&&&***oooooo**&&&&&*&&&*oooooo*&&&&&&&&&&&&&&&&&&&&",
"&&&&&&&&&&&&&&&&&&&&&&&&&&oooooooooooooooo&&&&&&&&&&&&&&&&&&&&&&&&&&&&&&&&&&&&&&&&*oooooo*&&&&&&*&&&*oooooo*&&&&&&&&&&&&&&&&&&&&",
"&&&&&&&&&&&&&&&&&&&&&&&&&&&&&&&&&&&&&&&&&&&&&&&&&&&&&&&&&&&&&&&&&&&&&&&&&&&&&&&&&&&oooooo*&&&&&&&&&&*oooooo*&&&&&&&&&&&&&&&&&&&&",
"::&&&&&&&&&&&&&&&&&&&&&&&&&&&&&&&&&&&&&&&&&&&&&&&&&&&&&&&&&&&&:::&&&&&&&&&&&&&&&&&&oooooo&&&&&&&&&&&*oo ooo*&&&&&&&&&&&&&&&&&&::",
"::&&&&&&&&&&&&&&&&&&&&&&&&&&&&&&&&&&&&&&&&&&&&&&&&&&&&&&&&&&&&:::&&&&&&&&&&&&&&&&&&&****&&&&&&&&&&&&&&&&****&&&&&&&&&&&&&&&&&&::",
"::&&&&&&&&&&&&&&&&&&&&&&&&&&&&&&&&&&&&&&&&&&&&&&&&&&&&&&&&&&&&:::&&&&&&&&&&&&&&&&&&&****&&&&&&&&&&&&&&&&****&&&&&&&&&&&&&&&&&&::",
"::&&&&&&&&&&&&&&&&&&&&&&&&&&&&&&&&&&&&&&&&&&&&&&&&&&&&&&&&&&&&:::&&&&&&&&&&&&&&&&&&&****&&&&&&&&&&&&&&&&****&&&&&&&&&&&&&&&&&&::",
"::&&&&&&&&&&&&&&&&&&&&&&&&&&&&&&&&&&&&&&&&&&&&&&&&&&&&&&&&&&&&:::&&&&&&&&&&&&&&&&&******&&&&&&&&&&&&&&&&****&&&&&&&&&&&&&&&&&&::",
"::&&&&&&&&&&&&&&&&&&&&&&&&&&&&&&&&&&&&&&&&&&&&&&&&&&&&&&&&&&&&:::&&&&&&&&&&&&&&&&&&&&&&&&&&&&&&&&&&&&&&&&&&&&&&&&&&&&&&&&&&&&&::",
"::&&&&&&&&&&&&&&&&&&&&&&&&&&&&&&&&&&&&&&&&&&&&&&&&&&&&&&&&&&&&:::&&&&&&&&&&&&&&&&&&&&&&&&&&&&&&&&&&&&&&&&&&&&&&&&&&&&&&&&&&&&&::",
"::&&&&&&&&&&&&&&&&&&&&&&&&&&&&&&&&&&&&&&&&&&&&&&&&&&&&&&&&&&&&:::&&&&&&&&&&&&&&&&&&&&&&&&&&&&&&&&&&&&&&&&&&&&&&&&&&&&&&&&&&&&&::",
"::&&&&&&&::::::&&&&&&&&&&&&&&&&&&&&&&&&&&&&&&&&&&&::::::&&&&&&:::&&&&&&&&&&&&&&&&&&&&&&&&&&&&&&&&&&&&&&&&&&&&&&&&&&&&&&&&&&&&&::",
"::&&&&&&&::::::&&&&&&&&&&&&&&&&&&&&&&&&&&&&&&&&&&&::::::&&&&&&:::&&&&&&&&&&&&&&&&&&&&&&&&&&&&&&&&&&&&&&&&&&&&&&&&&&&&&&&&&&&&&::",
"::&&&&&&&::::::&&&&&&&&&&&&&&&&&&&&&&&&&&&&&&&&&&&::::::&&&&&&:::&&&&&&&&&&&&&&&&&&&&&&&&&&&&&&&&&&&&&&&&&&&&&&&&&&&&&&&&&&&&&::",
"::&&&&&&&::::::&&&&&&&&&&&&&&&&&&&&&&&&&&&&&&&&&&&::::::&&&&&&:::&&&&&&&&&&&&&&&&&&&&&&&&&&&&&&&&&&&&&&&&&&&&&&&&&&&&&&&&&&&&&::",
"::&&&&&&&::::::&&&&&&&&&&&&&&&&&&&&&&&&&&&&&&&&&&&::::::&&&&&&:::&&&&&&&&&&&&&&&&&&&&&&&&&&&&&&&&&&&&&&&&&&&&&&&&&&&&&&&&&&&&&::",
"::&&&&&&&::::::&&&&&&&&&&&&&&&&&&&&&&&&&&&&&&&&&&&::::::&&&&&&:::&&&&&&&&&&&&&&&&&&&&&&&&&&&&&&&&&&&&&&&&&&&&&&&&&&&&&&&&&&&&&::",
"::&&&&&&&&&&&&&&&&&&&&&&&&&&&&&&&&&&&&&&&&&&&&&&&&&&&&&&&&&&&&:::&&&&&&&&&&&&&&&&&&&&&&&&&&&&&&&&&&&&&&&&&&&&&&&&&&&&&&&&&&&&&::",
"::&&&&&&&&&&&&&&&&&&&&&&&&&&&&&&&&&&&&&&&&&&&&&&&&&&&&&&&&&&&&:::&&&&&&&&&&&&&&&&&&&&&&&&&&&&&&&&&&&&&&&&&&&&&&&&&&&&&&&&&&&&&::",
"::&&&&&&&&&&&&&&&&&&&&&&&&&&&&&&&&&&&&&&&&&&&&&&&&&&&&&&&&&&&&:::&&&&&&&&&&&&&&&&&&&&&&&&&&&&&&&&&&&&&&&&&&&&&&&&&&&&&&&&&&&&&::",
"::&&&&&&&&&&&&&&&&&&&&&&&&&&&&&&&&&&&&&&&&&&&&&&&&&&&&&&&&&&&&:::&&&&&&&&&&&&&&&&&&&&&&&&&&&&&&&&&&&&&&&&&&&&&&&&&&&&&&&&&&&&&::",
"::&&&&&&&&&&&&&&&&&&&&&&&&&&&&&&&&&&&&&&&&&&&&&&&&&&&&&&&&&&&&:::&&&&&&&&&&&&&&&&&&&&&&&&&&&&&&&&&&&&&&&&&&&&&&&&&&&&&&&&&&&&&::",
":::::::::::::::::::&&&&&&&&&&&&&&&&&&&&&&&&::::::::::::::::::::::::::::::::::::::::&&&&&&&&&&&&&&&&&&&&&&&&:::::::::::::::::::::",
":::::::::::::::::::&&&&&&&&&&&&&&&&&&&&&&&&::::::::::::::::::::::::::::::::::::::::&&&&&&&&&&&&&&&&&&&&&&&&:::::::::::::::::::::"
};
