/* XPM */
static char *_735c9506cea461388a755bdbf36d1e045aKfRSJh6SenRf2[] = {
/* columns rows colors chars-per-pixel */
"128 128 15 1 ",
"  c #785448",
". c #795448",
"X c #785548",
"o c #795548",
"O c #785449",
"+ c #785549",
"@ c #795549",
"# c #FF5622",
"$ c #FF5722",
"% c #FF5723",
"& c #BCAEA8",
"* c #BCAFA8",
"= c #BDAFA8",
"- c #BDAEA9",
"; c #BCAFA9",
/* pixels */
"**************;;***#$$$$$$$$$$$$$$$$$$$$$$$****************************************##%$$$$$$$$$$$$$$$$$$$$$********&*********=**",
"******-*******==***#$$$$$$$$$$$$$$$$$$$$$$#**************=**************&**=*******#%%$$$$$$$$$$$$$$$$$$$$$*******&*****=*******",
"**######$$$$####%%##$$$$$$$$$$$$$$$$$$$$$$%%$$$$$###%%##$$%$$#***###$$%%###%%%##$$%%%$$$$$$$$$$$$$$$$$$$$$$$##%$%###$%#####%##**",
"**##%###$$$$####%%%#$$$$$$$$$$$$$$$$$$$$$$$$$$$$####%%##$$$$$#***###$$%%###%%###$%%%%$$$$$$$$$$$$$$$$$$$$$$$##%%%###%%%####%##**",
"**%%%%%%$$$$$$$$%%$$$$$$$$$$$$$$$$$$$$$$$$$$$$$$$$$$%%##%$$$##***#%%%%#%%%%#%%#####%$$$$$$$$$$$$$$$$$$$$%$$$####%%#%%%##%%%%##=;",
"**%%%%%%$$$$$$$$%%$$$$$$$$$$$$$$$$$$$$$$$$$$$$$$$$$$%%%#%%$$##***%%%#####%%##%%%$$##$$$$$$$$$$$$$$$$$$$$%%$$%###$$##$%##%%%%##**",
"**#%##%%$$$$$$$$%%$$$$$$$$$$$$$$$$$$$$$$$$$$$$$$$$$$$$%%%%####***%%%#%%*=*****=***=$$$$$$$$$$$$$$$$$$$$$%%#*==*&********=$%%##**",
"**###%%%$$$$$$$$%%$$$$$$$$$$$$$$$$$$$$$$$$$$$$$$$$$$$%%%%%####***%%%##%**********==$$$$$$$$$$$$$$$$$$$$$###*************=#%%%#**",
"*=##$$$$$$$$$$$$$$$$$$$$$$$$$$$$$$$$$$$$$$$$$$$$$$$$$$$$$$$$%%***$$$%%#************###$$$$$$$$$$$$$$$$$$$$$=****--*******%$$$$==",
"**##$$$$$$$$$$$$$$$$$$$$$$$$$$$$$$$$$$$$$$$$$$$$$$$$$$$$$$$$##***$$$%%#*******-****#%%$$$$$$$$$$$$$$$$$$$$#*****-***-****%$$$%**",
"**#%$$$$$$$$$$$$$$$$$$$$$$$$$$$$$$$$$$$$$$$$$$$$$$$$$$$$$$$$##&&*#$$%%#=***#####$$$$%$$$$$$$$$$$$$$$$$$$$$#%$$$$#####****%%$##**",
"**%%$$$$$$$$$$$$$$$$$$$$$$$$$$$$$$$$$$$$$$$$$$$$$$$$$$$$$$$$##**=%$$%%#****#%###$$$$$$$$$$$$$$$$$$$$$$$$$$$%$$$$#####****#%%%#**",
"**#%%%$$$$$$$$$$$$$$$$$$$$$$$$$$$$$$$$$$$$$$$$$$$$$$$$$$$$$$$$***##%%#%****%%%%%$$$$$$$$$$$$$$$$$$$$$$$$$$$$$$$$#%%%#***=$$$%$=*",
"**##%%$$$$$$$$$$$$$$$$$$$$$$$$$$$$$$$$$$$$$$$$$$$$$$$$$$$$$$$$***#%%%%%****#%%#%$$$$$$$$$$$$$$$$$$$$$$$$$$$$$$$$%%%%#***=$$$$$**",
"**##%%$$$$$$$$$$$$$$$$$$$$$$$$$$$$$$$$$$$$$$$$$$$$$$$$$$$$$$$$***$%$#%#****#%%##$$$$$$$$$$$$$$$$$$$$$$$$$$$$$$$$%%%##****#%%##**",
"**##%%$$$$$$$$$$$$$$$$$$$$$$$$$$$$$$$$$$$$$$$$$$$$$$$$$$$$$$$$***$$$###****%%###$$$$$$$$$$$$$$$$$$$$$$$$$$$$$$$$%####****%%%##**",
"**$$$$$$$$$$$$$$$$$$$$$$$%######%%%%%%%%%%%%$$$$$$$$$$$$$$$$%%*=*#$$$$$****$##$$$$$$$$$$%%%$$$$$$$$$$$$$$$$$$$$$%$$$#==**#$$$$=*",
"**$$$$$$$$$$$$$$$$$$$$$$%X..XXXXOOXXXOooOOX%$$$$$$$$$$$$$$$$$%*=*%$$$$$****$##$$$$$$$$$$%%%%$$$$$$$$$$$$$$$$$$$$%%$$#*=*=%$$$$**",
"**$$$$$$$$$$$$$$$$$$$$%%$XX.XXXXOOOOXOOoXXX%$$$$$$$$$$$$$$$$$$==*%$$##$***=$#%%$$$$$$$$$%%%%$$$$$$$$$$$$$$$$$$$$$$$$$****%$$##**",
"#$$$$$$$$$$$$$$$$$$$$%%#$XXX.X.XOOOOOOooXXX%$$$$$$$$$$$$$$$$$$$$#%$$####$$$$#%%$$$$$$$$$%%%#$$$$$$$$$$$$$$$$$$$$$$$$$$$$#%$$###$",
"###%$$$$$$$$$$$$$$$$$$###X...   XOXO..XXXXX%%%$$$$$$$$$$$$$$$$$$$$$$%$$$$$$$$$$$$$$$$$%$####$$$$$$$#$$$$$$$$$$$$$$$$$$$$$$$$%%$$",
"##%%$$$$$$$$$$$$$$%#$$#$#.XX.XOOXXOO..XXXXX%%%$$$$$$$$$$$$$$$$$$$$$$%%$$$$$$$$$$$$$$$$#X..XXXXXXXXX#$$$$$$$$$$$$$$$$$$$$$$$$%%$$",
"$$$$$$$$$$$$$$$$$$$$$$$$%OXXXOOOXXOX.XXXXOX%%$$$$$$$$$$$$$$$$$$$$$$$$$$$$$$$$$$$$$$$$$%X....XXXX.XX#$$$$$$$$$$$$$$$$$$$$$$$$$$$$",
"$$$$$$$$$$$$$$$$$$$XXX XO%%%%%%#%%%%##$$##%%$$$$$$$$$$$$$$$$$$$$$$$$$$$$$$$$$$$$$$$$$$$X...X..XXXXX#$$$$$$$$$$$$$$$$$$$$$$$$$$$$",
"$$$$$$$$$$$$$$$$%%%XXOXXX%%%%%$$%$$$$$$$$$$$$$$$$$$$$$$$$$$$$$$$$$$$$$$$$$$$$$$$$$$$#%%XXXX.XXXXXXX$###%$$$$$$$$$$$$$$$$$$$$$$$$",
"$$$$$$$$$$$$$$$$%%%XXOXXX%%%%%$$%%$$$$$$$$$$$$$$$$$$$$$$$$$$$$$$$$$$$$$$$$$$$$$$$$$$##$XXXX$$%%$##$XXXX%$$$$$$$$$$$$$$$$$$$$$$$$",
"$$$$$$$$$$$$$$$$%%%XXXXXX%%%$$$$%%%%$$$$$$$$$$$$$$$$$$$$$$$$$$$$$$$$$$$$$$$$$$$$$$$$##$.XXX$%%%%%$%XXXX%$$$$$$$$$$$$$$$$$$$$$$$$",
"$$$$$$$$$$$$$$$$%%%oOXXXO%%%$$$$%%%%$$$$$$$$$$$$$$$$$$$$$$$$$$$$$$$$$$$$$$$$$$$$$$$$#$$X...$%%%%%$$XXXX%$$$$$$$$$$$$$$$$$$$$$$$$",
"$$$$$$$$$$$$$$$$%$$XXXXXO#%#$$$$##%%$$$$$$$$$$$$$$$$$$$$$$$$$$$$$$$$$$$$$$$$$$$$$$$$$$$.X .##%%%###XXXX#$$$$$$$$$$$$$$$$$$$$$$$$",
"$$$$$$$$$$$$$$$$$$$$$%%%%XXOXXXX.XOXX$$$$$$$$$$$$$$$$$$$$$$$$$$$$$$$$$$$$$$$$$$$$$$$$$$.X OXOOOoXXX$#%#%$$$$$$$$$$$$$$$$$$$$$$$$",
"$$$$$$$$$$$$$$$$$$##%%%%%OXX.XXXXXXXX$$$$$$$$$$$$$$$$$$$$$$$$$$$$$$$$$$$$$$$$$$$$$$$$$$X....OoooXXX$$$%%$$$$$$$$$$$$$$$$$$$$$$$$",
"$$$$$$$$$$$$$$$$$$$%%%%%%O...XXXX..XX$$$$$$$$$$$$$$$$$$$$$$$$$$$$$$$$$$$$$$$$$$$$$$$$$$X....OOOoXXX$$$$%$$$$$$$$$$$$$$$$$$$$$$$$",
"$$$$$$$$$$$$$$$$$$$$$$$$$XXXXX@@@@@@X%%%%$$$$$$$$$$$$$$$$$$$$$$$$$$$$$$$$$$$$$$$$$$$$$$XXXXXXXXXXXX%%$$$$$$$$$$$$$$$$$$$$$$$$$$$",
"$$$$$$$$$$$$$$$$$$$$$$$$$XXXXX@@@@@@X%%%$$$$$$$$$$$$$$$$$$$$$$$$$$$$$$$$$$$$$$$$$$$$$$$XXXX$$$$X.XX%%%$$$$$$$$$$$$$$$$$$$$$$$$$$",
"$$$$$$$$$$$$$$$$$$$$$$$$%X@@XXXXXX@@X%%%$%%$$$$$$$$$$$$$$$$$$$$$$$$$$$$$$$$$$$$$$$$$$$$XXXX$$$$X...#$$$$$$$$$$$$$$$$$$$$$$$$$$$$",
"$$$$$$$$$$$$$$$$$$$$$$$$%%%%$%%$%%%%%XX@XXX%$$$$$$$$$$$$$$$$$$$$$$$$$$$$$$$$$$$$$$$$$$$XoXX$$$$X..X#$$$$$$$$$$$$$$$$$$$$$$$$$$$$",
"$$$$$$$$$$$$$$$$$$$$$$$$%%$$$$$$%%$$$X@@XXX$$$$$$$$$$$$$$$$$$$$$$$$$$$$$$$$$$$$$$$$$$$$Xooo$$$$XXXX$$$$$$$$$$$$$$$$$$$$$$$$$$$$$",
"$$$$$$$$$$$$$$$$$$$$$$$$$$$$$$$$%%$$%X@@XXX%$$$$$$$$$$$$$$$$$$$$$$$$$$$$$$$$$$$$$$$$$$$XooX$$$$$$$$XXXX$$$$$$$$$$$$$$$$$$$$$$$$$",
"$$$$$$$$$$$$$$$$$$$$$$%%$$$$$$$$$$$$%XXX@@X%$$$$$$$$$$$$$$$$$$$$$$$$$$$$$$$$$$$$$$$$$$$XXXX$$$$$$$$XXXX$$$$$$$$$$$$$$$$$$$$$$$$$",
"$$$$$$$$$$$$$$$$$$$$$$%%$$$$$$$$$$$$$XXX@@X$$$$$$$$$$$$$$$$$$$$$$$$$$$$$$$$$$$$$$$$$$$$XXXX$$$$$$$$XXXX$$$$$$$$$$$$$$$$$$$$$$$$$",
"$$$$$$$$$$$$$$$$$$$%$$%%%%%%%%%%%%%%%XXX@@X%$$$$$$$$$$$$$$$$$$$$$$$$$$$$$$$$$$$$$$$$$$$XXXX$$$$$$$$XXXX$$$$$$$$$$$$$$$$$$$$$$$$$",
"$$$$$$$$$$$$$$$$$$$XXX@@@@@@OOOoXXXXX%%$%%$$$$$$$$$$$$$$$$$$$$$$$$$$$$$$$$$$$$$$$$$$$$$$$$$$$$$$$$$$$$$$$$$$$$$$$$$$$$$$$$$$$$$$",
"$$$$$$$$$$$$$$$$$$%XXX@@X@@@OOooX@XXX%$$%%$$$$$$$$$$$$$$$$$$$$$$$$$$$$$$$$$$$$$$$$$$$$$$$$$$$$$$$$$$$$$$$$$$$$$$$$$$$$$$$$$$$$$$",
"==$$$$$$$$$$$$$$%%%XXX@@@@@@@Ooo@@XXX%$$%%$$$$$$$$$$$$$$$$$$$$===$$$$$$====$$$$$$$$$$$$$$$$$$$$$$$$$$$$$$$$$$$$$$$$$$====$$$$$==",
"==$$$$$$$$$$$$$$$$$X@@@@@@@@X..X@@@@X%%$$$$$$$$$$$$$$$$$$$$$$$===$$$$$$====$$$$$$$$$$$$$$$$$$$$$$$$$$$$$$$$$$$$$$$$$$====$$$$$==",
"==$$$$$$$$$$$$$$$$$X@@@X@@@@XXXX@@@@X$$$$$$$$$$$$$$$$$$$$$$$$$===$$$$$$====$$$$$$$$$$$$$$$$$$$$$$$$$$$$$$$$$$$$$$$$$$====$$$$$==",
"==$$$$$$$$$$$$$$%$%X@@XXXX@@XXXXXX@@X%$$$$$$$$$$$$$$$$$$$$$$$$===$$$$$$====$$$$$$$$$$$$$$$$$$$$$$$$$$$$$$$$$$$$$$$$$$====$$$$$==",
"==$$$$$$$$$$$$$$%%%%%%%%%%%%$%%$%%%%$$$$$$$$$$$$$$$$$$$$$$$$$$===$$$$$$====$$$$$$$$$$$$$$$$$$$$$$$$$$$$$$$$$$$$$$$$$$====$$$$$==",
"==$$$$$$$$$$$$$$$$$$$$$$$$$$$$$$%%$$$$$$$$$$$$$$$$$$$$$$$$$$$$===$$$$$$====$$$$$$$$$$$$$$$$$$$$$$$$$$$$$$$$$$$$$$$$$$====$$$$$==",
"==$$$$$$$$$$$$$$$$$$$$$$$$$$$$$$%%$$$$$$$$$$$$$$$$$$$$$$$$$$$$===$$$$$$====$$$$$$$$$$$$$$$$$$$$$$$$$$$$$$$$$$$$$$$$$$====$$$$$==",
"==$$$$$$$$$$$$$$$$$$$$$$$$$$$$$$$$$$$$$$$$$$$$$$$$$$$$$$$$$$$$===$$$$$$====$$$$$$$$$$$$$$$$$$$$$$$$$$$$$$$$$$$$$$$$$$====$$$$$==",
"==$$$$$$$$$$$$$$$$$$$$$$$$$$$$$$$$$$$$$$$$$$$$$$$$$$$$$$$$$$$$===$$$$$$====$$$$$$$$$$$$$$$$$$$$$$$$$$$$$$$$$$$$$$$$$$====$$$$$==",
"==$$$$$$$$$$$$$$$$$$$$$$$$$$$$$$$$$$$$$$$$$$$$$$$$$$$$$$$$$$$$===$$$$$$====$$$$$$$$$$$$$$$$$$$$$$$$$$$$$$$$$$$$$$$$$$====$$$$$==",
"==$$$$$$$$$$$$$$$$$$$$$$$$$$$$$$$$$$$$$$$$$$$$$$$$$$$$$$$$$$$$===$$$$$$============$$$$$$$$$$$$$$$$$$$$$$$$==============$$$$$==",
"==$$$$$$$$$$$$$$$$$$$$$$$$$$$$$$$$$$$$$$$$$$$$$$$$$$$$$$$$$$$$===$$$$$$============$$$$$$$$$$$$$$$$$$$$$$$$==============$$$$$==",
"==$$$$$$$$$$$$$$$$$$$$$$$$$$$$$$$$$$$$$$$$$$$$$$$$$$$$$$$$$$$$===$$$$$$============$$$$$$$$$$$$$$$$$$$$$$$$==============$$$$$==",
"==$$$$$$$$$$$$$$$$$$$$$$$$$$$$$$$$$$$$$$$$$$$$$$$$$$$$$$$$$$$$===$$$$$$============$$$$$$$$$$$$$$$$$$$$$$$$==============$$$$$==",
"==$$$$$$$$$$$$$$$$$$$$$$$$$$$$$$$$$$$$$$$$$$$$$$$$$$$$$$$$$$$$===$$$$$$$$$$$$$$$$$$$$$$$$$$$$$$$$$$$$$$$$$$$$$$$$$$$$$$$$$$$$$==",
"==$$$$$$$$$$$$$$$$$$$$$$$$$$$$$$$$$$$$$$$$$$$$$$$$$$$$$$$$$$$$===$$$$$$$$$$$$$$$$$$$$$$$$$$$$$$$$$$$$$$$$$$$$$$$$$$$$$$$$$$$$$==",
"==$$$$$$$$$$$$$$$$$$$$$$$$$$$$$$$$$$$$$$$$$$$$$$$$$$$$$$$$$$$$===$$$$$$$$$$$$$$$$$$$$$$$$$$$$$$$$$$$$$$$$$$$$$$$$$$$$$$$$$$$$$==",
"==$$$$$$$$$$$$$$$$$$$$$$$$$$$$$$$$$$$$$$$$$$$$$$$$$$$$$$$$$$$$===$$$$$$$$$$$$$$$$$$$$$$$$$$$$$$$$$$$$$$$$$$$$$$$$$$$$$$$$$$$$$==",
"==$$$$$$$$$$$$$$$$$$$$$$$$$$$$$$$$$$$$$$$$$$$$$$$$$$$$$$$$$$$$===$$$$$$$$$$$$$$$$$$$$$$$$$$$$$$$$$$$$$$$$$$$$$$$$$$$$$$$$$$$$$==",
"===================$$$$$$$$$$$$$$$$$$$$$$$$========================================$$$$$$$$$$$$$$$$$$$$$$$$=====================",
"===================$$$$$$$$$$$$$$$$$$$$$$$$========================================$$$$$$$$$$$$$$$$$$$$$$$$=====================",
"*******************$$$$$$$$$$$$$$$$$$$$$$$$========================================$$$$$$$$$$$$$$$$$$$$$$$$=====================",
"**$$$$$$$$$$$$$$$$$$$$$$$$$$$$$$$$$$$$$$$$$$$$$$$$$$$$$$$$$$$$===$$$$$$$$$$$$$$$$$$$$$$$$$$$$$$$$$$$$$$$$$$$$$$$$$$$$$$$$$$$$$==",
"==$$$$$$$$$$$$$$$$$$$$$$$$$$$$$$$$$$$$$$$$$$$$$$$$$$$$$$$$$$$$===$$$$$$$$$$$$$$$$$$$$$$$$$$$$$$$$$$$$$$$$$$$$$$$$$$$$$$$$$$$$$==",
"==$$$$$$$$$$$$$$$$$$$$$$$$$$$$$$$$$$$$$$$$$$$$$$$$$$$$$$$$$$$$===$$$$$$$$$$$$$$$$$$$$$$$$$$$$$$$$$$$$$$$$$$$$$$$$$$$$$$$$$$$$$==",
"==$$$$$$$$$$$$$$$$$$$$$$$$$$$$$$$$$$$$$$$$$$$$$$$$$$$$$$$$$$$$===$$$$$$$$$$$$$$$$$$$$$$$$$$$$$$$$$$$$$$$$$$$$$$$$$$$$$$$$$$$$$==",
"==$$$$$$$$$$$$$$$$$$$$$$$$$$$$$$$$$$$$$$$$$$$$$$$$$$$$$$$$$$$$===$$$$$$$$$$$$$$$$$$$$$$$$$$$$$$$$$$$$$$$$$$$$$$$$$$$$$$$$$$$$$==",
"**$$$$$$$$$$$$$$$$$$$$$$$$$$$$$$$$$$$$$$$$$$$$$$$$$$$$$$$$$$$$===$$$$$$$$$$$$$$$$$$$$$$$$$$$$$$$$$$$$$$$$$$$$$$$$$$$$$$$$$$$$$==",
"**$$$$$$******$$$$$$$$$$$$$$$$$$$$$$$$$$$$$$$$$$$$======$$$$$$===$$$$$$$$$$$$$$$$$$$$$$$$$$$$$$$$$$$$$$$$$$$$$$$$$$$$$$$$$$$$$==",
"*=$$$$$$======$$$$$$$$$$$$$$$$$$$$$$$$$$$$$$$$$$$$======$$$$$$===$$$$$$$$$$$$$$$$$$$$$$$$$$$$$$$$$$$$$$$$$$$$$$$$$$$$$$$$$$$$$==",
"==$$$$$$======$$$$$$$$$$$$$$$$$$$$$$$$$$$$$$$$$$$$======$$$$$$===$$$$$$$$$$$$$$$$$$$$$$$$$$$$$$$$$$$$$$$$$$$$$$$$$$$$$$$$$$$$$==",
"==$$$$$$==**==$$$$$$$$$$$$$$$$$$$$$$$$$$$$$$$$$$$$======$$$$$$===$$$$$$$$$$$$$$$$$$$$$$$$$$$$$$$$$$$$$$$$$$$$$$$$$$$$$$$$$$$$$==",
"==$$$$$$==**==$$$$$$$$$$$$$$$$$$$$$$$$$$$$$$$$$$$$======$$$$$$===$$$$$$$$$$$$$$$$$$$$$$$$$$$$$$$$$$$$$$$$$$$$$$$$$$$$$$$$$$$$$==",
"**$$$$$$******$$$$$$$$$$$$$$$$$$$$$$$$$$$$$$$$$$$$======$$$$$$===$$$$$$$$$$$$$$$$$$$$$$$$$$$$$$$$$$$$$$$$$$$$$$$$$$$$$$$$$$$$$==",
"**$$$$$$$$$$$$$$$$$$$$$$$$$$$$$$$$$$$$$$$$$$$$$$$$$$$$$$$$$$$$===$$$$$$$$$$$$$$$$$$$$$$$$$$$$$$$$$$$$$$$$$$$$$$$$$$$$$$$$$$$$$==",
"*=$$$$$$$$$$$$$$$$$$$$$$$$$$$$$$$$$$$$$$$$$$$$$$$$$$$$$$$$$$$$===$$$$$$$$$$$$$$$$$$$$$$$$$$$$$%%$$$$$$$$$$$$$$$$$$$$$$$$$$$$$$==",
"==$$$$$$$$$$$$$$$$$$$$$$$$$$$$$$$$$$$$$$$$$$$$$$$$$$$$$$$$$$$$===$$$$$$$$$$$$$$$$$$$$$$$$$$$%%%%$$$$$$$$$$$$$$$$$$$$$$$$$$$$$$==",
"==$$$$$$$$$$$$$$$$$$$$$$$$$$$$$$$$$$$$$$$$$$$$$$$$$$$$$$$$$$$$===$$$$$$$$$$$$$$$$$$$$$$$%XX@@@@@++XX@@@@XXX$$$$$$$$$$$$$$$$$$$==",
"==$$$$$$$$$$$$$$$$$$$$$$$$$$$$$$$$$$$$$$$$$$$$$$$$$$$$$$$$$$$$===$$$$$$$$$$$$$$$$$$$$$$$%X@@@@@@+XXX@@@@XXX%$$$$$$$$$$$$$$$$$$==",
"**$$$$$$$$$$$$$$$$$$$$$$$$$$$$$$$$$$$$$$$$$$$$$$$$$$$$$$$$$$$$===$$$$$$$$$$$$$$$$$$$$$$$%X@@@@@@++XX@@@@@@X%$$$$$$$$$$$$$$$$$$==",
"$$$$$$$$$$$$$$$$$$$$$$$$$$$$$$$$$$$$$$$$$$$$$$$$$$$$$$$$$$$$$$$$$$$$$$$$$$$$$$$$$$$$$$$$%@@X@@@@++@@@@@@@@X$$$$$$$$$$$$$$$$$$$$$",
"$$$$$$$$$$$$$$$$$$$$$$$$$$$$$$$$$$$$$$$$$$$$$$$$$$$$$$$$$$$$$$$$$$$$$$$$$$$$$$$$$$%%$$$$%XXX@XXX++++XXX@@@@%$$$$$$$$$$$$$$$$$$$$",
"$$$$$$$$$$$$$$$$$$$$$$$$$$$$$$$$$$$$$$$$$$$$$$$$$$$$$$$$$$$$$$$$$$$$$$$$$$$$$$$$$%%%$$$$%XXX@XXX++++XXX@@@X%$$$$$$$$$$$$$$$$$$$$",
"$$$$$$$$$$$$$$$$$$$$$$$$$$XXX.$$$$$$$$$$$$$$$$$$$$$$$$$$$$$$$$$$$$$$$$$$$$$$$$$$$$%XOXXXX%$%%%$$%%%%$$$$$$%%$$$$$$$$$$$$$$$$$$$$",
"$$$$$$$$$$$$$$$$$$$$$$$$$$XXXX$$$$$$$$$$$$$$$$$$$$$$$$$$$$$$$$$$$$$$$$$$$$$$$$$$$$%OOXXXX$$%%%$$%%%%$$$$$%%%$$$$$$$$$$$$$$$$$$$$",
"$$$$$$$$$$$$$$$$$$$$$$$$%$ooXX$$$$$$$$$$$$$$$$$$$$$$$$$$$$$$$$$$$$$$$$$$$$$$$$$$$$$XXXX++%%%$$$$%%$$$$$$$$$$$$$$$$$$$$$$$$$$$$$$",
"$$$$$$$$$$$$$$$$$$$$$$$$%$ooXX$$$$$$$$$$$$$$$$$$$$$$$$$$$$$$$$$$$$$$$$$$$$$$$$$$$$%XXXXX+%%%$$$$%%$$$$$$$$$$$$$$$$$$$$$$$$$$$$$$",
"$$$$$$$$$$$$$$$$$$$$$$$$%%ooXX$$$$$$$$$$$$$$$$$$$$$$$$$$$$$$$$$$$$$$$$$$$$$$$$$$$$%XO@XXX%%%$$%%%$$$$$$$$$$$$$$$$$$$$$$$$$$$$$$$",
"$$$$$$$$$$$$$$$$$$$$$$$$%%XXXX$$$$$$$$$$$$$$$$$$$$$$$$$$$$$$$$$$$$$$$$$$$$$$$$$$$%%XXXXXX%%%%%%%$$$$$$$$$$$$$$$$$$$$$$$$$$$$$$$$",
"$$$$$$$$$$$$$$$$$$$$$$$$%$XXXX%%$$$$$$$$$$$$$$$$$$$$$$$$$$$$$$$$$$$$$$$$$$$$$$$$$$$$$$$$%X@@@@@@@@@@X%$$$$$$$$$$$$$$$$$$$$$$$$$$",
"$$$$$$$$$$$$$$$$$$$$$$$$%$XXXX%%$$$$$$$$$$$$$$$$$$$$$$$$$$$$$$$$$$$$$$$$$$$$$$$$$$$$$$$$%X@@@@@@@@@@X%$$$$$$$$$$$$$$$$$$$$$$$$$$",
"$$$$$$$$$$$$$$$$$$$$$$$$%#XXXX$$$$$$$$$$$$$$$$$$$$$$$$$$$$$$$$$$$$$$$$$$$$$$$$$$$$$$$$$$%XX@@@@@@@XXX$$$$$$$$$$$$$$$$$$$$$$$$$$$",
"$$$$$$$$$$$$$$$$$$$$$$%%%#.XXX$$$$$$$$$$$$$$$$$$$$$$$$$$$$$$$$$$$$$$$$$$$$$$$$$$$$$$$$$$%XXX@@@@@@XXX$$$$$$$$$$$$$$$$$$$$$$$$$$$",
"$$$$$$$$$$$$$$$$$$$$$$$$$$...X$$$$$$$$$$$$$$$$$$$$$$$$$$$$$$$$$$$$$$$$$$$$$$$$$$$$$$$$$$%XXX@XXX@@XXX%%%%%%$$$$$$$$$$$$$$$$$$$$$",
"$$$$$$$$$$$$$$$$$$$$$$$$$$.XXX$$$$$$$$$$$$$$$$$$$$$$$$$$$$$$$$$$$$$$$$$$$$$$$$$$$$$$$$$$%XXX@XXX@@XXX%%%%%%$$$$$$$$$$$$$$$$$$$$$",
"$$$$$$$$$$$$$$$$$$$$$$$$$$.XXX$$$$$$$$$$$$$$$$$$$$$$$$$$$$$$$$$$$$$$$$$$$$$$$$$$$$$$$$$$%%$$%%$$%%%$%XXX@@X%$$$$$$$$$$$$$$$$$$$$",
"$$$$$$$$$$$$$$$$$$$$$$$$$$XXXX$$$$$$$$$$$$$$$$$$$$$$$$$$$$$$$$$$$$$$$$$$$$$$$$$$$$$$$$$$%%%%%%$$%%%$%XXXXXX%$$$$$$$$$$$$$$$$$$$$",
"$$$$$$$$$$$$$$$$$$$$$$$$$$ooXX$$$$$$$$$$$$$$$$$$$$$$$$$$$$$$$$$$$$$$$$$$$$$$$$$$$$$$$$$$$$$$$$$$$$$$%XXX@@@%$$$$$$$$$$$$$$$$$$$$",
"$$$$$$$$$$$$$$$$$$$$$$$$$$ooXX$$$$$$$$$$$$$$$$$$$$$$$$$$$$$$$$$$$$$$$$$$$$$$$$$$$$$$$$$$$$$$$$$$$$$$%X@@@@@%$$$$$$$$$$$$$$$$$$$$",
"$$$$$$$$$$$$$$$$$$$$$$$$$$ooXXXXooXXXXXXXX$$$$$$$$$$$$$$$$$$$$$$$$$$$$$$$$$$$$$$$$$$$$$$$$$$$$%%$$%%%@@@XXX$$$$$$$$$$$$$$$$$$$$$",
"$$$$$$$$$$$$$$$$$$$$$$$$$$XXXXXXXXXXXXXXXX$$$$$$$$$$$$$$$$$$$$$$$$$$$$$$$$$$$$$$$$$$$$$$$$$$%%%%$$%%%@@@XXX$$$$$$$$$$$$$$$$$$$$$",
"$$$$$$$$$$$$$$$$$$$$$$$$$$XXXXXXXXXXXXXXXX$$$$$$$$$$$$$$$$$$$$$$$$$$$$$$$$$$$$$$$$%XXX@@@@@@@@@@XXXXX%%$$$$$$$$$$$$$$$$$$$$$$$$$",
"$$$$$$$$$$$$$$$$$$$$$$$$$$XXXXooXXXXooXXXX$$$$$$$$$$$$$$$$$$$$$$$$$$$$$$$$$$$$$$$$%XXX@@@@@@@@@@XX@@X%$$$$$$$$$$$$$$$$$$$$$$$$$$",
"$$$$$$$$$$$$$$$$$$$$$$$$$$$$$$$$$$$$$$$$$$$$$$$$$$$$$$$$$$$$$$$$$$$$$$$$$$$$$$$$$$$X@@@@@@@@@@@@@@@@X%$$$$$$$$$$$$$$$$$$$$$$$$$$",
"**$$$$$$$$$$$$$$$$$$$$$$$$$$$$$$$$$$$$$$$$$$$$$$$$$$$$$$$$$$$$===$$$$$$$$$$$$$$$$$$X@@@@@@@@@@@@@@@@X$$$$$$$$$$$$$$$$$$$$$$$$$==",
"**$$$$$$$$$$$$$$$$$$$$$$$$$$$$$$$$$$$$$$$$$$$$$$$$$$$$$$$$$$$$===$$$$$$$$$$$$$$$$$%X@@@@XXX@@XXX@@XXX%$$$$$$$$$$$$$$$$$$$$$$$$==",
"**$$$$$$$$$$$$$$$$$$$$$$$$$$$$$$$$$$$$$$$$$$$$$$$$$$$$$$$$$$$$===$$$$$$$$$$$$$$$$$%X@@@@XXX@@XXX@@XXX%$$$$$$$$$$$$$$$$$$$$$$$$==",
"==$$$$$$$$$$$$$$$$$$$$$$$$$$$$$$$$$$$$$$$$$$$$$$$$$$$$$$$$$$$$===$$$$$$$$$$$$$$$$$$$$%%%$$$%%%$$%%%$%%$$$$$$$$$$$$$$$$$$$$$$$$==",
"==$$$$$$$$$$$$$$$$$$$$$$$$$$$$$$$$$$$$$$$$$$$$$$$$$$$$$$$$$$$$===$$$$$$$$$$$$$$$$$$$$%%%$$$%%%$$%%%$%%$$$$$$$$$$$$$$$$$$$$$$$$==",
"**$$$$$$$$$$$$$$$$$$$$$$$$$$$$$$$$$$$$$$$$$$$$$$$$$$$$$$$$$$$$===$$$$$$$$$$$$$$$$$$$$$$$$$$$$$$$$$$$$$$$$$$$$$$$$$$$$$$$$$$$$$==",
"**$$$$$$$$$$$$$$$$$$$$$$$$$$$$$$$$$$$$$$$$$$$$$$$$$$$$$$$$$$$$===$$$$$$$$$$$$$$$$$$$$$$$$$$$$$$$$$$$$$$$$$$$$$$$$$$$$$$$$$$$$$==",
"*=$$$$$$$$$$$$$$$$$$$$$$$$$$$$$$$$$$$$$$$$$$$$$$$$$$$$$$$$$$$$===$$$$$$$$$$$$$$$$$$$$$$$$$$$$$$$$$$$$$$$$$$$$$$$$$$$$$$$$$$$$$==",
"==$$$$$$$******$$$$$$$$$$$$$$$$$$$$$$$$$$$$$$$$$$$======$$$$$$===$$$$$$$$$$$$$$$$$$$$$$$$$$$$$$$$$$$$$$$$$$$$$$$$$$$$$$$$$$$$$==",
"==$$$$$$$***===$$$$$$$$$$$$$$$$$$$$$$$$$$$$$$$$$$$======$$$$$$===$$$$$$$$$$$$$$$$$$$$$$$$$$$$$$$$$$$$$$$$$$$$$$$$$$$$$$$$$$$$$==",
"==$$$$$$$*=*===$$$$$$$$$$$$$$$$$$$$$$$$$$$$$$$$$$$======$$$$$$===$$$$$$$$$$$$$$$$$$$$$$$$$$$$$$$$$$$$$$$$$$$$$$$$$$$$$$$$$$$$$==",
"**$$$$$$$===*=*$$$$$$$$$$$$$$$$$$$$$$$$$$$$$$$$$$$======$$$$$$===$$$$$$$$$$$$$$$$$$$$$$$$$$$$$$$$$$$$$$$$$$$$$$$$$$$$$$$$$$$$$==",
"**$$$$$$$===***$$$$$$$$$$$$$$$$$$$$$$$$$$$$$$$$$$$======$$$$$$===$$$$$$$$$$$$$$$$$$$$$$$$$$$$$$$$$$$$$$$$$$$$$$$$$$$$$$$$$$$$$==",
"*=$$$$$$$******$$$$$$$$$$$$$$$$$$$$$$$$$$$$$$$$$$$======$$$$$$===$$$$$$$$$$$$$$$$$$$$$$$$$$$$$$$$$$$$$$$$$$$$$$$$$$$$$$$$$$$$$==",
"==$$$$$$$$$$$$$$$$$$$$$$$$$$$$$$$$$$$$$$$$$$$$$$$$$$$$$$$$$$$$===$$$$$$$$$$$$$$$$$$$$$$$$$$$$$$$$$$$$$$$$$$$$$$$$$$$$$$$$$$$$$==",
"==$$$$$$$$$$$$$$$$$$$$$$$$$$$$$$$$$$$$$$$$$$$$$$$$$$$$$$$$$$$$===$$$$$$$$$$$$$$$$$$$$$$$$$$$$$$$$$$$$$$$$$$$$$$$$$$$$$$$$$$$$$==",
"==$$$$$$$$$$$$$$$$$$$$$$$$$$$$$$$$$$$$$$$$$$$$$$$$$$$$$$$$$$$$===$$$$$$$$$$$$$$$$$$$$$$$$$$$$$$$$$$$$$$$$$$$$$$$$$$$$$$$$$$$$$==",
"**$$$$$$$$$$$$$$$$$$$$$$$$$$$$$$$$$$$$$$$$$$$$$$$$$$$$$$$$$$$$===$$$$$$$$$$$$$$$$$$$$$$$$$$$$$$$$$$$$$$$$$$$$$$$$$$$$$$$$$$$$$==",
"**$$$$$$$$$$$$$$$$$$$$$$$$$$$$$$$$$$$$$$$$$$$$$$$$$$$$$$$$$$$$===$$$$$$$$$$$$$$$$$$$$$$$$$$$$$$$$$$$$$$$$$$$$$$$$$$$$$$$$$$$$$==",
"*=====**====**==***$$$$$$$$$$$$$$$$$$$$$$$$========================================$$$$$$$$$$$$$$$$$$$$$$$$=====================",
"=====***===***==***$$$$$$$$$$$$$$$$$$$$$$$$========================================$$$$$$$$$$$$$$$$$$$$$$$$====================="
};
