/* XPM */
static char *e00196a079424021cf4fe32148a9a785cW3zvLkyO1FW7Xv1[] = {
/* columns rows colors chars-per-pixel */
"128 128 15 1 ",
"  c #785448",
". c #795448",
"X c #785548",
"o c #795548",
"O c #785549",
"+ c #795549",
"@ c #FF5622",
"# c #FE5722",
"$ c #FF5723",
"% c #BCAFA8",
"& c #BDAFA8",
"* c #BCAEA9",
"= c #BDAEA9",
"- c #BCAFA9",
"; c #BDAFA9",
/* pixels */
"%%%%%%%=---&&%--%%%$#######################%%%%%%%--%%%%---%%%%%%%%%--%%%%-&&%%%--&@@######################--&&&%%%%-&&%%%%%%%%%",
"%%%%%%==----%%--%%%@######################@%&-%%%%**%%%%-*%%%%%*%%%%--%%%*--&%%%--&@######################$-&&--%%%%--&%%%%%%%%%",
"%%@@$@@@$#@@@@@@@@$$#######################@##@@$@@@@@@@#@$#@@*%%@@@#$$#@@#$$$@@###@######################@#@@##@@$@@@#@@@@$@$%%",
"%%@@$$@@####@@@##@@@############################$@@@#@@@####@@%%%$$$####@@#$@$$@############################@###$@@@#$#@@@$$@$=%",
"**##@#######################################################$$%%%$@@###$@@@@@###############################@@@@@@####@@####@$**",
"%*##@#######################################################@$%%%$@@##@@#@@@@$@@@@#######################@#@@@$@@@@###@@#@##@$%*",
"%%$#######################################################@@@$%%%$$@###---%%%----%-#####################@@@%--%%*%%--&%%-@@#$@%%",
"%*#########################################################@@@%%%$$$###*--%%%--**--@####################@@@%%-%%--**-&%%-#@@$@%%",
"*%@@########################################################@@-%-$#####--%%%%%%%-%%@@@#####################-&&%%=%%%=%=%-@####%%",
"%*@@########################################################@@%%-@#####-%%%%%%%%**%@######################@---%%=%%%%=%=-#####%%",
"%%@@########################################################@@%%&@####@-%%%$@$$@#@@@######################@####$@@$$$%%%-###@@%%",
"%*@@########################################################@@%%%@####@%=%%$@@$$################################@@@@@%%%&@##@@%%",
"%%$@@@#######################################################$%%%@@$##@%---@@###################################$$$$$%%%-#####--",
"%%$$##########################################################%%%@#$###%---@####################################$$@@@%%%-####@--",
"%%@@##########################################################-%-@####@%--*@########################################@%%%%@##$$%%",
"%%@@#########################################################$-&-@###@@&&-*@########################################@%%%%@@@$@%%",
"--@###########################################################%%&@#####-%%%@@@#######################################-%%%@####--",
"%-###########################################################@%&-#####@-%-%@########################################@-%%-@####&-",
"%%############################################################&&-@#####----################@########################@***%#####%%",
"@@#############################################################@########@@@################$########################@@@#@@#####@",
"@#$#####################################################################################$$$$@@@@##@#############################",
"@#####################################################################################@+X+ X+++ +++#############################",
"#######################################################################################+X   XXX+  +@############################",
"######################################################################################@+X++X++XXoo+@############################",
"#######################################################################################++o  +++X ++@#@@#########################",
"#######################################################################################++++@#@@@@@@+oo+#########################",
"######################################################################################@oo  @##@@###+o o@########################",
"#######################################################################################+ ++@###@###+o++#########################",
"######################################################################################@oo  @@@@@###+oo+@########################",
"######################################################################################@+ +o++++ +X+@#@##########################",
"#######################################################################################+o++ ++  + +@############################",
"#######################################################################################+++o ++ +  +@############################",
"#######################################################################################ooooooooo+oo#############################",
"#######################################################################################oooo####oooo#############################",
"#######################################################################################oooo####oooo@############################",
"#######################################################################################oooo####oooo#############################",
"#######################################################################################oooo####oooo#############################",
"#######################################################################################oooo########oooo#########################",
"#######################################################################################oooo########oooo#########################",
"#######################################################################################oooo########oooo#########################",
"#######################################################################################oooo########oooo#########################",
"################################################################################################################################",
"################################################################################################################################",
"--############################################################&&&######&&&&##########################################&&&&#####&&",
"-&############################################################&&&######&&&&##########################################&&&&#####&&",
"--############################################################&&&######&&&&##########################################&&&&#####&&",
"&&############################################################&&&######&&&&##########################################&&&&#####&&",
"&&############################################################&&&######&&&&##########################################&&&&#####&&",
"&&############################################################&&&######&&&&##########################################&&&&#####&&",
"&&############################################################&&&######&&&&##########################################&&&&#####&&",
"&&############################################################&&&######&&&&##########################################&&&&#####&&",
"&&############################################################&&&######&&&&##########################################&&&&#####&&",
"&&############################################################&&&######&&&&##########################################&&&&#####&&",
"&&############################################################&&&######&&&&&&&&&&&&########################&&&&&&&&&&&&&&#####&&",
"&&############################################################&&&######&&&&&&&&&&&&########################&&&&&&&&&&&&&&#####&&",
"&&############################################################&&&######&&&&&&&&&&&&########################&&&&&&&&&&&&&&#####&&",
"&&############################################################&&&######&&&&&&&&&&&&########################&&&&&&&&&&&&&&#####&&",
"&&############################################################&&&#############################################################&&",
"&&############################################################&&&#############################################################&&",
"&&############################################################&&&#############################################################&&",
"&&############################################################&&&#############################################################&&",
"&&############################################################&&&#############################################################&&",
"&&&&&&&&&&&&&&&&&&&########################&&&&&&&&&&&&&&&&&&&&&&&&&&&&&&&&&&&&&&&&########################&&&&&&&&&&&&&&&&&&&&&",
"&&&&&&&&&&&&&&&&&&&########################&&&&&&&&&&&&&&&&&&&&&&&&&&&&&&&&&&&&&&&&########################&&&&&&&&&&&&&&&&&&&&&",
"&&&&&&&&&&&&&&&&&&&########################&&&&&&&&&&&&&&&&&&&&&&&&&&&&&&&&&&&&&&&&########################&&&&&&&&&&&&&&&&&&&&&",
"&&############################################################&&&#############################################################&&",
"&&############################################################&&&#############################################################&&",
"&&############################################################&&&#############################################################&&",
"&&############################################################&&&#############################################################&&",
"&&############################################################&&&#############################################################&&",
"&&############################################################&&&#############################################################&&",
"&&######&&&&&&####################################&&&&&&######&&&#############################################################&&",
"&&######&&&&&&####################################&&&&&&######&&&#############################################################&&",
"&&######&&&&&&####################################&&&&&&######&&&#############################################################&&",
"&&######&&&&&&####################################&&&&&&######&&&#############################################################&&",
"&&######&&&&&&####################################&&&&&&######&&&#############################################################&&",
"&&######&&&&&&####################################&&&&&&######&&&#############################################################&&",
"&&############################################################&&&#############################################################&&",
"&&############################################################&&&#############################################################&&",
"&&############################################################&&&#############################################################&&",
"&&############################################################&&&#############################################################&&",
"&&############################################################&&&#############################################################&&",
"&&############################################################&&&#############################################################&&",
"################################################################################################################################",
"################################################################################################################################",
"##########################@@####################################################################################################",
"##########################o o @#################################################################################################",
"##########################o o @#################################################################################################",
"########################@@oooo##################################################################################################",
"########################@@   o##################################################################################################",
"##########################++++##################################################################################################",
"##########################++++##################################################################################################",
"##########################++++##################################################################################################",
"##########################++++##################################################################################################",
"##########################oooo##################################################################################################",
"##########################oooo##################################################################################################",
"##########################oooo##################################################################################################",
"##########################oooo##################################################################################################",
"##########################oooo##################################################################################################",
"##########################oooo##################################################################################################",
"##########################oooo##################################################################################################",
"##########################oooo##################################################################################################",
"##########################oooooooooooooooo######################################################################################",
"##########################oooooooooooooooo######################################################################################",
"##########################oooooooooooooooo######################################################################################",
"##########################oooooooooooooooo######################################################################################",
"################################################################################################################################",
"&&############################################################&&&#############################################################&&",
"&&############################################################&&&#############################################################&&",
"&&############################################################&&&#############################################################&&",
"&&############################################################&&&#############################################################&&",
"&&############################################################&&&#############################################################&&",
"&&############################################################&&&#############################################################&&",
"&&############################################################&&&#############################################################&&",
"&&############################################################&&&#############################################################&&",
"&&#######&&&&&&###################################&&&&&&######&&&#############################################################&&",
"&&#######&&&&&&###################################&&&&&&######&&&#############################################################&&",
"&&#######&&&&&&###################################&&&&&&######&&&#############################################################&&",
"&&#######&&&&&&###################################&&&&&&######&&&#############################################################&&",
"&&#######&&&&&&###################################&&&&&&######&&&#############################################################&&",
"&&#######&&&&&&###################################&&&&&&######&&&#############################################################&&",
"&&############################################################&&&#############################################################&&",
"&&############################################################&&&#############################################################&&",
"&&############################################################&&&#############################################################&&",
"&&############################################################&&&#############################################################&&",
"&&############################################################&&&#############################################################&&",
"&&&&&&&&&&&&&&&&&&&########################&&&&&&&&&&&&&&&&&&&&&&&&&&&&&&&&&&&&&&&&########################&&&&&&&&&&&&&&&&&&&&&",
"&&&&&&&&&&&&&&&&&&&########################&&&&&&&&&&&&&&&&&&&&&&&&&&&&&&&&&&&&&&&&########################&&&&&&&&&&&&&&&&&&&&&"
};
