/* XPM */
static char *_af180ad6f434ee0b7fdcc2658cee70549QUJXT7l1jeCSr6[] = {
/* columns rows colors chars-per-pixel */
"128 128 15 1 ",
"  c #785448",
". c #795448",
"X c #785548",
"o c #795548",
"O c #795449",
"+ c #785549",
"@ c #795549",
"# c #FF5622",
"$ c #FE5722",
"% c #FF5723",
"& c #BCAFA8",
"* c #BDAFA8",
"= c #BCAEA9",
"- c #BCAFA9",
"; c #BDAFA9",
/* pixels */
"**==***=&&&****===*%$$$$$$$$$$$$$$$$$$$$$$$&&&&***&&&**=-&=&&&*=***=&&&******==*&&*%%%$$$$$$$$$$$$$$$$$$$$$-&&&&&**=-&&&&&&*****",
"**======&&******===#$$$$$$$$$$$$$$$$$$$$$$#&&&&&**&&**=*-=&&****=*=*&&&&****=**=&&*%%%$$$$$$$$$$$$$$$$$$$$$-**&=**=*-=&&&&&&****",
"**%##$##$##$%%%#$$##$$$$$$$$$$$$$$$$$$$$$$$$$$#$%##$##%%%$$#%#**=#%%$#$#%%%##%%%$$$####$$$$$$$$$$$$$$$$$$$$$%%%#$#%%$#$#$##$%%**",
"**%#$$$#$$$$%%%#$$$#$$$$$$$$$$$$$$$$$$$$$$$$$$$$%%#####%$$$$%%**=##%$$$$%%###%##$$$$##$$$$$$$$$$$$$$$$$$$$$$%%##$###$$$####$%%==",
"&&$$$$$$$$$$$$$$$$$$$$$$$$$$$$$$$$$$$$$$$$$$$$$$$$$$#$$$$$$$#%**=$$$$$$$$$$$#$$$%###$$$$$$$$$$$$$$$$$$$$$$$$##%%$$$%#$%#$$$$#$=-",
"&-$$$$$$$$$$$$$$$$$$$$$$$$$$$$$$$$$$$$$$$$$$$$$$$$$$$$$$$$$$#%**&$$$$$##$$$#$#%#%%##$$$$$$$$$$$$$$$$$$$$$#$###%%$$$#$$%%$$$$#$&-",
"&&#$$$$$$$$$$$$$$$$$$$$$$$$$$$$$$$$$$$$$$$$$$$$$$$$$$$$$$$####**&##$$$$&&&&&&===&*&#$$$$$$$$$$$$$$$$$$$$##%*=***=&&*&**=&$#$$$&&",
"**#$$$$$$$$$$$$$$$$$$$$$$$$$$$$$$$$$$$$$$$$$$$$$$$$$$$$$$$####&&*%$$$$$&&&-==&&=&&&$$$$$$$$$$$$$$$$$$$$$##%*****=-&*&&**&$##%#*&",
"*=%#$$$$$$$$$$$$$$$$$$$$$$$$$$$$$$$$$$$$$$$$$$$$$$$$$$$$$$$$#$-&-#$$%%$=&&***=**&&*##$$$$$$$$$$$$$$$$$$$$$$-&***=*====*=&$$$$#--",
"**##$$$$$$$$$$$$$$$$$$$$$$$$$$$$$$$$$$$$$$$$$$$$$$$$$$$$$$$$##&&&$$$#%%=********&&&#$$$$$$$$$$$$$$$$$$$$$$$-&&***=**=*==;$$#$$&&",
"--#$$$$$$$$$$$$$$$$$$$$$$$$$$$$$$$$$$$$$$$$$$$$$$$$$$$$$$$$$##*=&$$$$$$****%##%%$$$$$$$$$$$$$$$$$$$$$$$$$$$#$$$$#####*==&%%###&&",
"&-$$$$$$$$$$$$$$$$$$$$$$$$$$$$$$$$$$$$$$$$$$$$$$$$$$$$$$$$$$##***$$$$$$&***%###%$$$$$$$$$$$$$$$$$$$$$$$$$$##$$$$#####==*&%%###**",
"&=$$$$$$$$$$$$$$$$$$$$$$$$$$$$$$$$$$$$$$$$$$$$$$$$$$$$$$$$$$$$***%##$$$&&&-##%%#$$$$$$$$$$$$$$$$$$$$$$$$$$$$$$$$#$$$#***&#$$#$-&",
"==$$$$$$$$$$$$$$$$$$$$$$$$$$$$$$$$$$$$$$$$$$$$$$$$$$$$$$$$$$$%&=*%##$#$&*&-###$#$$$$$$$$$$$$$$$$$$$$$$$$$$$$$$$$#$$$%**=&$$$$#&&",
"&&##$$$$$$$$$$$$$$$$$$$$$$$$$$$$$$$$$$$$$$$$$$$$$$$$$$$$$$$$$$=&-$#$##%***=#$$$$$$$$$$$$$$$$$$$$$$$$$$$$$$$$$$$$$$$$%***&$#$%%&&",
"&&$#$$$$$$$$$$$$$$$$$$$$$$$$$$$$$$$$$$$$$$$$$$$$$$$$$$$$$$$$$#--&$$$#%%*=*=$$$$$$$$$$$$$$$$$$$$$$$$$$$$$$$$$$$$$$$$$%*=**####%*&",
"&&$$$$$$$$$$$$$$$#$$###$$$$$$$$$$$$$$$$$$$$$###$$$$$$$$$$$$$$$&&&$$$$$$&&&&$#$$$$$$$$$$$$$$$$$$$$$$$$$$$$$$$$$$$$$$$$&&&&#$$$$&&",
"&&$$$$$$$$$$$$$$$++++++$$$$$$$$$$$$$$$$$$++++.+#$$$$$$$$$$$$$$&&&$$#$$$&&&*#$$$$$$$$$$$$$$$$$$$$$$$$$$$$$$$$$$$$$$$$$-&&&$$$$$&&",
";;$$$$$$$$$$$$$$#O+++++$$$$$$$$$$$$$$$$$$.++++.$$$$$$$$$$$$$$$&&&%##%%$&---$$$$$$$$$$$$$$$$$$$$$$$$$$$$$$$$$$$$$$$$$$-&-&##$#%&*",
"$$$$$$$$$$$$$$$$#O+++++$$$$$$$$$$$$$$$$$$++++.+$$$$$$$$$$$$$$$$$$%##%$$$#$##$$$$$$$$$$$$$$$#$$$$$$$$$$$$$$$$$$$$$$$$$##$##$$$%%%",
"$###$$$$$$$$$$$$#+OO  +$$$$$$$$$$$$$$$$$#++..++#$$$$$$$$$$$$$$$$$$$$%###$$$$$$$$$$$$$$$#$$$$#$$$$##$$$$$$$$$$$$$$$$$$$$$$$$$$$$$",
"%%##$$$$$$$$$$$$#++++ +$$$$$$$$$$$$$$$$$#+.+..+#$$$$$$$$$$$$$$$$$$$$%#$$$$$$$$$$$$$$$$$++X++.++@+++$$$$$$$$$$$$$$$$$$$$$$$$$$$$$",
"$$#$$$$$$$$$$$$$#+++ +.$$$$$$$$$$$$$$$$$#++.++.$$$$$$$$$$$$$$$$$$$$$$$$$$$$$$$$$$$$$$$#+.Xo...+.+.+#$$$$$$$$$$$$$$$$$$$$$$$$$$$$",
"$$$$$$$$$$$$$$$$#+++  .#$$$$$$$$$$$$$$$$#++++++$$$$$$$$$$$$$$$$$$$$$$$$$$$$$$$$$$$$$$$#+.++.+....++#$$$$$$$$$$$$$$$$$$$$$$$$$$$$",
"$$$$$$$$$$$$$$$$#++++++#$$$$$$$$$$$$$$$$$++++++$$$$$$$$$$$$$$$$$$$$$$$$$$$$$$$$$$$$$$$$+.@..+.+..++##$#$$$$$$$$$$$$$$$$$$$$$$$$$",
"$$$$$$$$$$$$$$$$#+ ++++#$$$$$$$$$$$$$$$$#.+.+++$$$$$$$$$$$$$$$$$$$$$$$$$$$$$$$$$$$$$$$#..@.$$$$$$$#+...#$$$$$$$$$$$$$$$$$$$$$$$$",
"$$$$$$$$$$$$$$$$#++++O+#$$$$$$$$$$$$$$$$$++.+++#$$$$$$$$$$$$$$$$$$$$$$$$$$$$$$$$$$$$$$$.o.@$$$$$$$#+XX.$$$$$$$$$$$$$$$$$$$$$$$$$",
"$$$$$$$$$$$$$$$$#+  +++#$$$$$$$$$$$$$$$$$+....+$$$$$$$$$$$$$$$$$$$$$$$$$$$$$$$$$$$$$$$#+o+.$$$$$$$$++.+$$$$$$$$$$$$$$$$$$$$$$$$$",
"$$$$$$$$$$$$$$$$#+++OO+#$$$$$$$$#$$$$$$$$++++++#$$$$$$$$$$$$$$$$$$$$$$$$$$$$$$$$$$$$$$$+ooX$#$$$$$#+..+$$$$$$$$$$$$$$$$$$$$$$$$$",
"$$$$$$$$$$$$$$$$#+++O++#$$$$$++++++$$$$$$++++++#$$$$$$$$$$$$$$$$$$$$$$$$$$$$$$$$$$$$$$#+ooXX+++.++.$$$$$$$$$$$$$$$$$$$$$$$$$$$$$",
"$$$$$$$$$$$$$$$$#++++++$$$$$#++++++$$$$$#+..++@$$$$$$$$$$$$$$$$$$$$$$$$$$$$$$$$$$$$$$$#+.++.+.....+$$$$$$$$$$$$$$$$$$$$$$$$$$$$$",
"$$$$$$$$$$$$$$##$.+++++#$$###++++++$$$$$$...+@@$$$$$$$$$$$$$$$$$$$$$$$$$$$$$$$$$$$$$$$#++...+.++.++$$$$$$$$$$$$$$$$$$$$$$$$$$$$$",
"$$$$$$$$$$$$$$$$$@@@@@@$$$$$$@@@@@@$$$$$$@@@@@@$$$$$$$$$$$$$$$$$$$$$$$$$$$$$$$$$$$$$$$$ooooooooo.o.$$$$$$$$$$$$$$$$$$$$$$$$$$$$$",
"$$$$$$$$$$$$$$$$$@@@@@@$$$$$$@@@@@@$$$$$$@@@@@@$$$$$$$$$$$$$$$$$$$$$$$$$$$$$$$$$$$$$$$$oooo$$$$ooo.$$$$$$$$$$$$$$$$$$$$$$$$$$$$$",
"$$$$$$$$$$$$$$$$$@@@@@@$$$$$$@@@@@@$$$$$$@@@@@@$$$$$$$$$$$$$$$$$$$$$$$$$$$$$$$$$$$$$$$$oooo$$$$oooo$$$$$$$$$$$$$$$$$$$$$$$$$$$$$",
"$$$$$$$$$$$$$$$$$@@@@@@@@@@@@$$$$$$@@@@@@@@@@@@$$$$$$$$$$$$$$$$$$$$$$$$$$$$$$$$$$$$$$$$oooo$$$$oooo$$$$$$$$$$$$$$$$$$$$$$$$$$$$$",
"$$$$$$$$$$$$$$$$$@@@@@@@@@@@@$$$$$$@@@@@@@@@@@@$$$$$$$$$$$$$$$$$$$$$$$$$$$$$$$$$$$$$$$$oooo$$$$oooo$$$$$$$$$$$$$$$$$$$$$$$$$$$$$",
"$$$$$$$$$$$$$$$$$@@@@@@@@@@@@$$$$$$@@@@@@@@@@@@$$$$$$$$$$$$$$$$$$$$$$$$$$$$$$$$$$$$$$$$oooo$$$$$$$$oooo$$$$$$$$$$$$$$$$$$$$$$$$$",
"$$$$$$$$$$$$$$$$$@@@@@@@@@@@@$$$$$$@@@@@@@@@@@@$$$$$$$$$$$$$$$$$$$$$$$$$$$$$$$$$$$$$$$$oooo$$$$$$$$oooo$$$$$$$$$$$$$$$$$$$$$$$$$",
"$$$$$$$$$$$$$$$$$@@@@@@@@@@@@$$$$$$@@@@@@@@@@@@$$$$$$$$$$$$$$$$$$$$$$$$$$$$$$$$$$$$$$$$oooo$$$$$$$$oooo$$$$$$$$$$$$$$$$$$$$$$$$$",
"$$$$$$$$$$$$$$$$$@@@@@@@+++++$$$$$$@@@@@@@@@@@@$$$$$$$$$$$$$$$$$$$$$$$$$$$$$$$$$$$$$$$$oooo$$$$$$$$oooo$$$$$$$$$$$$$$$$$$$$$$$$$",
"$$$$$$$$$$$$$$$$$@@@@@@$$$$$$$$$$$$$$$$$$@@@@@@$$$$$$$$$$$$$$$$$$$$$$$$$$$$$$$$$$$$$$$$$$$$$$$$$$$$$$$$$$$$$$$$$$$$$$$$$$$$$$$$$",
"$$$$$$$$$$$$$$$$$@@.@@@$$$$$$$$$$$$$$$$$$@@@@@@$$$$$$$$$$$$$$$$$$$$$$$$$$$$$$$$$$$$$$$$$$$$$$$$$$$$$$$$$$$$$$$$$$$$$$$$$$$$$$$$$",
"--$$$$$$$$$$$$$$$@@.@@@$$$$$$$$$$$$$$$$$$@@@@@@$$$$$$$$$$$$$$$**&$$$$$$&&&&$$$$$$$$$$$$$$$$$$$$$$$$$$$$$$$$$$$$$$$$$$&**&$$$$$&&",
"-&$$$$$$$$$$$$$$$++...+$$$$$$$$$$$$$$$$$$@@@@@@$$$$$$$$$$$$$$$&*&$$$$$$&***$$$$$$$$$$$$$$$$$$$$$$$$$$$$$$$$$$$$$$$$$$&&*&$$$$$&&",
"&&$$$$$$$$$$$$$$$++..++$$$$$$$$$$$$$$$$$$@@@@@@$$$$$$$$$$$$$$$&&&$$$$$$&***$$$$$$$$$$$$$$$$$$$$$$$$$$$$$$$$$$$$$$$$$$&&*&$$$$$*&",
"&&$$$$$$$$$$$$$$$+++.++$$$$$$$$$$$$$$$$$$@@@@@@$$$$$$$$$$$$$$$**&$$$$$$&**&$$$$$$$$$$$$$$$$$$$$$$$$$$$$$$$$$$$$$$$$$$&*&&$$$$$**",
"&&$$$$$$$$$$$$$$$$$$$$$$$$$$$$$$$$$$$$$$$$$$$$$$$$$$$$$$$$$$$$**&$$$$$$&*&&$$$$$$$$$$$$$$$$$$$$$$$$$$$$$$$$$$$$$$$$$$**&&$$$$$**",
";;$$$$$$$$$$$$$$$$$$$$$$$$$$$$$$$$$$$$$$$$$$$$$$$$$$$$$$$$$$$$**&$$$$$$&&*&$$$$$$$$$$$$$$$$$$$$$$$$$$$$$$$$$$$$$$$$$$&&**$$$$$&&",
"*;$$$$$$$$$$$$$$$$$$$$$$$$$$$$$$$$$$$$$$$$$$$$$$$$$$$$$$$$$$$$**&$$$$$$&**&$$$$$$$$$$$$$$$$$$$$$$$$$$$$$$$$$$$$$$$$$$&&*&$$$$$*&",
"**$$$$$$$$$$$$$$$$$$$$$$$$$$$$$$$$$$$$$$$$$$$$$$$$$$$$$$$$$$$$&*&$$$$$$&***$$$$$$$$$$$$$$$$$$$$$$$$$$$$$$$$$$$$$$$$$$&**&$$$$$**",
"**$$$$$$$$$$$$$$$$$$$$$$$$$$$$$$$$$$$$$$$$$$$$$$$$$$$$$$$$$$$$&&&$$$$$$&***$$$$$$$$$$$$$$$$$$$$$$$$$$$$$$$$$$$$$$$$$$***&$$$$$**",
"&&$$$$$$$$$$$$$$$$$$$$$$$$$$$$$$$$$$$$$$$$$$$$$$$$$$$$$$$$$$$$**&$$$$$$&**&$$$$$$$$$$$$$$$$$$$$$$$$$$$$$$$$$$$$$$$$$$&**&$$$$$&&",
"*&$$$$$$$$$$$$$$$$$$$$$$$$$$$$$$$$$$$$$$$$$$$$$$$$$$$$$$$$$$$$**&$$$$$$&**&*&&&&**&$$$$$$$$$$$$$$$$$$$$$$$$&**&&&&**&&**&$$$$$*&",
"**$$$$$$$$$$$$$$$$$$$$$$$$$$$$$$$$$$$$$$$$$$$$$$$$$$$$$$$$$$$$**&$$$$$$&******&***&$$$$$$$$$$$$$$$$$$$$$$$$&****&*******&$$$$$**",
"**$$$$$$$$$$$$$$$$$$$$$$$$$$$$$$$$$$$$$$$$$$$$$$$$$$$$$$$$$$$$**&$$$$$$&*********&&$$$$$$$$$$$$$$$$$$$$$$$$&***&********&$$$$$**",
"**$$$$$$$$$$$$$$$$$$$$$$$$$$$$$$$$$$$$$$$$$$$$$$$$$$$$$$$$$$$$&*&$$$$$$&**&&&&&&&&&$$$$$$$$$$$$$$$$$$$$$$$$&&&&&&&&&&&&&&$$$$$&&",
"**$$$$$$$$$$$$$$$$$$$$$$$$$$$$$$$$$$$$$$$$$$$$$$$$$$$$$$$$$$$$&&&$$$$$$$$$$$$$$$$$$$$$$$$$$$$$$$$$$$$$$$$$$$$$$$$$$$$$$$$$$$$$*&",
"&&$$$$$$$$$$$$$$$$$$$$$$$$$$$$$$$$$$$$$$$$$$$$$$$$$$$$$$$$$$$$**&$$$$$$$$$$$$$$$$$$$$$$$$$$$$$$$$$$$$$$$$$$$$$$$$$$$$$$$$$$$$$**",
"*&$$$$$$$$$$$$$$$$$$$$$$$$$$$$$$$$$$$$$$$$$$$$$$$$$$$$$$$$$$$$**&$$$$$$$$$$$$$$$$$$$$$$$$$$$$$$$$$$$$$$$$$$$$$$$$$$$$$$$$$$$$$**",
"**$$$$$$$$$$$$$$$$$$$$$$$$$$$$$$$$$$$$$$$$$$$$$$$$$$$$$$$$$$$$**&$$$$$$$$$$$$$$$$$$$$$$$$$$$$$$$$$$$$$$$$$$$$$$$$$$$$$$$$$$$$$&&",
"**$$$$$$$$$$$$$$$$$$$$$$$$$$$$$$$$$$$$$$$$$$$$$$$$$$$$$$$$$$$$**&$$$$$$$$$$$$$$$$$$$$$$$$$$$$$$$$$$$$$$$$$$$$$$$$$$$$$$$$$$$$$*&",
"****&***&***&***&**$$$$$$$$$$$$$$$$$$$$$$$$&&&;&&;;;&;**&***&*****&&****&&****&&**&$$$$$$$$$$$$$$$$$$$$$$$$*&&****&&****&&******",
"****&&**&&**&&**&&*$$$$$$$$$$$$$$$$$$$$$$$$&&&;&&&;;&&**&&**&&*****&*****&*****&*&&$$$$$$$$$$$$$$$$$$$$$$$$**&*****&*****&******",
"*&&&&&&&&&&&&&&&&&&$$$$$$$$$$$$$$$$$$$$$$$$&&&&&&&&&&&&&&&&&&&***&&*&&&&&&&&&&&&&&&$$$$$$$$$$$$$$$$$$$$$$$$&&&&&&&&&&&&&&&&&&&&&",
"*&$$$$$$$$$$$$$$$$$$$$$$$$$$$$$$$$$$$$$$$$$$$$$$$$$$$$$$$$$$$$***$$$$$$$$$$$$$$$$$$$$$$$$$$$$$$$$$$$$$$$$$$$$$$$$$$$$$$$$$$$$$&&",
"**$$$$$$$$$$$$$$$$$$$$$$$$$$$$$$$$$$$$$$$$$$$$$$$$$$$$$$$$$$$$**&$$$$$$$$$$$$$$$$$$$$$$$$$$$$$$$$$$$$$$$$$$$$$$$$$$$$$$$$$$$$$&&",
"**$$$$$$$$$$$$$$$$$$$$$$$$$$$$$$$$$$$$$$$$$$$$$$$$$$$$$$$$$$$$**&$$$$$$$$$$$$$$$$$$$$$$$$$$$$$$$$$$$$$$$$$$$$$$$$$$$$$$$$$$$$$;&",
"**$$$$$$$$$$$$$$$$$$$$$$$$$$$$$$$$$$$$$$$$$$$$$$$$$$$$$$$$$$$$&*&$$$$$$$$$$$$$$$$$$$$$$$$$$$$$$$$$$$$$$$$$$$$$$$$$$$$$$$$$$$$$&&",
"**$$$$$$$$$$$$$$$$$$$$$$$$$$$$$$$$$$$$$$$$$$$$$$$$$$$$$$$$$$$$&&&$$$$$$$$$$$$$$$$$$$$$$$$$$$$$$$$$$$$$$$$$$$$$$$$$$$$$$$$$$$$$;&",
"&&$$$$$$$$$$$$$$$$$$$$$$$$$$$$$$$$$$$$$$$$$$$$$$$$$$$$$$$$$$$$**&$$$$$$$$$$$$$$$$$$$$$$$$$$$$$$$$$$$$$$$$$$$$$$$$$$$$$$$$$$$$$;;",
"*&$$$$$$&&&&&&$$$$$$$$$$$$$$$$$$$$$$$$$$$$$$$$$$$$&&&&&&$$$$$$**&$$$$$$$$$$$$$$$$$$$$$$$$$$$$$$$$$$$$$$$$$$$$$$$$$$$$$$$$$$$$$**",
"**$$$$$$******$$$$$$$$$$$$$$$$$$$$$$$$$$$$$$$$$$$$******$$$$$$**&$$$$$$$$$$$$$$$$$$$$$$$$$$$$$$$$$$$$$$$$$$$$$$$$$$$$$$$$$$$$$&&",
"**$$$$$$******$$$$$$$$$$$$$$$$$$$$$$$$$$$$$$$$$$$$******$$$$$$**&$$$$$$$$$$$$$$$$$$$$$$$$$$$$$$$$$$$$$$$$$$$$$$$$$$$$$$$$$$$$$*&",
"**$$$$$$***&**$$$$$$$$$$$$$$$$$$$$$$$$$$$$$$$$$$$$&*****$$$$$$&*&$$$$$$$$$$$$$$$$$$$$$$$$$$$$$$$$$$$$$$$$$$$$$$$$$$$$$$$$$$$$$**",
"**$$$$$$***&**$$$$$$$$$$$$$$$$$$$$$$$$$$$$$$$$$$$$&&****$$$$$$&&&$$$$$$$$$$$$$$$$$$$$$$$$$$$$$$$$$$$$$$$$$$$$$$$$$$$$$$$$$$$$$**",
"&&$$$$$$&&&&&&$$$$$$$$$$$$$$$$$$$$$$$$$$$$$$$$$$$$&&*&&&$$$$$$**&$$$$$$$$$$$$$$$$$$$$$$$$$$$$$$$$$$$$$$$$$$$$$$$$$$$$$$$$$$$$$&&",
"*&$$$$$$$$$$$$$$$$$$$$$$$$$$$$$$$$$$$$$$$$$$$$$$$$$$$$$$$$$$$$**&$$$$$$$$$$$$$$$$$$$$$$$$$$$$$$$$$$$$$$$$$$$$$$$$$$$$$$$$$$$$$*&",
"**$$$$$$$$$$$$$$$$$$$$$$$$$$$$$$$$$$$$$$$$$$$$$$$$$$$$$$$$$$$$**&$$$$$$$$$$$$$$$$$$$$$$$$$$$$$$$$$$$$$$$$$$$$$$$$$$$$$$$$$$$$$**",
"**$$$$$$$$$$$$$$$$$$$$$$$$$$$$$$$$$$$$$$$$$$$$$$$$$$$$$$$$$$$$**&$$$$$$$$$$$$$$$$$$$$$$$$$$$$$$$$$$$$$$$$$$$$$$$$$$$$$$$$$$$$$**",
"**$$$$$$$$$$$$$$$$$$$$$$$$$$$$$$$$$$$$$$$$$$$$$$$$$$$$$$$$$$$$&*&$$$$$$$$$$$$$$$$$$$$$$$$$$$$$$$$$$$$$$$$$$$$$$$$$$$$$$$$$$$$$&&",
"**$$$$$$$$$$$$$$$$$$$$$$$$$$$$$$$$$$$$$$$$$$$$$$$$$$$$$$$$$$$$&&&$$$$$$$$$$$$$$$$@@.@@@$$$$$$$$$$$$$$$$$$@@@@@@$$$$$$$$$$$$$$$*&",
"&&$$$$$$$$$$$$$$$$$$$$$$$$$$$$$$$$$$$$$$$$$$$$$$$$$$$$$$$$$$$$&&&$$$$$$$$$$$$$$$$@+.@@@$$$$$$$$$$$$$$$$$$@@@@@@$$$$$$$$$$$$$$$**",
"$$$$$$$$$$$$$$$$$$$$$$$$$$$$$$$$$$$$$$$$$$$$$$$$$$$$$$$$$$$$$$$$$$$$$$$$$$$$$$$$$@..@@@$$$$$$$$$$$$$$$$$$@@@@@@$$$$$$$$$$$$$$$$$",
"$$$$$$$$$$$$$$$$$$$$$$$$$$$$$$$$$$$$$$$$$$$$$$$$$$$$$$$$$$$$$$$$$$$$$$$$$$$$$$$$$@@@@@@$$$$$$$$$$$$$$$$$$@@@@@@$$$$$$$$$$$$$$$$$",
"$$$$$$$$$$$$$$$$$$$$$$$$$$$$$$$$$$$$$$$$$$$$$$$$$$$$$$$$$$$$$$$$$$$$$$$$$$$$$$$$$@@@@@@$$$$$$$$$$$$$$$$$$@@@@@@$$$$$$$$$$$$$$$$$",
"$$$$$$$$$$$$$$$$$$$$$$$$$$ooo.$$$$$$$$$$$$$$$$$$$$$$$$$$$$$$$$$$$$$$$$$$$$$$$$$$$@@@@@@$$$$$$$$$$$$$$$$$$@@@@@@$$$$$$$$$$$$$$$$$",
"$$$$$$$$$$$$$$$$$$$$$$$$$$ooo.$$$$$$$$$$$$$$$$$$$$$$$$$$$$$$$$$$$$$$$$$$$$$$$$$$$@@@@@@$$$$$$$$$$$$$$$$$$@@@@@@$$$$$$$$$$$$$$$$$",
"$$$$$$$$$$$$$$$$$$$$$$$$$$..oo$$$$$$$$$$$$$$$$$$$$$$$$$$$$$$$$$$$$$$$$$$$$$$$$$$$@@@@@@$$$$$$$$$$$$$$$$$$@@@@@@$$$$$$$$$$$$$$$$$",
"$$$$$$$$$$$$$$$$$$$$$$$$$$..oo$$$$$$$$$$$$$$$$$$$$$$$$$$$$$$$$$$$$$$$$$$$$$$$$$$$@@@@@@$$$$$$$$$$$$$$$$$$@@@@@@$$$$$$$$$$$$$$$$$",
"$$$$$$$$$$$$$$$$$$$$$$$$$$.@@@$$$$$$$$$$$$$$$$$$$$$$$$$$$$$$$$$$$$$$$$$$$$$$$$$$$@@@@@@$$$$$$$$$$$$$$$$$$@@@@@@$$$$$$$$$$$$$$$$$",
"$$$$$$$$$$$$$$$$$$$$$$$$$$...@$$$$$$$$$$$$$$$$$$$$$$$$$$$$$$$$$$$$$$$$$$$$$$$$$$$@@@@@@$$$$$$$$$$$$$$$$$$@@@@@@$$$$$$$$$$$$$$$$$",
"$$$$$$$$$$$$$$$$$$$$$$$$$$@@@@$$$$$$$$$$$$$$$$$$$$$$$$$$$$$$$$$$$$$$$$$$$$$$$$$$$@@@@@@$$$$$$$$$$$$$$$$$$@@@@@@$$$$$$$$$$$$$$$$$",
"$$$$$$$$$$$$$$$$$$$$$$$$$$@@@@$$$$$$$$$$$$$$$$$$$$$$$$$$$$$$$$$$$$$$$$$$$$$$$$$$$@@@@@@$$$$$$@@@@@@$$$$$$@@@@@@$$$$$$$$$$$$$$$$$",
"$$$$$$$$$$$$$$$$$$$$$$$$$$@@oo$$$$$$$$$$$$$$$$$$$$$$$$$$$$$$$$$$$$$$$$$$$$$$$$$$$@@@@@@$$$$$$@@@@@@$$$$$$@@@@@@$$$$$$$$$$$$$$$$$",
"$$$$$$$$$$$$$$$$$$$$$$$$$$@@oo$$$$$$$$$$$$$$$$$$$$$$$$$$$$$$$$$$$$$$$$$$$$$$$$$$$@@@@@@$$$$$$@@@@@@$$$$$$@@@@@@$$$$$$$$$$$$$$$$$",
"$$$$$$$$$$$$$$$$$$$$$$$$$$oooo$$$$$$$$$$$$$$$$$$$$$$$$$$$$$$$$$$$$$$$$$$$$$$$$$$$@@@@@@$$$$$$@@@@@@$$$$$$@@@@@@$$$$$$$$$$$$$$$$$",
"$$$$$$$$$$$$$$$$$$$$$$$$$$oooo$$$$$$$$$$$$$$$$$$$$$$$$$$$$$$$$$$$$$$$$$$$$$$$$$$$@@@@@@$$$$$$@@@@@@$$$$$$@@@@@@$$$$$$$$$$$$$$$$$",
"$$$$$$$$$$$$$$$$$$$$$$$$$$.ooo$$$$$$$$$$$$$$$$$$$$$$$$$$$$$$$$$$$$$$$$$$$$$$$$$$$@@@@@@$$$$$$@@@@@@$$$$$$@@@@@@$$$$$$$$$$$$$$$$$",
"$$$$$$$$$$$$$$$$$$$$$$$$$$.ooo$$$$$$$$$$$$$$$$$$$$$$$$$$$$$$$$$$$$$$$$$$$$$$$$$$$@@@@@@@@@@@@$$$$$$@@@@@@@@@@@@$$$$$$$$$$$$$$$$$",
"$$$$$$$$$$$$$$$$$$$$$$$$$$oooo$$$$$$$$$$$$$$$$$$$$$$$$$$$$$$$$$$$$$$$$$$$$$$$$$$$@@@@@@@@@@@@$$$$$$@@@@@@@@@@@@$$$$$$$$$$$$$$$$$",
"$$$$$$$$$$$$$$$$$$$$$$$$$$oooo$$$$$$$$$$$$$$$$$$$$$$$$$$$$$$$$$$$$$$$$$$$$$$$$$$$@@@@@@@@@@@@$$$$$$@@@@@@@@@@@@$$$$$$$$$$$$$$$$$",
"$$$$$$$$$$$$$$$$$$$$$$$$$$oooooooooooooooo$$$$$$$$$$$$$$$$$$$$$$$$$$$$$$$$$$$$$$$@@@@@@@@@@@@$$$$$$@@@@@@@@@@@@$$$$$$$$$$$$$$$$$",
"$$$$$$$$$$$$$$$$$$$$$$$$$$oooooooooooooooo$$$$$$$$$$$$$$$$$$$$$$$$$$$$$$$$$$$$$$$@@@@@@@@@@@@$$$$$$@@@@@@@@@@@@$$$$$$$$$$$$$$$$$",
"$$$$$$$$$$$$$$$$$$$$$$$$$$oooooooooooooooo$$$$$$$$$$$$$$$$$$$$$$$$$$$$$$$$$$$$$$$@@@@@@@@@@@@$$$$$$@@@@@@@@@@@@$$$$$$$$$$$$$$$$$",
"$$$$$$$$$$$$$$$$$$$$$$$$$$oooooooooooooooo$$$$$$$$$$$$$$$$$$$$$$$$$$$$$$$$$$$$$$$@@@@@@$$$$$$$$$$$$$$$$$$@@@@@@$$$$$$$$$$$$$$$$$",
"$$$$$$$$$$$$$$$$$$$$$$$$$$$$$$$$$$$$$$$$$$$$$$$$$$$$$$$$$$$$$$$$$$$$$$$$$$$$$$$$$@@@@@@$$$$$$$$$$$$$$$$$$@@@@@@$$$$$$$$$$$$$$$$$",
"&&$$$$$$$$$$$$$$$$$$$$$$$$$$$$$$$$$$$$$$$$$$$$$$$$$$$$$$$$$$$$&*&$$$$$$$$$$$$$$$$@@@@@@$$$$$$$$$$$$$$$$$$@@@@@@$$$$$$$$$$$$$$$&&",
"&&$$$$$$$$$$$$$$$$$$$$$$$$$$$$$$$$$$$$$$$$$$$$$$$$$$$$$$$$$$$$**&$$$$$$$$$$$$$$$$@@@@@@$$$$$$$$$$$$$$$$$$@@@@@@$$$$$$$$$$$$$$$&&",
"**$$$$$$$$$$$$$$$$$$$$$$$$$$$$$$$$$$$$$$$$$$$$$$$$$$$$$$$$$$$$**&$$$$$$$$$$$$$$$$@@@@@@$$$$$$$$$$$$$$$$$$@@@@@@$$$$$$$$$$$$$$$*&",
"**$$$$$$$$$$$$$$$$$$$$$$$$$$$$$$$$$$$$$$$$$$$$$$$$$$$$$$$$$$$$&*&$$$$$$$$$$$$$$$$@@@@@@$$$$$$$$$$$$$$$$$$@@@@@@$$$$$$$$$$$$$$$**",
"**$$$$$$$$$$$$$$$$$$$$$$$$$$$$$$$$$$$$$$$$$$$$$$$$$$$$$$$$$$$$&&&$$$$$$$$$$$$$$$$$$$$$$$$$$$$$$$$$$$$$$$$$$$$$$$$$$$$$$$$$$$$$**",
"&&$$$$$$$$$$$$$$$$$$$$$$$$$$$$$$$$$$$$$$$$$$$$$$$$$$$$$$$$$$$$**&$$$$$$$$$$$$$$$$$$$$$$$$$$$$$$$$$$$$$$$$$$$$$$$$$$$$$$$$$$$$$&&",
"*&$$$$$$$$$$$$$$$$$$$$$$$$$$$$$$$$$$$$$$$$$$$$$$$$$$$$$$$$$$$$**&$$$$$$$$$$$$$$$$$$$$$$$$$$$$$$$$$$$$$$$$$$$$$$$$$$$$$$$$$$$$$*&",
"**$$$$$$$$$$$$$$$$$$$$$$$$$$$$$$$$$$$$$$$$$$$$$$$$$$$$$$$$$$$$**&$$$$$$$$$$$$$$$$$$$$$$$$$$$$$$$$$$$$$$$$$$$$$$$$$$$$$$$$$$$$$**",
"**$$$$$$$&*&&&&$$$$$$$$$$$$$$$$$$$$$$$$$$$$$$$$$$$*&&&**$$$$$$**&$$$$$$$$$$$$$$$$$$$$$$$$$$$$$$$$$$$$$$$$$$$$$$$$$$$$$$$$$$$$$**",
"**$$$$$$$&&****$$$$$$$$$$$$$$$$$$$$$$$$$$$$$$$$$$$&&****$$$$$$&*&$$$$$$$$$$$$$$$$$$$$$$$$$$$$$$$$$$$$$$$$$$$$$$$$$$$$$$$$$$$$$&&",
"**$$$$$$$&*****$$$$$$$$$$$$$$$$$$$$$$$$$$$$$$$$$$$*&****$$$$$$&&&$$$$$$$$$$$$$$$$$$$$$$$$$$$$$$$$$$$$$$$$$$$$$$$$$$$$$$$$$$$$$*&",
"&&$$$$$$$*****&$$$$$$$$$$$$$$$$$$$$$$$$$$$$$$$$$$$****&&$$$$$$**&$$$$$$$$$$$$$$$$$$$$$$$$$$$$$$$$$$$$$$$$$$$$$$$$$$$$$$$$$$$$$**",
"*&$$$$$$$****&&$$$$$$$$$$$$$$$$$$$$$$$$$$$$$$$$$$$*****&$$$$$$**&$$$$$$$$$$$$$$$$$$$$$$$$$$$$$$$$$$$$$$$$$$$$$$$$$$$$$$$$$$$$$**",
"**$$$$$$$&&&&&&$$$$$$$$$$$$$$$$$$$$$$$$$$$$$$$$$$$&&&&&&$$$$$$**&$$$$$$$$$$$$$$$$$$$$$$$$$$$$$$$$$$$$$$$$$$$$$$$$$$$$$$$$$$$$$&&",
"**$$$$$$$$$$$$$$$$$$$$$$$$$$$$$$$$$$$$$$$$$$$$$$$$$$$$$$$$$$$$**&$$$$$$$$$$$$$$$$$$$$$$$$$$$$$$$$$$$$$$$$$$$$$$$$$$$$$$$$$$$$$*&",
"**$$$$$$$$$$$$$$$$$$$$$$$$$$$$$$$$$$$$$$$$$$$$$$$$$$$$$$$$$$$$&*&$$$$$$$$$$$$$$$$$$$$$$$$$$$$$$$$$$$$$$$$$$$$$$$$$$$$$$$$$$$$$**",
"**$$$$$$$$$$$$$$$$$$$$$$$$$$$$$$$$$$$$$$$$$$$$$$$$$$$$$$$$$$$$&&&$$$$$$$$$$$$$$$$$$$$$$$$$$$$$$$$$$$$$$$$$$$$$$$$$$$$$$$$$$$$$**",
"&&$$$$$$$$$$$$$$$$$$$$$$$$$$$$$$$$$$$$$$$$$$$$$$$$$$$$$$$$$$$$**&$$$$$$$$$$$$$$$$$$$$$$$$$$$$$$$$$$$$$$$$$$$$$$$$$$$$$$$$$$$$$&&",
"*&$$$$$$$$$$$$$$$$$$$$$$$$$$$$$$$$$$$$$$$$$$$$$$$$$$$$$$$$$$$$**&$$$$$$$$$$$$$$$$$$$$$$$$$$$$$$$$$$$$$$$$$$$$$$$$$$$$$$$$$$$$$*&",
"******&&****&&***&&$$$$$$$$$$$$$$$$$$$$$$$$&****&&****&&****&&****&&****&&****&&**&$$$$$$$$$$$$$$$$$$$$$$$$*&&****&&****&&******",
"*******&*****&***&&$$$$$$$$$$$$$$$$$$$$$$$$&*****&*****&*****&*****&*****&*****&*&&$$$$$$$$$$$$$$$$$$$$$$$$**&*****&*****&******"
};
