/* XPM */
static char *cda863785183478ed10f5d98880835a7cgIozSdz7j4U1O2F[] = {
/* columns rows colors chars-per-pixel */
"128 128 15 1 ",
"  c #785448",
". c #785548",
"X c #795548",
"o c #785449",
"O c #795449",
"+ c #785549",
"@ c #795549",
"# c #FF5622",
"$ c #FF5722",
"% c #FF5723",
"& c #BCAEA8",
"* c #BCAFA8",
"= c #BDAFA8",
"- c #BDAEA9",
"; c #BDAFA9",
/* pixels */
"**************==***#$$$$$$$$$$$$$$$$$$$$$$$**********************-*-***************###$$$$$$$$$$$$$$$$$$$$$*********************",
"**************==***#$$$$$$$$$$$$$$$$$$$$$$$**********************&*****************#%%$$$$$$$$$$$$$$$$$$$$$*************=*******",
"**##%%##$%$$###%%%%#$$$$$$$$$$$$$$$$$$$$$$$%$$%$#%%%####$$$$##***%##$$$$########$$$%%$$$$$$$$$$$$$$$$$$$$$$$###$####$$%%###%##**",
"**##%%%%$$$$###%%%%%$$$$$$$$$$$$$$$$$$$$$$$%$$$$#%%%####$$$$##***#%#$$$$####%###$$$%%%$$$$$$$$$$$$$$$$$$$$$$##%%####$%%#######**",
"**$$%%%%$$$$$$$$%%$$$$$$$$$$$$$$$$$$$$$$$$$$$$$$$$$$##%%$$$$##&**#%###$$%%##%%#####%$$$$$$$$$$$$$$$$$$$$$$$$%%##%%###%##%%###%**",
"**$$%%#%$$$$$$$$%%$$$$$$$$$$$$$$$$$$$$$$$$$$$$$$$$$$%%%%$$$$##&**#%%####%%%##%%%####$$$$$$$$$$$$$$$$$$$$%%$$$%%#%%##%%##%%#%%#**",
"**%%%%##$$$$$$$$%$$$$$$$$$$$$$$$$$$$$$$$$$$$$$$$$$$$$$%%$$%%##***#%%%%%*==*********$$$$$$$$$$$$$$$$$$$$$###****=*********%%%%#**",
"**%%%###$$$$$$$$%$$$$$$$$$$$$$$$$$$$$$$$$$$$$$$$$$$$$$$$$$%%%%***#%%%%%**=*********$$$$$$$$$$$$$$$$$$$$$###**************#%%%#**",
"*&##$$$$$$$$$$$$$$$$$$$$$$$$$$$$$$$$$$$$$$$$$$$$$$$$$$$$$$$$%%***%$$%%#************%%$$$$$$$$$$$$$$$$$$$$$%*********-****#$$$%**",
"**##$$$$$$$$$$$$$$$$$$$$$$$$$$$$$$$$$$$$$$$$$$$$$$$$$$$$$$$$##***$$$%%#*******-****#$$$$$$$$$$$$$$$$$$$$$$#**************#$%$$**",
"**##$$$$$$$$$$$$$$$$$$$$$$$$$$$$$$$$$$$$$$$$$$$$$$$$$$$$$$$$##***#$$%$#****#%#%#$$$%$$$$$$$$$$$$$$$$$$$$$$%#$$$$#####****#%%##**",
"**%%$$$$$$$$$$$$$$$$$$$$$$$$$$$$$$$$$$$$$$$$$$$$$$$$$$$$$$$$##***#$$$$#****#%%%#$$$$$$$$$$$$$$$$$$$$$$$$$$$%$$$$#####****#%%%#**",
"**###%$$$$$$$$$$$$$$$$$$$$$$$$$$$$$$$$$$$$$$$$$$$$$$$$$$$$$$$$***##%%%%****%%%%%$$$$$$$$$$$$$$$$$$$$$$$$$$$$$$$$#%%%#****$%%%$**",
"**##%%$$$$$$$$$$$$$$$$$$$$$$$$$$$$$$$$$$$$$$$$$$$$$$$$$$$$$$$$***#%%%#%****%%%#%$$$$$$$$$$$$$$$$$$$$$$$$$$$$$$$$##%%#****$$%$$**",
"**##%%$$$$$$$$$$$$$$$$$$$$$$$$$$$$$$$$$$$$$$$$$$$$$$$$$$$$$$$$***$%%###****#%%##$$$$$$$$$$$$$$$$$$$$$$$$$$$$$$$$##%%#****#%%##**",
"**##%%$$$$$$$$$$$$$$$$$$$$$$$$$$$$$$$$$$$$$$$$$$$$$$$$$$$$$$$$***$$$###****%%###$$$$$$$$$$$$$$$$$$$$$$$$$$$$$$$$#%%%#****%%###**",
"**$$$$$$$$$$$$$$$$$$%%%%%%%%%%%%%%%%%%%%%%%#$$$$$$$$$$$$$$$$$%***#$$$$$****###$$$$$$$$$$%$$$$$$$$$$$$$$$$$$$$$$$%%%%#****#$$$%**",
"**$$$$$$$$$$$$$$$$$$XXXooXoXXXXXX+X   XXXoXo$$$$$$$$$$$$$$$$$%***%$$$$#****###$$$$$$$$$$%%$$$$$$$$$$$$$$$$$$$$$$%%$$#****#$$$#**",
"**$$$$$$$$$$$$$$$$$$XXX XoXoXoXX++oXXXXXoXoo$$$$$$$$$$$$$$$$$$***#%$$$#****$%$$$$$$$$$$$%%%%$$$$$$$$$$$$$$$$$$$$$$$$$****%%$%#**",
"##$$$$$$$$$$$$$$$$%#XXXXoXXXoXXXXX XXXXX. .o$$$$$$$$$$$$$$$$$$$$#%%$$$%%$$#$%%$$$$$$$$$$%%%%$$$$$$$$$$$$$$$$$$$$$$$$$$#$#%$$%###",
"##%%$$$$$$$$$$$$$$$$..  oooXoo++X X  ...    %%$$$$$$$$$$$$$$$$$$$$$$$$$$$$$$$$$$$$$$$$$$%%%%####$$$$$$$$$$$$$$$$$$$$$$$$$$$$%%$$",
"##$%$$$$$$$$$$$$$$$$..  XXoXoX++XXXX ...  X %%$$$$$$$$$$$$$$$$$$$$$$$$$$$$$$$$$$$$$$$$# XXXXo..    %$$$$$$$$$$$$$$$$$$$$$$$$%%$$",
"$$$$$$$$$$$$$$$$$$$$.   X+XXXXXX XXX XX.X X %$$$$$$$$$$$$$$$$$$$$$$$$$$$$$$$$$$$$$$$$$# XX  .....X $$$$$$$$$$$$$$$$$$$$$$$$$$$$$",
"$$$$$$$$$$$$$$$$$$$$    o+%%#%#%%%%%%%%$%%%%%$$$$$$$$$$$$$$$$$$$$$$$$$$$$$$$$$$$$$$$$$%       ...  %$$$$$$$$$$$$$$$$$$$$$$$$$$$$",
"$$$$$$$$$$$$$$$$%%%%XX@@oo#%%%%%$$$$$$$$$$$$$$$$$$$$$$$$$$$$$$$$$$$$$$$$$$$$$$$$$$$$$$$   XX.......####%$$$$$$$$$$$$$$$$$$$$$$$$",
"$$$$$$$$$$$$$$$$%%%%@OO@XX%%%%#%$%$$$$$$$$$$$$$$$$$$$$$$$$$$$$$$$$$$$$$$$$$$$$$$$$$$$$$    %%$$$###.. .%$$$$$$$$$$$$$$$$$$$$$$$$",
"$$$$$$$$$$$$$$$$%%%%@@@@+X%%%%%%%%%%$$$$$$$$$$$$$$$$$$$$$$$$$$$$$$$$$$$$$$$$$$$$$$$$$$%  X %%%%%%$$. ..#$$$$$$$$$$$$$$$$$$$$$$$$",
"$$$$$$$$$$$$$$$$##%%++@@++%%$%%%%%%%$$$$$$$$$$$$$$$$$$$$$$$$$$$$$$$$$$$$$$$$$$$$$$$$$$% X  %%%%%%$%. ..#$$$$$$$$$$$$$$$$$$$$$$$$",
"$$$$$$$$$$$$$$$$#%%%XXXX++%%$##%%%%%$$$$$$$$$$$$$$$$$$$$$$$$$$$$$$$$$$$$$$$$$$$$$$$$$$$ X. %%%%%##%....%$$$$$$$$$$$$$$$$$$$$$$$$",
"$$$$$$$$$$$$$$$$#%%%+ XX+XX+.... XXX.X$$$$$$$$$$$$$$$$$$$$$$$$$$$$$$$$$$$$$$$$$$$$$$$$$ .. XX oX...###%%$$$$$$$$$$$$$$$$$$$$$$$$",
"$$$$$$$$$$$$$$$$$$%$+X++++X+  .     ..$$$$$$$$$$$$$$$$$$$$$$$$$$$$$$$$$$$$$$$$$$$$$$$$$ .XXXXooX. .#$$%%$$$$$$$$$$$$$$$$$$$$$$$$",
"$$$$$$$$$$$$$$$$$$%#++++++XXX       ..$$$$$$$$$$$$$$$$$$$$$$$$$$$$$$$$$$$$$$$$$$$$$$$$$   XX X X  .%$$$$$$$$$$$$$$$$$$$$$$$$$$$$",
"$$$$$$$$$$$$$$$$$$$$X.+++XXXXXXXX+++XX%%%%$$$$$$$$$$$$$$$$$$$$$$$$$$$$$$$$$$$$$$$$$$$$$.X........ X%$$$$$$$$$$$$$$$$$$$$$$$$$$$$",
"$$$$$$$$$$$$$$$$$$$$X.+X++XXX.XXXX++X.%%$$$$$$$$$$$$$$$$$$$$$$$$$$$$$$$$$$$$$$$$$$$$$$$.X..$$$$.  X%$$$$$$$$$$$$$$$$$$$$$$$$$$$$",
"$$$$$$$$$$$$$$$$$$%%XXXX++XX...XXX+XX.$$$$$$$$$$$$$$$$$$$$$$$$$$$$$$$$$$$$$$$$$$$$$$$$$.XX.$$$$. XX%$$$$$$$$$$$$$$$$$$$$$$$$$$$$",
"$$$$$$$$$$$$$$$$$$%%XXXX++%%$%%$%%%%$$$$$$$$$$$$$$$$$$$$$$$$$$$$$$$$$$$$$$$$$$$$$$$$$$$.XX.$$$$.  X%$$$$$$$$$$$$$$$$$$$$$$$$$$$$",
"$$$$$$$$$$$$$$$$%%%%@XXXXX%%%%$$%%$$$$$$$$$$$$$$$$$$$$$$$$$$$$$$$$$$$$$$$$$$$$$$$$$$$$$.XXX$$$$....$$$$$$$$$$$$$$$$$$$$$$$$$$$$$",
"$$$$$$$$$$$$$$$$%%%%@XXX@@%%%%$$%%$$$$$$$$$$$$$$$$$$$$$$$$$$$$$$$$$$$$$$$$$$$$$$$$$$$$$.XX.$$$$$$$$....$$$$$$$$$$$$$$$$$$$$$$$$$",
"$$$$$$$$$$$$$$$$%%%%@@+X@@%%%%%%%%%%$$$$$$$$$$$$$$$$$$$$$$$$$$$$$$$$$$$$$$$$$$$$$$$$$$$X...$$$$$$$$....$$$$$$$$$$$$$$$$$$$$$$$$$",
"$$$$$$$$$$$$$$$$%%%%@@++@@%%%%%%%%%%$$$$$$$$$$$$$$$$$$$$$$$$$$$$$$$$$$$$$$$$$$$$$$$$$$$X...$$$$$$$$X...$$$$$$$$$$$$$$$$$$$$$$$$$",
"$$$$$$$$$$$$$$$$$$$$X.++++%%%%%%%%%%%%%%$$%%%%%%$$$$$$$$$$$$$$$$$$$$$$$$$$$$$$$$$$$$$$$.X..$$$$$$$$....$$$$$$$$$$$$$$$$$$$$$$$$$",
"$$$$$$$$$$$$$$$$$$$$X.+XX++XXXX++++X+++X..XX%%%%$$$$$$$$$$$$$$$$$$$$$$$$$$$$$$$$$$$$$$$$$$$$$$$$$$$$$$$$$$$$$$$$$$$$$$$$$$$$$$$$",
"$$$$$$$$$$$$$$$$$$$%XXXXXXXXX+X+++XXX+XX.XXX$$%%$$$$$$$$$$$$$$$$$$$$$$$$$$$$$$$$$$$$$$$$$$$$$$$$$$$$$$$$$$$$$$$$$$$$$$$$$$$$$$$$",
"**$$$$$$$$$$$$$$$$$%XXXXXX++++XX++X+++X+XXXX$$$$$$$$$$$$$$$$$$=**$$$$$$****$$$$$$$$$$$$$$$$$$$$$$$$$$$$$$$$$$$$$$$$$$*==*$$$$$**",
"**$$$$$$$$$$$$$$%%%%XX++X@@@  XXXXXXX+++XXXX$$$$$$$$$$$$$$$$$$***$$$$$$*===$$$$$$$$$$$$$$$$$$$$$$$$$$$$$$$$$$$$$$$$$$****$$$$$**",
"**$$$$$$$$$$$$$$%%%%XXX+@@@@  XXXX@@XX++XXX.$$$$$$$$$$$$$$$$$$***$$$$$$*===$$$$$$$$$$$$$$$$$$$$$$$$$$$$$$$$$$$$$$$$$$****$$$$$**",
"**$$$$$$$$$$$$$$%%%%X@++++@@    ++@@XXXXXX..$$$$$$$$$$$$$$$$$$==*$$$$$$****$$$$$$$$$$$$$$$$$$$$$$$$$$$$$$$$$$$$$$$$$$****$$$$$*=",
"**$$$$$$$$$$$$$$%%%%%%%%%%%%$%%$%%%%%%%%%%$$$$$$$$$$$$$$$$$$$$==*$$$$$$****$$$$$$$$$$$$$$$$$$$$$$$$$$$$$$$$$$$$$$$$$$=***$$$$$==",
"*=$$$$$$$$$$$$$$$$$$$$$$$$$$$$$$%%%%$$$$$$$$$$$$$$$$$$$$$$$$$$==*$$$$$$****$$$$$$$$$$$$$$$$$$$$$$$$$$$$$$$$$$$$$$$$$$***=$$$$$**",
"==$$$$$$$$$$$$$$$$$$$$$$$$$$$$$$%%%%$$$$$$$$$$$$$$$$$$$$$$$$$$=**$$$$$$*=**$$$$$$$$$$$$$$$$$$$$$$$$$$$$$$$$$$$$$$$$$$****$$$$$**",
"==$$$$$$$$$$$$$$$$$$$$$$$$$$$$$$%%%%$$$$$$$$$$$$$$$$$$$$$$$$$$***$$$$$$*===$$$$$$$$$$$$$$$$$$$$$$$$$$$$$$$$$$$$$$$$$$*==*$$$$$*=",
"==$$$$$$$$$$$$$$$$$$$$$$$$$$$$$$%%%%$$$$$$$$$$$$$$$$$$$$$$$$$$***$$$$$$*===$$$$$$$$$$$$$$$$$$$$$$$$$$$$$$$$$$$$$$$$$$===*$$$$$==",
"**$$$$$$$$$$$$$$$$$$$$$$$$$$$$$$$$$$$$$$$$$$$$$$$$$$$$$$$$$$$$==*$$$$$$*==*$$$$$$$$$$$$$$$$$$$$$$$$$$$$$$$$$$$$$$$$$$*==*$$$$$**",
"**$$$$$$$$$$$$$$$$$$$$$$$$$$$$$$$$$$$$$$$$$$$$$$$$$$$$$$$$$$$$==*$$$$$$*=**=****==*$$$$$$$$$$$$$$$$$$$$$$$$*==****==**==*$$$$$**",
"*=$$$$$$$$$$$$$$$$$$$$$$$$$$$$$$$$$$$$$$$$$$$$$$$$$$$$$$$$$$$$==*$$$$$$*======***=*$$$$$$$$$$$$$$$$$$$$$$$$*==***===*===*$$$$$*=",
"==$$$$$$$$$$$$$$$$$$$$$$$$$$$$$$$$$$$$$$$$$$$$$$$$$$$$$$$$$$$$=**$$$$$$*=======****$$$$$$$$$$$$$$$$$$$$$$$$*===***==*===*$$$$$==",
"==$$$$$$$$$$$$$$$$$$$$$$$$$$$$$$$$$$$$$$$$$$$$$$$$$$$$$$$$$$$$***$$$$$$*==*********$$$$$$$$$$$$$$$$$$$$$$$$**************$$$$$**",
"==$$$$$$$$$$$$$$$$$$$$$$$$$$$$$$$$$$$$$$$$$$$$$$$$$$$$$$$$$$$$***$$$$$$$$$$$$$$$$$$$$$$$$$$$$$$$$$$$$$$$$$$$$$$$$$$$$$$$$$$$$$**",
"**$$$$$$$$$$$$$$$$$$$$$$$$$$$$$$$$$$$$$$$$$$$$$$$$$$$$$$$$$$$$==*$$$$$$$$$$$$$$$$$$$$$$$$$$$$$$$$$$$$$$$$$$$$$$$$$$$$$$$$$$$$$*=",
"**$$$$$$$$$$$$$$$$$$$$$$$$$$$$$$$$$$$$$$$$$$$$$$$$$$$$$$$$$$$$==*$$$$$$$$$$$$$$$$$$$$$$$$$$$$$$$$$$$$$$$$$$$$$$$$$$$$$$$$$$$$$==",
"*=$$$$$$$$$$$$$$$$$$$$$$$$$$$$$$$$$$$$$$$$$$$$$$$$$$$$$$$$$$$$==*$$$$$$$$$$$$$$$$$$$$$$$$$$$$$$$$$$$$$$$$$$$$$$$$$$$$$$$$$$$$$**",
"==$$$$$$$$$$$$$$$$$$$$$$$$$$$$$$$$$$$$$$$$$$$$$$$$$$$$$$$$$$$$==*$$$$$$$$$$$$$$$$$$$$$$$$$$$$$$$$$$$$$$$$$$$$$$$$$$$$$$$$$$$$$**",
"====***=***=***=***$$$$$$$$$$$$$$$$$$$$$$$$****=***=***=***=***===**====**====***=*$$$$$$$$$$$$$$$$$$$$$$$$=**====**====**====*=",
"====**==**==**==**=$$$$$$$$$$$$$$$$$$$$$$$$***==**==**==**==**===***===***===******$$$$$$$$$$$$$$$$$$$$$$$$***===***===***======",
"*******************$$$$$$$$$$$$$$$$$$$$$$$$*******************===******************$$$$$$$$$$$$$$$$$$$$$$$$*********************",
"**$$$$$$$$$$$$$$$$$$$$$$$$$$$$$$$$$$$$$$$$$$$$$$$$$$$$$$$$$$$$===$$$$$$$$$$$$$$$$$$$$$$$$$$$$$$$$$$$$$$$$$$$$$$$$$$$$$$$$$$$$$**",
"==$$$$$$$$$$$$$$$$$$$$$$$$$$$$$$$$$$$$$$$$$$$$$$$$$$$$$$$$$$$$==*$$$$$$$$$$$$$$$$$$$$$$$$$$$$$$$$$$$$$$$$$$$$$$$$$$$$$$$$$$$$$==",
"==$$$$$$$$$$$$$$$$$$$$$$$$$$$$$$$$$$$$$$$$$$$$$$$$$$$$$$$$$$$$=**$$$$$$$$$$$$$$$$$$$$$$$$$$$$$$$$$$$$$$$$$$$$$$$$$$$$$$$$$$$$$==",
"==$$$$$$$$$$$$$$$$$$$$$$$$$$$$$$$$$$$$$$$$$$$$$$$$$$$$$$$$$$$$***$$$$$$$$$$$$$$$$$$$$$$$$$$$$$$$$$$$$$$$$$$$$$$$$$$$$$$$$$$$$$**",
"==$$$$$$$$$$$$$$$$$$$$$$$$$$$$$$$$$$$$$$$$$$$$$$$$$$$$$$$$$$$$***$$$$$$$$$$$$$$$$$$$$$$$$$$$$$$$$$$$$$$$$$$$$$$$$$$$$$$$$$$$$$**",
"**$$$$$$$$$$$$$$$$$$$$$$$$$$$$$$$$$$$$$$$$$$$$$$$$$$$$$$$$$$$$==*$$$$$$$$$$$$$$$$$$$$$$$$$$$$$$$$$$$$$$$$$$$$$$$$$$$$$$$$$$$$$*=",
"**$$$$$$******$$$$$$$$$$$$$$$$$$$$$$$$$$$$$$$$$$$$******$$$$$$==*$$$$$$$$$$$$$$$$$$$$$$$$$$$$$$$$$$$$$$$$$$$$$$$$$$$$$$$$$$$$$==",
"*=$$$$$$======$$$$$$$$$$$$$$$$$$$$$$$$$$$$$$$$$$$$======$$$$$$==*$$$$$$$$$$$$$$$$$$$$$$$$$$$$$$$$$$$$$$$$$$$$$$$$$$$$$$$$$$$$$**",
"==$$$$$$======$$$$$$$$$$$$$$$$$$$$$$$$$$$$$$$$$$$$=*====$$$$$$=**$$$$$$$$$$$$$$$$$$$$$$$$$$$$$$$$$$$$$$$$$$$$$$$$$$$$$$$$$$$$$**",
"==$$$$$$==**==$$$$$$$$$$$$$$$$$$$$$$$$$$$$$$$$$$$$**====$$$$$$***$$$$$$$$$$$$$$$$$$$$$$$$$$$$$$$$$$$$$$$$$$$$$$$$$$$$$$$$$$$$$*=",
"==$$$$$$==**==$$$$$$$$$$$$$$$$$$$$$$$$$$$$$$$$$$$$**====$$$$$$***$$$$$$$$$$$$$$$$$$$$$$$$$$$$$$$$$$$$$$$$$$$$$$$$$$$$$$$$$$$$$==",
"**$$$$$$******$$$$$$$$$$$$$$$$$$$$$$$$$$$$$$$$$$$$**=***$$$$$$==*$$$$$$$$$$$$$$$$$$$$$$$$$$$%%%$$$$$$$$$$$$$$$$$$$$$$$$$$$$$$$**",
"**$$$$$$$$$$$$$$$$$$$$$$$$$$$$$$$$$$$$$$$$$$$$$$$$$$$$$$$$$$$$==*$$$$$$$$$$$$$$$$$$$$$$$$$$$%%%%$$$$$$$$$$$$$$$$$$$$$$$$$$$$$$**",
"*=$$$$$$$$$$$$$$$$$$$$$$$$$$$$$$$$$$$$$$$$$$$$$$$$$$$$$$$$$$$$==*$$$$$$$$$$$$$$$$$$$$$$$$$$$%%%%$$$$$$$$$$$$$$$$$$$$$$$$$$$$$$*=",
"==$$$$$$$$$$$$$$$$$$$$$$$$$$$$$$$$$$$$$$$$$$$$$$$$$$$$$$$$$$$$=**$$$$$$$$$$$$$$$$$$$$$$$$$$$%%%%$$$$$$$$$$$$$$$$$$$$$$$$$$$$$$==",
"==$$$$$$$$$$$$$$$$$$$$$$$$$$$$$$$$$$$$$$$$$$$$$$$$$$$$$$$$$$$$***$$$$$$$$$$$$$$$$$$$$%%$%%%%%%%%%%%%%%%%$$$$$$$$$$$$$$$$$$$$$$**",
"==$$$$$$$$$$$$$$$$$$$$$$$$$$$$$$$$$$$$$$$$$$$$$$$$$$$$$$$$$$$$***$$$$$$$$$$$$$$$$$$$X...++++XXXXXXXXXX.X....$$$$$$$$$$$$$$$$$$**",
"**$$$$$$$$$$$$$$$$$$$$$$$$$$$$$$$$$$$$$$$$$$$$$$$$$$$$$$$$$$$$***$$$$$$$$$$$$$$$$$$$...X++XXX++XX+XXXXXX....$$$$$$$$$$$$$$$$$$*=",
"$$$$$$$$$$$$$$$$$$$$$$$$$$$$$$$$$$$$$$$$$$$$$$$$$$$$$$$$$$$$$$$$$$$$$$$$$$$$$$$$$$$$....++X+X+++++XXXXXX...X$$$$$$$$$$$$$$$$$$$$",
"$$$$$$$$$$$$$$$$$$$$$$$$$$$$$$$$$$$$$$$$$$$$$$$$$$$$$$$$$$$$$$$$$$$$$$$$$$$$$$$$%%%%.+++++++XXXX+XXXXXXXXXXX$$$$$$$$$$$$$$$$$$$$",
"$$$$$$$$$$$$$$$$$$$$$$$$$$$$$$$$$$$$$$$$$$$$$$$$$$$$$$$$$$$$$$$$$$$$$$$$$$$$$$$$%%%%..++++++XXX.++XXX.XXXXXX$$$$$$$$$$$$$$$$$$$$",
"$$$$$$$$$$$$$$$$$$$$$$$$$$... #$$$$$$$$$$$$$$$$$$$$$$$$$$$$$$$$$$$$$$$$$$$$$$$$$%$%%++++X+XXXXX.++XX......XX$$$$$$$$$$$$$$$$$$$$",
"$$$$$$$$$$$$$$$$$$$$$$$$$$... #$$$$$$$$$$$$$$$$$$$$$$$$$$$$$$$$$$$$$$$$$$$$$$$$$$$%%++++XX%%%%%%%%%%$$$$$$$$$$$$$$$$$$$$$$$$$$$$",
"$$$$$$$$$$$$$$$$$$$$$$$$%%X ..$$$$$$$$$$$$$$$$$$$$$$$$$$$$$$$$$$$$$$$$$$$$$$$$$$$$$$@@@@@@%%%%%%%%%%$$$$$$$$$$$$$$$$$$$$$$$$$$$$",
"$$$$$$$$$$$$$$$$$$$$$$$$%%X ..$$$$$$$$$$$$$$$$$$$$$$$$$$$$$$$$$$$$$$$$$$$$$$$$$$$$$$XX@@@@%%%%%%%%%%$$$$$$$$$$$$$$$$$$$$$$$$$$$$",
"$$$$$$$$$$$$$$$$$$$$$$$$%%XX. $$$$$$$$$$$$$$$$$$$$$$$$$$$$$$$$$$$$$$$$$$$$$$$$$$$$$$XX++++%%%%%%%%%%$$$$$$$$$$$$$$$$$$$$$$$$$$$$",
"$$$$$$$$$$$$$$$$$$$$$$$$%%X   $$$$$$$$$$$$$$$$$$$$$$$$$$$$$$$$$$$$$$$$$$$$$$$$$$$$$$XXX+++%%%%%%%%%%$$$$$$$$$$$$$$$$$$$$$$$$$$$$",
"$$$$$$$$$$$$$$$$$$$$$$$$$$  XX%%$$$$$$$$$$$$$$$$$$$$$$$$$$$$$$$$$$$$$$$$$$$$$$$$$$$$X.++++%%%%%%%%%%$%%$$$$$$$$$$$$$$$$$$$$$$$$$",
"$$$$$$$$$$$$$$$$$$$$$$$$$$XXX.%%$$$$$$$$$$$$$$$$$$$$$$$$$$$$$$$$$$$$$$$$$$$$$$$$$$$$X.+XXX@@++@@XXXXX.$$$$$$$$$$$$$$$$$$$$$$$$$$",
"$$$$$$$$$$$$$$$$$$$$$$$$%%....$$$$$$$$$$$$$$$$$$$$$$$$$$$$$$$$$$$$$$$$$$$$$$$$$$$$$$XXXXXXX@+XX@XXXX..$$$$$$$$$$$$$$$$$$$$$$$$$$",
"$$$$$$$$$$$$$$$$$$$$$$$$%%XX.X$$$$$$$$$$$$$$$$$$$$$$$$$$$$$$$$$$$$$$$$$$$$$$$$$$$$$$XXXXXXX@++XXXXXXX.$$$$$$$$$$$$$$$$$$$$$$$$$$",
"$$$$$$$$$$$$$$$$$$$$$$$$$$XXXX$$$$$$$$$$$$$$$$$$$$$$$$$$$$$$$$$$$$$$$$$$$$$$$$$$%%%%@@@@++XXXXXXX++++X%%$$$$$$$$$$$$$$$$$$$$$$$$",
"$$$$$$$$$$$$$$$$$$$$$$$$$$XXXX$$$$$$$$$$$$$$$$$$$$$$$$$$$$$$$$$$$$$$$$$$$$$$$$$$%%%%@@@@+++XXXX.+++X+X%%$$$$$$$$$$$$$$$$$$$$$$$$",
"$$$$$$$$$$$$$$$$$$$$$$$$$$  ..$$$$$$$$$$$$$$$$$$$$$$$$$$$$$$$$$$$$$$$$$$$$$$$$$$%%%%@@@@+XXXXXX.+XXXX+%%$$$$$$$$$$$$$$$$$$$$$$$$",
"$$$$$$$$$$$$$$$$$$$$$$$$$$  ..$$$$$$$$$$$$$$$$$$$$$$$$$$$$$$$$$$$$$$$$$$$$$$$$$$%%%%@@@@XX%%%%%%%%%%%%%%$$$$$$$$$$$$$$$$$$$$$$$$",
"$$$$$$$$$$$$$$$$$$$$$$$$$$XX.X$$$$$$$$$$$$$$$$$$$$$$$$$$$$$$$$$$$$$$$$$$$$$$$$$$%%$$@@@@XX%%%%%%$$$$%%%%$$$$$$$$$$$$$$$$$$$$$$$$",
"$$$$$$$$$$$$$$$$$$$$$$$$$$XXXX$$$$$$$$$$$$$$$$$$$$$$$$$$$$$$$$$$$$$$$$$$$$$$$$$$%%$$XX@@XX%%%%%%$$$$%%$$$$$$$$$$$$$$$$$$$$$$$$$$",
"$$$$$$$$$$$$$$$$$$$$$$$$$$XXXX..XXXX..XX..$$$$$$$$$$$$$$$$$$$$$$$$$$$$$$$$$$$$$$$$$$XXX+++%%%%%%$$$$$$$$$$$$$$$$$$$$$$$$$$$$$$$$",
"$$$$$$$$$$$$$$$$$$$$$$$$$$XXX...XXX...X...$$$$$$$$$$$$$$$$$$$$$$$$$$$$$$$$$$$$$$$$$$XXX+++%%%%%%$$$$$$$$$$$$$$$$$$$$$$$$$$$$$$$$",
"$$$$$$$$$$$$$$$$$$$$$$$$$$...XXX...XXX....$$$$$$$$$$$$$$$$$$$$$$$$$$$$$$$$$$$$$$$$$$XXXX@@%%%%%%$%%$%%%%%%%%$$$$$$$$$$$$$$$$$$$$",
"$$$$$$$$$$$$$$$$$$$$$$$$$$..XXXX..XXXX...X$$$$$$$$$$$$$$$$$$$$$$$$$$$$$$$$$$$$$$$$$$..XX@@++++@@....@@++++++$$$$$$$$$$$$$$$$$$$$",
"$$$$$$$$$$$$$$$$$$$$$$$$$$$$$$$$$$$$$$$$$$$$$$$$$$$$$$$$$$$$$$$$$$$$$$$$$$$$$$$$$$$$++XXXXXX+XX@XX.XXXX+XXXX$$$$$$$$$$$$$$$$$$$$",
"**$$$$$$$$$$$$$$$$$$$$$$$$$$$$$$$$$$$$$$$$$$$$$$$$$$$$$$$$$$$$*=*$$$$$$$$$$$$$$$$$$$+XXXXXX+++XXXXXXXXX+X+++$$$$$$$$$$$$$$$$$$**",
"**$$$$$$$$$$$$$$$$$$$$$$$$$$$$$$$$$$$$$$$$$$$$$$$$$$$$$$$$$$$$==*$$$$$$$$$$$$$$$%%%%+XXXX+++XXXXXX++++++XX++%%%%$$$$$$$$$$$$$$**",
"**$$$$$$$$$$$$$$$$$$$$$$$$$$$$$$$$$$$$$$$$$$$$$$$$$$$$$$$$$$$$***$$$$$$$$$$$$$$$%%%%++XXXX++XXX.+X+XXX+X@X++%%%%$$$$$$$$$$$$$$**",
"==$$$$$$$$$$$$$$$$$$$$$$$$$$$$$$$$$$$$$$$$$$$$$$$$$$$$$$$$$$$$***$$$$$$$$$$$$$$$%%%%++XXXXXXXXX.+XXXX++X@+++%%%%$$$$$$$$$$$$$$*=",
"==$$$$$$$$$$$$$$$$$$$$$$$$$$$$$$$$$$$$$$$$$$$$$$$$$$$$$$$$$$$$***$$$$$$$$$$$$$$$%%%%%%%%%%%%%%$$%%%%%%%%%%%%%%%%$$$$$$$$$$$$$$==",
"**$$$$$$$$$$$$$$$$$$$$$$$$$$$$$$$$$$$$$$$$$$$$$$$$$$$$$$$$$$$$==*$$$$$$$$$$$$$$$$$$$$$$$$$$$$$$$$$$$$$$$$$$$$$$$$$$$$$$$$$$$$$**",
"**$$$$$$$$$$$$$$$$$$$$$$$$$$$$$$$$$$$$$$$$$$$$$$$$$$$$$$$$$$$$==*$$$$$$$$$$$$$$$$$$$$$$$$$$$$$$$$$$$$$$$$$$$$$$$$$$$$$$$$$$$$$**",
"*=$$$$$$$$$$$$$$$$$$$$$$$$$$$$$$$$$$$$$$$$$$$$$$$$$$$$$$$$$$$$==*$$$$$$$$$$$$$$$$$$$$$$$$$$$$$$$$$$$$$$$$$$$$$$$$$$$$$$$$$$$$$*=",
"==$$$$$$$******$$$$$$$$$$$$$$$$$$$$$$$$$$$$$$$$$$$****==$$$$$$=**$$$$$$$$$$$$$$$$$$$$$$$$$$$$$$$$$$$$$$$$$$$$$$$$$$$$$$$$$$$$$==",
"==$$$$$$$***===$$$$$$$$$$$$$$$$$$$$$$$$$$$$$$$$$$$**====$$$$$$***$$$$$$$$$$$$$$$$$$$$$$$$$$$$$$$$$$$$$$$$$$$$$$$$$$$$$$$$$$$$$**",
"==$$$$$$$*=*===$$$$$$$$$$$$$$$$$$$$$$$$$$$$$$$$$$$**====$$$$$$***$$$$$$$$$$$$$$$$$$$$$$$$$$$$$$$$$$$$$$$$$$$$$$$$$$$$$$$$$$$$$**",
"**$$$$$$$===*=*$$$$$$$$$$$$$$$$$$$$$$$$$$$$$$$$$$$*===**$$$$$$==*$$$$$$$$$$$$$$$$$$$$$$$$$$$$$$$$$$$$$$$$$$$$$$$$$$$$$$$$$$$$$*=",
"**$$$$$$$===***$$$$$$$$$$$$$$$$$$$$$$$$$$$$$$$$$$$===***$$$$$$==*$$$$$$$$$$$$$$$$$$$$$$$$$$$$$$$$$$$$$$$$$$$$$$$$$$$$$$$$$$$$$==",
"*=$$$$$$$******$$$$$$$$$$$$$$$$$$$$$$$$$$$$$$$$$$$******$$$$$$==*$$$$$$$$$$$$$$$$$$$$$$$$$$$$$$$$$$$$$$$$$$$$$$$$$$$$$$$$$$$$$**",
"==$$$$$$$$$$$$$$$$$$$$$$$$$$$$$$$$$$$$$$$$$$$$$$$$$$$$$$$$$$$$=**$$$$$$$$$$$$$$$$$$$$$$$$$$$$$$$$$$$$$$$$$$$$$$$$$$$$$$$$$$$$$**",
"==$$$$$$$$$$$$$$$$$$$$$$$$$$$$$$$$$$$$$$$$$$$$$$$$$$$$$$$$$$$$***$$$$$$$$$$$$$$$$$$$$$$$$$$$$$$$$$$$$$$$$$$$$$$$$$$$$$$$$$$$$$*=",
"==$$$$$$$$$$$$$$$$$$$$$$$$$$$$$$$$$$$$$$$$$$$$$$$$$$$$$$$$$$$$***$$$$$$$$$$$$$$$$$$$$$$$$$$$$$$$$$$$$$$$$$$$$$$$$$$$$$$$$$$$$$==",
"**$$$$$$$$$$$$$$$$$$$$$$$$$$$$$$$$$$$$$$$$$$$$$$$$$$$$$$$$$$$$==*$$$$$$$$$$$$$$$$$$$$$$$$$$$$$$$$$$$$$$$$$$$$$$$$$$$$$$$$$$$$$**",
"**$$$$$$$$$$$$$$$$$$$$$$$$$$$$$$$$$$$$$$$$$$$$$$$$$$$$$$$$$$$$==*$$$$$$$$$$$$$$$$$$$$$$$$$$$$$$$$$$$$$$$$$$$$$$$$$$$$$$$$$$$$$**",
"*=====**====**==***$$$$$$$$$$$$$$$$$$$$$$$$*====**====**====**====**====**====***=*$$$$$$$$$$$$$$$$$$$$$$$$=**====**====**====*=",
"=====***===***==***$$$$$$$$$$$$$$$$$$$$$$$$*===***===***===***===***===***===******$$$$$$$$$$$$$$$$$$$$$$$$***===***===***======"
};
