/* XPM */
static char *_36d1dc196434982f3c25406d32c8119GnUpMspYDZRDUcxx[] = {
/* columns rows colors chars-per-pixel */
"128 128 25 1 ",
"  c #010100",
". c #000001",
"X c #010101",
"o c #FE5622",
"O c #FE5722",
"+ c #FE5623",
"@ c #FF5623",
"# c #FE5723",
"$ c #FF5723",
"% c #F44236",
"& c #F54236",
"* c #F44336",
"= c #F54336",
"- c #F44237",
"; c #F54237",
": c #F44337",
"> c #F54337",
", c #EAEAEA",
"< c #EBEAEA",
"1 c #EAEBEA",
"2 c #EBEBEA",
"3 c #EAEAEB",
"4 c #EBEAEB",
"5 c #EAEBEB",
"6 c gray92",
/* pixels */
"55555554336666555,,,6666635,,5<5334444466665666666555,5,636,,,666633111555121141111111111555455211155122421141155554422455221211",
"5=--====-===--=---=%=====---====-;--==-====-=-==---====-%;--%==6++++#o@o@oooo#oo#@o@#@o#@@o@ooo#oo#@o#@o#ooooo#@o@oo##oooo##ooo1",
"5==---==-===--=-=%==--=---=---=%=======--=--=-=-=-----=-=;===%%6++++o#oooo####oo@@@@o##o##o@ooOOoooo#oo#oo##oo#o#ooooo#ooo##@@#1",
"5===-=======-==-%%%%--====---=;;%========-=--=--=-==---====%%%%6++++#o######o#o#@@@@@@o#o#@ooOO#ooo#ooo#oo##ooo@o@@ooooOooo#@@@5",
"6=>-------==----=-=-==--=%-===----=-==-==-===-===----%%%;-=%=--6++oooo#####o#o@o#oo@OO@O#o##o##o####@o#o##oo#o#o@o#####O##oo@o@5",
"6=>-==---==;=--=--==--===%%-==-=-=-==--=---==-==--=-%%%%==-----3@@oooo#@ooo#oo@o##@@O@@@o#o#ooo###oo###oo#oo##o@o#@oooo##o#oo#o5",
"6==-==-=-----==--===-==-===--===----==---==------=---=%%;=%;--;,@@@oo@@o#ooo##@###ooOOO@##ooo##oo##o@@#o##o#oooo#o#oooo###@@ooo5",
"6=-=-----=-==------==--=%%-==-----=-=-=--==-=-=---=====%;%;%--=,@@@oo@@oo##o#oo###ooooOOo#o##o#O#oo@oo#oooo##oo##o#oo#oooo@@ooo5",
"6----=-=----===-====-=%%=======--===:%==--=-:====%==-%%=;%;=--=,OOo#OOO##o#ooo#oO@@@O@O@O@@OOOO@o#ooooo#oo#ooo##OOo#O#o#oo##oo#2",
"6-=-=-=-==--=---=---=%=-;==-----=-=-:=-%==---:%=%%====;%=;=====6O###o#oo##oo##oo@@@O@O@OO@O@@@@Oooo#oo##oo##o#o#oO#oO##o#o@o#o@1",
"5--=-==-=%==-===-=-==-=-;=--%%=-=----==--=-=-=%%;==;---=------=,ooooo#o##o#oooo#OOO@@@O@@OO@OOO@O##o##o##oo###oo#O##oooooo#oo#@5",
"5---=====%%%--====-=-=-==;==%%%%====--=-=======%==;==-=--===-==6#o#oo##ooo##o###@OO@@OOOOO@@@@@@O###o#oo#o#ooo#oOO#o#oOOooo#ooo5",
"5===--=-%==%%%=-==--%%%%==;;%==%=--==%:%===-*%>%=--;=-=-===---;3##o##OO#o##o#oooO@O@@@@@OOo@@@@OOo#oo#o#####ooo#o##o######o#@#o5",
"5====---%%%=%=====---=-%=;;====%%%=-::%=-=-=>>===-===%=---==-==,oo###oOoo#ooo###OoOOO@@o@OO@O@O@#o#o#oO###o##oo#oo###o###o###oo5",
"5===--=-====;;==-==------===%%%=::%:%==%%===%%>%---=;=====-====,#OooOoO####OO#o#@@ooOOOO@OO@@OOOOoooo##oOoooo####oOOoooooo#o@@o4",
"4====---%=%===--===-=---=---=%=%:%:=%=%=-::=***%---;=-=--=---=-6o###OOOoOOo#o#o#o@o@@@OOOoOOOOO@o#o###o#OOo##ooo##oOoo#o##o@@oo1",
"5===--===%=-%-====-=>>>>>>>>>>>>->>>>>>>>>>>>>===-===--=;=====%,#Oo##@#ooo@o##o@@#oooo@#O@@O@@@@o###oo###o##ooo##ooo#oooooOoo#o1",
"5==>-====%%=%===-=--. ..... ..........  >>>->>%%-===---=;=%%==%5###ooo##o#####o###o#ooo#OO@@OO@O####oooOOOO####ooo#o#o###o#oooo1",
"4=---=-===%>%%==%%=-... ... ....  ... ..:>:>%*%=--==--======%==5#ooo@oooo#oooooo##Ooo#o#@@O@OOO@Oo#oooO#o####o###oooOo###o###o#2",
"4=--=-=>:%%=%%%--%%% .   .. X.. .  . .  ::>:**%*=---=-=-==%=%%-5#ooo##o###o@oo######o#o#O@OOO@@O#o#@@@OOoOoo##@o##@@##oo#oo###o1",
"4>>=-----=-=-=---%=>  ..    X..X   .    :***%*=%=====--===-==-=5o###ooo#@#o@OOoO#o#oo#o#OOO@Oo@Ooooo####ooo##o@#oo#ooo##oo@oo##1",
"4>%=-->>--%%=---===%  ..    ..X.        =%***>%==--=--;==;==-=-5#ooo#ooooo@@#O####o#@@#oO@@OoOOoooooo#####o#@o#o@@#ooooo###o#o#4",
"5==%==--==--=-=-%=%=  .. ->=>>>>:>=>--%%%****%=%-==-----=---===5o##o@o@ooo##O####o##oo#ooo@Oo@OO##o##oooo##O#o#o####o#o##o##oo#1",
"5-==-==-===>==--%=%=  ...->>>>>>:-=>>-**%******%---===-====-===5@o#o@o##ooo#oo##ooo###o#OOooOoOOo##o#o#ooooooo#oo@###o####oo@oo1",
"4====--=---=-==-=->- ....->>>:::>>>>::*****>--=--====;;;=-----=5###o##o@###oooo#oo##oo#OOOOOOOOOooo##Ooooo##ooooo#o#oo@o#oo##@#1",
"5===---=--==--==-=>>.. . >>>::::>>>>::******--===-%%=%;;--=-===5##o#@oo@#o##ooo#o###oo##OOOOOOOO#ooOo##o#oo##oo##########oo@ooo5",
"5==----=-=%===%-::>>  ...->>==::>>>>********----==-=-=;;%:=--=-1##oo@##@#@oo####oo#OooOOOOOOOOOO#Oo#OO##oo#o#OOoo#oo#oooo@#@##o5",
"4=-=:---=:=%-=%=>>>-. . ...     ...>********--=%==--==--=%%:-==1o#ooo#o@#oo####ooooOOOOOOOOOOOOOOO#oo#oO##oo##Ooo#o###o#ooo@#oo5",
"5:==:-->=%=%%*%%--%%.  ....   .....>********%=%%>---=-=-=->:%=>1##oo#ooo##o@@#ooo#o#OOOOOOOOOOOO##ooo####Oo#######o#o#o##o##o##1",
"5%%=:>>-:%=:=>>%--** ......    .  .-********%===>---=-====->=>>1o#####oo###@##o###ooOOOOOOOOOOOOOooooo#ooOo#ooo#oo###@@##o#oo#o1",
"5----:>%%=:%-=%%**%%  .  ...  ..   %********====>>---=====--%%>1#ooo###oo#oo##O##oooO#OOOOOOOOOOOOOO##oo##oooo##o#ooooo####oooo1",
"5-%====%======%%=>%* ......        =********======-=----=--=-=>1#oo#o###o@@###ooo###ooOOOOOOOOOOOOOOOo#o#o#o##@ooooo#oo#ooo##oo5",
"5===****************  ...>>:***********************************1OOOOOOOOOOOOOOOOOOOOOOOOOOOOOOOOOOOOOOOOOOOOOOOOOOOOOOOOOOOOOOO2",
"4=-=****************  ...-::*:*******:*************************1OOOOOOOOOOOOOOOOOOOOOOOOOOOOOOOOOOOOOOOOOOOOOOOOOOOOOOOOOOOOOOO2",
"1*--****************  .. *::::::****::::**********************>1OOOOOOOOOOOOOOOOOOOOOOOOOOOOOOOOOOOOOOOOOOOOOOOOOOOOOOOOOOOOOOO2",
"1*%%****************  .. ::::::>****:::>********************>>>1OOOOOOOOOOOOOOOOOOOOOOOOOOOOOOOOOOOOOOOOOOOOOOOOOOOOOOOOOOOOOOO2",
"2=**************:***.... =->>:->**-->>->**********************>1OOOOOOOOOOOOOOOOOOOOOOOOOOOOOOOOOOOOOOOOOOOOOOOOOOOOOOOOOOOOOOO2",
"1=**************::**....  ..  ..  ..  ..**********************>1OOOOOOOOOOOOOOOOOOOOOOOOOOOOOOOOOOOOOOOOOOOOOOOOOOOOOOOOOOOOOOO2",
"1>>*************::>>..   ... ...   . ...***********************1OOOOOOOOOOOOOOOOOOOOOOOOOOOOOOOOOOOOOOOOOOOOOOOOOOOOOOOOOOOOOOO2",
"1>:*************:::-..   .......   .....***********************1OOOOOOOOOOOOOOOOOOOOOOOOOOOOOOOOOOOOOOOOOOOOOOOOOOOOOOOOOOOOO##2",
"1*******************                    *********************>>1OOOOOOOOOOOOOOOOOOOOOOOOOOOOOOOOOOOOOOOOOOOOOOOOOOOOOOOOOOOOOOO2",
"1*******************    .       .       *********************>>1OOOOOOOOOOOOOOOOOOOOOOOOOOOOOOOOOOOOOOOOOOOOOOOOOOOOOOOOOOOOOO#2",
"1>******************=-::--::--**--::--************************>1OOOOOOOOOOOOOOOOOOOOOOOOOOOOOOOOOOOOOOOOOOOOOOOOOOOOOOOOOOOOOO#2",
"1>******************--::>>::>-**>>::>-************************>1OOOOOOOOOOOOOOOOOOOOOOOOOOOOOOOOOOOOOOOOOOOOOOOOOOOOOOOOOOOOO##2",
"1>>>********************::::****::::***************************1OOOOOOOOOOOOOOOOOOOOOOOOOOOOOOOOOOOOOOOOOOOOOOOOOOOOOOOOOOOOOOO2",
"1>**********************::*:****::*:***************************1OOOOOOOOOOOOOOOOOOOOOOOOOOOOOOOOOOOOOOOOOOOOOOOOOOOOOOOOOOOOOO#2",
"1*************************************************************>1OOOOOOOOOOOOOOOOOOOOOOOOOOOOOOOOOOOOOOOOOOOOOOOOOOOOOOOOOOOOOO#2",
"1***********************************************************>>>1OOOOOOOOOOOOOOOOOOOOOOOOOOOOOOOOOOOOOOOOOOOOOOOOOOOOOOOOOOOOO##2",
"1>************************************************************>1OOOOOOOOOOOOOOOOOOOOOOOOOOOOOOOOOOOOOOOOOOOOOOOOOOOOOOOOOOOOOOO2",
"1>************************************************************>1OOOOOOOOOOOOOOOOOOOOOOOOOOOOOOOOOOOOOOOOOOOOOOOOOOOOOOOOOOOOOO#2",
"1>>************************************************************1OOOOOOOOOOOOOOOOOOOOOOOOOOOOOOOOOOOOOOOOOOOOOOOOOOOOOOOOOOOOOO#2",
"1>>************************************************************1OOOOOOOOOOOOOOOOOOOOOOOOOOOOOOOOOOOOOOOOOOOOOOOOOOOOOOOOOOOOO##2",
"1************************************************************>>1OOOOOOOOOOOOOOOOOOOOOOOOOOOOOOOOOOOOOOOOOOOOOOOOOOOOOOOOOOOOOOO2",
"1************************************************************>>1OOOOOOOOOOOOOOOOOOOOOOOOOOOOOOOOOOOOOOOOOOOOOOOOOOOOOOOOOOOOOO#2",
"1>************************************************************>1OOOOOOOOOOOOOOOOOOOOOOOOOOOOOOOOOOOOOOOOOOOOOOOOOOOOOOOOOOOOOO#2",
"1>************************************************************>1OOOOOOOOOOOOOOOOOOOOOOOOOOOOOOOOOOOOOOOOOOOOOOOOOOOOOOOOOOOOO##2",
"1>>>***********************************************************1OOOOOOOOOOOOOOOOOOOOOOOOOOOOOOOOOOOOOOOOOOOOOOOOOOOOOOOOOOOOOOO2",
"1>*************************************************************1OOOOOOOOOOOOOOOOOOOOOOOOOOOOOOOOOOOOOOOOOOOOOOOOOOOOOOOOOOOOOO#2",
"1***********************************************************::>1OOOOOOOOOOOOOOOOOOOOOOOOOOOOOOOOOOOOOOOOOOOOOOOOOOOOOOOOOOOOOO#2",
"1***********************************************************>>>2OOOOOOOOOOOOOOOOOOOOOOOOOOOOOOOOOOOOOOOOOOOOOOOOOOOOOOOOOOOOO##2",
"1>************************************************************>1OOOOOOOOOOO#OOOOOOOOOOO#OOOOOOOOOOO#OOOOOOOOOOO#OOOOOOOOOO##OOO2",
"1>:>***>***>***>***>***>***>***>***=***>***>***>***>***>***>**>1OOOO##OOOOO#OOOO##OOOOO#OOOO##OOOOO#OOOO##OOOOO#OOOO##OOOOO#OO#2",
"1>>>*>>>*>>>*>>>*>>>*>>>*>>>*>>>*===*>>>*>>>*>>>*>>>*>>>*>>>*>>1##OO####OO####OO####OO####OO####OO####OO####OO####OO####OO#####2",
"12221111111111111111111111111111111111111111111111111111111111112222222222222222222222222222222222222222222222222222222222222222",
"2OOOOOOOOOOOOOOOOOOOOOOOOOOOOOOOOOOOOOOOOOOOOOOOOOOOOOOOOOOOO##2>>>=***********************************************************1",
"2OOOOOOOOOOOOOOOOOOOOOOOOOOOOOOOOOOOOOOOOOOOOOOOOOOOOOOOOOOOO##2>>************************************************************=1",
"2#OOOOOOOOOOOOOOOOOOOOOOOOOOOOOOOOOOOOOOOOOOOOOOOOOOOOOOOOOOOO#2**************************************************************=1",
"2#OOOOOOOOOOOOOOOOOOOOOOOOOOOOOOOOOOOOOOOOOOOOOOOOOOOOOOOOOOOO#2*************************************************************==1",
"2###OOOOOOOOOOOOOOOOOOOOOOOOOOOOOOOOOOOOOOOOOOOOOOOOOOOOOOOOOOO2***************************************************************1",
"2#OOOOOOOOOOOOOOOOOOOOOOOOOOOOOOOOOOOOOOOOOOOOOOOOOOOOOOOOOOOOO2**************************************************************>1",
"2OOOOOOOOOOOOOOOOOOOOOOOOOOOOOOOOOOOOOOOOOOOOOOOOOOOOOOOOOOOOO#2**************************************************************>1",
"2OOOOOOOOOOOOOOOOOOOOOOOOOOOOOOOOOOOOOOOOOOOOOOOOOOOOOOOOOOO###2*************************************************************>>1",
"2#OOOOOOOOOOOOOOOOOOOOOOOOOOOOOOOOOOOOOOOOOOOOOOOOOOOOOOOOOOOO#2***************************************************************1",
"2#OOOOOOOOOOOOOOOOOOOOOOOOOOOOOOOOOOOOOOOOOOOOOOOOOOOOOOOOOOOO#2**************************************************************>1",
"2##OOOOOOOOOOOOOOOOOOOOOOOOOOOOOOOOOOOOOOOOOOOOOOOOOOOOOOOOOOOO2**************************************************************>1",
"2##OOOOOOOOOOOOOOOOOOOOOOOOOOOOOOOOOOOOOOOOOOOOOOOOOOOOOOOOOOOO2*************************************************************>>1",
"2OOOOOOOOOOOOOOOOOOOOOOOOOOOOOOOOOOOOOOOOOOOOOOOOOOOOOOOOOOOO##2***************************************************************1",
"2OOOOOOOOOOOOOOOOOOOOOOOOOOOOOOOOOOOOOOOOOOOOOOOOOOOOOOOOOOOO##2**************************************************************>1",
"2#OOOOOOOOOOOOOOOOOOOOOOOOOOOOOOOOOOOOOOOOOOOOOOOOOOOOOOOOOOOO#2****************************:*::******************************>1",
"2#OOOOOOOOOOOOOOOOOOOOOOOOOOOOOOOOOOOOOOOOOOOOOOOOOOOOOOOOOOOO#2****************************::::*****************************>>1",
"2###OOOOOOOOOOOOOOOOOOOOOOOOOOOOOOOOOOOOOOOOOOOOOOOOOOOOOOOOOOO2************************>:::::->::>-::>>***********************1",
"2#OOOOOOOOOOOOOOOOOOOOOOOOOOOOOOOOOOOOOOOOOOOOOOOOOOOOOOOOOOOOO2************************>-::*:--::>-:::-**********************>1",
"2OOOOOOOOOOOOOOOOOOOOOOOOOOOOOOOOOOOOOOOOOOOOOOOOOOOOOOOOOOOOO#2********************    ....       .  ..**********************>1",
"2OOOOOOOOOOOOOOOOOOOOOOOOOOOOOOOOOOOOOOOOOOOOOOOOOOOOOOOOOOO###2********************    ....          ..*********************>>1",
"2#OOOOOOOOOOOOOOOOOOOOOOOOOOOOOOOOOOOOOOOOOOOOOOOOOOOOOOOOOOOO#2****************::::.........    ...   .***********************1",
"2#OOOOOOOOOOOOOOOOOOOOOOOOOOOOOOOOOOOOOOOOOOOOOOOOOOOOOOOOOOOO#2*****************:::.........     ..  ..**********************>1",
"2##OOOOOOOOOOOOOOOOOOOOOOOOOOOOOOOOOOOOOOOOOOOOOOOOOOOOOOOOOOOO2******************>:......  ..    ..    **********************>1",
"2##OOOOOOOOOOOOOOOOOOOOOOOOOOOOOOOOOOOOOOOOOOOOOOOOOOOOOOOOOOOO2******************>-.... -->--**->>---=**********************>>1",
"2OOOOOOOOOOOOOOOOOOOOOOOOOOOOOOOOOOOOOOOOOOOOOOOOOOOOOOOOOOOO##2********************.....>>::***->*****************************1",
"2OOOOOOOOOOOOOOOOOOOOOOOOOOOOOOOOOOOOOOOOOOOOOOOOOOOOOOOOOOOO##2********************.....-::::**::****************************>1",
"2#OOOOOOOOOOOOOOOOOOOOOOOOOOOOOOOOOOOOOOOOOOOOOOOOOOOOOOOOOOOO#2********************.... *::::>>:::***************************>1",
"2#OOOOOOOOOOOOOOOOOOOOOOOOOOOOOOOOOOOOOOOOOOOOOOOOOOOOOOOOOOOO#2********************.... ::::::-:::**************************>>1",
"2###OOOOOOOOOOOOOOOOOOOOOOOOOOOOOOOOOOOOOOOOOOOOOOOOOOOOOOOOOOO2********************  ..  ......   -***************************1",
"2#OOOOOOOOOOOOOOOOOOOOOOOOOOOOOOOOOOOOOOOOOOOOOOOOOOOOOOOOOOOOO2********************  ..  ......   -**************************>1",
"2OOOOOOOOOOOOOOOOOOOOOOOOOOOOOOOOOOOOOOOOOOOOOOOOOOOOOOOOOOOOO#2********************  .. ....... . =**************************>1",
"2OOOOOOOOOOOOOOOOOOOOOOOOOOOOOOOOOOOOOOOOOOOOOOOOOOOOOOOOOOO###2********************  .. ......... **************************>>1",
"2#OOOOOOOOOOOOOOOOOOOOOOOOOOOOOOOOOOOOOOOOOOOOOOOOOOOOOOOOOOOO#2****************::::....        .. =-:*************************1",
"2#OOOOOOOOOOOOOOOOOOOOOOOOOOOOOOOOOOOOOOOOOOOOOOOOOOOOOOOOOOOO#2*****************:::.... -=*=-=*--*:::************************=1",
"2##OOOOOOOOOOOOOOOOOOOOOOOOOOOOOOOOOOOOOOOOOOOOOOOOOOOOOOOOOOOO2******************>:.... -:*--:*>:::**************************=1",
"2##OOOOOOOOOOOOOOOOOOOOOOOOOOOOOOOOOOOOOOOOOOOOOOOOOOOOOOOOOOOO2******************>-.... =:::-::>:::*************************==1",
"2OOOOOOOOOOOOOOOOOOOOOOOOOOOOOOOOOOOOOOOOOOOOOOOOOOOOOOOOOOOO##2********************.... ->>>:::::>-***************************1",
"2OOOOOOOOOOOOOOOOOOOOOOOOOOOOOOOOOOOOOOOOOOOOOOOOOOOOOOOOOOOO##2********************.....-::>-::::>-**************************>1",
"2#OOOOOOOOOOOOOOOOOOOOOOOOOOOOOOOOOOOOOOOOOOOOOOOOOOOOOOOOOOOO#2********************......  ....  ..    **********************>1",
"2#OOOOOOOOOOOOOOOOOOOOOOOOOOOOOOOOOOOOOOOOOOOOOOOOOOOOOOOOOOOO#2********************.....   ....  .     *********************>>1",
"2###OOOOOOOOOOOOOOOOOOOOOOOOOOOOOOOOOOOOOOOOOOOOOOOOOOOOOOOOOOO2********************       ..... ...   .->::*******************1",
"2#OOOOOOOOOOOOOOOOOOOOOOOOOOOOOOOOOOOOOOOOOOOOOOOOOOOOOOOOOOOOO2********************      ......  ..  ..->::******************>1",
"2OOOOOOOOOOOOOOOOOOOOOOOOOOOOOOOOOOOOOOOOOOOOOOOOOOOOOOOOOOOOO#2********************  ..    . .   ..    **::******************>1",
"2OOOOOOOOOOOOOOOOOOOOOOOOOOOOOOOOOOOOOOOOOOOOOOOOOOOOOOOOOOO###2********************->----=*->->->>---=****:*****************>>1",
"2#OOOOOOOOOOOOOOOOOOOOOOOOOOOOOOOOOOOOOOOOOOOOOOOOOOOOOOOOOOOO#2********************-:::********->*****************************1",
"2#OOOOOOOOOOOOOOOOOOOOOOOOOOOOOOOOOOOOOOOOOOOOOOOOOOOOOOOOOOOO#2********************>:::********::****************************>1",
"2##OOOOOOOOOOOOOOOOOOOOOOOOOOOOOOOOOOOOOOOOOOOOOOOOOOOOOOOOOOOO2**********************::********:::***************************>1",
"2##OOOOOOOOOOOOOOOOOOOOOOOOOOOOOOOOOOOOOOOOOOOOOOOOOOOOOOOOOOOO2********************************::::*************************>>1",
"2OOOOOOOOOOOOOOOOOOOOOOOOOOOOOOOOOOOOOOOOOOOOOOOOOOOOOOOOOOOO##2***************************************************************1",
"2OOOOOOOOOOOOOOOOOOOOOOOOOOOOOOOOOOOOOOOOOOOOOOOOOOOOOOOOOOOO##2**************************************************************>1",
"2#OOOOOOOOOOOOOOOOOOOOOOOOOOOOOOOOOOOOOOOOOOOOOOOOOOOOOOOOOOOO#2**************************************************************>1",
"2#OOOOOOOOOOOOOOOOOOOOOOOOOOOOOOOOOOOOOOOOOOOOOOOOOOOOOOOOOOOO#2*************************************************************>>1",
"2###OOOOOOOOOOOOOOOOOOOOOOOOOOOOOOOOOOOOOOOOOOOOOOOOOOOOOOOOOOO2***************************************************************1",
"2#OOOOOOOOOOOOOOOOOOOOOOOOOOOOOOOOOOOOOOOOOOOOOOOOOOOOOOOOOOOOO2**************************************************************>1",
"2OOOOOOOOOOOOOOOOOOOOOOOOOOOOOOOOOOOOOOOOOOOOOOOOOOOOOOOOOOOOO#2**************************************************************>1",
"2OOOOOOOOOOOOOOOOOOOOOOOOOOOOOOOOOOOOOOOOOOOOOOOOOOOOOOOOOOO###2*************************************************************>>1",
"2#OOOOOOOOOOOOOOOOOOOOOOOOOOOOOOOOOOOOOOOOOOOOOOOOOOOOOOOOOOOO#2***************************************************************1",
"2#OOOOOOOOOOOOOOOOOOOOOOOOOOOOOOOOOOOOOOOOOOOOOOOOOOOOOOOOOOOO#2**************************************************************>1",
"2##OOOOOOOOOOOOOOOOOOOOOOOOOOOOOOOOOOOOOOOOOOOOOOOOOOOOOOOOOOOO2**************************************************************>1",
"2##OOOOOOOOOOOOOOOOOOOOOOOOOOOOOOOOOOOOOOOOOOOOOOOOOOOOOOOOOOOO2*************************************************************>>1",
"2OO#OOOOOOOOOOO#OOOOOOOOOOO#OOOOOOOOOOO#OOOOOOOOOOO#OOOOOOOO###2***********=***********>***********>***********>**********:>***1",
"2OO#OOOO##OOOOO#OOOO##OOOOO#OOOO##OOOOO#OOOO##OOOOO#OOOO##OOO##2****>>*****=****>>*****>****>>*****>****>>*****>****>>****:>**>1",
"2#####OO####OO####OO####OO####OO####OO####OO####OO####OO####OO#1>>**>>>>**>>==**>>>>**>>>>**>>>>**>>>>**>>>>**>>>>**>>>>**>>>>>1",
"22222222222222222222222222222222222222222222222222222222222222111111111111111111111111111111111111111111111111111111111111121111"
};
