/* XPM */
static char *d7113f23676c43e49b4478bc46436faanxcx2TSTfM9041qm[] = {
/* columns rows colors chars-per-pixel */
"128 128 24 1 ",
"  c black",
". c #010100",
"X c #010001",
"o c #010101",
"O c #FF5622",
"+ c #FE5722",
"@ c #FF5722",
"# c #FE5623",
"$ c #FF5623",
"% c #FE5723",
"& c #F44236",
"* c #F44336",
"= c #F54336",
"- c #F44237",
"; c #F54237",
": c #F44337",
"> c #F54337",
", c #EAEAEA",
"< c #EBEAEA",
"1 c #EAEBEA",
"2 c #EBEBEA",
"3 c #EAEAEB",
"4 c #EBEAEB",
"5 c gray92",
/* pixels */
"33333333333333,,3333333333333333333333333333,,,<<<333333,33,3<33333311111111313333,,3,,33,13,,3333333,133113313333,3,1,333111111",
"3=::====::====::=;==--====;========;===:=::=&&===&;===;=&======3$$$$++$$$$#$$@+@$$$+$$$$+$$@$+$$$$+$++@@$$++$+$$++$$$+$$@@$+#$#1",
"3===::=:::-===&=--==:==-===;--=;--;;;;=;=:==-&:-===;--==&&-==&;3$$$$++++$#$$++$$+$+++$$+$@$@+++$$+$$$$+$+$$++$$+@$$@$+$+$$++$$$1",
"3===::::=--==:&=--==:==-===;-;;;---;======:=----==&==;;==::-==;3$$$$$+++##$#$++@$+$++$+$@@@@+$$$$$+$+$$$$+$++$+$@@$@++$+$+$$###1",
"3=;;:=&&===;-;-;:=;;=;--&-==-:===---==;;:==:=:==;;;&::::;=:-===3@@@$$@+++$+$@+$+$+$$++$$$$+++$$$$$++@$++$$+$#++++++$+++$++++$$$1",
"3-;=&&&=--:=;=&=::;=-:;===--====--==;=;==:::&&::;;;&::&-;;=-==;3$$$$$@+++##+$+$+$++$++++$@++++$$$+$$$++$++++#++++$$++$++$+$+#$$1",
"3==;;;=&=-;;-==&==&&:=&&&&--:==:;=::=-;;=:::====;;&&==&&=;&;&;=3@$@@@$$@##+$+$+++$$$$$$$@+$$#++$$+$+$+$++$@$##+@$$+$++++++$$$#+1",
"3==;=;;&--;=;&::=-&=--=&==:::=::&&=:=-;&::::=&::======&&&;;=;;=3@@@$$$@$##+$++++$$$$+++$@$+$+++++++$+$$++++@@#@@$+$$+$+++$$++$#1",
"3===--:&==&&=&=====;=;&=--&=&====;=---====&&::=====;=;=;;=--;=;3$+$+++++#$+++$+++++++$$+$++$$$$$+$+@+++$$$+$$$+$$+$$$+$$+++$+$+,",
"3======&&;=&:==-===;==;&-=&-&&;;;=-=:-=&===&:::=;==;&&&=;==-;=;3+++$+$+$$$@$+$$$$$$+++++$$$$+$++$+@$$+$$+$+$+$$+$+$$$++$$+$++++,",
"3==::-=;&=;--:=&==;==&&&-====-=;=;==:=:&==&&::=&:--==&-=;;-&&&=,+$+$$+$$$+++$++$+++$++++$$++$+++++@@$++++$$$+++@$$++$+++$$$$$$+,",
"3:=:;;;;&&=-=;==;===;;&&&&=&==;=;&=&==:&:=&&&:=&==--&==-;&&&=&=<+$$+$+++$+$$++$$$+$$$$+$$++$$$$$#++@$++$+$++$$+$+$++++++$$+$+$$,",
"3==;=;&=;;&&&;==-===&&&&=&&&--::=&&=&&&&==:::&&====&&;;:=;=&&&=<+$$+$+@+#++$+$$@+$++$+$++++$$$$$#$$+$$++$+$$$$$+++$$$+$$+$$$+$+3",
"3:;=&&;==-=-;=&====:&&&&=&&&--::=&;=&&&&:::=::=&::&==;=;--&&=&=<++$+$+++#++$+$++++$$$++$$++$+$$$$+$$+@$$++$++$$$$++$$$++$$++$++3",
"3==&;--==::=;--=:::=&&::==&&=&::&=&&==--:=&=::=&==:=-=;=:::&&&&<$$+$+++$$$$$+@$@$+$+$++$$++$+$+$$+++$$+++++++$$++$++++$++$@+$@+,",
"3===;=:&;==-=;::=:==&&:::=&&:-::==&=&=::::=:===&:=:&-::&:::-=&;4+$++@$+$++++#$+++$$++$+++$$+++$+$$$++$@+$$$$$$$+$++++++$+$@@$$$,",
"3=-;;;==-;;===&-:=:&>>=>>;>>>:=:&&====>===>=:::&::--=::-&=::;;=3+$$$$$+$+++$++$$+$%%%$#$$+++$+++$++$+$++$+++$#+#+$$$$$+$++$$$+$,",
"3=-;=;;;==;=&&&=::&&>     >;:==:::==     ==>==:&::=;:==-&&=====3$+$$$+++$$+++$+$$$+$%$$#++$++++$++++$$$+++$$++$+$$+++++$$+++$+$3",
"3=-;==;==:;;==:-=:&==     >>::=:::=:     >=>====:=;;==--&=:==-=3$++$++++$+$+++++$+$$++$#$++++$$$+++$$+$++++$#+++$$$+++++$$+$$@+,",
"3=;;==;==:;;&&=======     >>::::::::     >=>===*==&&===&=&:-===,+$+$$+++$++$++$++$$$#$$+++$$$$$$OO$+$+$$$+$++$++$+++++$$+$$+$@$3",
"3==;&&;;=;--=--=:::=:     ==:-&&=>>:o    =::::&&=-===::-=&&=&;;3+$$$$+++$$$++++$$+$$#$++OOO$+@$+O$$$$++++O$++++$$+$+$$+$++++$@+1",
"3=;=&&;;=&:::=-&==:==     ==::=&=>=: o   =:>::&&=:&-:==:=&&&&;;3$$$+$+$$$++$$+$+$+$+#$+$OO$$+@$+O$+$++$$+O++$$$$+$+$++$+++$+@@$1",
"3:=-&==&--=:=-;;-&&==          ===== oo  ===::::==&&=--=;;;;&==3+$$+++++++$$+$$+$++$$++$OO++$+++$+++$+#$OO+O$++$+$+$++$++$++$$#1",
"3=:=&==&--:==-=;&&&=:          ====> o o ==;::::===&===;===;&-=,$++$+$$+$$+$++$+$+$+$++++O++++$++$$++#$$$OOO+$+$$+++$$$$+$$###$1",
"3==;:=;;&&=&&==&=====oo   . ...>===>  o  ::===&&&=:-==:=;-==-==,$$+$+$$$$++++$$+$++++++$+++$++$+++++OO$$$++++++$$+$$++$+$+$+$$$,",
"3==;:=;=&&&==&=-===:=o  . .   o>>===  oo =:=:=&:-=:=:=&--;=-=-=,+$$$++$$+++$+++$$+++++$+++++++++$$++OO$$+$$$++$++$$+$++$$$$$++$3",
"3==;-=;-&&::=;;===:==   o o  o =>>==   o =&=&&:=-==:;;&&-&==::=,$+$+$$+$+$$$++$++$+$++++++++++++++++$O+++++$O$$+++$$$$+$$$$+$$@1",
"3===-=--=&--;=;==>==> o   =>=>>    o   o =&&&&:=-:::==&&:===::=,+$+$$%+$$$++$$$++++++$+++++++++++++$$OO+$$$+O$$$++++#+++$+$++++1",
"3=&&-==:=;==;&=:>::==     :==== . o      =-:::-==;;&;:==&&&==&:3++$$++++$++$$++$$$$$++++++++++++O+++$++$$+++$$$$+OOO+$$$+++$$+$1",
"3&&-::::;=;=;==:=>===     ::===  .o      =::::&&;;;===-=&&&&=&:1+$$$++$+$++$+++$+$$++$++++++++++++++$++$+$$+$$++++$O+$++$+$$++#1",
"3=:==::=--:---::=::==oo   ::==> . .      :::===:=;&=&--:=:=:===1$++++$+$+$$++$++$++$$+++++++++++++$+++++$++$+$$$#$#$+++$$+$+#$+1",
"3==:=:=:==:=-===:-===o    ::>=>   . .    :::=:=::-&&&=-:=::====3+++$$$++++$+++$$+$+$++++++++++++++++++$+$+++++$++$$#+$$$$+$$+$#1",
"3===*****************     ==********     =:::******************1+++++++++++++++++++++++++++++++++++++++++++++++++++++++++++++++,",
"<===****************=     ::********     =:::***************::*1++++++++++++++++++++++++++++++++++++++++++++++++++++++++++++++O,",
",-::****************=     ::********     >::****************::=2++++++++++++++++++++++++++++++++++++++++++++++++++++++++++++$$O,",
",:::****************:     ::********     =::****************::=1++++++++++++++++++++++++++++++++++++++++++++++++++++++++++++$$O,",
"3=&*************:***=     ::::******     *********************=1++++++++++++++++++++++++++++++++++++++++++++++++++++++++@@@@+++,",
"3=&:************::**=     ::::******     *********************=2++++++++++++++++++++++++++++++++++++++++++++++++++++++++@@@@++@,",
"<=::************:::::     =:********     =*********************1++++++++++++++++++++++++++++++++++++++++++++++++++++++++@@@@@@@1",
"<=::************:::>=     =:********     =*********************1++++++++++++++++++++++++++++++++++++++++++++++++++++++++@@@@@@@1",
"1********************     ********::     =:::***************::=2++++++++++++++++++++++++++++++++++++++++++++++++++++++++@@@@@@@1",
"1*******************=     ********::     =::****************::=1++++++++++++++++++++++++++++++++++++++++++++++++++++++++@@@@@@@2",
"2=******************=:::==********::==**=:::****************::=1++++++++++++++++++++++++++++++++++++++++++++++++++++++++@@@@++@1",
"1=******************::::::********::::**>:::******************=2++++++++++++++++++++++++++++++++++++++++++++++++++++++++@@@@+++2",
"1=::********************::::***********************************1+++++++++++++++++++++++++++++++++++++++++++++++++++++++++++++++2",
"2=::********************::::********************************::*1+++++++++++++++++++++++++++++++++++++++++++++++++++++++++++++++2",
"1*::********************************************************::=2+++++++++++++++++++++++++++++++++++++++++++++++++++++++++++++++2",
"1***********************************************************::=1+++++++++++++++++++++++++++++++++++++++++++++++++++++++++++++++2",
"2=************************************************************=1+++++++++++++++++++++++++++++++++++++++++++++++++++++++++++++++2",
"1=::**********************************************************=2+++++++++++++++++++++++++++++++++++++++++++++++++++++++++++++++5",
"1=::***********************************************************1+++++++++++++++++++++++++++++++++++++++++++++++++++++++++++++++5",
"2=::***********************************************************1+++++++++++++++++++++++++++++++++++++++++++++++++++++++++++++++5",
"1***********************************************************::=2+++++++++++++++++++++++++++++++++++++++++++++++++++++++++++++++5",
"1***********************************************************::=1+++++++++++++++++++++++++++++++++++++++++++++++++++++++++++++++5",
"2=**********************************************************::=1+++++++++++++++++++++++++++++++++++++++++++++++++++++++++++++++5",
"1=************************************************************=2+++++++++++++++++++++++++++++++++++++++++++++++++++++++++++++++5",
"1=::********************************************************:::1+++++++++++++++++++++++++++++++++++++++++++++++++++++++++++++++5",
"2=::********************************************************::*1+++++++++++++++++++++++++++++++++++++++++++++++++++++++++++++++5",
"1*::***:****************************************************::=2+++++++++++++++++++++++++++++++++++++++++++++++++++++++++++++++5",
"1******:*******:*******:*******:*******:*******:*******:****::=1+++++++++++++++++++++++++++++++++++++++++++++++++++++++++++++++5",
"2=::::::**:::*::**:::*::**:::*::**:::*::**:::*::**:::*::**:::*=1+++++++++++++++++++++++++++++++++++++++++++++++++++++++++++++++5",
"1=:=:::=**:=**:=**:=**:=**:=**:=**:=**:=**:=**:=**:=**:=**:=**=2+++++++++++++++++++++++++++++++++++++++++++++++++++++++++++++++5",
"1===:===*===*===*===*===*===*===*===*===*===*===*===*===*===*==2+++++++++++++++++++++++++++++++++++++++++++++++++++++++++++++++5",
"22111111111111111111111111111111111111111111111111111111111111115555555555555555555555555555555555555555555555555555555555555555",
"5++++++++++++++++++++++++++++++++++++++++++++++++++++++++++++++5=>::***********************************************************1",
"5++++++++++++++++++++++++++++++++++++++++++++++++++++++++++++++5>>::**********************************************************=1",
"5++++++++++++++++++++++++++++++++++++++++++++++++++++++++++++++5*:::********************************************************::=1",
"5++++++++++++++++++++++++++++++++++++++++++++++++++++++++++++++5*:::********************************************************:==1",
"5++++++++++++++++++++++++++++++++++++++++++++++++++++++++++++++5************************************************************:**1",
"5++++++++++++++++++++++++++++++++++++++++++++++++++++++++++++++5**************************************************************=1",
"5++++++++++++++++++++++++++++++++++++++++++++++++++++++++++++++5************************************************************::=1",
"5++++++++++++++++++++++++++++++++++++++++++++++++++++++++++++++5***********************************************************::==1",
"5++++++++++++++++++++++++++++++++++++++++++++++++++++++++++++++5***************************************************************1",
"5++++++++++++++++++++++++++++++++++++++++++++++++++++++++++++++5**************************************************************=1",
"5++++++++++++++++++++++++++++++++++++++++++++++++++++++++++++++5************************************************************::=1",
"5++++++++++++++++++++++++++++++++++++++++++++++++++++++++++++++5************************************************************:==1",
"5++++++++++++++++++++++++++++++++++++++++++++++++++++++++++++++5************************************************************:**1",
"5++++++++++++++++++++++++++++++++++++++++++++++++++++++++++++++5**************************************************************=1",
"5++++++++++++++++++++++++++++++++++++++++++++++++++++++++++++++5************************************************************::=1",
"5++++++++++++++++++++++++++++++++++++++++++++++++++++++++++++++5***********************************************************::==1",
"5++++++++++++++++++++++++++++++++++++++++++++++++++++++++++++++5************************:::*********::::***********************1",
"5++++++++++++++++++++++++++++++++++++++++++++++++++++++++++++++5************************::::********:::=**********************=1",
"5++++++++++++++++++++++++++++++++++++++++++++++++++++++++++++++5************************::::********:::=********************::=1",
"5++++++++++++++++++++++++++++++++++++++++++++++++++++++++++++++5************************:::=*******::::=********************:==1",
"5++++++++++++++++++++++++++++++++++++++++++++++++++++++++++++++5****************::::*     ==**::**** o o :::****************:**1",
"5++++++++++++++++++++++++++++++++++++++++++++++++++++++++++++++5****************::::*     ==***:**** o  o=::******************=1",
"5++++++++++++++++++++++++++++++++++++++++++++++++++++++++++++++5****************:*::=   oo****::**** oo o*::****************::=1",
"5++++++++++++++++++++++++++++++++++++++++++++++++++++++++++++++5******************:==     ****::****o  o ******************::==1",
"5++++++++++++++++++++++++++++++++++++++++++++++++++++++++++++++5********************=   o =====:****   o ==:::*****************1",
"5++++++++++++++++++++++++++++++++++++++++++++++++++++++++++++++5********************=o  o  oooo:****    o=::::****************=1",
"5++++++++++++++++++++++++++++++++++++++++++++++++++++++++++++++5********************=      o o :****     =:::***************::=1",
"5++++++++++++++++++++++++++++++++++++++++++++++++++++++++++++++5********************=      o   :**** o  o:::::**************:==1",
"5++++++++++++++++++++++++++++++++++++++++++++++++++++++++++++++5*********************         o=::::     ==:****************:**1",
"5++++++++++++++++++++++++++++++++++++++++++++++++++++++++++++++5********************=      o o =:::=oo  o:::******************=1",
"5++++++++++++++++++++++++++++++++++++++++++++++++++++++++++++++5********************=     ===== o oooo oo=******************::=1",
"5++++++++++++++++++++++++++++++++++++++++++++++++++++++++++++++5********************:   oo==::=oo   o  o ******************::==1",
"5++++++++++++++++++++++++++++++++++++++++++++++++++++++++++++++5****************::::= ooo **::=o o       ==:::*****************1",
"5++++++++++++++++++++++++++++++++++++++++++++++++++++++++++++++5*****************:::=oo   **:::     ooo  =::::****************=1",
"5++++++++++++++++++++++++++++++++++++++++++++++++++++++++++++++5******************:::  o o**::*   o o oo =::::**************::=1",
"5++++++++++++++++++++++++++++++++++++++++++++++++++++++++++++++5******************:==     **::**===:     :::::**************:==1",
"5++++++++++++++++++++++++++++++++++++++++++++++++++++++++++++++5********************>     ==****::::     ==:****************:**1",
"5++++++++++++++++++++++++++++++++++++++++++++++++++++++++++++++5********************=     ::****::::     =::******************=1",
"5++++++++++++++++++++++++++++++++++++++++++++++++++++++++++++++5********************=     ::****::::     =******************::=1",
"5++++++++++++++++++++++++++++++++++++++++++++++++++++++++++++++5********************=     ::*****:==     ******************::==1",
"5++++++++++++++++++++++++++++++++++++++++++++++++++++++++++++++5*********************     =:::******     =::*******************1",
"5++++++++++++++++++++++++++++++++++++++++++++++++++++++++++++++5*********************     =:::******     =::******************=1",
"5++++++++++++++++++++++++++++++++++++++++++++++++++++++++++++++5********************=     ::::******     :::****************::=1",
"5++++++++++++++++++++++++++++++++++++++++++++++++++++++++++++++5********************=     ::::******     :::****************:==1",
"5++++++++++++++++++++++++++++++++++++++++++++++++++++++++++++++5********************:     =:********     =******************:**1",
"5++++++++++++++++++++++++++++++++++++++++++++++++++++++++++++++5********************::>=**=:********==**:=*:******************=1",
"5++++++++++++++++++++++++++++++++++++++++++++++++++++++++++++++5********************::::************::::::::****************::=1",
"5++++++++++++++++++++++++++++++++++++++++++++++++++++++++++++++5******************::::::************::::::::***************::==1",
"5++++++++++++++++++++++++++++++++++++++++++++++++++++++++++++++5***************************************************************1",
"5++++++++++++++++++++++++++++++++++++++++++++++++++++++++++++++5**************************************************************=1",
"5++++++++++++++++++++++++++++++++++++++++++++++++++++++++++++++5************************************************************::=1",
"5++++++++++++++++++++++++++++++++++++++++++++++++++++++++++++++5************************************************************:==1",
"5++++++++++++++++++++++++++++++++++++++++++++++++++++++++++++++5************************************************************:**1",
"5++++++++++++++++++++++++++++++++++++++++++++++++++++++++++++++5**************************************************************=1",
"5++++++++++++++++++++++++++++++++++++++++++++++++++++++++++++++5************************************************************::=1",
"5++++++++++++++++++++++++++++++++++++++++++++++++++++++++++++++5***********************************************************::==1",
"5++++++++++++++++++++++++++++++++++++++++++++++++++++++++++++++5***************************************************************1",
"5++++++++++++++++++++++++++++++++++++++++++++++++++++++++++++++5**************************************************************=1",
"5++++++++++++++++++++++++++++++++++++++++++++++++++++++++++++++5************************************************************::=1",
"5++++++++++++++++++++++++++++++++++++++++++++++++++++++++++++++5************************************************************:==1",
"5++++++++++++++++++++++++++++++++++++++++++++++++++++++++++++++2****:::*::::****:::*::::****:::*::::****:::*::::****:::*:::::**1",
"5++++++++++++++++++++++++++++++++++++++++++++++++++++++++++++++2****:=::*::=****:=::*::=****:=::*::=****:=::*::=****:=:::::=**=1",
"5++++++++++++++++++++++++++++++++++++++++++++++++++++++++++++++2==**====**====**====**====**====**====**====**====**====::=====1",
"55555555555555555555555555555555555555555555555555555555552222211111211111211111211111211111211111211111211111211111211111211211"
};
