/* XPM */
static char *a1d98ca05c684041bb79844a75bde466fwE9mgucIqB9yvCx[] = {
/* columns rows colors chars-per-pixel */
"128 128 23 1 ",
"  c #010100",
". c #000001",
"X c #FE5622",
"o c #FF5622",
"O c #FF5722",
"+ c #FE5623",
"@ c #FE5723",
"# c #FF5723",
"$ c #F44236",
"% c #F54236",
"& c #F44336",
"* c #F54336",
"= c #F44237",
"- c #F54237",
"; c #F44337",
": c #F54337",
"> c #EAEAEA",
", c #EBEAEA",
"< c #EBEBEA",
"1 c #EAEAEB",
"2 c #EBEAEB",
"3 c #EAEBEB",
"4 c gray92",
/* pixels */
"1131111111111133111123332211111111121133111122233232222211111111,1>134>4>4321111333333444333>>3>3333>>33333333333333>>>>33><<433",
"1*;******=******=***==*=**=**==*************=-******--==*=**=*$1OOOOXXXX@@@@XXXX@@XXXXXX@@XXXXX#XXX#XXXXX@XXXXX@XXXXX#XXXX#XXXX>",
"1***==***==****=*=*===*=*$=*====*=***==**=*=--==*===*=$$**=====>OOOOXXX@@@@@XXXXXX@XXX@@X@@X#X#########XX@XXX##@@#XX#XXXX##XXXX3",
"<******=**=***=*====*=*=*-=*=***====***==***-=*=**=*===**==***$1OOOOXXX@@X@@@XXXX@XXXX@@@XX@XX#XX####XXX#XX@XXXX@X@@#XX####XXXX3",
"3*==*=*;*=**$$=*====*==**$$$**=====*=**===&;=;====*==$**====**$1OO@@@X@XX@X@X@@XX@XXX@XX@XXXXXX@@#XXXXXX@@X@@@@X@@#XXX##@@@XXXX3",
"3**==**==*==*==*=***=****$$$*=**==***=*===&****===*==$**==***$$>OXXXXXX@XX@@@X@@XX@@@@@@XXXXXXXX###@#X##@XXXXXX@@X##@@X@@X@@XXX3",
"3*****=*&*&***==**===*=&**=====$=*=*==**==*&*=;;*****===******=1XXXXX@@@X@@@X@XXXX@X@@X@XX@XX#X@@O#@XX##@@XXX@XXXX#X@XXXX@X@@@X3",
"3**;;;;***&***==*=**=***========*=******=*==;=*;===*=***=*****=2XXXX@@@X@X@XX@XX@@XXXX@XXX@XXXX@OO##XX##X@@XX@XXXX#XX@X@XX@X@XX3",
"3*--===*=*==**=*==***====$****==******=****===*=$=**=*****==**$2@X@@XX@X@@XX@XXX@@XXX@@X@@XX@@X@O@O@X@X@@@XXXX@@@X@XXXXXXXXX@@@3",
"2*-*======-==*======*==*=*=*=*=**$***=*=****====****====**==***2@X@X@X@@@X@XX@@X@@@XXX@X@@XX@X@@@O@@XXXX@@X@X@@XXX@@X@X@@@@XX@X3",
"1*-$*==***=-***===***=*=$&***==*$$*$***=****=*=*$**$=*=$==*=**$>@@@XXXXXX@@X@@@X@XX@@XX@XX@@XX@@@O@O@@@@@@@X@X@@XX@@X@@X@X@XXXX3",
"1$*$=*=*===*==*====**==*$*=*=***==*$=*=*==**&====--***=*====***>@XXXXX@@XXXX@X@@@XXXX@@@X@X@@@XXO@@O@@XX@@@@@X@@@@X@X@@X@@XXXXX3",
"1****=*-=***=***=*****=***$$=$*=*=*=**==***=*=****$$-$*=*=*=$*$1X@@XXXXX@XX@X@@@@@@X@@XX@X@X@@@X@OXXXX@@X@XXXXX@XXX@@@@@@@@XXXX>",
"1***=*=*=***==**$*===*=***$$**==*$=====*=**==***==-*=-*==*$===$>X@XXX@@XX+@@@@XX@XX@@XXXX@XX@@@X@OXXXX@@@@X@XXXX@X@@@XXXX@XXX@X3",
"1**=*==*==--*==*=**=******$$===$=$=******$==*=*****=*$-====*===1X@@X@@XX@+X@@X@X@XX@@@@@@@@X@@X@OXXXXXXX@@@@XXXX@XX@@@@@X@@@XXX3",
"1-$**$=**=-**==**$==******$$$*=*===******$===*****$-*---=*=*=**1X@XXXXXXXX@X@@@@XXXXXX@XXX@X@XXXOXXX@X@@XXXXXXXX@@@@@XXX@X@@XXX3",
"1*=****=&*****&=*&&&*=*=***          .. ..=;=&&*==*===**===****1XX@X@X@XX@X@X@#X##@X@@@@OX@XXXXX##XXXX###XX#XX@@@@X@@XXXX@@@@XX3",
"1*=*=*=**&&**&&*=$*&**===**              .;;*=&&=***==**=******1#XXXX@@@@X#X#X#X#X@@X@X@OO@@XX@@###X###X####XX@#@@XX@X@@XX@XXXX3",
"1======**&**==&$&&****&==&=         .  .  ;==&**=**=**$**=*=***1XX@X#XX@X@XX#@@X#X#XXX@X@@XOXX@@#X##XX@XXX#XX@#X@@@XXXX@@@XXXXX4",
"1*==**=*=*&&&=&&&$$=&&&===&          ...  ;;==*&==*===*$*==*=**1XX@@X##X@X@@XX@X##XXX@X@@XOOXX@@XXXX##@XX##XX@##@@@XX@X@XXXXXXX3",
"1***=*==&*=*=$$=**&&&$=*==*               =&=&&==**=**=******=*1XX##@@XX#XXXXOX#@X@@X@@XOOOOXOO#XXXX@XX#X#X@####X@@X@@@XX@@@XXX>",
"1$**==*=*=*==$$***&&&*     *=;;==*==**=&==**&&=&**=**=****==***1###X@@XXXXX#X###XXX@@@@@OOOOXOOXXXXXXXXXXXXXX##XXXXXXX@X@@@@XX@>",
"1***==**=**==$**==&&$*     *==;*=&&&==&&=***&&*=====*==*=***==*1XX#X##@XX###X#XXXXXX@XXXX##XXXXXOOXX@XX@X@XX#XX@XX@@XXXXXXX@@@X4",
"1&****=***===***==&&*$     &&==*&&&&&=&&=;**&&===******==*=****3XX#XXX##XXX#XXX#X#@XX@XXX#X#XXXXOO##X@X@@X#XX@XX@XX@XXXX#X@X@X@3",
"1***=====*=&&*=&***&&;     ==&&&=;;**=*&&&&&=*=*=*=**==**--*=-*3X##X##XXXX#XX####XXXXXXX#X##OOOOOOOOXO@@@@@O@@XXXXX@@@X@X@#X##X>",
"2**==**=*=$&**==*&====     =&&=*==;*====&&&==**=*=**===*=***=*=3#XXXXX##X@@@X#X###XXXXXX##OOOOOOOOOOOOO@@O@@@@XXXXXX+@@XX@X##XX>",
"1**;-*;=*=*=*==***==&*&&=;*          *==&&&&=***=*==&&&*=*=*==*2#X@@#XXXXXXXXX#X##X#XXOOOOOOOOOOOOOOXX@O####OXXXX@++X@@@@######>",
"1*==*=*==*==**=*=**&==&&===          **=&&&&=*==**==*****=*=*=*2X#XX##XX###X###X####XXOOOOOOOOOOOOOOXXXX##X#XXXXX@++++XXXX##X##>",
"1***---***=***=*====&&&&&==          &&&&&&&==***===**====-*;**4###XX#####OXX###@@OOO@OOOOOOOOOOO#X#XXXXXXX#XXXXXXXX@@XX@@XXX#X3",
"2*==--*-==**=****==*&&&&&=*          &&&&&&&==***=;*====*=--*;*4#XXXX#XXXXOOXX##O#@OO@O@OOOOOOOOO##XXX@XXOX##XXX@XXX@X@X@@X@XXX3",
"1-==****$====*&**==*;&&&&&&          =====&**=****=*&**=***;*;;4XX###########XX#O@OOO@OOOOOOOOOOOO##X#@X#O#XX#XX@@XXX@@XXX@@XX@4",
"1**=***=*$**$*===**=&&&&&&=;====&==*&     *=**=**==*&*===;;*;**3X@###XXXXX###X#XO@@OOOOOOOOOOOOOOO#X###XXXX#X#@XXX@X@@@@@@X@X@@4",
"1--$&&&&&&&&&&&&&&&&&&&&&&&&&&&&&&&&=     &&&&&&&&&&&&&&&&&&&&&3OOOOOOOOOOOOOOOOOOOOOOOOOOOOOOOOOOOOOOOOOOOOOOOOOOOOOOOOOOOOOOO>",
"1*==&&&&&&&&&&&&&&&&&&&&&&&&&&&&&&&&=     &&&&&&&&&&&&&&&&&&&&&3OOOOOOOOOOOOOOOOOOOOOOOOOOOOOOOOOOOOOOOOOOOOOOOOOOOOOOOOOOOOOO#>",
"<&==&&&&&&&&&&&&&&&&&&&&&&&&&&==&&&&=     =&&&&&&&&&&&&&&&&&&&*4OOOOOOOOOOOOOOOOOOOOOOOOOOOOOOOOOOOOOOOOOOOOOOOOOOOOOOOOOOOOOO#>",
"<&==&&&&&&&&&&&&&&&&&&&&&&&&&&&=&&&&=     ==&&&&&&&&&&&&&&&&&**3OOOOOOOOOOOOOOOOOOOOOOOOOOOOOOOOOOOOOOOOOOOOOOOOOOOOOOOOOOOOOO#>",
"<&&&&&&&&&&&&&&&&&&&==               =&&&&&&&&&&&&&&&&&&&&&&&&*3OOOOOOOOOOOOOOOOOOOOOOOOOOOOOOOOOOOOOOOOOOOOOOOOOOOOOOOOOOOOOOO>",
"<&&&&&&&&&&&&&&&&&&&&=               =&&&&&&&&&&&&&&&&&&&&&&&&*3OOOOOOOOOOOOOOOOOOOOOOOOOOOOOOOOOOOOOOOOOOOOOOOOOOOOOOOOOOOOOO#>",
"<&&&&&&&&&&&&&&&&&&&&&               ==&&&&&&&&&&&&&&&&&&&&&&&&3OOOOOOOOOOOOOOOOOOOOOOOOOOOOOOOOOOOOOOOOOOOOOOOOOOOOOOOOOOOOOOO3",
"<&&&&&&&&&&&&&&&&&&&&&               =&&&&&&&&&&&&&&&&&&&&&&&&&3OOOOOOOOOOOOOOOOOOOOOOOOOOOOOOOOOOOOOOOOOOOOOOOOOOOOOOOOOOOOOO#<",
">&&&&&&&&&&&&&&&&&&&&&               &&&&&&&&&&&&&&&&&&&&&&&&&*4OOOOOOOOOOOOOOOOOOOOOOOOOOOOOOOOOOOOOOOOOOOOOOOOOOOOOOOOOOOOOOO3",
">&&&&&&&&&&&&&&&&&&&&&&&==;&;;*&===&=&&&&&&&&&&&&&&&&&&&&&&&&**3OOOOOOOOOOOOOOOOOOOOOOOOOOOOOOOOOOOOOOOOOOOOOOOOOOOOOOOOOOOOOO#<",
">&&&&&&&&&&&&&&&&&&&&&&&=&&&;;&&=&&&&&&&&&&&&&&&&&&&&&&&&&&&&&*3OOOOOOOOOOOOOOOOOOOOOOOOOOOOOOOOOOOOOOOOOOOOOOOOOOOOOOOOOOOOOOO3",
">&&&&&&&&&&&&&&&&&&&&&&&&&&&&&&&&&&&&&&&&&&&&&&&&&&&&&&&&&&&&&*3OOOOOOOOOOOOOOOOOOOOOOOOOOOOOOOOOOOOOOOOOOOOOOOOOOOOOOOOOOOOOO#<",
">**&&&&&&&&&&&&&&&&&&&&&&&&&&&&&&&&&&&&&&&&&&&&&&&&&&&&&&&&&&&&3OOOOOOOOOOOOOOOOOOOOOOOOOOOOOOOOOOOOOOOOOOOOOOOOOOOOOOOOOOOOOOO3",
">*&&&&&&&&&&&&&&&&&&&&&&&&&&&&&&&&&&&&&&&&&&&&&&&&&&&&&&&&&&&&&3OOOOOOOOOOOOOOOOOOOOOOOOOOOOOOOOOOOOOOOOOOOOOOOOOOOOOOOOOOOOOO#<",
"3&&&&&&&&&&&&&&&&&&&&&&&&&&&&&&&&&&&&&&&&&&&&&&&&&&&&&&&&&&&&&*4OOOOOOOOOOOOOOOOOOOOOOOOOOOOOOOOOOOOOOOOOOOOOOOOOOOOOOOOOOOOOOO3",
"3&&&&&&&&&&&&&&&&&&&&&&&&&&&&&&&&&&&&&&&&&&&&&&&&&&&&&&&&&&&&**3OOOOOOOOOOOOOOOOOOOOOOOOOOOOOOOOOOOOOOOOOOOOOOOOOOOOOOOOOOOOOO#<",
"3*&&&&&&&&&&&&&&&&&&&&&&&&&&&&&&&&&&&&&&&&&&&&&&&&&&&&&&&&&&&&*3OOOOOOOOOOOOOOOOOOOOOOOOOOOOOOOOOOOOOOOOOOOOOOOOOOOOOOOOOOOOOOO3",
"3*&&&&&&&&&&&&&&&&&&&&&&&&&&&&&&&&&&&&&&&&&&&&&&&&&&&&&&&&&&&&*3OOOOOOOOOOOOOOOOOOOOOOOOOOOOOOOOOOOOOOOOOOOOOOOOOOOOOOOOOOOOOO#<",
"3**&&&&&&&&&&&&&&&&&&&&&&&&&&&&&&&&&&&&&&&&&&&&&&&&&&&&&&&&&&&&3OOOOOOOOOOOOOOOOOOOOOOOOOOOOOOOOOOOOOOOOOOOOOOOOOOOOOOOOOOOOOOO3",
"4*&&&&&&&&&&&&&&&&&&&&&&&&&&&&&&&&&&&&&&&&&&&&&&&&&&&&&&&&&&&&&3OOOOOOOOOOOOOOOOOOOOOOOOOOOOOOOOOOOOOOOOOOOOOOOOOOOOOOOOOOOOOO#<",
"3&&&&&&&&&&&&&&&&&&&&&&&&&&&&&&&&&&&&&&&&&&&&&&&&&&&&&&&&&&&&&*4OOOOOOOOOOOOOOOOOOOOOOOOOOOOOOOOOOOOOOOOOOOOOOOOOOOOOOOOOOOOOOO3",
"3&&&&&&&&&&&&&&&&&&&&&&&&&&&&&&&&&&&&&&&&&&&&&&&&&&&&&&&&&&&&**3OOOOOOOOOOOOOOOOOOOOOOOOOOOOOOOOOOOOOOOOOOOOOOOOOOOOOOOOOOOOOO#<",
"3*&&&&&&&&&&&&&&&&&&&&&&&&&&&&&&&&&&&&&&&&&&&&&&&&&&&&&&&&&&&&*3OOOOOOOOOOOOOOOOOOOOOOOOOOOOOOOOOOOOOOOOOOOOOOOOOOOOOOOOOOOOOOO3",
"3*&&&&&&&&&&&&&&&&&&&&&&&&&&&&&&&&&&&&&&&&&&&&&&&&&&&&&&&&&&&&*3OOOOOOOOOOOOOOOOOOOOOOOOOOOOOOOOOOOOOOOOOOOOOOOOOOOOOOOOOOOOOO#<",
"3**&&&&&&&&&&&&&&&&&&&&&&&&&&&&&&&&&&&&&&&&&&&&&&&&&&&&&&&&&&&&3OOOOOOOOOOOOOOOOOOOOOOOOOOOOOOOOOOOOOOOOOOOOOOOOOOOOOOOOOOOOOOO3",
"4*&&&&&&&&&&&&&&&&&&&&&&&&&&&&&&&&&&&&&&&&&&&&&&&&&&&&&&&&&&&&&3OOOOOOOOOOOOOOOOOOOOOOOOOOOOOOOOOOOOOOOOOOOOOOOOOOOOOOOOOOOOOO#<",
"3&&&&&&&&&&&&&&&&&&&&&&&&&&&&&&&&&&&&&&&&&&&&&&&&&&&&&&&&&&&&&*4OOOOOOOOOOOOOOOOOOOOOOOOOOOOOOOOOOOOOOOOOOOOOOOOOOOOOOOOOOOOOOO3",
"3&&&&&&&&&&&&&&&&&&&&&&&&&&&&&&&&&&&&&&&&&&&&&&&&&&&&&&&&&&&&**3OOOOOOOOOOOOOOOOOOOOOOOOOOOOOOOOOOOOOOOOOOOOOOOOOOOOOOOOOOOOOO#<",
"3*&&&&&&&&&&&&&&&&&&&&&&&&&&&&&&&&&&&&&&&&&&&&&&&&&&&&&&&&&&&&*3OOOOOOOOOOOOOOOOOOOOOOOOOOOOOOOOOOOOOOOOOOOOOOOOOOOOOOOOOOOOOOO3",
"3***&&&*&&&*&&&*&&&*&&&*&&&*&&&*&&&*&&&&&&&*&&&*&&&*&&&*&&&*&&*4OOOOOOOOOOOOOOOOOOOOOOOOOOOOOOOOOOOOOOOOOOOOOOOOOOOOOOOOOOO#OO#<",
"3***&***&***&***&***&***&***&***&***&&&*&***&***&***&***&***&**3##OO####OO####OO####OO####OO####OO####OO####OO####OO####OO####O3",
"44333333333333333333333333333333>>>>33333333333333333333333333333<<3<<3<<3<<3<<3<<3<<3<<3<<3<<3<<3<<3<<3<<3<<3<<3<<3<<3<<3<<3<<<",
"<OOOOOOOOOOOOOOOOOOOOOOOOOOOOOOOOOOOOOOOOOOOOOOOOOOOOOOOOOOOO##<**&&&&&&&&&&&&&&&&&&&&&&&&&&&&&&&&&&&&&&&&&&&&&&&&&&&&&&&&&&&&&>",
"<OOOOOOOOOOOOOOOOOOOOOOOOOOOOOOOOOOOOOOOOOOOOOOOOOOOOOOOOOOOO##<**&&&&&&&&&&&&&&&&&&&&&&&&&&&&&&&&&&&&&&&&&&&&&&&&&&&&&&&&&&&&*>",
"<#OOOOOOOOOOOOOOOOOOOOOOOOOOOOOOOOOOOOOOOOOOOOOOOOOOOOOOOOOOOO#<&&&&&&&&&&&&&&&&&&&&&&&&&&&&&&&&&&&&&&&&&&&&&&&&&&&&&&&&&&&&&&*>",
"<#OOOOOOOOOOOOOOOOOOOOOOOOOOOOOOOOOOOOOOOOOOOOOOOOOOOOOOOOOOOO#<&&&&&&&&&&&&&&&&&&&&&&&&&&&&&&&&&&&&&&&&&&&&&&&&&&&&&&&&&&&&&**>",
"<###OOOOOOOOOOOOOOOOOOOOOOOOOOOOOOOOOOOOOOOOOOOOOOOOOOOOOOOOOOO<&&&&&&&&&&&&&&&&&&&&&&&&&&&&&&&&&&&&&&&&&&&&&&&&&&&&&&&&&&&&&&&3",
"<#OOOOOOOOOOOOOOOOOOOOOOOOOOOOOOOOOOOOOOOOOOOOOOOOOOOOOOOOOOOOO<&&&&&&&&&&&&&&&&&&&&&&&&&&&&&&&&&&&&&&&&&&&&&&&&&&&&&&&&&&&&&&&3",
"<OOOOOOOOOOOOOOOOOOOOOOOOOOOOOOOOOOOOOOOOOOOOOOOOOOOOOOOOOOOOO#<&&&&&&&&&&&&&&&&&&&&&&&&&&&&&&&&&&&&&&&&&&&&&&&&&&&&&&&&&&&&&&&3",
"<OOOOOOOOOOOOOOOOOOOOOOOOOOOOOOOOOOOOOOOOOOOOOOOOOOOOOOOOOOO###<&&&&&&&&&&&&&&&&&&&&&&&&&&&&&&&&&&&&&&&&&&&&&&&&&&&&&&&&&&&&&&*3",
"<#OOOOOOOOOOOOOOOOOOOOOOOOOOOOOOOOOOOOOOOOOOOOOOOOOOOOOOOOOOOO#<&&&&&&&&&&&&&&&&&&&&&&&&&&&&&&&&&&&&&&&&&&&&&&&&&&&&&&&&&&&&&&&3",
"<#OOOOOOOOOOOOOOOOOOOOOOOOOOOOOOOOOOOOOOOOOOOOOOOOOOOOOOOOOOOO#<&&&&&&&&&&&&&&&&&&&&&&&&&&&&&&&&&&&&&&&&&&&&&&&&&&&&&&&&&&&&&&*3",
"<##OOOOOOOOOOOOOOOOOOOOOOOOOOOOOOOOOOOOOOOOOOOOOOOOOOOOOOOOOOOO<&&&&&&&&&&&&&&&&&&&&&&&&&&&&&&&&&&&&&&&&&&&&&&&&&&&&&&&&&&&&&&*3",
"<##OOOOOOOOOOOOOOOOOOOOOOOOOOOOOOOOOOOOOOOOOOOOOOOOOOOOOOOOOOOO<&&&&&&&&&&&&&&&&&&&&&&&&&&&&&&&&&&&&&&&&&&&&&&&&&&&&&&&&&&&&&**3",
"<OOOOOOOOOOOOOOOOOOOOOOOOOOOOOOOOOOOOOOOOOOOOOOOOOOOOOOOOOOOO##<&&&&&&&&&&&&&&&&&&&&&&&&&&&&&&&&&&&&&&&&&&&&&&&&&&&&&&&&&&&&&&&3",
"<OOOOOOOOOOOOOOOOOOOOOOOOOOOOOOOOOOOOOOOOOOOOOOOOOOOOOOOOOOOO##<&&&&&&&&&&&&&&&&&&&&&&&&&&&&&&&&&&&&&&&&&&&&&&&&&&&&&&&&&&&&&&*3",
"<#OOOOOOOOOOOOOOOOOOOOOOOOOOOOOOOOOOOOOOOOOOOOOOOOOOOOOOOOOOOO#<&&&&&&&&&&&&&&&&&&&&&&&&&&&&&&&&&&&&&&&&&&&&&&&&&&&&&&&&&&&&&&*3",
"<#OOOOOOOOOOOOOOOOOOOOOOOOOOOOOOOOOOOOOOOOOOOOOOOOOOOOOOOOOOOO#<&&&&&&&&&&&&&&&&&&&&&&&&&&&&&&&&&&&&&&&&&&&&&&&&&&&&&&&&&&&&&**3",
"<###OOOOOOOOOOOOOOOOOOOOOOOOOOOOOOOOOOOOOOOOOOOOOOOOOOOOOOOOOOO<&&&&&&&&&&&&&&&&&&&&&&&&&&&&&&=&&&==&&==&&&&&&&&&&&&&&&&&&&&&&&3",
"<#OOOOOOOOOOOOOOOOOOOOOOOOOOOOOOOOOOOOOOOOOOOOOOOOOOOOOOOOOOOOO<&&&&&&&&&&&&&&&&&&&&&&&&&&&&&&==&&&=&&&=&&&&&&&&&&&&&&&&&&&&&&*3",
"<OOOOOOOOOOOOOOOOOOOOOOOOOOOOOOOOOOOOOOOOOOOOOOOOOOOOOOOOOOOOO#<&&&&&&&&&&&&&&&&&&&&&&&&&&=               &&&&&&&&&&&&&&&&&&&&*3",
"<OOOOOOOOOOOOOOOOOOOOOOOOOOOOOOOOOOOOOOOOOOOOOOOOOOOOOOOOOOO###<&&&&&&&&&&&&&&&&&&&&&&&&&==               &&&&&&&&&&&&&&&&&&&**3",
"<#OOOOOOOOOOOOOOOOOOOOOOOOOOOOOOOOOOOOOOOOOOOOOOOOOOOOOOOOOOOO#<&&&&&&&&&&&&&&&&&&&&&&&&&&&               ;;&&&&&&&&&&&&&&&&&&&3",
"<#OOOOOOOOOOOOOOOOOOOOOOOOOOOOOOOOOOOOOOOOOOOOOOOOOOOOOOOOOOOO#<&&&&&&&&&&&&&&&&&&&&&&&&&=&               &;&&&&&&&&&&&&&&&&&&*3",
"<##OOOOOOOOOOOOOOOOOOOOOOOOOOOOOOOOOOOOOOOOOOOOOOOOOOOOOOOOOOOO<&&&&&&&&&&&&&&&&&&&&&&&&===               &&&&&&&&&&&&&&&&&&&&*3",
"<##OOOOOOOOOOOOOOOOOOOOOOOOOOOOOOOOOOOOOOOOOOOOOOOOOOOOOOOOOOOO<&&&&&&&&&&&&&&&&&&&&&&     ===&&====&===;&&&&&&&&&&&&&&&&&&&&**3",
"<OOOOOOOOOOOOOOOOOOOOOOOOOOOOOOOOOOOOOOOOOOOOOOOOOOOOOOOOOOOO##<&&&&&&&&&&&&&&&&&&&&&&     ;&&&&=&&&&&&&&&&&&&&&&&&&&&&&&&&&&&&3",
"<OOOOOOOOOOOOOOOOOOOOOOOOOOOOOOOOOOOOOOOOOOOOOOOOOOOOOOOOOOOO##<&&&&&&&&&&&&&&&&&&&&&&     =&&&&&&&&&&&&&&&&&&&&&&&&&&&&&&&&&&*3",
"<#OOOOOOOOOOOOOOOOOOOOOOOOOOOOOOOOOOOOOOOOOOOOOOOOOOOOOOOOOOOO#<&&&&&&&&&&&&&&&&&&&&;&     =&&==&&&&&&&&&&&&&&&&&&&&&&&&&&&&&&*3",
"<#OOOOOOOOOOOOOOOOOOOOOOOOOOOOOOOOOOOOOOOOOOOOOOOOOOOOOOOOOOOO#<&&&&&&&&&&&&&&&&&&&&;;     =&&&=&&&&&&&&&&&&&&&&&&&&&&&&&&&&&**3",
"<###OOOOOOOOOOOOOOOOOOOOOOOOOOOOOOOOOOOOOOOOOOOOOOOOOOOOOOOOOOO<&&&&&&&&&&&&&&&&&&&&&&&&===          =&&&&&&&&&&&&&&&&&&&&&&&&&3",
"<#OOOOOOOOOOOOOOOOOOOOOOOOOOOOOOOOOOOOOOOOOOOOOOOOOOOOOOOOOOOOO<&&&&&&&&&&&&&&&&&&&&&&&&&==          =&&&&&&&&&&&&&&&&&&&&&&&&*3",
"<OOOOOOOOOOOOOOOOOOOOOOOOOOOOOOOOOOOOOOOOOOOOOOOOOOOOOOOOOOOOO#<&&&&&&&&&&&&&&&&&&&&&&&&&&&          &&&&&&&&&&&&&&&&&&&&&&&&&*3",
"<OOOOOOOOOOOOOOOOOOOOOOOOOOOOOOOOOOOOOOOOOOOOOOOOOOOOOOOOOOO###<&&&&&&&&&&&&&&&&&&&&&&&&&&&          &&&&&&&&&&&&&&&&&&&&&&&&**3",
"<#OOOOOOOOOOOOOOOOOOOOOOOOOOOOOOOOOOOOOOOOOOOOOOOOOOOOOOOOOOOO#<&&&&&&&&&&&&&&&&&&&&&&&&&&=          ======&&&&&&&&&&&&&&&&&&&&>",
"<#OOOOOOOOOOOOOOOOOOOOOOOOOOOOOOOOOOOOOOOOOOOOOOOOOOOOOOOOOOOO#<&&&&&&&&&&&&&&&&&&&&&&&&&&&&===&==&&=     &&&&&&&&&&&&&&&&&&&&*>",
"<##OOOOOOOOOOOOOOOOOOOOOOOOOOOOOOOOOOOOOOOOOOOOOOOOOOOOOOOOOOOO<&&&&&&&&&&&&&&&&&&&&&&&&&&&&=&&&=&&&=     &&&&&&&&&&&&&&&&&&&&*>",
"<##OOOOOOOOOOOOOOOOOOOOOOOOOOOOOOOOOOOOOOOOOOOOOOOOOOOOOOOOOOOO<&&&&&&&&&&&&&&&&&&&&&&&&&&&&&&&&&&&&=     &&&&&&&&&&&&&&&&&&&**>",
"<OOOOOOOOOOOOOOOOOOOOOOOOOOOOOOOOOOOOOOOOOOOOOOOOOOOOOOOOOOOO##<&&&&&&&&&&&&&&&&&&&&&&&&&&&&=&&&&&===     =&&&&&&&&&&&&&&&&&&&&3",
"<OOOOOOOOOOOOOOOOOOOOOOOOOOOOOOOOOOOOOOOOOOOOOOOOOOOOOOOOOOOO##<&&&&&&&&&&&&&&&&&&&&&&&&&&&&==&&&&&=&     ==&&&&&&&&&&&&&&&&&&&3",
"<#OOOOOOOOOOOOOOOOOOOOOOOOOOOOOOOOOOOOOOOOOOOOOOOOOOOOOOOOOOOO#<&&&&&&&&&&&&&&&&&&&&=&               &==&&&&&&&&&&&&&&&&&&&&&&&3",
"<#OOOOOOOOOOOOOOOOOOOOOOOOOOOOOOOOOOOOOOOOOOOOOOOOOOOOOOOOOOOO#<&&&&&&&&&&&&&&&&&&&&==               &&=&&&&&&&&&&&&&&&&&&&&&&*3",
"<###OOOOOOOOOOOOOOOOOOOOOOOOOOOOOOOOOOOOOOOOOOOOOOOOOOOOOOOOOOO<&&&&&&&&&&&&&&&&&&&&&&               ==&&&&&&&&&&&&&&&&&&&&&&&&3",
"<#OOOOOOOOOOOOOOOOOOOOOOOOOOOOOOOOOOOOOOOOOOOOOOOOOOOOOOOOOOOOO<&&&&&&&&&&&&&&&&&&&&&&               &&&&&&&&&&&&&&&&&&&&&&&&&*3",
"<OOOOOOOOOOOOOOOOOOOOOOOOOOOOOOOOOOOOOOOOOOOOOOOOOOOOOOOOOOOOO#<&&&&&&&&&&&&&&&&&&&&&&               =&&&&&&&&&&&&&&&&&&&&&&&&*3",
"<OOOOOOOOOOOOOOOOOOOOOOOOOOOOOOOOOOOOOOOOOOOOOOOOOOOOOOOOOOO###<&&&&&&&&&&&&&&&&&&&&&===;;*&;;======&&&&&&&&&&&&&&&&&&&&&&&&&**3",
"<#OOOOOOOOOOOOOOOOOOOOOOOOOOOOOOOOOOOOOOOOOOOOOOOOOOOOOOOOOOOO#<&&&&&&&&&&&&&&&&&&&&&&&&&&&&&&&&=&&&&&&&&&&&&&&&&&&&&&&&&&&&&&&3",
"<#OOOOOOOOOOOOOOOOOOOOOOOOOOOOOOOOOOOOOOOOOOOOOOOOOOOOOOOOOOOO#<&&&&&&&&&&&&&&&&&&&&&&&&&&&&&&&&&&&&&&&&&&&&&&&&&&&&&&&&&&&&&&*3",
"<##OOOOOOOOOOOOOOOOOOOOOOOOOOOOOOOOOOOOOOOOOOOOOOOOOOOOOOOOOOOO<&&&&&&&&&&&&&&&&&&&&&&&&&&&&&&&&&&&&&&&&&&&&&&&&&&&&&&&&&&&&&&*3",
"<##OOOOOOOOOOOOOOOOOOOOOOOOOOOOOOOOOOOOOOOOOOOOOOOOOOOOOOOOOOOO<&&&&&&&&&&&&&&&&&&&&&&&&&&&&&&&&&&&&&&&&&&&&&&&&&&&&&&&&&&&&&**3",
"<OOOOOOOOOOOOOOOOOOOOOOOOOOOOOOOOOOOOOOOOOOOOOOOOOOOOOOOOOOOO##<&&&&&&&&&&&&&&&&&&&&&&&&&&&&&&&&&&&&&&&&&&&&&&&&&&&&&&&&&&&&&&&3",
"<OOOOOOOOOOOOOOOOOOOOOOOOOOOOOOOOOOOOOOOOOOOOOOOOOOOOOOOOOOOO##<&&&&&&&&&&&&&&&&&&&&&&&&&&&&&&&&&&&&&&&&&&&&&&&&&&&&&&&&&&&&&&*3",
"<#OOOOOOOOOOOOOOOOOOOOOOOOOOOOOOOOOOOOOOOOOOOOOOOOOOOOOOOOOOOO#<&&&&&&&&&&&&&&&&&&&&&&&&&&&&&&&&&&&&&&&&&&&&&&&&&&&&&&&&&&&&&&*3",
"<#OOOOOOOOOOOOOOOOOOOOOOOOOOOOOOOOOOOOOOOOOOOOOOOOOOOOOOOOOOOO#<&&&&&&&&&&&&&&&&&&&&&&&&&&&&&&&&&&&&&&&&&&&&&&&&&&&&&&&&&&&&&**3",
"<###OOOOOOOOOOOOOOOOOOOOOOOOOOOOOOOOOOOOOOOOOOOOOOOOOOOOOOOOOOO<&&&&&&&&&&&&&&&&&&&&&&&&&&&&&&&&&&&&&&&&&&&&&&&&&&&&&&&&&&&&&&&3",
"<#OOOOOOOOOOOOOOOOOOOOOOOOOOOOOOOOOOOOOOOOOOOOOOOOOOOOOOOOOOOOO<&&&&&&&&&&&&&&&&&&&&&&&&&&&&&&&&&&&&&&&&&&&&&&&&&&&&&&&&&&&&&&*3",
"<OOOOOOOOOOOOOOOOOOOOOOOOOOOOOOOOOOOOOOOOOOOOOOOOOOOOOOOOOOOOO#<&&&&&&&&&&&&&&&&&&&&&&&&&&&&&&&&&&&&&&&&&&&&&&&&&&&&&&&&&&&&&&*3",
"<OOOOOOOOOOOOOOOOOOOOOOOOOOOOOOOOOOOOOOOOOOOOOOOOOOOOOOOOOOO###<&&&&&&&&&&&&&&&&&&&&&&&&&&&&&&&&&&&&&&&&&&&&&&&&&&&&&&&&&&&&&**3",
"<#OOOOOOOOOOOOOOOOOOOOOOOOOOOOOOOOOOOOOOOOOOOOOOOOOOOOOOOOOOOO#<&&&&&&&&&&&&&&&&&&&&&&&&&&&&&&&&&&&&&&&&&&&&&&&&&&&&&&&&&&&&&&&3",
"<#OOOOOOOOOOOOOOOOOOOOOOOOOOOOOOOOOOOOOOOOOOOOOOOOOOOOOOOOOOOO#<&&&&&&&&&&&&&&&&&&&&&&&&&&&&&&&&&&&&&&&&&&&&&&&&&&&&&&&&&&&&&&*3",
"<##OOOOOOOOOOOOOOOOOOOOOOOOOOOOOOOOOOOOOOOOOOOOOOOOOOOOOOOOOOOO<&&&&&&&&&&&&&&&&&&&&&&&&&&&&&&&&&&&&&&&&&&&&&&&&&&&&&&&&&&&&&&*3",
"<##OOOOOOOOOOOOOOOOOOOOOOOOOOOOOOOOOOOOOOOOOOOOOOOOOOOOOOOO#OOO<&&&&&&&&&&&&&&&&&&&&&&&&&&&&&&&&&&&&&&&&&&&&&&&&&&&&&&&&&&&&&**3",
"<OO#OOOOOOOOOOO#OOOOOOOOOOO#OOOOOOOOOOO#OOOOOOOOOOO#OOOOX###@@@4&&&&&&&&&&&&&&&&&&&&&&&&&&&&&&&&&&&&&&&&&&&&&&&&&&&&&&&&&&&&&&&3",
"<OO#OOOO##OOOOO#OOOO##OOOOO#OOOO##OOOOO#OOOO##OOOOO#OOOO@@##@@@3&&&&&*&&&&&&&&&&&*&&&&&*&&&&&*&&&&&*&&&&&*&&&&&*&&&&&*&&&&&*&&*3",
"<#####OO####OO####OO####OO####OO####OO####OO####OO####OO@@@@XX@<**&&****&&****&&****&&****&&****&&****&&****&&****&&****&&*****3",
"<<<<<<<<<<<<<<<<<<<<<<<<<<<<<<<<<<<<<<<<<<<<<<<<<<<<<<<<<<<<<<43333333333333>>>>433333433333433333433333433333433333433333433433"
};
