/* XPM */
static char *_f9ad3a4fdf34296fe7e19a9e4eed38eccincugUiTbOT13K[] = {
/* columns rows colors chars-per-pixel */
"128 128 23 1 ",
"  c black",
". c #010100",
"X c #000101",
"o c #010101",
"O c #FE5622",
"+ c #FF5622",
"@ c #FE5722",
"# c #FF5722",
"$ c #FE5623",
"% c #FE5723",
"& c #F44236",
"* c #F54236",
"= c #F44336",
"- c #F44237",
"; c #F54337",
": c #EAEAEA",
"> c #EBEAEA",
", c #EAEBEA",
"< c #EBEBEA",
"1 c #EAEAEB",
"2 c #EBEAEB",
"3 c #EAEBEB",
"4 c gray92",
/* pixels */
"111111111<11<1<<111<11<1<<11::::11111<1::11:111<11:<111:111<11:1<111111111::::::333333331331311111111111111111111111111:::331111",
"1;;;;;;;&&;;*;;;;;;;;;;;;;;;**&;;&&&;;;;;;**&;&&;;;&=;;;&;&=;;*1@@@@$$#####$$####$##########$$####$O####$O####$$#######$$#$####1",
"1;;;*;;*&&;;;==;&&*&=;;;;;;&&&;&&&;;;&;;;&&*;&;;;*;;==&&;;;&&;;1@@@@##$$#$$$$###$$$##$$##$#$$$###OO$$#OOOO$##O#$#$##$$$#$$##$$#1",
"<;;;***;;;;&&&=;&;&&==&&;;&;=&;&&&&;;&;;&*&;;;&;**&*=&&&;&&&==;1#@@@#$$$###$$#####$$#####$$##$$###O$#$$O##$#OO#O##$#$###$#$$$##1",
"1-&;;;*;;&;&;;;;;;;&&&&&==&&;;;;&&&&;;&&&=;;;;;;;;;&;&&;;;;;;&=<####$###$$$$#$#$$##$##$$$O######$$#$##$#O$##O#$###$#$$$$$#$$#$#1",
"1&&&*;**&;;&&;;&&&&;;&&;;==&;;;&&;;&;&&;;&==;;&&;;;;;;&&;;&&&;=<##$$$##$$$$$#$#$$##$##$$$$$#$$$#$#$$$$O$O##O$###$$$#####$$$##$#1",
"1;&&;;;;;&;&;&==;;&&;;&&;;&&;;;&;&;;;;&&&&;=;&;&&&;&&&;&&;;;;;=<###$$###@##$###$$$$$$$$$###$$$$$#$$#$#OOO#$##$#$$##$#$####$$###1",
"1;&;&&;&;;-;&;=&;&;&;&&;;;&;&&&&&;&;;&&;&=&&;&&;;&;;&&;&&&&;&&=1####$##$$$$#$#$#$$##$$$##$O$###$##$$$$#$OO$$####$$$$######$$$##1",
"1;;;&&&&&;;;;;*&;;==;;&&;;;&;&&&;;;;&&;&*&=*;*;&&;;&&&&;;**;;*&1####$$#$$$##$$###$$$$$#$$$$$##$$$$#$###$$$$#$$$$$##$$#$$#$#$##$1",
"<;;;;;&&;;;;*;&&;;;=&&;&&&;;*&;=;;;*&;;;=;=&&*;&;;&;&;&;;;**;*&1#$##$$#$#$$$#$$##$$$$#$$$###$$#$#$##$$####$$$$##$##$$$####$$$##1",
"1;;;&&&;;;;;&&;&;;==*&;;;&*&&;*&&;&;&;;&*=;*&&&&&&;&;&;&;;;&*;=1$$##$$####$##$$$$$#$$####$$$$$$$O#$#$#$$$$##$$##$$$############1",
"1&&;;;&&&&&;&&&&;;==&&&*&**&;;==&&&;&;;&==**;;;;;&&&&;&;;&&;**=<$$@@$$#$#$#$$$$#$#$$###$##$#$$$$$#$#######$##$$$$$#$#$$$#$###%%1",
"1;;&&&&&&&;&;;;&**;*;;*&=&**&==;&&&&==&&=;*;;&&;;;&;;;;;*&&;&&;:##$$@##$$$#$$$$$$$###$##$###$#$$O#$###$$$#OO##$#$#####$##$###$$1",
"1;;&&;&;&&;&;&;&***&&*=;;&&;&=&;&&;;;&=;==;;&;;&&;&&;;-&&&***;&:$##$@@$#$##$$$@@#$$$#$$$#$##$$#$###$$#$$#$#O$O$#$$#$$$######$#%1",
"1;*;&;;;-;;&;&;;;;=*;&&&&====&&=&;&&;;&;;;*&;&;*;&;&;&&&&&&;&;&1#$$$$@##$$####@@$##O$#$$$#$#$###$##O$O$#$$$#$$$$$$###$$$$####%%1",
"1*;;&;;&-;&&;&&&&;&&;=&;;;=*;;;;;&&;&;&&&&&&;&&&&;&&&&&;&;;;;&&1#$$##$##$$$$$####$####$$#$###$##O#$O$#$$###$$$$########$#$###%%1",
"1;&&&&&&==&&&=;;&&;&;;;;;;&;&==&=;;;;&==;;;;&;;&&&;&&&*=&;**;=*<$$####$#$#$##$#$$$$$#$$####$$########$$$OO##$$#$$#$$$@OOOO$$$##3",
":;;;;&;;=&;&=&&=;*&&;;;;;;;;&==&==;&&;&;;;&;;;&*&;;&=;;*&**;**=1#@###$$$#$##$#$##$#$###$$#$#$##$#$#$$$####OO@##$$$##$$O#O###$##1",
"1;;;;;&&=;&&===&;&; Xo  ;;;====&;===*&;     &&;;;;;;==*=;&;;*;&:$@@####$$##$####$$###$$#$$#O$#$$###$$##O#$##@@##$$$$###$#O#$##$1",
":;;;&&&;&;;;;;&&;&;  oX ;;=&&=&==-==*&*     &;;;=&;;;=;&=*;==**1$@@#$#$#$O$O$$$#$$######$#OO$$$#$#$$#$$#######$$$##$$#$##$#$O##1",
"1;;;;;;;=;;;&&&&;;&    X=============;;   oo;;;;;***=;;*=;;;**;:$#$$$###$###$OO#$$#$$$$#O#O#++@@#######$O##$#$$$###$$$####$###O1",
":&;&;;;&==&;;;;;;;;   XX==============;   X ;;-;;;**=&;;==**;*&1$@$$$##$#$#O$#$$#$#$##$$O@##@+++##O##$##$$##$$$$#$#$##$$O$$##O#1",
"1&;&&;;;;;&=&=&;&&;     ==============;     ;;;;*&*&;;;&&;&;;**1$#$##$#$O#$#OO##$$$#$###O@@@++@+$$$#$#$##$#O##$$$##$$$$#O$#$$$$1",
"1;&*&&*;;;;;&&&;&&&   XX===========;;;;     ;;;;&&;;&&;&&;&&;;;1########$#$$##$#$##$###$+++++@@@##$O$#$$#$$$#@@$$#$$$$#$OO$O$OO1",
"1;;&&;&;&;&====;;;; oooo;;=============     &&;;&&;;;*&;;;;*;;;1$O#O$OO$$$#O##O$####@@@@@@@@@@@@OO##$#$$####$##$#$#$$##$#$#$$$$1",
"1;;;&&&&&*&&;;==;;; oooo;;============;     =&;;;=;&&&&;&;;;&&;:@@O##$$$#$$###$O##$$@@@@@@@@@@@@O##$##$$$##$$##$##$#$$$#$O##$$#1",
"1;;;&;&&;*;&;&=&;;;   oo;&&=;========;;     ;;==;&=&&&;;;&;;&&&:##O####$$O#$$$$O####@@$$@@@@@@@@#$$####$$###$####$#$$$#$#$#####1",
":;;*&-&&;&&*&;;;;;; o  o&&==;=====;;=;;     ;&=&&&;;;&&&;;&;&&&1$$OO#$$#$##$$$$##$$$$$$#@@@@@@@@###$$#$#####$$$#$#$#$$#$$$$$###1",
"1;&&&;;;&&;;**;&;;;    o====*   XX;=;;;     &&&;;&;&&&&&;&;&;;=3$#$##$##$$#$$$#$###$$$##@@@@@@@@###O####$$@%$###$##$$$$$##$$#$$1",
"1;&;;;;&&;;;*;;;;;; X  o====*     ;=;;;   oX&;==-&&;;&=&;;;;;;;3$$##$$$#$#O####$$#$$#$##@@@@@@@@###$#O$$$$$%#$###$###$#$$$$$#O#1",
"1;;&;;&&;;&&&;;;;;;  XXX;===;     ;;;;; o oo&&;;--&&&&;&;-;-;-;<$##$#$$##$###$###$#$####@@@@@@@@####O####$#$$$$$##$#####$#$$###1",
"1&;;;==&;;&&&;;;;;; X  X=====X    =;;;;   o &&&&;;&;;;;&;---;;;<#$###$$#$##$#$#$##$#####@@@@@@@@####O#$#$###$#$##$#$##$$$#$##$#1",
"1==================     ;;==;     ;=;==     ;==================<@@@@@@@@@@@@@@@@@@@@@@@@@@@@@@@@###############################3",
"1==================          =;=;=          ===================<@@@@@@@@@@@@@@@@@@@@@@@@@@@@@@@@###############################3",
"<=================;          ;====          ==================;3@@@@@@@@@@@@@@@@@@@@@@@@@@@@@@@@###############################3",
"<==================          ====;          ==================;3@@@@@@@@@@@@@@@@@@@@@@@@@@@@@@@@###############################3",
"<==================          ;====          ===================<@@@@@@@@@@@@@@@@@@@@@@@@@@@@@@@@###############################3",
"<==================          =====          ==================;3@@@@@@@@@@@@@@@@@@@@@@@@@@@@@@@@###############################1",
"<=================;     ;===;=======;==     ===================<@@@@@@@@@@@@@@@@@@@@@@@@@@@@@@@@###############################1",
"<==================     ===============     ===================<@@@@@@@@@@@@@@@@@@@@@@@@@@@@@@@@###############################1",
"<==================     ==============;     ;=================;3@@@@@@@@@@@@@@@@@@@@@@@@@@@@@@@@###############################1",
"<==================     ===============     ==================;3@@@@@@@@@@@@@@@@@@@@@@@@@@@@@@@@###############################1",
"<=================;     ===============     ===================<@@@@@@@@@@@@@@@@@@@@@@@@@@@@@@@@###############################1",
"<===================;=;=================;=;===================;3@@@@@@@@@@@@@@@@@@@@@@@@@@@@@@@@###############################1",
"3==============================================================<@@@@@@@@@@@@@@@@@@@@@@@@@@@@@@@@###############################1",
"3;=============================================================<@@@@@@@@@@@@@@@@@@@@@@@@@@@@@@@@###############################1",
"<=============================================================;3@@@@@@@@@@@@@@@@@@@@@@@@@@@@@@@@###############################1",
"3=============================================================;3@@@@@@@@@@@@@@@@@@@@@@@@@@@@@@@@###############################1",
"3;=============================================================<@@@@@@@@@@@@@@@@@@@@@@@@@@@@@@@@@@@@@@@@@@@@@@@@###############1",
"<;============================================================;3@@@@@@@@@@@@@@@@@@@@@@@@@@@@@@@@@@@@@@@@@@@@@@@@###############1",
"<==============================================================<@@@@@@@@@@@@@@@@@@@@@@@@@@@@@@@@@@@@@@@@@@@@@@@@############%%#1",
"3;=============================================================<@@@@@@@@@@@@@@@@@@@@@@@@@@@@@@@@@@@@@@@@@@@@@@@@############%%%4",
"<=============================================================;3@@@@@@@@@@@@@@@@@@@@@@@@@@@@@@@@@@@@@@@@@@@@@@@@########@@@@%@@<",
"3=============================================================;3@@@@@@@@@@@@@@@@@@@@@@@@@@@@@@@@@@@@@@@@@@@@@@@@########@@@@@@%<",
"3;=============================================================<@@@@@@@@@@@@@@@@@@@@@@@@@@@@@@@@@@@@@@@@@@@@@@@@########@@@@@@%<",
"<;============================================================;3@@@@@@@@@@@@@@@@@@@@@@@@@@@@@@@@@@@@@@@@@@@@@@@@########@@@@@%%<",
"<==============================================================<@@@@@@@@@@@@@@@@@@@@@@@@@@@@@@@@@@@@@@@@@@@@@@@@@@@@@@@@@@@@@@@<",
"3;=============================================================<@@@@@@@@@@@@@@@@@@@@@@@@@@@@@@@@@@@@@@@@@@@@@@@@@@@@@@@@@@@@@@%<",
"<=============================================================;3@@@@@@@@@@@@@@@@@@@@@@@@@@@@@@@@@@@@@@@@@@@@@@@@@@@@@@@@@@@@@@%<",
"3=============================================================;<@@@@@@@@@@@@@@@@@@@@@@@@@@@@@@@@@@@@@@@@@@@@@@@@@@@@@@@@@@@@@%%<",
"3;============================================================;<@@@@@@@@@@@%@@@@@@@@@@@%@@@@@@@@@@@%@@@@@@@@@@@%@@@@@@@@@@%%@@@<",
"<;============================================================;3@@@@%%@@@@@%@@@@%%@@@@@%@@@@%%@@@@@%@@@@%%@@@@@%@@@@%%@@@@@%@@%<",
"<;;==;;==;;==;;==;;==;;==;;==;;====;=;=;=;=;=;=;=;=;=;=;=;=;=;=3%%@@%%%%@@%%%%@@%%%%@@%%%%@@%%%%@@%%%%@@%%%%@@%%%%@@%%%%@@%%%%%<",
"33<<33<<33<<33<<33<<33<<33<<33<<<<<3<3<3<3<3<3<3<3<3<3<3<3<3<3<3<<<<<<<<<<<<<<<<<<<<<<<<<<<<<<<<<<<<<<<<<<<<<<<<<<<<<<<<<<<<<<<<",
"<@@@@@@@@@@@@@@@@@@@@@@@@@@@@@@@@@@@@@@@@@@@@@@@@@@@@@@@@@@@@%%<;==============================================================<",
"<@@@@@@@@@@@@@@@@@@@@@@@@@@@@@@@@@@@@@@@@@@@@@@@@@@@@@@@@@@@@%%<;==============================================================<",
"<%@@@@@@@@@@@@@@@@@@@@@@@@@@@@@@@@@@@@@@@@@@@@@@@@@@@@@@@@@@@@%<===============================================================<",
"<%@@@@@@@@@@@@@@@@@@@@@@@@@@@@@@@@@@@@@@@@@@@@@@@@@@@@@@@@@@@@%<==============================================================;3",
"<%%%@@@@@@@@@@@@@@@@@@@@@@@@@@@@@@@@@@@@@@@@@@@@@@@@@@@@@@@@@@@<===============================================================<",
"<%@@@@@@@@@@@@@@@@@@@@@@@@@@@@@@@@@@@@@@@@@@@@@@@@@@@@@@@@@@@@@<==============================================================;3",
"<@@@@@@@@@@@@@@@@@@@@@@@@@@@@@@@@@@@@@@@@@@@@@@@@@@@@@@@@@@@@@%<===============================================================<",
"<@@@@@@@@@@@@@@@@@@@@@@@@@@@@@@@@@@@@@@@@@@@@@@@@@@@@@@@@@@@%%%<==============================================================;3",
"<%@@@@@@@@@@@@@@@@@@@@@@@@@@@@@@@@@@@@@@@@@@@@@@@@@@@@@@@@@@@@%<===============================================================<",
"<%@@@@@@@@@@@@@@@@@@@@@@@@@@@@@@@@@@@@@@@@@@@@@@@@@@@@@@@@@@@@%<==============================================================;3",
"<%%@@@@@@@@@@@@@@@@@@@@@@@@@@@@@@@@@@@@@@@@@@@@@@@@@@@@@@@@@@@@<===============================================================<",
"<%%@@@@@@@@@@@@@@@@@@@@@@@@@@@@@@@@@@@@@@@@@@@@@@@@@@@@@@@@@@@@<==============================================================;3",
"<@@@@@@@@@@@@@@@@@@@@@@@@@@@@@@@@@@@@@@@@@@@@@@@@@@@@@@@@@@@@%%<===============================================================<",
"<@@@@@@@@@@@@@@@@@@@@@@@@@@@@@@@@@@@@@@@@@@@@@@@@@@@@@@@@@@@@%%<==============================================================;3",
"<%@@@@@@@@@@@@@@@@@@@@@@@@@@@@@@@@@@@@@@@@@@@@@@@@@@@@@@@@@@@@%<===============================================================<",
"<%@@@@@@@@@@@@@@@@@@@@@@@@@@@@@@@@@@@@@@@@@@@@@@@@@@@@@@@@@@@@%<==============================================================;3",
"<%%%@@@@@@@@@@@@@@@@@@@@@@@@@@@@@@@@@@@@@@@@@@@@@@@@@@@@@@@@@@@<===============================================================<",
"<%@@@@@@@@@@@@@@@@@@@@@@@@@@@@@@@@@@@@@@@@@@@@@@@@@@@@@@@@@@@@@<==============================================================;3",
"<@@@@@@@@@@@@@@@@@@@@@@@@@@@@@@@@@@@@@@@@@@@@@@@@@@@@@@@@@@@@@%<===============================================================<",
"<@@@@@@@@@@@@@@@@@@@@@@@@@@@@@@@@@@@@@@@@@@@@@@@@@@@@@@@@@@@%%%<==============================================================;3",
"<%@@@@@@@@@@@@@@@@@@@@@@@@@@@@@@@@@@@@@@@@@@@@@@@@@@@@@@@@@@@@%<===================;=;=================;=;=====================<",
"<%@@@@@@@@@@@@@@@@@@@@@@@@@@@@@@@@@@@@@@@@@@@@@@@@@@@@@@@@@@@@%<===================     ===============     ==================;3",
"<%%@@@@@@@@@@@@@@@@@@@@@@@@@@@@@@@@@@@@@@@@@@@@@@@@@@@@@@@@@@@@<===================     ==============;     ===================<",
"<%%@@@@@@@@@@@@@@@@@@@@@@@@@@@@@@@@@@@@@@@@@@@@@@@@@@@@@@@@@@@@<==================;     ===============     ==================;3",
"<@@@@@@@@@@@@@@@@@@@@@@@@@@@@@@@@@@@@@@@@@@@@@@@@@@@@@@@@@@@@%%<===================     ;==============     ;==================<",
"<@@@@@@@@@@@@@@@@@@@@@@@@@@@@@@@@@@@@@@@@@@@@@@@@@@@@@@@@@@@@%%<==================;     ==============;     ==================;3",
"<%@@@@@@@@@@@@@@@@@@@@@@@@@@@@@@@@@@@@@@@@@@@@@@@@@@@@@@@@@@@@%<===================     ===============     ===================<",
"<%@@@@@@@@@@@@@@@@@@@@@@@@@@@@@@@@@@@@@@@@@@@@@@@@@@@@@@@@@@@@%<==================;     ==============;     ==================;3",
"<%%%@@@@@@@@@@@@@@@@@@@@@@@@@@@@@@@@@@@@@@@@@@@@@@@@@@@@@@@@@@@<===================     ===============     ===================<",
"<%@@@@@@@@@@@@@@@@@@@@@@@@@@@@@@@@@@@@@@@@@@@@@@@@@@@@@@@@@@@@@<==================;     ==============;     ==================;3",
"<@@@@@@@@@@@@@@@@@@@@@@@@@@@@@@@@@@@@@@@@@@@@@@@@@@@@@@@@@@@@@%<===================     =====;=;=======     ===================<",
"<@@@@@@@@@@@@@@@@@@@@@@@@@@@@@@@@@@@@@@@@@@@@@@@@@@@@@@@@@@@%%%<===================     =====     ====;     ==================;3",
"<%@@@@@@@@@@@@@@@@@@@@@@@@@@@@@@@@@@@@@@@@@@@@@@@@@@@@@@@@@@@@%<==================;     ====;     =====     ;==================<",
"<%@@@@@@@@@@@@@@@@@@@@@@@@@@@@@@@@@@@@@@@@@@@@@@@@@@@@@@@@@@@@%<===================     =====     ====;     ===================<",
"<%%@@@@@@@@@@@@@@@@@@@@@@@@@@@@@@@@@@@@@@@@@@@@@@@@@@@@@@@@@@@@<===================     =====     ;====     ===================3",
"<%%@@@@@@@@@@@@@@@@@@@@@@@@@@@@@@@@@@@@@@@@@@@@@@@@@@@@@@@@@@@@<==================;     ====;     ====;     =================;;3",
"<@@@@@@@@@@@@@@@@@@@@@@@@@@@@@@@@@@@@@@@@@@@@@@@@@@@@@@@@@@@@%%<===================          ;====          ===================<",
"<@@@@@@@@@@@@@@@@@@@@@@@@@@@@@@@@@@@@@@@@@@@@@@@@@@@@@@@@@@@@%%<==================;          ====;          ===================<",
"<%@@@@@@@@@@@@@@@@@@@@@@@@@@@@@@@@@@@@@@@@@@@@@@@@@@@@@@@@@@@@%<===================          ;====          ===================3",
"<%@@@@@@@@@@@@@@@@@@@@@@@@@@@@@@@@@@@@@@@@@@@@@@@@@@@@@@@@@@@@%<==================;          =====          =================;;3",
"<%%%@@@@@@@@@@@@@@@@@@@@@@@@@@@@@@@@@@@@@@@@@@@@@@@@@@@@@@@@@@@<===================          ;====          ===================<",
"<%@@@@@@@@@@@@@@@@@@@@@@@@@@@@@@@@@@@@@@@@@@@@@@@@@@@@@@@@@@@@@<==================;     ==;========;==;     ===================<",
"<@@@@@@@@@@@@@@@@@@@@@@@@@@@@@@@@@@@@@@@@@@@@@@@@@@@@@@@@@@@@@%<===================     ==============;     ===================3",
"<@@@@@@@@@@@@@@@@@@@@@@@@@@@@@@@@@@@@@@@@@@@@@@@@@@@@@@@@@@@%%%<===================     ===============     =================;;3",
"<%@@@@@@@@@@@@@@@@@@@@@@@@@@@@@@@@@@@@@@@@@@@@@@@@@@@@@@@@@@@@%<==================;     ===============     ;==================<",
"<%@@@@@@@@@@@@@@@@@@@@@@@@@@@@@@@@@@@@@@@@@@@@@@@@@@@@@@@@@@@@%<===================     ==============;     ===================<",
"<%%@@@@@@@@@@@@@@@@@@@@@@@@@@@@@@@@@@@@@@@@@@@@@@@@@@@@@@@@@@@@<======================;=================;======================3",
"<%%@@@@@@@@@@@@@@@@@@@@@@@@@@@@@@@@@@@@@@@@@@@@@@@@@@@@@@@@@@@@<=============================================================;;3",
"<@@@@@@@@@@@@@@@@@@@@@@@@@@@@@@@@@@@@@@@@@@@@@@@@@@@@@@@@@@@@%%<===============================================================<",
"<@@@@@@@@@@@@@@@@@@@@@@@@@@@@@@@@@@@@@@@@@@@@@@@@@@@@@@@@@@@@%%<===============================================================<",
"<%@@@@@@@@@@@@@@@@@@@@@@@@@@@@@@@@@@@@@@@@@@@@@@@@@@@@@@@@@@@@%<===============================================================3",
"<%@@@@@@@@@@@@@@@@@@@@@@@@@@@@@@@@@@@@@@@@@@@@@@@@@@@@@@@@@@@@%<=============================================================;;3",
"<%%%@@@@@@@@@@@@@@@@@@@@@@@@@@@@@@@@@@@@@@@@@@@@@@@@@@@@@@@@@@@<===============================================================<",
"<%@@@@@@@@@@@@@@@@@@@@@@@@@@@@@@@@@@@@@@@@@@@@@@@@@@@@@@@@@@@@@<===============================================================<",
"<@@@@@@@@@@@@@@@@@@@@@@@@@@@@@@@@@@@@@@@@@@@@@@@@@@@@@@@@@@@@@%<===============================================================3",
"<@@@@@@@@@@@@@@@@@@@@@@@@@@@@@@@@@@@@@@@@@@@@@@@@@@@@@@@@@@@%%%<=============================================================;;3",
"<%@@@@@@@@@@@@@@@@@@@@@@@@@@@@@@@@@@@@@@@@@@@@@@@@@@@@@@@@@@@@%<===============================================================<",
"<%@@@@@@@@@@@@@@@@@@@@@@@@@@@@@@@@@@@@@@@@@@@@@@@@@@@@@@@@@@@@%<===============================================================<",
"<%%@@@@@@@@@@@@@@@@@@@@@@@@@@@@@@@@@@@@@@@@@@@@@@@@@@@@@@@@@@@@<===============================================================3",
"<%%@@@@@@@@@@@@@@@@@@@@@@@@@@@@@@@@@@@@@@@@@@@@@@@@@@@@@@@@@@@@<=============================================================;;3",
"<@@%@@@@@@@@@@@%@@@@@@@@@@@%@@@@@@@@@@@%@@@@@@@@@@@%@@@@@@@@%%%4===============================================================<",
"<@@%@@@@%%@@@@@%@@@@%%@@@@@%@@@@%%@@@@@%@@@@%%@@@@@%@@@@%%@@%%%4=====;=====;===================================================<",
"<%%%%%@@%%%%@@%%%%@@%%%%@@%%%%@@%%%%@@%%%%@@%%%%@@%%%%@@%%%%%@%<====;;====;;====;=;;==;=;;==;=;;==;=;;==;=;;==;=;;==;=;;==;=;;=3",
"<<<<<<<<<<<<<<<<<<<<<<<<<<<<<<<<<<<<<<<<<<<<<<<<<<<<<<<<<<<<<<333<<<333<<<333<<<3<<33<3<<33<3<<33<3<<33<3<<33<3<<33<3<<33<3<<443"
};
