/* XPM */
static char *f992195e413f4e5989775fbe8d2bf8b4QRYd4SoXktUyjYKv[] = {
/* columns rows colors chars-per-pixel */
"291 36 2 1 ",
"  c None",
". c white",
/* pixels */
"                                                                                                                                                                                                                                                                                                   ",
"                                                                                                                                                                                                                                                                                                   ",
"                                                                                                                                                                                                                                                                                                   ",
"                                                                                                                                                                                                                                                                                                   ",
"                                                                                                                                                                                                                                                                                                   ",
"                                                                                                                                                                                                                                                                                                   ",
"                          ................                ................            ........        ........        ........................        ........................        ........        ........        ........        ........        ........................                     ",
"                          ................                ................            ........        ........        ........................        ........................        ........        ........        ........        ........        ........................                     ",
"                          ................                ................            ........        ........        ........................        ........................        ........        ........        ........        ........        ........................                     ",
"                          ................                ................            ........        ........        ........................        ........................        ........        ........        ........        ........        ........................                     ",
"                      ........        ........        ........        ........        ............    ........                ........                        ........                ............    ........        ........        ........        ........                                     ",
"                      ........        ........        ........        ........        ............    ........                ........                        ........                ............    ........        ........        ........        ........                                     ",
"                      ........        ........        ........        ........        ............    ........                ........                        ........                ............    ........        ........        ........        ........                                     ",
"                      ........        ........        ........        ........        ............    ........                ........                        ........                ............    ........        ........        ........        ........                                     ",
"                      ........                        ........        ........        ........................                ........                        ........                ........................        ........        ........        ....................                         ",
"                      ........                        ........        ........        ........................                ........                        ........                ........................        ........        ........        ....................                         ",
"                      ........                        ........        ........        ........................                ........                        ........                ........................        ........        ........        ....................                         ",
"                      ........                        ........        ........        ........................                ........                        ........                ........................        ........        ........        ....................                         ",
"                      ........                        ........        ........        ........................                ........                        ........                ........................        ........        ........        ........                                     ",
"                      ........                        ........        ........        ........................                ........                        ........                ........................        ........        ........        ........                                     ",
"                      ........                        ........        ........        ........................                ........                        ........                ........................        ........        ........        ........                                     ",
"                      ........                        ........        ........        ........................                ........                        ........                ........................        ........        ........        ........                                     ",
"                      ........        ........        ........        ........        ........    ............                ........                        ........                ........    ............        ........        ........        ........                                     ",
"                      ........        ........        ........        ........        ........    ............                ........                        ........                ........    ............        ........        ........        ........                                     ",
"                      ........        ........        ........        ........        ........    ............                ........                        ........                ........    ............        ........        ........        ........                                     ",
"                      ........        ........        ........        ........        ........    ............                ........                        ........                ........    ............        ........        ........        ........                                     ",
"                          ................                ................            ........        ........                ........                ........................        ........        ........        ........................        ........................                     ",
"                          ................                ................            ........        ........                ........                ........................        ........        ........        ........................        ........................                     ",
"                          ................                ................            ........        ........                ........                ........................        ........        ........        ........................        ........................                     ",
"                          ................                ................            ........        ........                ........                ........................        ........        ........        ........................        ........................                     ",
"                                                                                                                                                                                                                                                                                                   ",
"                                                                                                                                                                                                                                                                                                   ",
"                                                                                                                                                                                                                                                                                                   ",
"                                                                                                                                                                                                                                                                                                   ",
"                                                                                                                                                                                                                                                                                                   ",
"                                                                                                                                                                                                                                                                                                   "
};
