/* XPM */
static char *result[] = {
/* columns rows colors chars-per-pixel */
"32 32 10 1 ",
"  c black",
". c #010000",
"X c #000100",
"o c #000001",
"O c #010001",
"+ c #010101",
"@ c #FFFEFF",
"# c #FEFFFF",
"$ c white",
"% c None",
/* pixels */
"%%%%%%%%%%%%%%%%%%%%%%%%%%%%%%%%",
"%%%%%%%%%%%%%%%%%%%%%%%%%%%%%%%%",
"%%%%%%%%%%%%%%%%%%%%%%%%%%%%%%%%",
"%%%%%%%%%%%%%%%%%%%%%%%%%%%%%%%%",
"%%%%%%%%%%%%%%%%%%%%%%%%%%%%%%%%",
"%%%%%%%%%%%%%%%%%%%%%%%%%%%%%%%%",
"%%%oX%%%%%%%%%%%%%%%%%%%%%%.O%%%",
"%%X+XX%%%%%%%%%%%%%%%%%%%%oX.O%%",
"%  $#o.%%%%%%%%%%%%%%%%%% o$@o.%",
"% $$@$ X%%%%%%%%%%%%%%%%  $$$$ %",
"% o$@#$.X%%%%%%%%%%%%%%. $$$$  %",
"%%  $$$$  %%%%%%%%%%%%  $$$$  %%",
"%%%  $$$$  %%%%%%%%%%  $$$$  %%%",
"%%%%  $$$$  %%%%%%%%  $$$$  %%%%",
"%%%%%  $$$$  %%%%%%  $$$$  %%%%%",
"%%%%%%  $$$$  %%%%  $$$$  %%%%%%",
"%%%%%%%  $$$$  %%  $$$$  %%%%%%%",
"%%%%%%%%  $$$$    $$$$  %%%%%%%%",
"%%%%%%%%%  $$$$  $$$$  %%%%%%%%%",
"%%%%%%%%%%  $$$$$$$$  %%%%%%%%%%",
"%%%%%%%%%%%  $$$$$$  %%%%%%%%%%%",
"%%%%%%%%%%%%.X$$$$. %%%%%%%%%%%%",
"%%%%%%%%%%%%%X $$X %%%%%%%%%%%%%",
"%%%%%%%%%%%%%%    %%%%%%%%%%%%%%",
"%%%%%%%%%%%%%%%  %%%%%%%%%%%%%%%",
"%%%%%%%%%%%%%%%%%%%%%%%%%%%%%%%%",
"%%%%%%%%%%%%%%%%%%%%%%%%%%%%%%%%",
"%%%%%%%%%%%%%%%%%%%%%%%%%%%%%%%%",
"%%%%%%%%%%%%%%%%%%%%%%%%%%%%%%%%",
"%%%%%%%%%%%%%%%%%%%%%%%%%%%%%%%%",
"%%%%%%%%%%%%%%%%%%%%%%%%%%%%%%%%",
"%%%%%%%%%%%%%%%%%%%%%%%%%%%%%%%%"
};
