/* XPM */
static char *result[] = {
/* columns rows colors chars-per-pixel */
"32 32 5 1 ",
"  c #FEFEFF",
". c #FFFEFF",
"X c #FEFFFF",
"o c white",
"O c None",
/* pixels */
"OOOOOOOOOOOOOOOOOOOOOOOOOOOOOOOO",
"OOOOOOOOOOOOOOOOOOOOOOOOOOOOOOOO",
"OOOOOOOOOOOOOOOOOOOOOOOOOOOOOOOO",
"OOOOOOOOOOOOOOOOOOOOOOOOOOOOOOOO",
"OOOOOOOOOOOOOOOOOOOOOOOOOOOOOOOO",
"OOOOOOOOOOOOOOOOOOOOOOOOOOOOOOOO",
"OOO.oOOOOOOOOOOOOOOOOOOOOOOo.OOO",
"OOoX. OOOOOOOOOOOOOOOOOOOO.oooOO",
"OoooXooOOOOOOOOOOOOOOOOOOooo.ooO",
"Oooo.oooOOOOOOOOOOOOOOOOoooooooO",
"Oooo.XoooOOOOOOOOOOOOOOooooooooO",
"OOooooooooOOOOOOOOOOOOooooooooOO",
"OOOooooooooOOOOOOOOOOooooooooOOO",
"OOOOooooooooOOOOOOOOooooooooOOOO",
"OOOOOooooooooOOOOOOooooooooOOOOO",
"OOOOOOooooooooOOOOooooooooOOOOOO",
"OOOOOOOooooooooOOooooooooOOOOOOO",
"OOOOOOOOooooooooooooooooOOOOOOOO",
"OOOOOOOOOooooooooooooooOOOOOOOOO",
"OOOOOOOOOOooooooooooooOOOOOOOOOO",
"OOOOOOOOOOOooOoooOoooOOOOOOOOOOO",
"OOOOOOOOOOOOooOoOoooOOOOOOOOOOOO",
"OOOOOOOOOOOOOooooooOOOOOOOOOOOOO",
"OOOOOOOOOOOOOOooooOOOOOOOOOOOOOO",
"OOOOOOOOOOOOOOOooOOOOOOOOOOOOOOO",
"OOOOOOOOOOOOOOOOOOOOOOOOOOOOOOOO",
"OOOOOOOOOOOOOOOOOOOOOOOOOOOOOOOO",
"OOOOOOOOOOOOOOOOOOOOOOOOOOOOOOOO",
"OOOOOOOOOOOOOOOOOOOOOOOOOOOOOOOO",
"OOOOOOOOOOOOOOOOOOOOOOOOOOOOOOOO",
"OOOOOOOOOOOOOOOOOOOOOOOOOOOOOOOO",
"OOOOOOOOOOOOOOOOOOOOOOOOOOOOOOOO"
};
