/* XPM */
static char *fe0431c9d3b84671c00b063e02cab24ekaK9zhgvdhBhL63Q[] = {
/* columns rows colors chars-per-pixel */
"291 36 2 1 ",
"  c None",
". c white",
/* pixels */
"                                                                                                                                                                                                                                                                                                   ",
"                                                                                                                                                                                                                                                                                                   ",
"                                                                                                                                                                                                                                                                                                   ",
"                                                                                                                                                                                                                                                                                                   ",
"                                                                                                                                                                                                                                                                                                   ",
"                                                                                                                                                                                                                                                                                                   ",
"                                                      ........................        ................                ........................        ........................            ................            ....................                                                         ",
"                                                      ........................        ................                ........................        ........................            ................            ....................                                                         ",
"                                                      ........................        ................                ........................        ........................            ................            ....................                                                         ",
"                                                      ........................        ................                ........................        ........................            ................            ....................                                                         ",
"                                                      ........                        ........    ........                    ........                        ........                ........        ........        ........        ........                                                     ",
"                                                      ........                        ........    ........                    ........                        ........                ........        ........        ........        ........                                                     ",
"                                                      ........                        ........    ........                    ........                        ........                ........        ........        ........        ........                                                     ",
"                                                      ........                        ........    ........                    ........                        ........                ........        ........        ........        ........                                                     ",
"                                                      ....................            ........        ........                ........                        ........                ........        ........        ........        ........                                                     ",
"                                                      ....................            ........        ........                ........                        ........                ........        ........        ........        ........                                                     ",
"                                                      ....................            ........        ........                ........                        ........                ........        ........        ........        ........                                                     ",
"                                                      ....................            ........        ........                ........                        ........                ........        ........        ........        ........                                                     ",
"                                                      ........                        ........        ........                ........                        ........                ........        ........        ....................                                                         ",
"                                                      ........                        ........        ........                ........                        ........                ........        ........        ....................                                                         ",
"                                                      ........                        ........        ........                ........                        ........                ........        ........        ....................                                                         ",
"                                                      ........                        ........        ........                ........                        ........                ........        ........        ....................                                                         ",
"                                                      ........                        ........    ........                    ........                        ........                ........        ........        ........    ........                                                         ",
"                                                      ........                        ........    ........                    ........                        ........                ........        ........        ........    ........                                                         ",
"                                                      ........                        ........    ........                    ........                        ........                ........        ........        ........    ........                                                         ",
"                                                      ........                        ........    ........                    ........                        ........                ........        ........        ........    ........                                                         ",
"                                                      ........................        ................                ........................                ........                    ................            ........        ........                                                     ",
"                                                      ........................        ................                ........................                ........                    ................            ........        ........                                                     ",
"                                                      ........................        ................                ........................                ........                    ................            ........        ........                                                     ",
"                                                      ........................        ................                ........................                ........                    ................            ........        ........                                                     ",
"                                                                                                                                                                                                                                                                                                   ",
"                                                                                                                                                                                                                                                                                                   ",
"                                                                                                                                                                                                                                                                                                   ",
"                                                                                                                                                                                                                                                                                                   ",
"                                                                                                                                                                                                                                                                                                   ",
"                                                                                                                                                                                                                                                                                                   "
};
