/* XPM */
static char *b217d5cef17c4593d18e71e4321049b0Id4jHCb3hIPKIuSM[] = {
/* columns rows colors chars-per-pixel */
"291 36 2 1 ",
"  c None",
". c white",
/* pixels */
"                                                                                                                                                                                                                                                                                                   ",
"                                                                                                                                                                                                                                                                                                   ",
"                                                                                                                                                                                                                                                                                                   ",
"                                                                                                                                                                                                                                                                                                   ",
"                                                                                                                                                                                                                                                                                                   ",
"                                                                                                                                                                                                                                                                                                   ",
"                                                                                      ........................        ........        ........        ........................        ........................                                                                                     ",
"                                                                                      ........................        ........        ........        ........................        ........................                                                                                     ",
"                                                                                      ........................        ........        ........        ........................        ........................                                                                                     ",
"                                                                                      ........................        ........        ........        ........................        ........................                                                                                     ",
"                                                                                      ........                        ........        ........                ........                        ........                                                                                             ",
"                                                                                      ........                        ........        ........                ........                        ........                                                                                             ",
"                                                                                      ........                        ........        ........                ........                        ........                                                                                             ",
"                                                                                      ........                        ........        ........                ........                        ........                                                                                             ",
"                                                                                      ....................                ................                    ........                        ........                                                                                             ",
"                                                                                      ....................                ................                    ........                        ........                                                                                             ",
"                                                                                      ....................                ................                    ........                        ........                                                                                             ",
"                                                                                      ....................                ................                    ........                        ........                                                                                             ",
"                                                                                      ........                            ................                    ........                        ........                                                                                             ",
"                                                                                      ........                            ................                    ........                        ........                                                                                             ",
"                                                                                      ........                            ................                    ........                        ........                                                                                             ",
"                                                                                      ........                            ................                    ........                        ........                                                                                             ",
"                                                                                      ........                        ........        ........                ........                        ........                                                                                             ",
"                                                                                      ........                        ........        ........                ........                        ........                                                                                             ",
"                                                                                      ........                        ........        ........                ........                        ........                                                                                             ",
"                                                                                      ........                        ........        ........                ........                        ........                                                                                             ",
"                                                                                      ........................        ........        ........        ........................                ........                                                                                             ",
"                                                                                      ........................        ........        ........        ........................                ........                                                                                             ",
"                                                                                      ........................        ........        ........        ........................                ........                                                                                             ",
"                                                                                      ........................        ........        ........        ........................                ........                                                                                             ",
"                                                                                                                                                                                                                                                                                                   ",
"                                                                                                                                                                                                                                                                                                   ",
"                                                                                                                                                                                                                                                                                                   ",
"                                                                                                                                                                                                                                                                                                   ",
"                                                                                                                                                                                                                                                                                                   ",
"                                                                                                                                                                                                                                                                                                   "
};
