/* XPM */
static char *result[] = {
/* columns rows colors chars-per-pixel */
"32 32 6 1 ",
"  c black",
". c #010000",
"X c #000100",
"o c #010101",
"O c white",
"+ c None",
/* pixels */
"++++++++++++++++++++++++++++++++",
"++++++++++++++++++++   +++++++++",
"+++++++++++++++++++  O  ++++++++",
"++++++++++++++++++  OOO  +++++++",
"+++++++++++++++++  OOOO  +++++++",
"++++++++++++++++  OOOO  ++++++++",
"+++++++++++++++  OOOO  +++++++++",
"++++++++++++++  OOOO  ++++++++++",
"+++++++++++++  OOOO  +++++++++++",
"++++++++++++  OOOO  ++++++++++++",
"+++++++++++  OOOO  +++++++++++++",
"++++++++++  OOOO  ++++++++++++++",
"+++++++++  OOOO  +++++++++++++++",
"++++++++  OOOO  ++++++++++++++++",
"+++++++X OOOO  +++++++++++++++++",
"++++++..OOOO  ++++++++++++++++++",
"++++++ oOOOO  ++++++++++++++++++",
"+++++++o OOOO  +++++++++++++++++",
"++++++++  OOOO  ++++++++++++++++",
"+++++++++  OOOO  +++++++++++++++",
"++++++++++  OOOO  ++++++++++++++",
"+++++++++++  OOOO  +++++++++++++",
"++++++++++++  OOOO  ++++++++++++",
"+++++++++++++  OOOO  +++++++++++",
"++++++++++++++  OOOO  ++++++++++",
"+++++++++++++++  OOOO  +++++++++",
"++++++++++++++++  OOOO  ++++++++",
"+++++++++++++++++  OOOO  +++++++",
"++++++++++++++++++  OOO  +++++++",
"+++++++++++++++++++  O  ++++++++",
"++++++++++++++++++++   +++++++++",
"++++++++++++++++++++++++++++++++"
};
