/* XPM */
static char *f6b9aeda4e6b4966f73ecb3498c17008pnoFCaCWWAiWwUVO[] = {
/* columns rows colors chars-per-pixel */
"291 36 2 1 ",
"  c None",
". c white",
/* pixels */
"                                                                                                                                                                                                                                                                                                   ",
"                                                                                                                                                                                                                                                                                                   ",
"                                                                                                                                                                                                                                                                                                   ",
"                                                                                                                                                                                                                                                                                                   ",
"                                                                                                                                                                                                                                                                                                   ",
"                                                                                                                                                                                                                                                                                                   ",
"                                                                                      ........                            ................                    ........                ................                                                                                             ",
"                                                                                      ........                            ................                    ........                ................                                                                                             ",
"                                                                                      ........                            ................                    ........                ................                                                                                             ",
"                                                                                      ........                            ................                    ........                ................                                                                                             ",
"                                                                                      ........                        ........        ........            ................            ........    ........                                                                                         ",
"                                                                                      ........                        ........        ........            ................            ........    ........                                                                                         ",
"                                                                                      ........                        ........        ........            ................            ........    ........                                                                                         ",
"                                                                                      ........                        ........        ........            ................            ........    ........                                                                                         ",
"                                                                                      ........                        ........        ........        ........        ........        ........        ........                                                                                     ",
"                                                                                      ........                        ........        ........        ........        ........        ........        ........                                                                                     ",
"                                                                                      ........                        ........        ........        ........        ........        ........        ........                                                                                     ",
"                                                                                      ........                        ........        ........        ........        ........        ........        ........                                                                                     ",
"                                                                                      ........                        ........        ........        ........        ........        ........        ........                                                                                     ",
"                                                                                      ........                        ........        ........        ........        ........        ........        ........                                                                                     ",
"                                                                                      ........                        ........        ........        ........        ........        ........        ........                                                                                     ",
"                                                                                      ........                        ........        ........        ........        ........        ........        ........                                                                                     ",
"                                                                                      ........                        ........        ........        ........................        ........    ........                                                                                         ",
"                                                                                      ........                        ........        ........        ........................        ........    ........                                                                                         ",
"                                                                                      ........                        ........        ........        ........................        ........    ........                                                                                         ",
"                                                                                      ........                        ........        ........        ........................        ........    ........                                                                                         ",
"                                                                                      ........................            ................            ........        ........        ................                                                                                             ",
"                                                                                      ........................            ................            ........        ........        ................                                                                                             ",
"                                                                                      ........................            ................            ........        ........        ................                                                                                             ",
"                                                                                      ........................            ................            ........        ........        ................                                                                                             ",
"                                                                                                                                                                                                                                                                                                   ",
"                                                                                                                                                                                                                                                                                                   ",
"                                                                                                                                                                                                                                                                                                   ",
"                                                                                                                                                                                                                                                                                                   ",
"                                                                                                                                                                                                                                                                                                   ",
"                                                                                                                                                                                                                                                                                                   "
};
