/* XPM */
static char * main_menu_title_xpm[] = {
"320 60 2 1",
" 	c #FF000000",
".	c #00FFFFFF",
"                                                                                                                                                                                                                                                                                                                                ",
"                                                                                                                                                                                                                                                                                                                                ",
"                                                                                                                                                                                                                                                                                                                                ",
"                                                                                                                                                                                                                                                                                                                                ",
"                                                                                                                                                                                                                                                                                                                                ",
"                                                                                                                                                                                                                                                                                                                                ",
"                                                                                                                                                                                                                                                                                                                                ",
"                                                                                                                                                                                                                                                                                                                                ",
"                                                                                                                                                                                                                                                                                                                                ",
"                                                                      ...........                                                                                                                 ..........                                                                                                                    ",
"                                                                   ..................             .......                      ......           .....................                        ..................                   ....................                                                                          ",
"                                                                .......................           .......                      ......           ........................                   ......................                 ........................                                                                      ",
"                                                               ..........................         .......                      ......           ..........................                 ........................               ...........................                                                                   ",
"                                                             .............................        .......                      ......           ...........................                .........................              .............................                                                                 ",
"                                                            ...........          .........        .......                      ......           ............................               ......          ..........             ...............................                                                               ",
"                                                           .........                ......        .......                      ......           ......             ..........              ..                ........             ......             .............                                                              ",
"                                                          .........                   ....        .......                      ......           ......                .......                                  .......            ......                 ..........                                                             ",
"                                                          .......                       ..        .......                      ......           ......                 .......                                 .......            ......                   .........                                                            ",
"                                                         .......                         .        .......                      ......           ......                 .......                                  ......            ......                    .........                                                           ",
"                                                        .......                                   .......                      ......           ......                  ......                                  ......            ......                      .......                                                           ",
"                                                        .......                                   .......                      ......           ......                  ......                                  ......            ......                      ........                                                          ",
"                                                       .......                                    .......                      ......           ......                  ......                                  ......            ......                       .......                                                          ",
"                                                       .......                                    .......                      ......           ......                  ......                                  ......            ......                        .......                                                         ",
"                                                       ......                                     .......                      ......           ......                  ......                                  ......            ......                        .......                                                         ",
"                                                      .......                                     .......                      ......           ......                 .......                                 .......            ......                        .......                                                         ",
"                                                      .......                                     .......                      ......           ......                 ......                                  ......             ......                         ......                                                         ",
"                                                      ......                                      .......                      ......           ......                .......                                .......              ......                         .......                                                        ",
"                                                      ......                                      .......                      ......           ......             .........                               .........              ......                         .......                                                        ",
"                                                      ......                                      .......                      ......           ...........................                       ................                ......                         .......                                                        ",
"                                                      ......                                      .......                      ......           .........................                         ..............                  ......                         .......                                                        ",
"                                                      ......                                      .......                      ......           ........................                          .............                   ......                          ......                                                        ",
"                                                      ......                                      .......                      ......           ..........................                        ...............                 ......                          ......                                                        ",
"                                                     .......                                      .......                      ......           ............................                      .................               ......                          ......                                                        ",
"                                                      ......                                      .......                      ......           ......              .........                              .........              ......                          ......                                                        ",
"                                                      ......                                      .......                      ......           ......                ........                               ........             ......                          ......                                                        ",
"                                                      ......                                      .......                      ......           ......                  ......                                 .......            ......                         .......                                                        ",
"                                                      ......                                      .......                      ......           ......                  .......                                 ......            ......                         .......                                                        ",
"                                                      ......                                      .......                      ......           ......                   ......                                 .......           ......                         .......                                                        ",
"                                                      ......                                      .......                      ......           ......                   .......                                 ......           ......                         .......                                                        ",
"                                                      .......                                     .......                      ......           ......                    ......                                 ......           ......                         ......                                                         ",
"                                                      .......                                     .......                      ......           ......                    ......                                 ......           ......                        .......                                                         ",
"                                                       ......                                      ......                      ......           ......                    ......                                 ......           ......                        .......                                                         ",
"                                                       .......                                     ......                     .......           ......                    ......                                 ......           ......                        .......                                                         ",
"                                                       .......                                     ......                     ......            ......                    ......                                 ......           ......                       .......                                                          ",
"                                                        .......                                    ......                     ......            ......                   .......                                 ......           ......                      ........                                                          ",
"                                                        .......                                    .......                    ......            ......                   .......                                 ......           ......                      .......                                                           ",
"                                                         .......                         .          ......                   .......            ......                  .......                                 .......           ......                    .........                                                           ",
"                                                          .......                       ..          .......                 .......             ......                  .......                                 ......            ......                   .........                                                            ",
"                                                          .........                   ....           .......               ........             ......                .........           .                    .......            ......                 ..........                                                             ",
"                                                           .........                ......           ........             ........              ......              ..........            ...                ........             ......             .............                                                              ",
"                                                            ...........          .........            ..........        .........               .............................             .......         ...........             ...............................                                                               ",
"                                                             .............................             ..........................               ............................              ..........................              .............................                                                                 ",
"                                                               ..........................               .......................                 ...........................               .........................               ...........................                                                                   ",
"                                                                .......................                  .....................                  .........................                 .......................                 ........................                                                                      ",
"                                                                   ..................                      .................                    .....................                       ...................                   ....................                                                                          ",
"                                                                      ...........                              ..........                                                                       ...........                                                                                                                     ",
"                                                                                                                                                                                                                                                                                                                                ",
"                                                                                                                                                                                                                                                                                                                                ",
"                                                                                                                                                                                                                                                                                                                                ",
"                                                                                                                                                                                                                                                                                                                                "};
