/* XPM */
static char *_674267813c54684ded839d91df9c80cnuzOzqKpdV9fnvfA[] = {
/* columns rows colors chars-per-pixel */
"291 36 2 1 ",
"  c None",
". c white",
/* pixels */
"                                                                                                                                                                                                                                                                                                   ",
"                                                                                                                                                                                                                                                                                                   ",
"                                                                                                                                                                                                                                                                                                   ",
"                                                                                                                                                                                                                                                                                                   ",
"                                                                                                                                                                                                                                                                                                   ",
"                                                                                                                                                                                                                                                                                                   ",
"                               ........        ........        ........................        ........            ........                     ....................                ........                ........            ........    ........................                               ",
"                               ........        ........        ........................        ........            ........                     ....................                ........                ........            ........    ........................                               ",
"                               ........        ........        ........................        ........            ........                     ....................                ........                ........            ........    ........................                               ",
"                               ........        ........        ........................        ........            ........                     ....................                ........                ........            ........    ........................                               ",
"                               ............    ........        ........                        ........            ........                 ........                            ................            ............    ............    ........                                               ",
"                               ............    ........        ........                        ........            ........                 ........                            ................            ............    ............    ........                                               ",
"                               ............    ........        ........                        ........            ........                 ........                            ................            ............    ............    ........                                               ",
"                               ............    ........        ........                        ........            ........                 ........                            ................            ............    ............    ........                                               ",
"                               ........................        ....................            ........    ....    ........                 ........                        ........        ........        ............................    ....................                                   ",
"                               ........................        ....................            ........    ....    ........                 ........                        ........        ........        ............................    ....................                                   ",
"                               ........................        ....................            ........    ....    ........                 ........                        ........        ........        ............................    ....................                                   ",
"                               ........................        ....................            ........    ....    ........                 ........                        ........        ........        ............................    ....................                                   ",
"                               ........................        ........                        ............................                 ........    ............        ........        ........        ........    ....    ........    ........                                               ",
"                               ........................        ........                        ............................                 ........    ............        ........        ........        ........    ....    ........    ........                                               ",
"                               ........................        ........                        ............................                 ........    ............        ........        ........        ........    ....    ........    ........                                               ",
"                               ........................        ........                        ............................                 ........    ............        ........        ........        ........    ....    ........    ........                                               ",
"                               ........    ............        ........                        ............    ............                 ........        ........        ........................        ........            ........    ........                                               ",
"                               ........    ............        ........                        ............    ............                 ........        ........        ........................        ........            ........    ........                                               ",
"                               ........    ............        ........                        ............    ............                 ........        ........        ........................        ........            ........    ........                                               ",
"                               ........    ............        ........                        ............    ............                 ........        ........        ........................        ........            ........    ........                                               ",
"                               ........        ........        ........................        ........            ........                     ....................        ........        ........        ........            ........    ........................                               ",
"                               ........        ........        ........................        ........            ........                     ....................        ........        ........        ........            ........    ........................                               ",
"                               ........        ........        ........................        ........            ........                     ....................        ........        ........        ........            ........    ........................                               ",
"                               ........        ........        ........................        ........            ........                     ....................        ........        ........        ........            ........    ........................                               ",
"                                                                                                                                                                                                                                                                                                   ",
"                                                                                                                                                                                                                                                                                                   ",
"                                                                                                                                                                                                                                                                                                   ",
"                                                                                                                                                                                                                                                                                                   ",
"                                                                                                                                                                                                                                                                                                   ",
"                                                                                                                                                                                                                                                                                                   "
};
