/* XPM */
static char *_2fe454032f34c45895aec5b30ba1111DzRUBDQrwNEAViXE[] = {
/* columns rows colors chars-per-pixel */
"300 36 2 1 ",
"  c None",
". c white",
/* pixels */
"                                                                                                                                                                                                                                                                                                            ",
"                                                                                                                                                                                                                                                                                                            ",
"                                                                                                                                                                                                                                                                                                            ",
"                                                                                                                                                                                                                                                                                                            ",
"                                                                      .................       .....................           .....................       .....................       .................       .......           .......                                                                     ",
"                                                                      ..................      ......................          .....................       .....................       ..................      ........          .......                                                                     ",
"                                                                      ..................      ......................          .....................       .....................       ..................      ........          .......                                                                     ",
"                                                                     ...................      ......................          .....................       .....................      ...................      ........          .......                                                                     ",
"                                                                  ........         ........   ........         ........             .........                   .........         ........         ........   ...........       .......                                                                     ",
"                                                                  ........          .......   ........          .......              .......                     .......          ........          .......   ...........       .......                                                                     ",
"                                                                  ........          .......   ........          .......              .......                     .......          ........          .......   ...........       .......                                                                     ",
"                                                                  ........          .......   ........          .......              .......                     .......          ........          .......   ..............    .......                                                                     ",
"                                                                  ........          .......   ........          .......              .......                     .......          ........          .......   ...............   .......                                                                     ",
"                                                                  ........          .......   ........          .......              .......                     .......          ........          .......   ...............   .......                                                                     ",
"                                                                  ........          .......   ........          .......              .......                     .......          ........          .......   ...............  ........                                                                     ",
"                                                                  ........          .......   ........          .......              .......                     .......          ........          .......   ........  ...............                                                                     ",
"                                                                  ........          .......   ........          .......              .......                     .......          ........          .......   ........   ..............                                                                     ",
"                                                                  ........          .......   ........         ........              .......                     .......          ........          .......   ........   ..............                                                                     ",
"                                                                  ........          .......   .........................              .......                     .......          ........          .......   ........   ..............                                                                     ",
"                                                                  ........          .......   ......................                 .......                     .......          ........          .......   ........      ...........                                                                     ",
"                                                                  ........          .......   ......................                 .......                     .......          ........          .......   ........      ...........                                                                     ",
"                                                                  ........          .......   ......................                 .......                     .......          ........          .......   ........      ...........                                                                     ",
"                                                                  ........          .......   ........                               .......                     .......          ........          .......   ........         ........                                                                     ",
"                                                                  ........          .......   ........                               .......                     .......          ........          .......   ........          .......                                                                     ",
"                                                                  ........         ........   ........                               .......                    ........          ........         ........   ........          .......                                                                     ",
"                                                                  .........................   ........                               .......              .....................   .........................   ........          .......                                                                     ",
"                                                                      ..................      ........                               .......              .....................       ..................      ........          .......                                                                     ",
"                                                                      ..................      ........                               .......              .....................       ..................      ........          .......                                                                     ",
"                                                                      ..................      ........                               .......              .....................       ..................      ........          .......                                                                     ",
"                                                                                                                                                                                                                                                                                                            ",
"                                                                                                                                                                                                                                                                                                            ",
"                                                                                                                                                                                                                                                                                                            ",
"                                                                                                                                                                                                                                                                                                            ",
"                                                                                                                                                                                                                                                                                                            ",
"                                                                                                                                                                                                                                                                                                            ",
"                                                                                                                                                                                                                                                                                                            "
};
