/* XPM */
static char *_1d626c98e6548a8bf32b95c2479d6a8MudruonA0OyIRSQL[] = {
/* columns rows colors chars-per-pixel */
"300 36 2 1 ",
"  c #FF000000",
". c white",
/* pixels */
"                                                                                                                                                                                                                                                                                                            ",
"                                                                                                                                                                                                                                                                                                            ",
"                                                                                                                                                                                                                                                                                                            ",
"                                                                                                                                                                                                                                                                                                            ",
"                                                                                    .................           .....................          ...........          .....................           .....................                                                                                   ",
"                                                                                    ..................          .....................          ...........          ......................          .....................                                                                                   ",
"                                                                                    ..................          .....................          ...........          ......................          .....................                                                                                   ",
"                                                                                   ...................          .....................          ............         ......................          .....................                                                                                   ",
"                                                                                ........         ........             .........             ........  ........      ........         ........             .........                                                                                         ",
"                                                                                ........          .......              .......              .......   ........      ........          .......              .......                                                                                          ",
"                                                                                ........          .......              .......             ........   ........      ........          .......              .......                                                                                          ",
"                                                                                ........          .......              .......          ...........   ...........   ........          .......              .......                                                                                          ",
"                                                                                ........                               .......          ........          .......   ........          .......              .......                                                                                          ",
"                                                                                ........                               .......          ........          .......   ........          .......              .......                                                                                          ",
"                                                                                ........                               .......          ........          .......   ........         ........              .......                                                                                          ",
"                                                                                   ...................                 .......          ........          .......   ........      ...........              .......                                                                                          ",
"                                                                                    ..................                 .......          ........          .......   ........      ...........              .......                                                                                          ",
"                                                                                    ..................                 .......          ........         ........   ........      ...........              .......                                                                                          ",
"                                                                                    .....................              .......          .........................   .........................              .......                                                                                          ",
"                                                                                                  .......              .......          .........................   ..................                     .......                                                                                          ",
"                                                                                                  .......              .......          .........................   ..................                     .......                                                                                          ",
"                                                                                                  .......              .......          .........................   ...................                    .......                                                                                          ",
"                                                                                ........          .......              .......          ........         ........   ........  ............                 .......                                                                                          ",
"                                                                                ........          .......              .......          ........          .......   ........   ...........                 .......                                                                                          ",
"                                                                                ........         ........              .......          ........          .......   ........   ...........                 .......                                                                                          ",
"                                                                                .........................              .......          ........          .......   ........   ..............              .......                                                                                          ",
"                                                                                    ..................                 .......          ........          .......   ........      ...........              .......                                                                                          ",
"                                                                                    ..................                 .......          ........          .......   ........      ...........              .......                                                                                          ",
"                                                                                    ..................                 .......          ........          .......   ........      ...........              .......                                                                                          ",
"                                                                                                                                                                                                                                                                                                            ",
"                                                                                                                                                                                                                                                                                                            ",
"                                                                                                                                                                                                                                                                                                            ",
"                                                                                                                                                                                                                                                                                                            ",
"                                                                                                                                                                                                                                                                                                            ",
"                                                                                                                                                                                                                                                                                                            ",
"                                                                                                                                                                                                                                                                                                            "
};
