/* XPM */
static char *result[] = {
/* columns rows colors chars-per-pixel */
"32 32 6 1 ",
"  c black",
". c #010000",
"X c #000100",
"o c #010101",
"O c white",
"+ c None",
/* pixels */
"++++++++++++++++++++++++++++++++",
"++++++++++++++++++++++++++++++++",
"++++++++++++++++++++++++++++++++",
"++++++++++++++++++++++++++++++++",
"++++++++++++++++++++++++++++++++",
"++++++++++++++++++++++++++++++++",
"+++++++++++++++ .+++++++++++++++",
"++++++++++++++oo.X++++++++++++++",
"+++++++++++++  OO  +++++++++++++",
"++++++++++++  OOOO  ++++++++++++",
"+++++++++++  OOOOOO  +++++++++++",
"++++++++++  OOOOOOOO  ++++++++++",
"+++++++++  OOOO  OOOO  +++++++++",
"++++++++  OOOO    OOOO  ++++++++",
"+++++++  OOOO  ++  OOOO  +++++++",
"++++++  OOOO  ++++  OOOO  ++++++",
"+++++  OOOO  ++++++  OOOO  +++++",
"++++  OOOO  ++++++++  OOOO  ++++",
"+++  OOOO  ++++++++++  OOOO  +++",
"++  OOOO  ++++++++++++  OOOO  ++",
"+  OOOO  ++++++++++++++  OOOO  +",
"+ OOOO  ++++++++++++++++  OOOO +",
"+  OO  ++++++++++++++++++  OO  +",
"++    ++++++++++++++++++++    ++",
"+++  ++++++++++++++++++++++  +++",
"++++++++++++++++++++++++++++++++",
"++++++++++++++++++++++++++++++++",
"++++++++++++++++++++++++++++++++",
"++++++++++++++++++++++++++++++++",
"++++++++++++++++++++++++++++++++",
"++++++++++++++++++++++++++++++++",
"++++++++++++++++++++++++++++++++"
};
