/* XPM */
static char *result[] = {
/* columns rows colors chars-per-pixel */
"32 32 5 1 ",
"  c #FFFFFE",
". c #FFFEFF",
"X c #FEFFFF",
"o c white",
"O c None",
/* pixels */
"OOOOOOOOOOOOOOOOOOOOOOOOOOOOOOOO",
"OOOOOOOOOOOOOOOOOOOOOOOOOOOOOOOO",
"OOOOOOOOOOOOOOOOOOOOOOOOOOOOOOOO",
"OOOOOOOOOOOOOOOOOOOOOOOOOOOOOOOO",
"OOOOOOOOOOOOOOOOOOOOOOOOOOOOOOOO",
"OOOOOOOOOOOOOOOOOOOOOOOOOOOOOOOO",
"OOOOOOOOOOOOOOO .OOOOOOOOOOOOOOO",
"OOOOOOOOOOOOOOXoX OOOOOOOOOOOOOO",
"OOOOOOOOOOOOOooooooOOOOOOOOOOOOO",
"OOOOOOOOOOOOooooooooOOOOOOOOOOOO",
"OOOOOOOOOOOooooooooooOOOOOOOOOOO",
"OOOOOOOOOOooooooooooooOOOOOOOOOO",
"OOOOOOOOOooooooooooooooOOOOOOOOO",
"OOOOOOOOooooooooooooooooOOOOOOOO",
"OOOOOOOooooooooOOooooooooOOOOOOO",
"OOOOOOooooooooOOOOooooooooOOOOOO",
"OOOOOooooooooOOOOOOooooooooOOOOO",
"OOOOooooooooOOOOOOOOooooooooOOOO",
"OOOooooooooOOOOOOOOOOooooooooOOO",
"OOooooooooOOOOOOOOOOOOooooooooOO",
"OooooooooOOOOOOOOOOOOOOooooooooO",
"OoooooooOOOOOOOOOOOOOOOOoooooooO",
"OooooooOOOOOOOOOOOOOOOOOOooooooO",
"OOooooOOOOOOOOOOOOOOOOOOOOooooOO",
"OOOooOOOOOOOOOOOOOOOOOOOOOOooOOO",
"OOOOOOOOOOOOOOOOOOOOOOOOOOOOOOOO",
"OOOOOOOOOOOOOOOOOOOOOOOOOOOOOOOO",
"OOOOOOOOOOOOOOOOOOOOOOOOOOOOOOOO",
"OOOOOOOOOOOOOOOOOOOOOOOOOOOOOOOO",
"OOOOOOOOOOOOOOOOOOOOOOOOOOOOOOOO",
"OOOOOOOOOOOOOOOOOOOOOOOOOOOOOOOO",
"OOOOOOOOOOOOOOOOOOOOOOOOOOOOOOOO"
};
