/* XPM */
static char *_b53364e4d244a8be0194051af9222a5juKaA9EQApBlT3q1[] = {
/* columns rows colors chars-per-pixel */
"64 64 10 1 ",
"  c #0B1B33",
". c #0E213C",
"X c #102542",
"o c #132B4B",
"O c #18335C",
"+ c #1B3865",
"@ c #1E3C6F",
"# c #23437F",
"$ c #2B5397",
"% c #335FB3",
/* pixels */
"%%%$$$$$$%%%%%%%%%%%%%%%$$%$$oo %%%$$$$$$%%%%%%%%%%%%%%%$$%$$oo ",
"%%$$$$$$$$$$$$$%%%%$$$$$$$$$$$o %%$$$$$$$$$$$$$%%%%$$$$$$$$$$$o ",
"%$$$$#######$$$$$$$$$$$$$$$$#oo %$$$$#######$$$$$$$$$$$$$$$$#oo ",
"%$$$################$$$$$$##o   %$$$################$$$$$$##o   ",
"%$$$########################oo  %$$$########################oo  ",
"%$$$#########################o  %$$$#########################o  ",
"$$$##########################oo $$$##########################oo ",
"$$############################o $$############################o ",
"$$############################o $$############################o ",
"%$$##########################o  %$$##########################o  ",
"%$$##########################o  %$$##########################o  ",
"%$$########################ooo  %$$########################ooo  ",
"$$##################oo####o  o  $$##################oo####o  o  ",
"$$ooo######oooooo#oooooooo      $$ooo######oooooo#oooooooo      ",
"oo  oooooooo     oo    oo       oo  oooooooo     oo    oo       ",
"                                                                ",
"%%%%%%%%$$%$$oo @@@++++++@@@@@@@@@@@@@@@++@++ooX%%%$$$$$$%%%%%%%",
"%%%$$$$$$$$$$$o @@+++++++++++++@@@@+++++++++++oX%%$$$$$$$$$$$$$%",
"$$$$$$$$$$$$#oo @++++OOOOOOO++++++++++++++++OooX%$$$$#######$$$$",
"####$$$$$$##o   @+++OOOOOOOOOOOOOOOO++++++OOoXXX%$$$############",
"############oo  @+++OOOOOOOOOOOOOOOOOOOOOOOOooXX%$$$############",
"#############o  @+++OOOOOOOOOOOOOOOOOOOOOOOOOoXX%$$$############",
"#############oo +++OOOOOOOOOOOOOOOOOOOOOOOOOOooX$$$#############",
"##############o ++OOOOOOOOOOOOOOOOOOOOOOOOOOOOoX$$##############",
"##############o ++OOOOOOOOOOOOOOOOOOOOOOOOOOOOoX$$##############",
"#############o  @++OOOOOOOOOOOOOOOOOOOOOOOOOOoXX%$$#############",
"#############o  @++OOOOOOOOOOOOOOOOOOOOOOOOOOoXX%$$#############",
"###########ooo  @++OOOOOOOOOOOOOOOOOOOOOOOOoooXX%$$#############",
"####oo####o  o  ++OOOOOOOOOOOOOOOOOOooOOOOoXXoXX$$##############",
"o#oooooooo      ++oooOOOOOOooooooOooooooooXXXXXX$$ooo######ooooo",
" oo    oo       ooXXooooooooXXXXXooXXXXooXXXXXXXoo  oooooooo    ",
"                ................................                ",
"$%%%%%%%%%%%%%%%$$%$$oo %%%$$$$$$%%%%%%%%%%%%%%%$$%$$oo %%%$$$$$",
"$$$$$$$%%%%$$$$$$$$$$$o %%$$$$$$$$$$$$$%%%%$$$$$$$$$$$o %%$$$$$$",
"####$$$$$$$$$$$$$$$$#oo %$$$$#######$$$$$$$$$$$$$$$$#oo %$$$$###",
"############$$$$$$##o   %$$$################$$$$$$##o   %$$$####",
"####################oo  %$$$########################oo  %$$$####",
"#####################o  %$$$#########################o  %$$$####",
"#####################oo $$$##########################oo $$$#####",
"######################o $$############################o $$######",
"######################o $$############################o $$######",
"#####################o  %$$##########################o  %$$#####",
"#####################o  %$$##########################o  %$$#####",
"###################ooo  %$$########################ooo  %$$#####",
"############oo####o  o  $$##################oo####o  o  $$######",
"###oooooo#oooooooo      $$ooo######oooooo#oooooooo      $$ooo###",
"oooo     oo    oo       oo  oooooooo     oo    oo       oo  oooo",
"                                                                ",
"$$%$$oo @@@++++++@@@@@@@@@@@@@@@++@++oo %%%$$$$$$%%%%%%%%%%%%%%%",
"$$$$$$o @@+++++++++++++@@@@+++++++++++o %%$$$$$$$$$$$$$%%%%$$$$$",
"$$$$#oo @++++OOOOOOO++++++++++++++++Ooo %$$$$#######$$$$$$$$$$$$",
"$$##o   @+++OOOOOOOOOOOOOOOO++++++OOoXX %$$$################$$$$",
"####oo  @+++OOOOOOOOOOOOOOOOOOOOOOOOooX %$$$####################",
"#####o  @+++OOOOOOOOOOOOOOOOOOOOOOOOOoX %$$$####################",
"#####oo +++OOOOOOOOOOOOOOOOOOOOOOOOOOoo $$$#####################",
"######o ++OOOOOOOOOOOOOOOOOOOOOOOOOOOOo $$######################",
"######o ++OOOOOOOOOOOOOOOOOOOOOOOOOOOOo $$######################",
"#####o  @++OOOOOOOOOOOOOOOOOOOOOOOOOOoX %$$#####################",
"#####o  @++OOOOOOOOOOOOOOOOOOOOOOOOOOoX %$$#####################",
"###ooo  @++OOOOOOOOOOOOOOOOOOOOOOOOoooX %$$#####################",
"##o  o  ++OOOOOOOOOOOOOOOOOOooOOOOoXXoX $$##################oo##",
"oo      ++oooOOOOOOooooooOooooooooXXXXX $$ooo######oooooo#oooooo",
"o       ooXXooooooooXXXXXooXXXXooXXXXXX oo  oooooooo     oo    o",
"        XXXXXXXXXXXXXXXXXXXXXXXXXXXXXXX                         "
};
