/* XPM */
static char *fa45b0fe8c7642d6df9754b90e4e1641KeCqGeb7ZHcjO9Na[] = {
/* columns rows colors chars-per-pixel */
"64 64 9 1 ",
"  c #0B1B33",
". c #0F2441",
"X c #132B4B",
"o c #193260",
"O c #1E3C6E",
"+ c #22437F",
"@ c #23437F",
"# c #2B5397",
"$ c #335FB3",
/* pixels */
"$$$$$$$$##$##XX ++++++++OO+OO.. +++OOOOOO+++++++$$$######$$$$$$$",
"$$$###########X +++OOOOOOOOOOO. ++OOOOOOOOOOOOO+$$#############$",
"############@XX OOOOOOOOOOOOo.. +OOOOoooooooOOOO$####@@@@@@@####",
"@@@@######@@X   ooooOOOOOOoo.   +OOOoooooooooooo$###@@@@@@@@@@@@",
"@@@@@@@@@@@@XX  oooooooooooo..  +OOOoooooooooooo$###@@@@@@@@@@@@",
"@@@@@@@@@@@@@X  ooooooooooooo.  +OOOoooooooooooo$###@@@@@@@@@@@@",
"@@@@@@@@@@@@@XX ooooooooooooo.. OOOooooooooooooo###@@@@@@@@@@@@@",
"@@@@@@@@@@@@@@X oooooooooooooo. OOoooooooooooooo##@@@@@@@@@@@@@@",
"@@@@@@@@@@@@@@X oooooooooooooo. OOoooooooooooooo##@@@@@@@@@@@@@@",
"@@@@@@@@@@@@@X  ooooooooooooo.  +OOooooooooooooo$##@@@@@@@@@@@@@",
"@@@@@@@@@@@@@X  ooooooooooooo.  +OOooooooooooooo$##@@@@@@@@@@@@@",
"@@@@@@@@@@@XXX  ooooooooooo...  +OOooooooooooooo$##@@@@@@@@@@@@@",
"@@@@XX@@@@X  X  oooo..oooo.  .  OOoooooooooooooo##@@@@@@@@@@@@@@",
"X@XXXXXXXX      .o........      OO...oooooo.....##XXX@@@@@@XXXXX",
" XX    XX        ..    ..       ..  ........    XX  XXXXXXXX    ",
"                                                                ",
"$$$$$$$$##$##XX @@+OOOOOO+++++++++++++++OO+OO.. $$$######$$$$$$$",
"$$$###########X @@OOOOOOOOOOOOO++++OOOOOOOOOOO. $$#############$",
"############@XX @OOOOoooooooOOOOOOOOOOOOOOOOo.. $####@@@@@@@####",
"@@@@######@@X   +OOOooooooooooooooooOOOOOOoo.   $###@@@@@@@@@@@@",
"@@@@@@@@@@@@XX  +OOOoooooooooooooooooooooooo..  $###@@@@@@@@@@@@",
"@@@@@@@@@@@@@X  +OOOooooooooooooooooooooooooo.  $###@@@@@@@@@@@@",
"@@@@@@@@@@@@@XX OOOoooooooooooooooooooooooooo.. ###@@@@@@@@@@@@@",
"@@@@@@@@@@@@@@X OOoooooooooooooooooooooooooooo. ##@@@@@@@@@@@@@@",
"@@@@@@@@@@@@@@X OOoooooooooooooooooooooooooooo. ##@@@@@@@@@@@@@@",
"@@@@@@@@@@@@@X  +OOoooooooooooooooooooooooooo.  $##@@@@@@@@@@@@@",
"@@@@@@@@@@@@@X  +OOoooooooooooooooooooooooooo.  $##@@@@@@@@@@@@@",
"@@@@@@@@@@@XXX  +OOoooooooooooooooooooooooo...  $##@@@@@@@@@@@@@",
"@@@@XX@@@@X  X  OOoooooooooooooooooo..oooo.  .  ##@@@@@@@@@@@@@@",
"X@XXXXXXXX      OO...oooooo......o........      ##XXX@@@@@@XXXXX",
" XX    XX       ..  ........     ..    ..       XX  XXXXXXXX    ",
"                                                                ",
"$$$$$$$$##$##XX OO+OO.. +++OOOOOO+++++++++++++++$$$######$$$$$$$",
"$$$###########X OOOOOO. ++OOOOOOOOOOOOO++++OOOOO$$#############$",
"############@XX OOOOo.. +OOOOoooooooOOOOOOOOOOOO$####@@@@@@@####",
"@@@@######@@X   OOoo.   +OOOooooooooooooooooOOOO$###@@@@@@@@@@@@",
"@@@@@@@@@@@@XX  oooo..  +OOOoooooooooooooooooooo$###@@@@@@@@@@@@",
"@@@@@@@@@@@@@X  ooooo.  +OOOoooooooooooooooooooo$###@@@@@@@@@@@@",
"@@@@@@@@@@@@@XX ooooo.. OOOooooooooooooooooooooo###@@@@@@@@@@@@@",
"@@@@@@@@@@@@@@X oooooo. OOoooooooooooooooooooooo##@@@@@@@@@@@@@@",
"@@@@@@@@@@@@@@X oooooo. OOoooooooooooooooooooooo##@@@@@@@@@@@@@@",
"@@@@@@@@@@@@@X  ooooo.  +OOooooooooooooooooooooo$##@@@@@@@@@@@@@",
"@@@@@@@@@@@@@X  ooooo.  +OOooooooooooooooooooooo$##@@@@@@@@@@@@@",
"@@@@@@@@@@@XXX  ooo...  +OOooooooooooooooooooooo$##@@@@@@@@@@@@@",
"@@@@XX@@@@X  X  oo.  .  OOoooooooooooooooooo..oo##@@@@@@@@@@@@@@",
"X@XXXXXXXX      ..      OO...oooooo......o......##XXX@@@@@@XXXXX",
" XX    XX       .       ..  ........     ..    .XX  XXXXXXXX    ",
"                                                                ",
"$$$$$$$$##$##XX O+++++++++++++++OO+OO.. +++OOOOO$$$######$$$$$$$",
"$$$###########X OOOOOOO++++OOOOOOOOOOO. ++OOOOOO$$#############$",
"############@XX ooooOOOOOOOOOOOOOOOOo.. +OOOOooo$####@@@@@@@####",
"@@@@######@@X   ooooooooooooOOOOOOoo.   +OOOoooo$###@@@@@@@@@@@@",
"@@@@@@@@@@@@XX  oooooooooooooooooooo..  +OOOoooo$###@@@@@@@@@@@@",
"@@@@@@@@@@@@@X  ooooooooooooooooooooo.  +OOOoooo$###@@@@@@@@@@@@",
"@@@@@@@@@@@@@XX ooooooooooooooooooooo.. OOOooooo###@@@@@@@@@@@@@",
"@@@@@@@@@@@@@@X oooooooooooooooooooooo. OOoooooo##@@@@@@@@@@@@@@",
"@@@@@@@@@@@@@@X oooooooooooooooooooooo. OOoooooo##@@@@@@@@@@@@@@",
"@@@@@@@@@@@@@X  ooooooooooooooooooooo.  +OOooooo$##@@@@@@@@@@@@@",
"@@@@@@@@@@@@@X  ooooooooooooooooooooo.  +OOooooo$##@@@@@@@@@@@@@",
"@@@@@@@@@@@XXX  ooooooooooooooooooo...  +OOooooo$##@@@@@@@@@@@@@",
"@@@@XX@@@@X  X  oooooooooooo..oooo.  .  OOoooooo##@@@@@@@@@@@@@@",
"X@XXXXXXXX      ooo......o........      OO...ooo##XXX@@@@@@XXXXX",
" XX    XX       ....     ..    ..       ..  ....XX  XXXXXXXX    ",
"                                                                "
};
