/* XPM */
static char *_bf31410238c41f2b1ce4b6b73e61e02wTQLDfJoyWEDqlfh[] = {
/* columns rows colors chars-per-pixel */
"64 64 10 1 ",
"  c #0B1B33",
". c #0E213C",
"X c #102542",
"o c #132B4B",
"O c #18335C",
"+ c #1B3865",
"@ c #1E3C6F",
"# c #23437F",
"$ c #2B5397",
"% c #335FB3",
/* pixels */
"%%%$$$$$$%%%%%%%%%%%%%%%$$%$$oo @@@++++++@@@@@@@@@@@@@@@++@++ooX",
"%%$$$$$$$$$$$$$%%%%$$$$$$$$$$$o @@+++++++++++++@@@@+++++++++++oX",
"%$$$$#######$$$$$$$$$$$$$$$$#oo @++++OOOOOOO++++++++++++++++OooX",
"%$$$################$$$$$$##o   @+++OOOOOOOOOOOOOOOO++++++OOoXXX",
"%$$$########################oo  @+++OOOOOOOOOOOOOOOOOOOOOOOOooXX",
"%$$$#########################o  @+++OOOOOOOOOOOOOOOOOOOOOOOOOoXX",
"$$$##########################oo +++OOOOOOOOOOOOOOOOOOOOOOOOOOooX",
"$$############################o ++OOOOOOOOOOOOOOOOOOOOOOOOOOOOoX",
"$$############################o ++OOOOOOOOOOOOOOOOOOOOOOOOOOOOoX",
"%$$##########################o  @++OOOOOOOOOOOOOOOOOOOOOOOOOOoXX",
"%$$##########################o  @++OOOOOOOOOOOOOOOOOOOOOOOOOOoXX",
"%$$########################ooo  @++OOOOOOOOOOOOOOOOOOOOOOOOoooXX",
"$$##################oo####o  o  ++OOOOOOOOOOOOOOOOOOooOOOOoXXoXX",
"$$ooo######oooooo#oooooooo      ++oooOOOOOOooooooOooooooooXXXXXX",
"oo  oooooooo     oo    oo       ooXXooooooooXXXXXooXXXXooXXXXXXX",
"                                XXXXXXXXXXXXXXXXXXXXXXXXXXXXXXXX",
"%%%%%%%%$$%$$oo %%%$$$$$$%%%%%%%%%%%%%%%$$%$$oo %%%$$$$$$%%%%%%%",
"%%%$$$$$$$$$$$o %%$$$$$$$$$$$$$%%%%$$$$$$$$$$$o %%$$$$$$$$$$$$$%",
"$$$$$$$$$$$$#oo %$$$$#######$$$$$$$$$$$$$$$$#oo %$$$$#######$$$$",
"####$$$$$$##o   %$$$################$$$$$$##o   %$$$############",
"############oo  %$$$########################oo  %$$$############",
"#############o  %$$$#########################o  %$$$############",
"#############oo $$$##########################oo $$$#############",
"##############o $$############################o $$##############",
"##############o $$############################o $$##############",
"#############o  %$$##########################o  %$$#############",
"#############o  %$$##########################o  %$$#############",
"###########ooo  %$$########################ooo  %$$#############",
"####oo####o  o  $$##################oo####o  o  $$##############",
"o#oooooooo      $$ooo######oooooo#oooooooo      $$ooo######ooooo",
" oo    oo       oo  oooooooo     oo    oo       oo  oooooooo    ",
"                                                                ",
"+@@@@@@@@@@@@@@@++@++oo.%%%$$$$$$%%%%%%%%%%%%%%%$$%$$oo %%%$$$$$",
"+++++++@@@@+++++++++++o.%%$$$$$$$$$$$$$%%%%$$$$$$$$$$$o %%$$$$$$",
"OOOO++++++++++++++++Ooo.%$$$$#######$$$$$$$$$$$$$$$$#oo %$$$$###",
"OOOOOOOOOOOO++++++OOoXX.%$$$################$$$$$$##o   %$$$####",
"OOOOOOOOOOOOOOOOOOOOooX.%$$$########################oo  %$$$####",
"OOOOOOOOOOOOOOOOOOOOOoX.%$$$#########################o  %$$$####",
"OOOOOOOOOOOOOOOOOOOOOoo.$$$##########################oo $$$#####",
"OOOOOOOOOOOOOOOOOOOOOOo.$$############################o $$######",
"OOOOOOOOOOOOOOOOOOOOOOo.$$############################o $$######",
"OOOOOOOOOOOOOOOOOOOOOoX.%$$##########################o  %$$#####",
"OOOOOOOOOOOOOOOOOOOOOoX.%$$##########################o  %$$#####",
"OOOOOOOOOOOOOOOOOOOoooX.%$$########################ooo  %$$#####",
"OOOOOOOOOOOOooOOOOoXXoX.$$##################oo####o  o  $$######",
"OOOooooooOooooooooXXXXX.$$ooo######oooooo#oooooooo      $$ooo###",
"ooooXXXXXooXXXXooXXXXXX.oo  oooooooo     oo    oo       oo  oooo",
"XXXXXXXXXXXXXXXXXXXXXXX.                                        ",
"$$%$$oo %%%$$$$$$%%%%%%%%%%%%%%%$$%$$oo %%%$$$$$$%%%%%%%%%%%%%%%",
"$$$$$$o %%$$$$$$$$$$$$$%%%%$$$$$$$$$$$o %%$$$$$$$$$$$$$%%%%$$$$$",
"$$$$#oo %$$$$#######$$$$$$$$$$$$$$$$#oo %$$$$#######$$$$$$$$$$$$",
"$$##o   %$$$################$$$$$$##o   %$$$################$$$$",
"####oo  %$$$########################oo  %$$$####################",
"#####o  %$$$#########################o  %$$$####################",
"#####oo $$$##########################oo $$$#####################",
"######o $$############################o $$######################",
"######o $$############################o $$######################",
"#####o  %$$##########################o  %$$#####################",
"#####o  %$$##########################o  %$$#####################",
"###ooo  %$$########################ooo  %$$#####################",
"##o  o  $$##################oo####o  o  $$##################oo##",
"oo      $$ooo######oooooo#oooooooo      $$ooo######oooooo#oooooo",
"o       oo  oooooooo     oo    oo       oo  oooooooo     oo    o",
"                                                                "
};
