/* XPM */
static char *_3e4fcca98ef46d1a7894bfacb4794683ehvXCMdxekn8gV8[] = {
/* columns rows colors chars-per-pixel */
"24 24 2 1 ",
"  c None",
". c white",
/* pixels */
"                        ",
"                        ",
"           ..           ",
"           ..           ",
"           ..           ",
"           ..           ",
"           ..           ",
"           ..           ",
"                        ",
"                        ",
"                        ",
"  ......        ......  ",
"  ......        ......  ",
"                        ",
"                        ",
"                        ",
"           ..           ",
"           ..           ",
"           ..           ",
"           ..           ",
"           ..           ",
"           ..           ",
"                        ",
"                        "
};
