/* XPM */
static char *_b0062efe50c43b483bf6125a633ba71B8OFEVAwsmGEtgDj[] = {
/* columns rows colors chars-per-pixel */
"50 50 256 2 ",
"   c #040301",
".  c #0D0200",
"X  c #080408",
"o  c #140100",
"O  c #1B0100",
"+  c #12000C",
"@  c #190804",
"#  c #191500",
"$  c #0C0017",
"%  c #130013",
"&  c #13011C",
"*  c #1C001C",
"=  c #180414",
"-  c #0D1100",
";  c #230100",
":  c #2B0200",
">  c #240802",
",  c #330100",
"<  c #360A00",
"1  c #291600",
"2  c #381800",
"3  c #25001C",
"4  c #382704",
"5  c #3C2B15",
"6  c #0A0023",
"7  c #150024",
"8  c #1B0023",
"9  c #15012B",
"0  c #1B002B",
"q  c #1D0B21",
"w  c #140034",
"e  c #1D0034",
"r  c #1A003A",
"t  c #0F0033",
"y  c #260028",
"u  c #24003B",
"i  c #280035",
"p  c #34053A",
"a  c #311030",
"s  c #471700",
"d  c #561800",
"f  c #470A00",
"g  c #472501",
"h  c #562700",
"j  c #593802",
"k  c #50340A",
"l  c #632900",
"z  c #663A04",
"x  c #6F380C",
"c  c #6D3A30",
"v  c #592612",
"b  c #5B4203",
"n  c #5A4719",
"m  c #644603",
"M  c #784903",
"N  c #7C5402",
"B  c #684715",
"V  c #7E5018",
"C  c #6E5229",
"Z  c #79652B",
"A  c #5E442D",
"S  c #1A0046",
"D  c #1D0053",
"F  c #2C0044",
"G  c #2C004C",
"H  c #240046",
"J  c #370448",
"K  c #2C005B",
"L  c #280055",
"P  c #360157",
"I  c #2C0061",
"U  c #380265",
"Y  c #380075",
"T  c #4B0C57",
"R  c #480269",
"E  c #550269",
"W  c #480279",
"Q  c #53007C",
"!  c #590578",
"~  c #52156C",
"^  c #64037A",
"/  c #562770",
"(  c #702A75",
")  c #73304C",
"_  c #6E4E50",
"`  c #7E5856",
"'  c #863700",
"]  c #864A01",
"[  c #875702",
"{  c #965701",
"}  c #8C5011",
"|  c #906911",
" . c #A96701",
".. c #B36806",
"X. c #AA7708",
"o. c #B8760F",
"O. c #9A6A35",
"+. c #916B2D",
"@. c #A7722A",
"#. c #8B5926",
"$. c #C67A0D",
"%. c #90315C",
"&. c #B01A73",
"*. c #963469",
"=. c #8D306D",
"-. c #AA267B",
";. c #B62676",
":. c #A92C72",
">. c #8C1E75",
",. c #904555",
"<. c #9B725A",
"1. c #E87A78",
"2. c #F87D79",
"3. c #F8776D",
"4. c #C5417D",
"5. c #B98414",
"6. c #BA8625",
"7. c #BD9526",
"8. c #D28E13",
"9. c #EB9801",
"0. c #FD9401",
"q. c #F59B03",
"w. c #FE9D02",
"e. c #FD9D0C",
"r. c #F59A09",
"t. c #FE9C13",
"y. c #F69819",
"u. c #EB930E",
"i. c #DAA910",
"p. c #E5A703",
"a. c #FCA202",
"s. c #F5A20C",
"d. c #FDA20C",
"f. c #F8A805",
"g. c #E8A619",
"h. c #FCA213",
"j. c #FBA819",
"k. c #EFB415",
"l. c #C69323",
"z. c #D99A2B",
"x. c #D59938",
"c. c #CD8D2E",
"v. c #EA9C27",
"b. c #FB9B26",
"n. c #E89837",
"m. c #F99936",
"M. c #F48F25",
"N. c #D7A437",
"B. c #D1A52D",
"V. c #E9A725",
"C. c #F8A728",
"Z. c #E8A737",
"A. c #F8A836",
"S. c #EAB53B",
"D. c #F0B42C",
"F. c #AE8849",
"G. c #B9986A",
"H. c #958961",
"J. c #D89747",
"K. c #C79C4E",
"L. c #EE9850",
"P. c #D8AB4D",
"I. c #E9A646",
"U. c #F8A544",
"Y. c #E9A959",
"T. c #F4AF54",
"R. c #FA8478",
"E. c #F4976A",
"W. c #EBAC65",
"Q. c #D0A56D",
"!. c #FFC249",
"~. c #4A0185",
"^. c #5A0084",
"/. c #52008C",
"(. c #59008A",
"). c #580196",
"_. c #5E1888",
"`. c #650389",
"'. c #691B8A",
"]. c #690398",
"[. c #6B1A94",
"{. c #781A99",
"}. c #73148F",
"|. c #6F2993",
" X c #5802A4",
".X c #7702A6",
"XX c #7919A7",
"oX c #6B03B2",
"OX c #7709B6",
"+X c #7B16B6",
"@X c #690CA9",
"#X c #7C22B5",
"$X c #7B2AB1",
"%X c #5C258A",
"&X c #7607C3",
"*X c #7C24D2",
"=X c #AD198E",
"-X c #962D8A",
";X c #AA2587",
":X c #B42686",
">X c #AC3090",
",X c #8907AB",
"<X c #881BA9",
"1X c #8816B8",
"2X c #9719BC",
"3X c #8E14B5",
"4X c #A619B9",
"5X c #A60DBD",
"6X c #8728B9",
"7X c #8E2CAF",
"8X c #AC33A8",
"9X c #AD31B1",
"0X c #DC7287",
"qX c #FD7B89",
"wX c #EF7A8F",
"eX c #8902C7",
"rX c #9A0CC9",
"tX c #8819C4",
"yX c #9619CA",
"uX c #9B08D8",
"iX c #891AD7",
"pX c #9A19D8",
"aX c #8905D7",
"sX c #A60CCA",
"dX c #A718C8",
"fX c #A50CD5",
"gX c #A516D9",
"hX c #B512CE",
"jX c #8C26C7",
"kX c #9725C7",
"lX c #9923D7",
"zX c #8B2DD0",
"xX c #A826D2",
"cX c #990AE6",
"vX c #9A16E7",
"bX c #9B07F7",
"nX c #9E14F7",
"mX c #8E1EE2",
"MX c #A708E9",
"NX c #B304EA",
"BX c #A312EC",
"VX c #A715E5",
"CX c #A30BF3",
"ZX c #A403FD",
"AX c #AB05FD",
"SX c #A50BFD",
"DX c #AA0BFE",
"FX c #A807F4",
"GX c #B505F8",
"HX c #A614F8",
"JX c #B317EC",
"KX c #A120E6",
"LX c #C602F7",
"PX c #FA8588",
"IX c #EF878F",
"UX c #DF9791",
/* pixels */
"0.t.i.p.f.w.a.w.w.e.C.u.a.w.0.f.a.f.q.q.w.a.0.M.2.;XJXGXNXLXAXAXAXZXbXnXSXSXMXFXGXAXSXCXbXSXMXMXGXAX",
"t.e.p.p.p.w.r.9.w.w.e.j.q.0.w.q.a.a.f.a.w.0.w.A.R.-XsXFXGXGXAXAXAXSXBXvXbXbXFXGXAXAXcXcXbXnXMXFXAXAX",
"t.u.j.g.g.V.D.D.j.f.9.j.g.C.C.e.a.q.d.a.w.q.C.x.UX-XgXGXGXGXZXFXMXsX3XrXvXDXDXSXuXgXxXvXnXnXbXSXAXAX",
"e.0.v.[ M N m N ..g.s.s. .] { j.a.0.d.q.d.e.g.[ c T yXDXGXAXMXVX2X^ E R ).OXHXBX].^ ! Q ). X&XHXFXAX",
"0.t.n.f O @ o O , { C.V.M ; d V.e.w.d.9.d.h.X.@ o i 1XCXAXAXJX2XT y * 7 9 L +X*Xp * * & 0 S W vXCXAX",
"0.e.J., O   . o ; < o.Z.B > l V.w.w.h.r.w.C.N .   u +XHXAXAXgX! q + % & $ t XX$Xy . o = + 7 Y vXCXAX",
"a.q.J.< .   1 . O ; [ Y.n o h z.q.w.d.d.w.C.B     $ ].BXZXbXyXP 0 $ u G w w +X6Xi + 8 y * i (.vXSXAX",
"a.r.J.: @ _ G.C o O l Y.C . g Z.j.0.r.h.0.n.g   - + `.VXbXcX<Xu 9 u |.7X_.K &X+X7 8 E {.|.<XeXCXZXAX",
"f.j.c.: o Z P.P.4 . s W.n o j z.f.a.s.s.0.m.>   # O E rXMXvX`.e e '.tXVXvX&XaXiXH 8 `.pXpXvXHXFXDXAX",
"p.s.N.2 > [ V.Z.k . h K.B o g Z.9.q.f.j.t.$.; = A O T yXBXvXR 0 G XXgXGXZXbXbXiXu 7 `.lXmXvXcXCXAXAX",
"f.g.N.< ; [ V.N.4 O h P.B ; g Z.s.a.s.r.t...O 5 <.; y <XvXpXP 9 P 6XMXZXSXSXHXtXy + J ~ W ).OXKXCXAX",
"p.g.N.> : | T.x.> ; h W.B O d n.s.f.q.u.b.{ O 5 G.: y }.pXlXG 7 R yXMXbXZXSXSX1X* . X & 9 S ^.yXCXAX",
"q.y.N.1 O B O.x O O [ Y.b > h Z.r.w.h.y.A.l O A Q.: 3 ! gXxXH 7 Q gXCXZXAXMXFXyXp o % X + i `.VXCXAX",
"e.g.J.< . o > O o O 7.N.B ; d A.j.r.s.C.z.2 O <.UXs % P lXyXG w ~.pXFXAXGXMXCXiXp % 6 9 y J ].fXFXAX",
"t.y.J.< X   X . o j i.i.B ; d n.b.t.r.V.6.> - ` G.A $ L yXyXJ r Y iXFXGXLXNXbX*XH 7 ~.#XOXeXuXCXAXAX",
"e.b.J.: @   . o g z.i.k.m O d A.y.t.t.g.6.@ - 4 g O X u yXyXT w Y jXFXGXLXGXHXiXH w  XKXBXFXDXSXAXAX",
"r.g.x.> @ k @.X.g.f.f.g.m > d V.g.f.0.C.N X .   . o . 8 ,XxXR 7 L #XMXGXBXcXFXrXL 9 ].VXMXFXZXSXDXAX",
"9.j.N., : +.I.j.q.a.a.V.j O d I.z.V.t.A.B   . @ . X   q .XxXR i r '.pXJXyXoXuXrXr 7 `.kXVXBXbXnXAXAX",
"a.j.n., ; #.U.r.w.0.0.A.C . 4 F.F.6.$.K.5 - 1 c c a = t (.jX! i * p {.XX~ G eXKXu & T '.{.OX1XVXCXAX",
"w.r.z.s : #.Z.r.w.w.e.Z.n     @ ; O < | #   | W.UX( a t W jXXXP = + G G * 7 OXjX0 X $ 8 H L W tXCXAX",
"w.h.x.s ; } U.s.w.w.a.V.n - - . O O @ Z - o @.T.IX,.T S U 6XzX`.y . & $   $ XXtXu X X $ $ 9 U yXCXAX",
"w.j.l.f : } V.9.a.w.q.g.m   . o ; O > b O > 8.m.R.:.E U U 1XKXtXP 7 0 & + p tXyXL 7 $ 7 0 r W iXCXAX",
"q.s.8.{ ] 5.j.f.f.9.f.f.X.[ ] ] } ] [ [ [ { y.m.PX>X,X.X].eXCXBX1XQ P R `.3XVXuX.X`.^.! `..XeXHXFXFX",
"y.b.U.L.L.I.b.t.j.y.j.b.n.T.E.E.E.Q.T.Z.T.L.m.E.qX;X=X4XdXdXsXfXdX3X7X4X2XsXsXhX4X<X7X4X4XhXsXuXfXsX",
"3.R.R.R.1.PXR.3.2.2.R.3.qX1.3.qXwXIXR.R.qXqXqXqXwX4.&.&.-.-.:X:X>X>.-X:.>X;X:X;X-X>.:.:.&.:X>X=X:X:X",
";.;.:.:.=.-.;.;.;.:X&.&.;.:X;.:.-.-.>.:X:X=X:X-.-.0XPXIXPXPX3.PXPXIXUX0XwXqXPXIXIXIXUX1.R.2.2.PXPXR.",
"hXfX2X2X2XdX5X5XsXgXhXhX2X{.}.7X2XdXyXrXsXfXgX4X;XIXW.J.L.I.m.M.M.A.J.Y.E.L.3.E.E.Y.E.L.A.A.y.b.b.m.",
"AXAXaX).oXuXJXeXoXeXNXgX(.K S ! yXVXaX&XoXuXCXrX;X*.d g k [ D.s.d.$.h k l l ' v.] f l h [ u.f.a.w.d.",
"ZXHX+XU ~.kXpX].Y XX6X{.G t 6 t ].xXtX/.U 3XBXuXxX=.O @ o ; { V.A. .o . @ ; h P.z O O O ; [ V.f.0.w.",
"SXvX+XF ! kXyX/.L |.7XE e 9 6 6 R 6X6XW G <XgXuX9X( *   . o < x.v.o.@ = = @ h P.h > ; = o s N.f.a.w.",
"SXcX<XT `.2XyX).D %X$XP u J J u P XXjX~.K 6XVXfX8X=.. - 5 O O #.A.o.. - 1 1 m B.b O s g o : 8.q.a.w.",
"ZXcX<XJ ^ yXkX(.L |.|.J P |.7XU H _.$X~.K 6XuXdX8X=.o H.G.2 > z U. .O C P.B.8.S.b o K.K.< : $.j.w.w.",
"ZXnXXXJ ^.lXlX).K |./ H ! 6XkX^.D U 7X~ L $XgXrX8X=.@ O.Y.@.: 2 I.o.; C S.i.p.B.b @ 6.P.k : $.y.e.w.",
"ZXnX{.F Q $X$X/.G |./ u ).pXlX].S U 7X/ G $XvXrX8X=.: @.A.c.> > J.o.; Z T.g.p.i.m @ 7.Y.g : $.j.w.w.",
"AXgX}.y p J J u y ( ~ H @XKXvXOXS J 7X! K 1XvXfX9X*.: @.A.v.4 o z.o.+ 1 k j  .S.m O K.W.2 ; 8.d.q.a.",
"GXgX|.7 * - $ 7 0 ( T H .XBXvX&X9 J 7X~.U tXBXfX9X%., @.C.C.4 o c.X.o . > > M I.h O <.+.@ 1 i.f.a.w.",
"NXgX{.0 % X $ $ q ( T F OXVXcX1X8 p 7X/.I +XvXrX>X%., @.n.Z.k   l...O . . O x T.x O > ; o m k.p.a.w.",
"NXgXXXS 0 0 e w t %X~ F ,XfXgX3X* p 7X~.I 6XpXdX>X%., O.Z.Z.k o l.o.O O > , } T.k o o @ o +.g.f.a.w.",
"NXgX+XK R '.|.W D %X~ P .XgXMX,X3 a 6X/.K #XvXrX8X%., O.Z.N.g o l.X.O C J.c.8.Z.B . O : 1 W.D.9.w.w.",
"AXMX+XI (.jXzXW H %X! L ].pXgX,Xa p 6X/.K #XvXcX9X*.: @.S.N.4 O B.5.O } U.b.t.Z.j . C > O F.C.r.e.a.",
"AXvXXXP ).kXtX^.F ( |.K ~.*XlX].i T kX(.P $XvXaX9X=.> @.S.l., > B.5.O N A.9.p.k.b o F.m > V C.w.w.w.",
"ZXnX{.G (.lXkX^.u ( [.I W $XzXW r ! 6XW L |.lXlX9X*.; O.P.| : s D.X.o C T.j.s.D.b @ B.| O j A.w.w.w.",
"ZXvX[.F ~.jXlX! a ( <XU S / / a H [.zXW i / '.}.-X) O <.F.4 O } U. .o _ G.c.5.z.z > l.l.. 1 z.q.a.w.",
"AXpX'.G /.iXyX(.u ( 6XW t 9 a 6 D #XzXY 0 y y y ( ` @ . O O O +.A....   o ; l T.v : 8.N.1 o o.h.q.w.",
"GXVX[.I ).iXvX].G }.yX].r $ - 7 ~.*XzXW 0 = = ; ) _ ; @ . O s x.A...o   o > d L.c , 8.S.m O ] A.d.w.",
"GXVX+XY  XvXVX.XU }.yX1XU t 8 J OXiXiX~.e * y 3 ) ,.O o @ : | !.y...; . o O d W.x , $.A.| : d b.e.w.",
"NXMXiX XeXBXNXeX(.<XgXpX XY W .XBXBXfX,X^.Q ^.! >.<.z z N o.C.9.f.$.z b m M { n.{ ' 8.j.8.] ] u.t.w.",
"GXMXnXcXGXGXGXMXyXKXvXBXmXiXaXHXFXMXNXVXyXpXvXdX:XwXU.D.g.g.w.a.a.f.V.S.V.g.j.v.A.b.j.d.9.j.C.b.e.w.",
"AXAXAXFXAXAXAXFXMXCXFXFXCXnXCXFXFXAXGXFXFXCXMXdX;X2.m.r.d.r.d.w.a.a.s.s.s.s.e.t.h.r.d.a.q.d.e.e.w.w.",
"AXAXAXAXAXAXAXAXAXAXDXAXFXAXAXAXAXAXAXAXDXAXAXsX-.2.m.w.a.q.w.w.w.a.w.w.w.w.w.a.w.w.w.w.w.w.a.w.w.w."
};
