/* XPM */
static char *_72f51e39bf747b3a4f206289f41b526E6fLPLKh7BBhpyX7[] = {
/* columns rows colors chars-per-pixel */
"128 128 29 1 ",
"  c #DD7900",
". c #E17B00",
"X c #DE7900",
"o c #F28500",
"O c #FB8A00",
"+ c #F78700",
"@ c #E57D00",
"# c #E27B00",
"$ c #F68700",
"% c DarkOrange",
"& c #F58700",
"* c #E37C00",
"= c #E27C00",
"- c #FD8B00",
"; c #FC8A00",
": c #DB7800",
"> c #E67D00",
", c #F48600",
"< c #DB7700",
"1 c #E67E00",
"2 c #FF8D00",
"3 c #D67500",
"4 c #D47400",
"5 c #EF8300",
"6 c #ED8200",
"7 c #D37300",
"8 c #EB8100",
"9 c #DE7A00",
"0 c white",
/* pixels */
" ..............................................................XoOOOOOOOOOOOOOOOOOOOOOOOOOOOOOOOOOOOOOOOOOOOOOOOOOOOOOOOOOOOOOO+",
".@@@@@@@@@@@@@@@@@@@@@@@@@@@@@@@@@@@@@@@@@@@@@@@@@@@@@@@@@@@@@@#$%%%%%%%%%%%%%%%%%%%%%%%%%%%%%%%%%%%%%%%%%%%%%%%%%%%%%%%%%%%%%%O",
".@@@@@@@@@@@@@@@@@@@@@@@@@@@@@@@@@@@@@@@@@@@@@@@@@@@@@@@@@@@@@@#&%%%%%%%%%%%%%%%%%%%%%%%%%%%%%%%%%%%%%%%%%%%%%%%%%%%%%%%%%%%%%%O",
".@@@@@@@@@@@@@@@@@@@@@@@@@@@@@@@@@@@@@@@@@@@@@@@@@@@@@@@@@@@@@@#&%%%%%%%%%%%%%%%%%%%%%%%%%%%%%%%%%%%%%%%%%%%%%%%%%%%%%%%%%%%%%%O",
".@@@@@@@@@@@@@@@@@@@@@@@@@@@@@@@@@@@@@@@@@@@@@@@@@@@@@@@@@@@@@@#&%%%%%%%%%%%%%%%%%%%%%%%%%%%%%%%%%%%%%%%%%%%%%%%%%%%%%%%%%%%%%%O",
".@@@@@@@@@@@@@@@@@@@@@@@@@@@@@@@@@@@@@@@@@@@@@@@@@@@@@@@@@@@@@@#&%%%%%%%%%%%%%%%%%%%%%%%%%%%%%%%%%%%%%%%%%%%%%%%%%%%%%%%%%%%%%%O",
".@@@@@@@@@@@@@@@@@@@@@@@@@@@@@@@@@@@@@@@@@@@@@@@@@@@@@@@@@@@@@@#&%%%%%%%%%%%%%%%%%%%%%%%%%%%%%%%%%%%%%%%%%%%%%%%%%%%%%%%%%%%%%%O",
".@@@@@@@@@@@@@@@@@@@@@@@@@@@@@@@@@@@@@@@@@@@@@@@@@@@@@@@@@@@@@@#&%%%%%%%%%%%%%%%%%%%%%%%%%%%%%%%%%%%%%%%%%%%%%%%%%%%%%%%%%%%%%%O",
".@@@@@@@@@@@@@@@@@@@@@@@@@@@@@@@@@@@@@@@@@@@@@@@@@@@@@@@@@@@@@@#&%%%%%%%%%%%%%%%%%%%%%%%%%%%%%%%%%%%%%%%%%%%%%%%%%%%%%%%%%%%%%%O",
".@@@@@@@@@@@@@@@@@@@@@@@@@@@@@@@@@@@@@@@@@@@@@@@@@@@@@@@@@@@@@@#&%%%%%%%%%%%%%%%%%%%%%%%%%%%%%%%%%%%%%%%%%%%%%%%%%%%%%%%%%%%%%%O",
".@@@@@@@@@@@@@@@@@@@@@@@@@@@@@@@@@@@@@@@@@@@@@@@@@@@@@@@@@@@@@@#&%%%%%%%%%%%%%%%%%%%%%%%%%%%%%%%%%%%%%%%%%%%%%%%%%%%%%%%%%%%%%%O",
".@@@@@@@@@@@@@@@@@@@@@@@@@@@@@@@@@@@@@@@@@@@@@@@@@@@@@@@@@@@@@@#&%%%%%%%%%%%%%%%%%%%%%%%%%%%%%%%%%%%%%%%%%%%%%%%%%%%%%%%%%%%%%%O",
".@@@@@@@@@@@@@@@@@@@@@@@@@@@@@@@@@@@@@@@@@@@@@@@@@@@@@@@@@@@@@@#&%%%%%%%%%%%%%%%%%%%%%%%%%%%%%%%%%%%%%%%%%%%%%%%%%%%%%%%%%%%%%%O",
".@@@@@@@@@@@@@@@@@@@@@@@@@@@@@@@@@@@@@@@@@@@@@@@@@@@@@@@@@@@@@@#&%%%%%%%%%%%%%%%%%%%%%%%%%%%%%%%%%%%%%%%%%%%%%%%%%%%%%%%%%%%%%%O",
".@@@@@@@@@@@@@@@@@@@@@@@@@@@@@@@@@@@@@@@@@@@@@@@@@@@@@@@@@@@@@@#&%%%%%%%%%%%%%%%%%%%%%%%%%%%%%%%%%%%%%%%%%%%%%%%%%%%%%%%%%%%%%%O",
".@@@@@@@@@@@@@@@@@@@@@@@@@@@@@@@@@@@@@@@@@@@@@@@@@@@@@@@@@@@@@@#&%%%%%%%%%%%%%%%%%%%%%%%%%%%%%%%%%%%%%%%%%%%%%%%%%%%%%%%%%%%%%%O",
".@@@@@@@@@@@@@@@@@@@@@@@@@@@@@@@@@@@@@@@@@@@@@@@@@@@@@@@@@@@@@@#&%%%%%%%%%%%%%%%%%%%%%%%%%%%%%%%%%%%%%%%%%%%%%%%%%%%%%%%%%%%%%%O",
".@@@@@@@@@@@@@@@@@@@@@@@@@@@@@@@@@@@@@@@@@@@@@@@@@@@@@@@@@@@@@@#&%%%%%%%%%%%%%%%%%%%%%%%%%%%%%%%%%%%%%%%%%%%%%%%%%%%%%%%%%%%%%%O",
".@@@@@@@@@@@@@@@@@@@@@@@@@@@@@@@@@@@@@@@@@@@@@@@@@@@@@@@@@@@@@@#&%%%%%%%%%%%%%%%%%%%%%%%%%%%%%%%%%%%%%%%%%%%%%%%%%%%%%%%%%%%%%%O",
".@@@@@@@@@@@@@@@@@@@@@@@@@@@@@@*=@@@@@@@@@@@@@@@@@@@@@@@@@@@@@@#&%%%%%%%%%%%%%%%%%%%%%%%%%%%%%%-;%%%%%%%%%%%%%%%%%%%%%%%%%%%%%%O",
".@@@@@@@@@@@@@@@@@@@@@@@@@@@@@@ :>@@@@@@@@@@@@@@@@@@@@@@@@@@@@@#&%%%%%%%%%%%%%%%%%%%%%%%%%%%%%%$,%%%%%%%%%%%%%%%%%%%%%%%%%%%%%%O",
".@@@@@@@@@@@@@@@@@@@@@@@@@@@@@> <>@@@@@@@@@@@@@@@@@@@@@@@@@@@@@#&%%%%%%%%%%%%%%%%%%%%%%%%%%%%%%$,%%%%%%%%%%%%%%%%%%%%%%%%%%%%%%O",
".@@@@@@@@@@@@@@@@@@@@@@@@@@@@@> <>@@@@@@@@@@@@@@@@@@@@@@@@@@@@@#&%%%%%%%%%%%%%%%%%%%%%%%%%%%%%%$,%%%%%%%%%%%%%%%%%%%%%%%%%%%%%%O",
".@@@@@@@@@@@@@@@@@@@@@@@@@@@@@> <>@@@@@@@@@@@@@@@@@@@@@@@@@@@@@#&%%%%%%%%%%%%%%%%%%%%%%%%%%%%%%$,%%%%%%%%%%%%%%%%%%%%%%%%%%%%%%O",
".@@@@@@@@@@@@@@@@@@@@@@@@@@@@@> <>@@@@@@@@@@@@@@@@@@@@@@@@@@@@@#&%%%%%%%%%%%%%%%%%%%%%%%%%%%%%%$,%%%%%%%%%%%%%%%%%%%%%%%%%%%%%%O",
".@@@@@@@@@@@@@@@@@@@@@@@@@@@@@> <>@@@@@@@@@@@@@@@@@@@@@@@@@@@@@#&%%%%%%%%%%%%%%%%%%%%%%%%%%%%%%$,%%%%%%%%%%%%%%%%%%%%%%%%%%%%%%O",
".@@@@@@@@@@@@@@@@@@@@@@@@@@@@@> <>@@@@@@@@@@@@@@@@@@@@@@@@@@@@@#&%%%%%%%%%%%%%%%%%%%%%%%%%%%%%%$,%%%%%%%%%%%%%%%%%%%%%%%%%%%%%%O",
".@@@@@@@@@@@@@@@@@@@@@@@@@@@@@> <>@@@@@@@@@@@@@@@@@@@@@@@@@@@@@#&%%%%%%%%%%%%%%%%%%%%%%%%%%%%%%$,%%%%%%%%%%%%%%%%%%%%%%%%%%%%%%O",
".@@@@@@@@@@@@@@@@@@@@@@@@@@@@@> <>@@@@@@@@@@@@@@@@@@@@@@@@@@@@@#&%%%%%%%%%%%%%%%%%%%%%%%%%%%%%%$,%%%%%%%%%%%%%%%%%%%%%%%%%%%%%%O",
".@@@@@@@@@@@@@@@@@@@@@@@@@@@@@> <>@@@@@@@@@@@@@@@@@@@@@@@@@@@@@#&%%%%%%%%%%%%%%%%%%%%%%%%%%%%%%$,%%%%%%%%%%%%%%%%%%%%%%%%%%%%%%O",
".@@@@@@@@@@@@@@@@@@@@>>>>>>>>>1 :1>>>>>>>>>>@@@@@@@@@@@@@@@@@@@#&%%%%%%%%%%%%%%%%%%%%%%%%%%%%%2+,2%%%%%%%%%%%%%%%%%%%%%%%%%%%%%O",
".@@@@@@@@@@@@@@@@@@*           34           #@@@@@@@@@@@@@@@@@@#&%%%%%%%%%%%%%%%%%%-$$$$$$$$$$+56+$$$$$$$$$$;%%%%%%%%%%%%%%%%%%O",
".@@@@@@@@@@@@@@@@@@#:<<<<<<<<<:47:<<<<<<<<<<.@@@@@@@@@@@@@@@@@@#&%%%%%%%%%%%%%%%%%%;,,,,,,,,,,,68,,,,,,,,,,,O%%%%%%%%%%%%%%%%%%O",
".@@@@@@@@@@@@@@@@@@@>>>>>>>>>>1 :1>>>>>>>>>>@@@@@@@@@@@@@@@@@@@#&%%%%%%%%%%%%%%%%%%%%%%%%%%%%%2+,2%%%%%%%%%%%%%%%%%%%%%%%%%%%%%O",
".@@@@@@@@@@@@@@@@@@@@@@@@@@@@@> <>@@@@@@@@@@@@@@@@@@@@@@@@@@@@@#&%%%%%%%%%%%%%%%%%%%%%%%%%%%%%%$,%%%%%%%%%%%%%%%%%%%%%%%%%%%%%%O",
".@@@@@@@@@@@@@@@@@@@@@@@@@@@@@> <>@@@@@@@@@@@@@@@@@@@@@@@@@@@@@#&%%%%%%%%%%%%%%%%%%%%%%%%%%%%%%$,%%%%%%%%%%%%%%%%%%%%%%%%%%%%%%O",
".@@@@@@@@@@@@@@@@@@@@@@@@@@@@@> <>@@@@@@@@@@@@@@@@@@@@@@@@@@@@@#&%%%%%%%%%%%%%%%%%%%%%%%%%%%%%%$,%%%%%%%%%%%%%%%%%%%%%%%%%%%%%%O",
".@@@@@@@@@@@@@@@@@@@@@@@@@@@@@> <>@@@@@@@@@@@@@@@@@@@@@@@@@@@@@#&%%%%%%%%%%%%%%%%%%%%%%%%%%%%%%$,%%%%%%%%%%%%%%%%%%%%%%%%%%%%%%O",
".@@@@@@@@@@@@@@@@@@@@@@@@@@@@@> <>@@@@@@@@@@@@@@@@@@@@@@@@@@@@@#&%%%%%%%%%%%%%%%%%%%%%%%%%%%%%%$,%%%%%%%%%%%%%%%%%%%%%%%%%%%%%%O",
".@@@@@@@@@@@@@@@@@@@@@@@@@@@@@> <>@@@@@@@@@@@@@@@@@@@@@@@@@@@@@#&%%%%%%%%%%%%%%%%%%%%%%%%%%%%%%$,%%%%%%%%%%%%%%%%%%%%%%%%%%%%%%O",
".@@@@@@@@@@@@@@@@@@@@@@@@@@@@@> <>@@@@@@@@@@@@@@@@@@@@@@@@@@@@@#&%%%%%%%%%%%%%%%%%%%%%%%%%%%%%%$,%%%%%%%%%%%%%%%%%%%%%%%%%%%%%%O",
".@@@@@@@@@@@@@@@@@@@@@@@@@@@@@> <>@@@@@@@@@@@@@@@@@@@@@@@@@@@@@#&%%%%%%%%%%%%%%%%%%%%%%%%%%%%%%$,%%%%%%%%%%%%%%%%%%%%%%%%%%%%%%O",
".@@@@@@@@@@@@@@@@@@@@@@@@@@@@@> <>@@@@@@@@@@@@@@@@@@@@@@@@@@@@@#&%%%%%%%%%%%%%%%%%%%%%%%%%%%%%%$,%%%%%%%%%%%%%%%%%%%%%%%%%%%%%%O",
".@@@@@@@@@@@@@@@@@@@@@@@@@@@@@> <>@@@@@@@@@@@@@@@@@@@@@@@@@@@@@#&%%%%%%%%%%%%%%%%%%%%%%%%%%%%%%$,%%%%%%%%%%%%%%%%%%%%%%%%%%%%%%O",
".@@@@@@@@@@@@@@@@@@@@@@@@@@@@@@#.@@@@@@@@@@@@@@@@@@@@@@@@@@@@@@#&%%%%%%%%%%%%%%%%%%%%%%%%%%%%%%;O%%%%%%%%%%%%%%%%%%%%%%%%%%%%%%O",
".@@@@@@@@@@@@@@@@@@@@@@@@@@@@@@@@@@@@@@@@@@@@@@@@@@@@@@@@@@@@@@#&%%%%%%%%%%%%%%%%%%%%%%%%%%%%%%%%%%%%%%%%%%%%%%%%%%%%%%%%%%%%%%O",
".@@@@@@@@@@@@@@@@@@@@@@@@@@@@@@@@@@@@@@@@@@@@@@@@@@@@@@@@@@@@@@#&%%%%%%%%%%%%%%%%%%%%%%%%%%%%%%%%%%%%%%%%%%%%%%%%%%%%%%%%%%%%%%O",
".@@@@@@@@@@@@@@@@@@@@@@@@@@@@@@@@@@@@@@@@@@@@@@@@@@@@@@@@@@@@@@#&%%%%%%%%%%%%%%%%%%%%%%%%%%%%%%%%%%%%%%%%%%%%%%%%%%%%%%%%%%%%%%O",
".@@@@@@@@@@@@@@@@@@@@@@@@@@@@@@@@@@@@@@@@@@@@@@@@@@@@@@@@@@@@@@#&%%%%%%%%%%%%%%%%%%%%%%%%%%%%%%%%%%%%%%%%%%%%%%%%%%%%%%%%%%%%%%O",
".@@@@@@@@@@@@@@@@@@@@@@@@@@@@@@@@@@@@@@@@@@@@@@@@@@@@@@@@@@@@@@#&%%%%%%%%%%%%%%%%%%%%%%%%%%%%%%%%%%%%%%%%%%%%%%%%%%%%%%%%%%%%%%O",
".@@@@@@@@@@@@@@@@@@@@@@@@@@@@@@@@@@@@@@@@@@@@@@@@@@@@@@@@@@@@@@#&%%%%%%%%%%%%%%%%%%%%%%%%%%%%%%%%%%%%%%%%%%%%%%%%%%%%%%%%%%%%%%O",
".@@@@@@@@@@@@@@@@@@@@@@@@@@@@@@@@@@@@@@@@@@@@@@@@@@@@@@@@@@@@@@#&%%%%%%%%%%%%%%%%%%%%%%%%%%%%%%%%%%%%%%%%%%%%%%%%%%%%%%%%%%%%%%O",
".@@@@@@@@@@@@@@@@@@@@@@@@@@@@@@@@@@@@@@@@@@@@@@@@@@@@@@@@@@@@@@#&%%%%%%%%%%%%%%%%%%%%%%%%%%%%%%%%%%%%%%%%%%%%%%%%%%%%%%%%%%%%%%O",
".@@@@@@@@@@@@@@@@@@@@@@@@@@@@@@@@@@@@@@@@@@@@@@@@@@@@@@@@@@@@@@#&%%%%%%%%%%%%%%%%%%%%%%%%%%%%%%%%%%%%%%%%%%%%%%%%%%%%%%%%%%%%%%O",
".@@@@@@@@@@@@@@@@@@@@@@@@@@@@@@@@@@@@@@@@@@@@@@@@@@@@@@@@@@@@@@#&%%%%%%%%%%%%%%%%%%%%%%%%%%%%%%%%%%%%%%%%%%%%%%%%%%%%%%%%%%%%%%O",
".@@@@@@@@@@@@@@@@@@@@@@@@@@@@@@@@@@@@@@@@@@@@@@@@@@@@@@@@@@@@@@#&%%%%%%%%%%%%%%%%%%%%%%%%%%%%%%%%%%%%%%%%%%%%%%%%%%%%%%%%%%%%%%O",
".@@@@@@@@@@@@@@@@@@@@@@@@@@@@@@@@@@@@@@@@@@@@@@@@@@@@@@@@@@@@@@#&%%%%%%%%%%%%%%%%%%%%%%%%%%%%%%%%%%%%%%%%%%%%%%%%%%%%%%%%%%%%%%O",
".@@@@@@@@@@@@@@@@@@@@@@@@@@@@@@@@@@@@@@@@@@@@@@@@@@@@@@@@@@@@@@#&%%%%%%%%%%%%%%%%%%%%%%%%%%%%%%%%%%%%%%%%%%%%%%%%%%%%%%%%%%%%%%O",
".@@@@@@@@@@@@@@@@@@@@@@@@@@@@@@@@@@@@@@@@@@@@@@@@@@@@@@@@@@@@@@#&%%%%%%%%%%%%%%%%%%%%%%%%%%%%%%%%%%%%%%%%%%%%%%%%%%%%%%%%%%%%%%O",
".@@@@@@@@@@@@@@@@@@@@@@@@@@@@@@@@@@@@@@@@@@@@@@@@@@@@@@@@@@@@@@#&%%%%%%%%%%%%%%%%%%%%%%%%%%%%%%%%%%%%%%%%%%%%%%%%%%%%%%%%%%%%%%O",
".@@@@@@@@@@@@@@@@@@@@@@@@@@@@@@@@@@@@@@@@@@@@@@@@@@@@@@@@@@@@@@#&%%%%%%%%%%%%%%%%%%%%%%%%%%%%%%%%%%%%%%%%%%%%%%%%%%%%%%%%%%%%%%O",
".@@@@@@@@@@@@@@@@@@@@@@@@@@@@@@@@@@@@@@@@@@@@@@@@@@@@@@@@@@@@@@#&%%%%%%%%%%%%%%%%%%%%%%%%%%%%%%%%%%%%%%%%%%%%%%%%%%%%%%%%%%%%%%O",
".@@@@@@@@@@@@@@@@@@@@@@@@@@@@@@@@@@@@@@@@@@@@@@@@@@@@@@@@@@@@@@#$2%%%%%%%%%%%%%%%%%%%%%%%%%%%%%%%%%%%%%%%%%%%%%%%%%%%%%%%%%%%%%O",
"X##############################################################96$&&&&&&&&&&&&&&&&&&&&&&&&&&&&&&&&&&&&&&&&&&&&&&&&&&&&&&&&&&&&$o",
"o$&&&&&&&&&&&&&&&&&&&&&&&&&&&&&&&&&&&&&&&&&&&&&&&&&&&&&&&&&&&&$69##############################################################X",
"O%%%%%%%%%%%%%%%%%%%%%%%%%%%%%%%%%%%%%%%%%%%%%%%%%%%%%%%%%%%%%2$#@@@@@@@@@@@@@@@@@@@@@@@@@@@@@@@@@@@@@@@@@@@@@@@@@@@@@@@@@@@@@@.",
"O%%%%%%%%%%%%%%%%%%%%%%%%%%%%%%%%%%%%%%%%%%%%%%%%%%%%%%%%%%%%%%&#@@@@@@@@@@@@@@@@@@@@@@@@@@@@@@@@@@@@@@@@@@@@@@@@@@@@@@@@@@@@@@.",
"O%%%%%%%%%%%%%%%%%%%%%%%%%%%%%%%%%%%%%%%%%%%%%%%%%%%%%%%%%%%%%%&#@@@@@@@@@@@@@@@@@@@@@@@@@@@@@@@@@@@@@@@@@@@@@@@@@@@@@@@@@@@@@@.",
"O%%%%%%%%%%%%%%%%%%%%%%%%%%%%%%%%%%%%%%%%%%%%%%%%%%%%%%%%%%%%%%&#@@@@@@@@@@@@@@@@@@@@@@@@@@@@@@@@@@@@@@@@@@@@@@@@@@@@@@@@@@@@@@.",
"O%%%%%%%%%%%%%%%%%%%%%%%%%%%%%%%%%%%%%%%%%%%%%%%%%%%%%%%%%%%%%%&#@@@@@@@@@@@@@@@@@@@@@@@@@@@@@@@@@@@@@@@@@@@@@@@@@@@@@@@@@@@@@@.",
"O%%%%%%%%%%%%%%%%%%%%%%%%%%%%%%%%%%%%%%%%%%%%%%%%%%%%%%%%%%%%%%&#@@@@@@@@@@@@@@@@@@@@@@@@@@@@@@@@@@@@@@@@@@@@@@@@@@@@@@@@@@@@@@.",
"O%%%%%%%%%%%%%%%%%%%%%%%%%%%%%%%%%%%%%%%%%%%%%%%%%%%%%%%%%%%%%%&#@@@@@@@@@@@@@@@@@@@@@@@@@@@@@@@@@@@@@@@@@@@@@@@@@@@@@@@@@@@@@@.",
"O%%%%%%%%%%%%%%%%%%%%%%%%%%%%%%%%%%%%%%%%%%%%%%%%%%%%%%%%%%%%%%&#@@@@@@@@@@@@@@@@@@@@@@@@@@@@@@@@@@@@@@@@@@@@@@@@@@@@@@@@@@@@@@.",
"O%%%%%%%%%%%%%%%%%%%%%%%%%%%%%%%%%%%%%%%%%%%%%%%%%%%%%%%%%%%%%%&#@@@@@@@@@@@@@@@@@@@@@@@@@@@@@@@@@@@@@@@@@@@@@@@@@@@@@@@@@@@@@@.",
"O%%%%%%%%%%%%%%%%%%%%%%%%%%%%%%%%%%%%%%%%%%%%%%%%%%%%%%%%%%%%%%&#@@@@@@@@@@@@@@@@@@@@@@@@@@@@@@@@@@@@@@@@@@@@@@@@@@@@@@@@@@@@@@.",
"O%%%%%%%%%%%%%%%%%%%%%%%%%%%%%%%%%%%%%%%%%%%%%%%%%%%%%%%%%%%%%%&#@@@@@@@@@@@@@@@@@@@@@@@@@@@@@@@@@@@@@@@@@@@@@@@@@@@@@@@@@@@@@@.",
"O%%%%%%%%%%%%%%%%%%%%%%%%%%%%%%%%%%%%%%%%%%%%%%%%%%%%%%%%%%%%%%&#@@@@@@@@@@@@@@@@@@@@@@@@@@@@@@@@@@@@@@@@@@@@@@@@@@@@@@@@@@@@@@.",
"O%%%%%%%%%%%%%%%%%%%%%%%%%%%%%%%%%%%%%%%%%%%%%%%%%%%%%%%%%%%%%%&#@@@@@@@@@@@@@@@@@@@@@@@@@@@@@@@@@@@@@@@@@@@@@@@@@@@@@@@@@@@@@@.",
"O%%%%%%%%%%%%%%%%%%%%%%%%%%%%%%%%%%%%%%%%%%%%%%%%%%%%%%%%%%%%%%&#@@@@@@@@@@@@@@@@@@@@@@@@@@@@@@@@@@@@@@@@@@@@@@@@@@@@@@@@@@@@@@.",
"O%%%%%%%%%%%%%%%%%%%%%%%%%%%%%%%%%%%%%%%%%%%%%%%%%%%%%%%%%%%%%%&#@@@@@@@@@@@@@@@@@@@@@@@@@@@@@@@@@@@@@@@@@@@@@@@@@@@@@@@@@@@@@@.",
"O%%%%%%%%%%%%%%%%%%%%%%%%%%%%%%%%%%%%%%%%%%%%%%%%%%%%%%%%%%%%%%&#@@@@@@@@@@@@@@@@@@@@@@@@@@@@@@@@@@@@@@@@@@@@@@@@@@@@@@@@@@@@@@.",
"O%%%%%%%%%%%%%%%%%%%%%%%%%%%%%%%%%%%%%%%%%%%%%%%%%%%%%%%%%%%%%%&#@@@@@@@@@@@@@@@@@@@@@@@@@@@@@@@@@@@@@@@@@@@@@@@@@@@@@@@@@@@@@@.",
"O%%%%%%%%%%%%%%%%%%%%%%%%%%%%%%%%%%%%%%%%%%%%%%%%%%%%%%%%%%%%%%&#@@@@@@@@@@@@@@@@@@@@@@@@@@@@@@@@@@@@@@@@@@@@@@@@@@@@@@@@@@@@@@.",
"O%%%%%%%%%%%%%%%%%%%%%%%%%%%%%%-;%%%%%%%%%%%%%%%%%%%%%%%%%%%%%%&#@@@@@@@@@@@@@@@@@@@@@@@@@@@@@@*=@@@@@@@@@@@@@@@@@@@@@@@@@@@@@@.",
"O%%%%%%%%%%%%%%%%%%%%%%%%%%%%%%$,%%%%%%%%%%%%%%%%%%%%%%%%%%%%%%&#@@@@@@@@@@@@@@@@@@@@@@@@@@@@@@ :>@@@@@@@@@@@@@@@@@@@@@@@@@@@@@.",
"O%%%%%%%%%%%%%%%%%%%%%%%%%%%%%%$,%%%%%%%%%%%%%%%%%%%%%%%%%%%%%%&#@@@@@@@@@@@@@@@@@@@@@@@@@@@@@> <>@@@@@@@@@@@@@@@@@@@@@@@@@@@@@.",
"O%%%%%%%%%%%%%%%%%%%%%%%%%%%%%%$,%%%%%%%%%%%%%%%%%%%%%%%%%%%%%%&#@@@@@@@@@@@@@@@@@@@@@@@@@@@@@> <>@@@@@@@@@@@@@@@@@@@@@@@@@@@@@.",
"O%%%%%%%%%%%%%%%%%%%%%%%%%%%%%%$,%%%%%%%%%%%%%%%%%%%%%%%%%%%%%%&#@@@@@@@@@@@@@@@@@@@@@@@@@@@@@> <>@@@@@@@@@@@@@@@@@@@@@@@@@@@@@.",
"O%%%%%%%%%%%%%%%%%%%%%%%%%%%%%%$,%%%%%%%%%%%%%%%%%%%%%%%%%%%%%%&#@@@@@@@@@@@@@@@@@@@@@@@@@@@@@> <>@@@@@@@@@@@@@@@@@@@@@@@@@@@@@.",
"O%%%%%%%%%%%%%%%%%%%%%%%%%%%%%%$,%%%%%%%%%%%%%%%%%%%%%%%%%%%%%%&#@@@@@@@@@@@@@@@@@@@@@@@@@@@@@> <>@@@@@@@@@@@@@@@@@@@@@@@@@@@@@.",
"O%%%%%%%%%%%%%%%%%%%%%%%%%%%%%%$,%%%%%%%%%%%%%%%%%%%%%%%%%%%%%%&#@@@@@@@@@@@@@@@@@@@@@@@@@@@@@> <>@@@@@@@@@@@@@@@@@@@@@@@@@@@@@.",
"O%%%%%%%%%%%%%%%%%%%%%%%%%%%%%%$,%%%%%%%%%%%%%%%%%%%%%%%%%%%%%%&#@@@@@@@@@@@@@@@@@@@@@@@@@@@@@> <>@@@@@@@@@@@@@@@@@@@@@@@@@@@@@.",
"O%%%%%%%%%%%%%%%%%%%%%%%%%%%%%%$,%%%%%%%%%%%%%%%%%%%%%%%%%%%%%%&#@@@@@@@@@@@@@@@@@@@@@@@@@@@@@> <>@@@@@@@@@@@@@@@@@@@@@@@@@@@@@.",
"O%%%%%%%%%%%%%%%%%%%%%%%%%%%%%%$,%%%%%%%%%%%%%%%%%%%%%%%%%%%%%%&#@@@@@@@@@@@@@@@@@@@@@@@@@@@@@> <>@@@@@@@@@@@@@@@@@@@@@@@@@@@@@.",
"O%%%%%%%%%%%%%%%%%%%%%%%%%%%%%2+,2%%%%%%%%%%%%%%%%%%%%%%%%%%%%%&#@@@@@@@@@@@@@@@@@@@@>>>>>>>>>1 :1>>>>>>>>>>@@@@@@@@@@@@@@@@@@@.",
"O%%%%%%%%%%%%%%%%%%-$$$$$$$$$$+56+$$$$$$$$$$;%%%%%%%%%%%%%%%%%%&#@@@@@@@@@@@@@@@@@@*           34           #@@@@@@@@@@@@@@@@@@.",
"O%%%%%%%%%%%%%%%%%%;,,,,,,,,,,,68,,,,,,,,,,,O%%%%%%%%%%%%%%%%%%&#@@@@@@@@@@@@@@@@@@#:<<<<<<<<<:47:<<<<<<<<<<.@@@@@@@@@@@@@@@@@@.",
"O%%%%%%%%%%%%%%%%%%%%%%%%%%%%%2+,2%%%%%%%%%%%%%%%%%%%%%%%%%%%%%&#@@@@@@@@@@@@@@@@@@@>>>>>>>>>>1 :1>>>>>>>>>>@@@@@@@@@@@@@@@@@@@.",
"O%%%%%%%%%%%%%%%%%%%%%%%%%%%%%%$,%%%%%%%%%%%%%%%%%%%%%%%%%%%%%%&#@@@@@@@@@@@@@@@@@@@@@@@@@@@@@> <>@@@@@@@@@@@@@@@@@@@@@@@@@@@@@.",
"O%%%%%%%%%%%%%%%%%%%%%%%%%%%%%%$,%%%%%%%%%%%%%%%%%%%%%%%%%%%%%%&#@@@@@@@@@@@@@@@@@@@@@@@@@@@@@> <>@@@@@@@@@@@@@@@@@@@@@@@@@@@@@.",
"O%%%%%%%%%%%%%%%%%%%%%%%%%%%%%%$,%%%%%%%%%%%%%%%%%%%%%%%%%%%%%%&#@@@@@@@@@@@@@@@@@@@@@@@@@@@@@> <>@@@@@@@@@@@@@@@@@@@@@@@@@@@@@.",
"O%%%%%%%%%%%%%%%%%%%%%%%%%%%%%%$,%%%%%%%%%%%%%%%%%%%%%%%%%%%%%%&#@@@@@@@@@@@@@@@@@@@@@@@@@@@@@> <>@@@@@@@@@@@@@@@@@@@@@@@@@@@@@.",
"O%%%%%%%%%%%%%%%%%%%%%%%%%%%%%%$,%%%%%%%%%%%%%%%%%%%%%%%%%%%%%%&#@@@@@@@@@@@@@@@@@@@@@@@@@@@@@> <>@@@@@@@@@@@@@@@@@@@@@@@@@@@@@.",
"O%%%%%%%%%%%%%%%%%%%%%%%%%%%%%%$,%%%%%%%%%%%%%%%%%%%%%%%%%%%%%%&#@@@@@@@@@@@@@@@@@@@@@@@@@@@@@> <>@@@@@@@@@@@@@@@@@@@@@@@@@@@@@.",
"O%%%%%%%%%%%%%%%%%%%%%%%%%%%%%%$,%%%%%%%%%%%%%%%%%%%%%%%%%%%%%%&#@@@@@@@@@@@@@@@@@@@@@@@@@@@@@> <>@@@@@@@@@@@@@@@@@@@@@@@@@@@@@.",
"O%%%%%%%%%%%%%%%%%%%%%%%%%%%%%%$,%%%%%%%%%%%%%%%%%%%%%%%%%%%%%%&#@@@@@@@@@@@@@@@@@@@@@@@@@@@@@> <>@@@@@@@@@@@@@@@@@@@@@@@@@@@@@.",
"O%%%%%%%%%%%%%%%%%%%%%%%%%%%%%%$,%%%%%%%%%%%%%%%%%%%%%%%%%%%%%%&#@@@@@@@@@@@@@@@@@@@@@@@@@@@@@> <>@@@@@@@@@@@@@@@@@@@@@@@@@@@@@.",
"O%%%%%%%%%%%%%%%%%%%%%%%%%%%%%%$,%%%%%%%%%%%%%%%%%%%%%%%%%%%%%%&#@@@@@@@@@@@@@@@@@@@@@@@@@@@@@> <>@@@@@@@@@@@@@@@@@@@@@@@@@@@@@.",
"O%%%%%%%%%%%%%%%%%%%%%%%%%%%%%%;O%%%%%%%%%%%%%%%%%%%%%%%%%%%%%%&#@@@@@@@@@@@@@@@@@@@@@@@@@@@@@@#.@@@@@@@@@@@@@@@@@@@@@@@@@@@@@@.",
"O%%%%%%%%%%%%%%%%%%%%%%%%%%%%%%%%%%%%%%%%%%%%%%%%%%%%%%%%%%%%%%&#@@@@@@@@@@@@@@@@@@@@@@@@@@@@@@@@@@@@@@@@@@@@@@@@@@@@@@@@@@@@@@.",
"O%%%%%%%%%%%%%%%%%%%%%%%%%%%%%%%%%%%%%%%%%%%%%%%%%%%%%%%%%%%%%%&#@@@@@@@@@@@@@@@@@@@@@@@@@@@@@@@@@@@@@@@@@@@@@@@@@@@@@@@@@@@@@@.",
"O%%%%%%%%%%%%%%%%%%%%%%%%%%%%%%%%%%%%%%%%%%%%%%%%%%%%%%%%%%%%%%&#@@@@@@@@@@@@@@@@@@@@@@@@@@@@@@@@@@@@@@@@@@@@@@@@@@@@@@@@@@@@@@.",
"O%%%%%%%%%%%%%%%%%%%%%%%%%%%%%%%%%%%%%%%%%%%%%%%%%%%%%%%%%%%%%%&#@@@@@@@@@@@@@@@@@@@@@@@@@@@@@@@@@@@@@@@@@@@@@@@@@@@@@@@@@@@@@@.",
"O%%%%%%%%%%%%%%%%%%%%%%%%%%%%%%%%%%%%%%%%%%%%%%%%%%%%%%%%%%%%%%&#@@@@@@@@@@@@@@@@@@@@@@@@@@@@@@@@@@@@@@@@@@@@@@@@@@@@@@@@@@@@@@.",
"O%%%%%%%%%%%%%%%%%%%%%%%%%%%%%%%%%%%%%%%%%%%%%%%%%%%%%%%%%%%%%%&#@@@@@@@@@@@@@@@@@@@@@@@@@@@@@@@@@@@@@@@@@@@@@@@@@@@@@@@@@@@@@@.",
"O%%%%%%%%%%%%%%%%%%%%%%%%%%%%%%%%%%%%%%%%%%%%%%%%%%%%%%%%%%%%%%&#@@@@@@@@@@@@@@@@@@@@@@@@@@@@@@@@@@@@@@@@@@@@@@@@@@@@@@@@@@@@@@.",
"O%%%%%%%%%%%%%%%%%%%%%%%%%%%%%%%%%%%%%%%%%%%%%%%%%%%%%%%%%%%%%%&#@@@@@@@@@@@@@@@@@@@@@@@@@@@@@@@@@@@@@@@@@@@@@@@@@@@@@@@@@@@@@@.",
"O%%%%%%%%%%%%%%%%%%%%%%%%%%%%%%%%%%%%%%%%%%%%%%%%%%%%%%%%%%%%%%&#@@@@@@@@@@@@@@@@@@@@@@@@@@@@@@@@@@@@@@@@@@@@@@@@@@@@@@@@@@@@@@.",
"O%%%%%%%%%%%%%%%%%%%%%%%%%%%%%%%%%%%%%%%%%%%%%%%%%%%%%%%%%%%%%%&#@@@@@@@@@@@@@@@@@@@@@@@@@@@@@@@@@@@@@@@@@@@@@@@@@@@@@@@@@@@@@@.",
"O%%%%%%%%%%%%%%%%%%%%%%%%%%%%%%%%%%%%%%%%%%%%%%%%%%%%%%%%%%%%%%&#@@@@@@@@@@@@@@@@@@@@@@@@@@@@@@@@@@@@@@@@@@@@@@@@@@@@@@@@@@@@@@.",
"O%%%%%%%%%%%%%%%%%%%%%%%%%%%%%%%%%%%%%%%%%%%%%%%%%%%%%%%%%%%%%%&#@@@@@@@@@@@@@@@@@@@@@@@@@@@@@@@@@@@@@@@@@@@@@@@@@@@@@@@@@@@@@@.",
"O%%%%%%%%%%%%%%%%%%%%%%%%%%%%%%%%%%%%%%%%%%%%%%%%%%%%%%%%%%%%%%&#@@@@@@@@@@@@@@@@@@@@@@@@@@@@@@@@@@@@@@@@@@@@@@@@@@@@@@@@@@@@@@.",
"O%%%%%%%%%%%%%%%%%%%%%%%%%%%%%%%%%%%%%%%%%%%%%%%%%%%%%%%%%%%%%%&#@@@@@@@@@@@@@@@@@@@@@@@@@@@@@@@@@@@@@@@@@@@@@@@@@@@@@@@@@@@@@@.",
"O%%%%%%%%%%%%%%%%%%%%%%%%%%%%%%%%%%%%%%%%%%%%%%%%%%%%%%%%%%%%%%&#@@@@@@@@@@@@@@@@@@@@@@@@@@@@@@@@@@@@@@@@@@@@@@@@@@@@@@@@@@@@@@.",
"O%%%%%%%%%%%%%%%%%%%%%%%%%%%%%%%%%%%%%%%%%%%%%%%%%%%%%%%%%%%%%%&#@@@@@@@@@@@@@@@@@@@@@@@@@@@@@@@@@@@@@@@@@@@@@@@@@@@@@@@@@@@@@@.",
"O%%%%%%%%%%%%%%%%%%%%%%%%%%%%%%%%%%%%%%%%%%%%%%%%%%%%%%%%%%%%%%&#@@@@@@@@@@@@@@@@@@@@@@@@@@@@@@@@@@@@@@@@@@@@@@@@@@@@@@@@@@@@@@.",
"O%%%%%%%%%%%%%%%%%%%%%%%%%%%%%%%%%%%%%%%%%%%%%%%%%%%%%%%%%%%%%%$#@@@@@@@@@@@@@@@@@@@@@@@@@@@@@@@@@@@@@@@@@@@@@@@@@@@@@@@@@@@@@@.",
"+OOOOOOOOOOOOOOOOOOOOOOOOOOOOOOOOOOOOOOOOOOOOOOOOOOOOOOOOOOOOOOoX.............................................................. "
};
