/* XPM */
static char *f3a8d5f7ceff4c4283a30208eb1d4b11cDTqcpLf0WawcLGx[] = {
/* columns rows colors chars-per-pixel */
"128 128 24 1 ",
"  c #FF9F2A",
". c #FF9515",
"X c #FF9616",
"o c #FF9617",
"O c #FF9718",
"+ c #FF8B00",
"@ c DarkOrange",
"# c #FF8C01",
"$ c #FF8D02",
"% c #FF8D01",
"& c #FF8D03",
"* c #FF8E04",
"= c #FF8F06",
"- c #FF8F08",
"; c #FF9412",
": c #FF9413",
"> c #FF9B22",
", c #FF9D27",
"< c #FF9411",
"1 c #FF9008",
"2 c #FF9717",
"3 c #FF9F2B",
"4 c #FF910A",
"5 c white",
/* pixels */
" .XXXXXXXXXXXXXoOXXXXXXXXXXXXXXoOXXXXXXXXXXXXXXoOXXXXXXXXXXXXXXoOXXXXXXXXXXXXXXoOXXXXXXXXXXXXXXoOXXXXXXXXXXXXXXoOXXXXXXXXXXXXX. ",
".++++++++++++++@#++++++++++++++@#++++++++++++++@#++++++++++++++@#++++++++++++++@#++++++++++++++@#++++++++++++++@#++++++++++++++.",
"X+@@@@@@@@@@@@@$$@@@@@@@@@@@@@@$$@@@@@@@@@@@@@@$$@@@@@@@@@@@@@@$$@@@@@@@@@@@@@@$$@@@@@@@@@@@@@@$$@@@@@@@@@@@@@@$$@@@@@@@@@@@@@+X",
"X+@@@@@@@@@@@@@$$@@@@@@@@@@@@@@$$@@@@@@@@@@@@@@$$@@@@@@@@@@@@@@$$@@@@@@@@@@@@@@$$@@@@@@@@@@@@@@$$@@@@@@@@@@@@@@$$@@@@@@@@@@@@@+X",
"X+@@@@@@@@@@@@@$$@@@@@@@@@@@@@@$$@@@@@@@@@@@@@@$$@@@@@@@@@@@@@@$$@@@@@@@@@@@@@@$$@@@@@@@@@@@@@@$$@@@@@@@@@@@@@@$$@@@@@@@@@@@@@+X",
"X+@@@@@@@@@@@@@$$@@@@@@@@@@@@@@$$@@@@@@@@@@@@@@$$@@@@@@@@@@@@@@$$@@@@@@@@@@@@@@$$@@@@@@@@@@@@@@$$@@@@@@@@@@@@@@$$@@@@@@@@@@@@@+X",
"X+@@@@@@@@@@@@@$$@@@@@@@@@@@@@@$$@@@@@@@@@@@@@@$$@@@@@@@@@@@@@@$$@@@@@@@@@@@@@@$$@@@@@@@@@@@@@@$$@@@@@@@@@@@@@@$$@@@@@@@@@@@@@+X",
"X+@@@@@@@@@@@@@$$@@@@@@@@@@@@@@$$@@@@@@@@@@@@@@$$@@@@@@@@@@@@@@$$@@@@@@@@@@@@@@$$@@@@@@@@@@@@@@$$@@@@@@@@@@@@@@$$@@@@@@@@@@@@@+X",
"X+@@@@@@@@@@@@@$$@@@@@@@@@@@@@@$$@@@@@@@@@@@@@@$$@@@@@@@@@@@@@@$$@@@@@@@@@@@@@@$$@@@@@@@@@@@@@@$$@@@@@@@@@@@@@@$$@@@@@@@@@@@@@+X",
"X+@@@@@@@@@@@@@$$@@@@@@@@@@@@@@$$@@@@@@@@@@@@@@$$@@@@@@@@@@@@@@$$@@@@@@@@@@@@@@$$@@@@@@@@@@@@@@$$@@@@@@@@@@@@@@$$@@@@@@@@@@@@@+X",
"X+@@@@@@@@@@@@@$$@@@@@@@@@@@@@@$$@@@@@@@@@@@@@@$$@@@@@@@@@@@@@@$$@@@@@@@@@@@@@@$$@@@@@@@@@@@@@@$$@@@@@@@@@@@@@@$$@@@@@@@@@@@@@+X",
"X+@@@@@@@@@@@@@$$@@@@@@@@@@@@@@$$@@@@@@@@@@@@@@$$@@@@@@@@@@@@@@$$@@@@@@@@@@@@@@$$@@@@@@@@@@@@@@$$@@@@@@@@@@@@@@$$@@@@@@@@@@@@@+X",
"X+@@@@@@@@@@@@@$$@@@@@@@@@@@@@@$$@@@@@@@@@@@@@@$$@@@@@@@@@@@@@@$$@@@@@@@@@@@@@@$$@@@@@@@@@@@@@@$$@@@@@@@@@@@@@@$$@@@@@@@@@@@@@+X",
"X+@@@@@@@@@@@@@$$@@@@@@@@@@@@@@$$@@@@@@@@@@@@@@$$@@@@@@@@@@@@@@$$@@@@@@@@@@@@@@$$@@@@@@@@@@@@@@$$@@@@@@@@@@@@@@$$@@@@@@@@@@@@@+X",
"X+@@@@@@@@@@@@@%$@@@@@@@@@@@@@@%$@@@@@@@@@@@@@@%$@@@@@@@@@@@@@@%$@@@@@@@@@@@@@@%$@@@@@@@@@@@@@@%$@@@@@@@@@@@@@@%$@@@@@@@@@@@@@+X",
"o@$$$$$$$$$$$$%&&%$$$$$$$$$$$$%&&%$$$$$$$$$$$$%&&%$$$$$$$$$$$$%&&%$$$$$$$$$$$$%&&%$$$$$$$$$$$$%&&%$$$$$$$$$$$$%&&%$$$$$$$$$$$$@o",
"O#$$$$$$$$$$$$$&*$$$$$$$$$$$$$$&*$$$$$$$$$$$$$$&*$$$$$$$$$$$$$$&*$$$$$$$$$$$$$$&*$$$$$$$$$$$$$$&*$$$$$$$$$$$$$$&*$$$$$$$$$$$$$#O",
"X+@@@@@@@@@@@@@%$@@@@@@@@@@@@@@%$@@@@@@@@@@@@@@%$@@@@@@@@@@@@@@%$@@@@@@@@@@@@@@%$@@@@@@@@@@@@@@%$@@@@@@@@@@@@@@%$@@@@@@@@@@@@@+X",
"X+@@@@@@@@@@@@@$$@@@@@@@@@@@@@@%$@@@@@@@@@@@@@@$$@@@@@@@@@@@@@@$$@@@@@@@@@@@@@@$$@@@@@@@@@@@@@@%$@@@@@@@@@@@@@@$$@@@@@@@@@@@@@+X",
"X+@@@@@@@@@@@@@$$@@@@@@@@@@@@@@=-@@@@@@@@@@@@@@$$@@@@@@@@@@@@@@$$@@@@@@@@@@@@@@$$@@@@@@@@@@@@@@=-@@@@@@@@@@@@@@$$@@@@@@@@@@@@@+X",
"X+@@@@@@@@@@@@@$$@@@@@@@@@@@@@+;o+@@@@@@@@@@@@@$$@@@@@@@@@@@@@@$$@@@@@@@@@@@@@@$$@@@@@@@@@@@@@+;o+@@@@@@@@@@@@@$$@@@@@@@@@@@@@+X",
"X+@@@@@@@@@@@@@$$@@@@@@@@@@@@@+:O+@@@@@@@@@@@@@$$@@@@@@@@@@@@@@$$@@@@@@@@@@@@@@$$@@@@@@@@@@@@@+:O+@@@@@@@@@@@@@$$@@@@@@@@@@@@@+X",
"X+@@@@@@@@@@@@@$$@@@@@@@@@@@@@+:O+@@@@@@@@@@@@@$$@@@@@@@@@@@@@@$$@@@@@@@@@@@@@@$$@@@@@@@@@@@@@+:O+@@@@@@@@@@@@@$$@@@@@@@@@@@@@+X",
"X+@@@@@@@@@@@@@$$@@@@@@@@@@@@@+:O+@@@@@@@@@@@@@$$@@@@@@@@@@@@@@$$@@@@@@@@@@@@@@$$@@@@@@@@@@@@@+:O+@@@@@@@@@@@@@$$@@@@@@@@@@@@@+X",
"X+@@@@@@@@@@@@@$$@@@@@@@@@@@@@+:O+@@@@@@@@@@@@@$$@@@@@@@@@@@@@@$$@@@@@@@@@@@@@@$$@@@@@@@@@@@@@+:O+@@@@@@@@@@@@@$$@@@@@@@@@@@@@+X",
"X+@@@@@@@@@@@@@$$@@@@@@@@@@@@@+:O+@@@@@@@@@@@@@$$@@@@@@@@@@@@@@$$@@@@@@@@@@@@@@$$@@@@@@@@@@@@@+:O+@@@@@@@@@@@@@$$@@@@@@@@@@@@@+X",
"X+@@@@@@@@@@@@@$$@@@@@@@@@@@@@+:O+@@@@@@@@@@@@@$$@@@@@@@@@@@@@@$$@@@@@@@@@@@@@@$$@@@@@@@@@@@@@+:O+@@@@@@@@@@@@@$$@@@@@@@@@@@@@+X",
"X+@@@@@@@@@@@@@$$@@@@@@@@@@@@@+:O+@@@@@@@@@@@@@$$@@@@@@@@@@@@@@$$@@@@@@@@@@@@@@$$@@@@@@@@@@@@@+:O+@@@@@@@@@@@@@$$@@@@@@@@@@@@@+X",
"X+@@@@@@@@@@@@@$$@@@@@@@@@@@@@+:O+@@@@@@@@@@@@@$$@@@@@@@@@@@@@@$$@@@@@@@@@@@@@@$$@@@@@@@@@@@@@+:O+@@@@@@@@@@@@@$$@@@@@@@@@@@@@+X",
"X+@@@@@@@@@@@@@$$@@@@@@@@@@@@@+:O+@@@@@@@@@@@@@$$@@@@@@@@@@@@@@$$@@@@@@@@@@@@@@$$@@@@@@@@@@@@@+:O+@@@@@@@@@@@@@$$@@@@@@@@@@@@@+X",
"X+@@@@@@@@@@@@@%$@@@+++++++++++;o+++++++++++@@@%$@@@@@@@@@@@@@@%$@@@@@@@@@@@@@@%$@@@+++++++++++;o+++++++++++@@@%$@@@@@@@@@@@@@+X",
"o@$$$$$$$$$$$$%&&%%=;:::::::::;>,<::::::::::-%%&&%$$$$$$$$$$$$%&&%$$$$$$$$$$$$%&&%%=;:::::::::;>,<::::::::::-%%&&%$$$$$$$$$$$$@o",
"O#$$$$$$$$$$$$$&*$$12OOOOOOOOOo,3oOOOOOOOOOO4$$&*$$$$$$$$$$$$$$&*$$$$$$$$$$$$$$&*$$12OOOOOOOOOo,3oOOOOOOOOOO4$$&*$$$$$$$$$$$$$#O",
"X+@@@@@@@@@@@@@%$@@@+++++++++++<o+++++++++++@@@%$@@@@@@@@@@@@@@%$@@@@@@@@@@@@@@%$@@@+++++++++++<o+++++++++++@@@%$@@@@@@@@@@@@@+X",
"X+@@@@@@@@@@@@@$$@@@@@@@@@@@@@+:O+@@@@@@@@@@@@@$$@@@@@@@@@@@@@@$$@@@@@@@@@@@@@@$$@@@@@@@@@@@@@+:O+@@@@@@@@@@@@@$$@@@@@@@@@@@@@+X",
"X+@@@@@@@@@@@@@$$@@@@@@@@@@@@@+:O+@@@@@@@@@@@@@$$@@@@@@@@@@@@@@$$@@@@@@@@@@@@@@$$@@@@@@@@@@@@@+:O+@@@@@@@@@@@@@$$@@@@@@@@@@@@@+X",
"X+@@@@@@@@@@@@@$$@@@@@@@@@@@@@+:O+@@@@@@@@@@@@@$$@@@@@@@@@@@@@@$$@@@@@@@@@@@@@@$$@@@@@@@@@@@@@+:O+@@@@@@@@@@@@@$$@@@@@@@@@@@@@+X",
"X+@@@@@@@@@@@@@$$@@@@@@@@@@@@@+:O+@@@@@@@@@@@@@$$@@@@@@@@@@@@@@$$@@@@@@@@@@@@@@$$@@@@@@@@@@@@@+:O+@@@@@@@@@@@@@$$@@@@@@@@@@@@@+X",
"X+@@@@@@@@@@@@@$$@@@@@@@@@@@@@+:O+@@@@@@@@@@@@@$$@@@@@@@@@@@@@@$$@@@@@@@@@@@@@@$$@@@@@@@@@@@@@+:O+@@@@@@@@@@@@@$$@@@@@@@@@@@@@+X",
"X+@@@@@@@@@@@@@$$@@@@@@@@@@@@@+:O+@@@@@@@@@@@@@$$@@@@@@@@@@@@@@$$@@@@@@@@@@@@@@$$@@@@@@@@@@@@@+:O+@@@@@@@@@@@@@$$@@@@@@@@@@@@@+X",
"X+@@@@@@@@@@@@@$$@@@@@@@@@@@@@+:O+@@@@@@@@@@@@@$$@@@@@@@@@@@@@@$$@@@@@@@@@@@@@@$$@@@@@@@@@@@@@+:O+@@@@@@@@@@@@@$$@@@@@@@@@@@@@+X",
"X+@@@@@@@@@@@@@$$@@@@@@@@@@@@@+:O+@@@@@@@@@@@@@$$@@@@@@@@@@@@@@$$@@@@@@@@@@@@@@$$@@@@@@@@@@@@@+:O+@@@@@@@@@@@@@$$@@@@@@@@@@@@@+X",
"X+@@@@@@@@@@@@@$$@@@@@@@@@@@@@+:O+@@@@@@@@@@@@@$$@@@@@@@@@@@@@@$$@@@@@@@@@@@@@@$$@@@@@@@@@@@@@+:O+@@@@@@@@@@@@@$$@@@@@@@@@@@@@+X",
"X+@@@@@@@@@@@@@$$@@@@@@@@@@@@@+:O+@@@@@@@@@@@@@$$@@@@@@@@@@@@@@$$@@@@@@@@@@@@@@$$@@@@@@@@@@@@@+:O+@@@@@@@@@@@@@$$@@@@@@@@@@@@@+X",
"X+@@@@@@@@@@@@@$$@@@@@@@@@@@@@@14@@@@@@@@@@@@@@$$@@@@@@@@@@@@@@$$@@@@@@@@@@@@@@$$@@@@@@@@@@@@@@14@@@@@@@@@@@@@@$$@@@@@@@@@@@@@+X",
"X+@@@@@@@@@@@@@$$@@@@@@@@@@@@@@%$@@@@@@@@@@@@@@$$@@@@@@@@@@@@@@$$@@@@@@@@@@@@@@$$@@@@@@@@@@@@@@%$@@@@@@@@@@@@@@$$@@@@@@@@@@@@@+X",
"X+@@@@@@@@@@@@@%$@@@@@@@@@@@@@@%$@@@@@@@@@@@@@@%$@@@@@@@@@@@@@@%$@@@@@@@@@@@@@@%$@@@@@@@@@@@@@@%$@@@@@@@@@@@@@@%$@@@@@@@@@@@@@+X",
"o@$$$$$$$$$$$$%&&%$$$$$$$$$$$$%&&%$$$$$$$$$$$$%&&%$$$$$$$$$$$$%&&%$$$$$$$$$$$$%&&%$$$$$$$$$$$$%&&%$$$$$$$$$$$$%&&%$$$$$$$$$$$$@o",
"O#$$$$$$$$$$$$$&*$$$$$$$$$$$$$$&*$$$$$$$$$$$$$$&*$$$$$$$$$$$$$$&*$$$$$$$$$$$$$$&*$$$$$$$$$$$$$$&*$$$$$$$$$$$$$$&*$$$$$$$$$$$$$#O",
"X+@@@@@@@@@@@@@%$@@@@@@@@@@@@@@%$@@@@@@@@@@@@@@%$@@@@@@@@@@@@@@%$@@@@@@@@@@@@@@%$@@@@@@@@@@@@@@%$@@@@@@@@@@@@@@%$@@@@@@@@@@@@@+X",
"X+@@@@@@@@@@@@@$$@@@@@@@@@@@@@@$$@@@@@@@@@@@@@@$$@@@@@@@@@@@@@@$$@@@@@@@@@@@@@@$$@@@@@@@@@@@@@@$$@@@@@@@@@@@@@@$$@@@@@@@@@@@@@+X",
"X+@@@@@@@@@@@@@$$@@@@@@@@@@@@@@$$@@@@@@@@@@@@@@$$@@@@@@@@@@@@@@$$@@@@@@@@@@@@@@$$@@@@@@@@@@@@@@$$@@@@@@@@@@@@@@$$@@@@@@@@@@@@@+X",
"X+@@@@@@@@@@@@@$$@@@@@@@@@@@@@@$$@@@@@@@@@@@@@@$$@@@@@@@@@@@@@@$$@@@@@@@@@@@@@@$$@@@@@@@@@@@@@@$$@@@@@@@@@@@@@@$$@@@@@@@@@@@@@+X",
"X+@@@@@@@@@@@@@$$@@@@@@@@@@@@@@$$@@@@@@@@@@@@@@$$@@@@@@@@@@@@@@$$@@@@@@@@@@@@@@$$@@@@@@@@@@@@@@$$@@@@@@@@@@@@@@$$@@@@@@@@@@@@@+X",
"X+@@@@@@@@@@@@@$$@@@@@@@@@@@@@@$$@@@@@@@@@@@@@@$$@@@@@@@@@@@@@@$$@@@@@@@@@@@@@@$$@@@@@@@@@@@@@@$$@@@@@@@@@@@@@@$$@@@@@@@@@@@@@+X",
"X+@@@@@@@@@@@@@$$@@@@@@@@@@@@@@$$@@@@@@@@@@@@@@$$@@@@@@@@@@@@@@$$@@@@@@@@@@@@@@$$@@@@@@@@@@@@@@$$@@@@@@@@@@@@@@$$@@@@@@@@@@@@@+X",
"X+@@@@@@@@@@@@@$$@@@@@@@@@@@@@@$$@@@@@@@@@@@@@@$$@@@@@@@@@@@@@@$$@@@@@@@@@@@@@@$$@@@@@@@@@@@@@@$$@@@@@@@@@@@@@@$$@@@@@@@@@@@@@+X",
"X+@@@@@@@@@@@@@$$@@@@@@@@@@@@@@$$@@@@@@@@@@@@@@$$@@@@@@@@@@@@@@$$@@@@@@@@@@@@@@$$@@@@@@@@@@@@@@$$@@@@@@@@@@@@@@$$@@@@@@@@@@@@@+X",
"X+@@@@@@@@@@@@@$$@@@@@@@@@@@@@@$$@@@@@@@@@@@@@@$$@@@@@@@@@@@@@@$$@@@@@@@@@@@@@@$$@@@@@@@@@@@@@@$$@@@@@@@@@@@@@@$$@@@@@@@@@@@@@+X",
"X+@@@@@@@@@@@@@$$@@@@@@@@@@@@@@$$@@@@@@@@@@@@@@$$@@@@@@@@@@@@@@$$@@@@@@@@@@@@@@$$@@@@@@@@@@@@@@$$@@@@@@@@@@@@@@$$@@@@@@@@@@@@@+X",
"X+@@@@@@@@@@@@@$$@@@@@@@@@@@@@@$$@@@@@@@@@@@@@@$$@@@@@@@@@@@@@@$$@@@@@@@@@@@@@@$$@@@@@@@@@@@@@@$$@@@@@@@@@@@@@@$$@@@@@@@@@@@@@+X",
"X+@@@@@@@@@@@@@$$@@@@@@@@@@@@@@$$@@@@@@@@@@@@@@$$@@@@@@@@@@@@@@$$@@@@@@@@@@@@@@$$@@@@@@@@@@@@@@$$@@@@@@@@@@@@@@$$@@@@@@@@@@@@@+X",
"X+@@@@@@@@@@@@@%$@@@@@@@@@@@@@@%$@@@@@@@@@@@@@@%$@@@@@@@@@@@@@@%$@@@@@@@@@@@@@@%$@@@@@@@@@@@@@@%$@@@@@@@@@@@@@@%$@@@@@@@@@@@@@+X",
"o@$$$$$$$$$$$$%&&%$$$$$$$$$$$$%&&%$$$$$$$$$$$$%&&%$$$$$$$$$$$$%&&%$$$$$$$$$$$$%&&%$$$$$$$$$$$$%&&%$$$$$$$$$$$$%&&%$$$$$$$$$$$$@o",
"O#$$$$$$$$$$$$$&*$$$$$$$$$$$$$$&*$$$$$$$$$$$$$$&*$$$$$$$$$$$$$$&*$$$$$$$$$$$$$$&*$$$$$$$$$$$$$$&*$$$$$$$$$$$$$$&*$$$$$$$$$$$$$#O",
"X+@@@@@@@@@@@@@%$@@@@@@@@@@@@@@%$@@@@@@@@@@@@@@%$@@@@@@@@@@@@@@%$@@@@@@@@@@@@@@%$@@@@@@@@@@@@@@%$@@@@@@@@@@@@@@%$@@@@@@@@@@@@@+X",
"X+@@@@@@@@@@@@@$$@@@@@@@@@@@@@@$$@@@@@@@@@@@@@@$$@@@@@@@@@@@@@@$$@@@@@@@@@@@@@@$$@@@@@@@@@@@@@@$$@@@@@@@@@@@@@@$$@@@@@@@@@@@@@+X",
"X+@@@@@@@@@@@@@$$@@@@@@@@@@@@@@$$@@@@@@@@@@@@@@$$@@@@@@@@@@@@@@$$@@@@@@@@@@@@@@$$@@@@@@@@@@@@@@$$@@@@@@@@@@@@@@$$@@@@@@@@@@@@@+X",
"X+@@@@@@@@@@@@@$$@@@@@@@@@@@@@@$$@@@@@@@@@@@@@@$$@@@@@@@@@@@@@@$$@@@@@@@@@@@@@@$$@@@@@@@@@@@@@@$$@@@@@@@@@@@@@@$$@@@@@@@@@@@@@+X",
"X+@@@@@@@@@@@@@$$@@@@@@@@@@@@@@$$@@@@@@@@@@@@@@$$@@@@@@@@@@@@@@$$@@@@@@@@@@@@@@$$@@@@@@@@@@@@@@$$@@@@@@@@@@@@@@$$@@@@@@@@@@@@@+X",
"X+@@@@@@@@@@@@@$$@@@@@@@@@@@@@@$$@@@@@@@@@@@@@@$$@@@@@@@@@@@@@@$$@@@@@@@@@@@@@@$$@@@@@@@@@@@@@@$$@@@@@@@@@@@@@@$$@@@@@@@@@@@@@+X",
"X+@@@@@@@@@@@@@$$@@@@@@@@@@@@@@$$@@@@@@@@@@@@@@$$@@@@@@@@@@@@@@$$@@@@@@@@@@@@@@$$@@@@@@@@@@@@@@$$@@@@@@@@@@@@@@$$@@@@@@@@@@@@@+X",
"X+@@@@@@@@@@@@@$$@@@@@@@@@@@@@@$$@@@@@@@@@@@@@@$$@@@@@@@@@@@@@@$$@@@@@@@@@@@@@@$$@@@@@@@@@@@@@@$$@@@@@@@@@@@@@@$$@@@@@@@@@@@@@+X",
"X+@@@@@@@@@@@@@$$@@@@@@@@@@@@@@$$@@@@@@@@@@@@@@$$@@@@@@@@@@@@@@$$@@@@@@@@@@@@@@$$@@@@@@@@@@@@@@$$@@@@@@@@@@@@@@$$@@@@@@@@@@@@@+X",
"X+@@@@@@@@@@@@@$$@@@@@@@@@@@@@@$$@@@@@@@@@@@@@@$$@@@@@@@@@@@@@@$$@@@@@@@@@@@@@@$$@@@@@@@@@@@@@@$$@@@@@@@@@@@@@@$$@@@@@@@@@@@@@+X",
"X+@@@@@@@@@@@@@$$@@@@@@@@@@@@@@$$@@@@@@@@@@@@@@$$@@@@@@@@@@@@@@$$@@@@@@@@@@@@@@$$@@@@@@@@@@@@@@$$@@@@@@@@@@@@@@$$@@@@@@@@@@@@@+X",
"X+@@@@@@@@@@@@@$$@@@@@@@@@@@@@@$$@@@@@@@@@@@@@@$$@@@@@@@@@@@@@@$$@@@@@@@@@@@@@@$$@@@@@@@@@@@@@@$$@@@@@@@@@@@@@@$$@@@@@@@@@@@@@+X",
"X+@@@@@@@@@@@@@$$@@@@@@@@@@@@@@$$@@@@@@@@@@@@@@$$@@@@@@@@@@@@@@$$@@@@@@@@@@@@@@$$@@@@@@@@@@@@@@$$@@@@@@@@@@@@@@$$@@@@@@@@@@@@@+X",
"X+@@@@@@@@@@@@@%$@@@@@@@@@@@@@@%$@@@@@@@@@@@@@@%$@@@@@@@@@@@@@@%$@@@@@@@@@@@@@@%$@@@@@@@@@@@@@@%$@@@@@@@@@@@@@@%$@@@@@@@@@@@@@+X",
"o@$$$$$$$$$$$$%&&%$$$$$$$$$$$$%&&%$$$$$$$$$$$$%&&%$$$$$$$$$$$$%&&%$$$$$$$$$$$$%&&%$$$$$$$$$$$$%&&%$$$$$$$$$$$$%&&%$$$$$$$$$$$$@o",
"O#$$$$$$$$$$$$$&*$$$$$$$$$$$$$$&*$$$$$$$$$$$$$$&*$$$$$$$$$$$$$$&*$$$$$$$$$$$$$$&*$$$$$$$$$$$$$$&*$$$$$$$$$$$$$$&*$$$$$$$$$$$$$#O",
"X+@@@@@@@@@@@@@%$@@@@@@@@@@@@@@%$@@@@@@@@@@@@@@%$@@@@@@@@@@@@@@%$@@@@@@@@@@@@@@%$@@@@@@@@@@@@@@%$@@@@@@@@@@@@@@%$@@@@@@@@@@@@@+X",
"X+@@@@@@@@@@@@@$$@@@@@@@@@@@@@@%$@@@@@@@@@@@@@@$$@@@@@@@@@@@@@@$$@@@@@@@@@@@@@@$$@@@@@@@@@@@@@@%$@@@@@@@@@@@@@@$$@@@@@@@@@@@@@+X",
"X+@@@@@@@@@@@@@$$@@@@@@@@@@@@@@=-@@@@@@@@@@@@@@$$@@@@@@@@@@@@@@$$@@@@@@@@@@@@@@$$@@@@@@@@@@@@@@=-@@@@@@@@@@@@@@$$@@@@@@@@@@@@@+X",
"X+@@@@@@@@@@@@@$$@@@@@@@@@@@@@+;o+@@@@@@@@@@@@@$$@@@@@@@@@@@@@@$$@@@@@@@@@@@@@@$$@@@@@@@@@@@@@+;o+@@@@@@@@@@@@@$$@@@@@@@@@@@@@+X",
"X+@@@@@@@@@@@@@$$@@@@@@@@@@@@@+:O+@@@@@@@@@@@@@$$@@@@@@@@@@@@@@$$@@@@@@@@@@@@@@$$@@@@@@@@@@@@@+:O+@@@@@@@@@@@@@$$@@@@@@@@@@@@@+X",
"X+@@@@@@@@@@@@@$$@@@@@@@@@@@@@+:O+@@@@@@@@@@@@@$$@@@@@@@@@@@@@@$$@@@@@@@@@@@@@@$$@@@@@@@@@@@@@+:O+@@@@@@@@@@@@@$$@@@@@@@@@@@@@+X",
"X+@@@@@@@@@@@@@$$@@@@@@@@@@@@@+:O+@@@@@@@@@@@@@$$@@@@@@@@@@@@@@$$@@@@@@@@@@@@@@$$@@@@@@@@@@@@@+:O+@@@@@@@@@@@@@$$@@@@@@@@@@@@@+X",
"X+@@@@@@@@@@@@@$$@@@@@@@@@@@@@+:O+@@@@@@@@@@@@@$$@@@@@@@@@@@@@@$$@@@@@@@@@@@@@@$$@@@@@@@@@@@@@+:O+@@@@@@@@@@@@@$$@@@@@@@@@@@@@+X",
"X+@@@@@@@@@@@@@$$@@@@@@@@@@@@@+:O+@@@@@@@@@@@@@$$@@@@@@@@@@@@@@$$@@@@@@@@@@@@@@$$@@@@@@@@@@@@@+:O+@@@@@@@@@@@@@$$@@@@@@@@@@@@@+X",
"X+@@@@@@@@@@@@@$$@@@@@@@@@@@@@+:O+@@@@@@@@@@@@@$$@@@@@@@@@@@@@@$$@@@@@@@@@@@@@@$$@@@@@@@@@@@@@+:O+@@@@@@@@@@@@@$$@@@@@@@@@@@@@+X",
"X+@@@@@@@@@@@@@$$@@@@@@@@@@@@@+:O+@@@@@@@@@@@@@$$@@@@@@@@@@@@@@$$@@@@@@@@@@@@@@$$@@@@@@@@@@@@@+:O+@@@@@@@@@@@@@$$@@@@@@@@@@@@@+X",
"X+@@@@@@@@@@@@@$$@@@@@@@@@@@@@+:O+@@@@@@@@@@@@@$$@@@@@@@@@@@@@@$$@@@@@@@@@@@@@@$$@@@@@@@@@@@@@+:O+@@@@@@@@@@@@@$$@@@@@@@@@@@@@+X",
"X+@@@@@@@@@@@@@$$@@@@@@@@@@@@@+:O+@@@@@@@@@@@@@$$@@@@@@@@@@@@@@$$@@@@@@@@@@@@@@$$@@@@@@@@@@@@@+:O+@@@@@@@@@@@@@$$@@@@@@@@@@@@@+X",
"X+@@@@@@@@@@@@@%$@@@+++++++++++;o+++++++++++@@@%$@@@@@@@@@@@@@@%$@@@@@@@@@@@@@@%$@@@+++++++++++;o+++++++++++@@@%$@@@@@@@@@@@@@+X",
"o@$$$$$$$$$$$$%&&%%=;:::::::::;>,<::::::::::-%%&&%$$$$$$$$$$$$%&&%$$$$$$$$$$$$%&&%%=;:::::::::;>,<::::::::::-%%&&%$$$$$$$$$$$$@o",
"O#$$$$$$$$$$$$$&*$$12OOOOOOOOOo,3oOOOOOOOOOO4$$&*$$$$$$$$$$$$$$&*$$$$$$$$$$$$$$&*$$12OOOOOOOOOo,3oOOOOOOOOOO4$$&*$$$$$$$$$$$$$#O",
"X+@@@@@@@@@@@@@%$@@@+++++++++++<o+++++++++++@@@%$@@@@@@@@@@@@@@%$@@@@@@@@@@@@@@%$@@@+++++++++++<o+++++++++++@@@%$@@@@@@@@@@@@@+X",
"X+@@@@@@@@@@@@@$$@@@@@@@@@@@@@+:O+@@@@@@@@@@@@@$$@@@@@@@@@@@@@@$$@@@@@@@@@@@@@@$$@@@@@@@@@@@@@+:O+@@@@@@@@@@@@@$$@@@@@@@@@@@@@+X",
"X+@@@@@@@@@@@@@$$@@@@@@@@@@@@@+:O+@@@@@@@@@@@@@$$@@@@@@@@@@@@@@$$@@@@@@@@@@@@@@$$@@@@@@@@@@@@@+:O+@@@@@@@@@@@@@$$@@@@@@@@@@@@@+X",
"X+@@@@@@@@@@@@@$$@@@@@@@@@@@@@+:O+@@@@@@@@@@@@@$$@@@@@@@@@@@@@@$$@@@@@@@@@@@@@@$$@@@@@@@@@@@@@+:O+@@@@@@@@@@@@@$$@@@@@@@@@@@@@+X",
"X+@@@@@@@@@@@@@$$@@@@@@@@@@@@@+:O+@@@@@@@@@@@@@$$@@@@@@@@@@@@@@$$@@@@@@@@@@@@@@$$@@@@@@@@@@@@@+:O+@@@@@@@@@@@@@$$@@@@@@@@@@@@@+X",
"X+@@@@@@@@@@@@@$$@@@@@@@@@@@@@+:O+@@@@@@@@@@@@@$$@@@@@@@@@@@@@@$$@@@@@@@@@@@@@@$$@@@@@@@@@@@@@+:O+@@@@@@@@@@@@@$$@@@@@@@@@@@@@+X",
"X+@@@@@@@@@@@@@$$@@@@@@@@@@@@@+:O+@@@@@@@@@@@@@$$@@@@@@@@@@@@@@$$@@@@@@@@@@@@@@$$@@@@@@@@@@@@@+:O+@@@@@@@@@@@@@$$@@@@@@@@@@@@@+X",
"X+@@@@@@@@@@@@@$$@@@@@@@@@@@@@+:O+@@@@@@@@@@@@@$$@@@@@@@@@@@@@@$$@@@@@@@@@@@@@@$$@@@@@@@@@@@@@+:O+@@@@@@@@@@@@@$$@@@@@@@@@@@@@+X",
"X+@@@@@@@@@@@@@$$@@@@@@@@@@@@@+:O+@@@@@@@@@@@@@$$@@@@@@@@@@@@@@$$@@@@@@@@@@@@@@$$@@@@@@@@@@@@@+:O+@@@@@@@@@@@@@$$@@@@@@@@@@@@@+X",
"X+@@@@@@@@@@@@@$$@@@@@@@@@@@@@+:O+@@@@@@@@@@@@@$$@@@@@@@@@@@@@@$$@@@@@@@@@@@@@@$$@@@@@@@@@@@@@+:O+@@@@@@@@@@@@@$$@@@@@@@@@@@@@+X",
"X+@@@@@@@@@@@@@$$@@@@@@@@@@@@@+:O+@@@@@@@@@@@@@$$@@@@@@@@@@@@@@$$@@@@@@@@@@@@@@$$@@@@@@@@@@@@@+:O+@@@@@@@@@@@@@$$@@@@@@@@@@@@@+X",
"X+@@@@@@@@@@@@@$$@@@@@@@@@@@@@@14@@@@@@@@@@@@@@$$@@@@@@@@@@@@@@$$@@@@@@@@@@@@@@$$@@@@@@@@@@@@@@14@@@@@@@@@@@@@@$$@@@@@@@@@@@@@+X",
"X+@@@@@@@@@@@@@$$@@@@@@@@@@@@@@%$@@@@@@@@@@@@@@$$@@@@@@@@@@@@@@$$@@@@@@@@@@@@@@$$@@@@@@@@@@@@@@%$@@@@@@@@@@@@@@$$@@@@@@@@@@@@@+X",
"X+@@@@@@@@@@@@@%$@@@@@@@@@@@@@@%$@@@@@@@@@@@@@@%$@@@@@@@@@@@@@@%$@@@@@@@@@@@@@@%$@@@@@@@@@@@@@@%$@@@@@@@@@@@@@@%$@@@@@@@@@@@@@+X",
"o@$$$$$$$$$$$$%&&%$$$$$$$$$$$$%&&%$$$$$$$$$$$$%&&%$$$$$$$$$$$$%&&%$$$$$$$$$$$$%&&%$$$$$$$$$$$$%&&%$$$$$$$$$$$$%&&%$$$$$$$$$$$$@o",
"O#$$$$$$$$$$$$$&*$$$$$$$$$$$$$$&*$$$$$$$$$$$$$$&*$$$$$$$$$$$$$$&*$$$$$$$$$$$$$$&*$$$$$$$$$$$$$$&*$$$$$$$$$$$$$$&*$$$$$$$$$$$$$#O",
"X+@@@@@@@@@@@@@%$@@@@@@@@@@@@@@%$@@@@@@@@@@@@@@%$@@@@@@@@@@@@@@%$@@@@@@@@@@@@@@%$@@@@@@@@@@@@@@%$@@@@@@@@@@@@@@%$@@@@@@@@@@@@@+X",
"X+@@@@@@@@@@@@@$$@@@@@@@@@@@@@@$$@@@@@@@@@@@@@@$$@@@@@@@@@@@@@@$$@@@@@@@@@@@@@@$$@@@@@@@@@@@@@@$$@@@@@@@@@@@@@@$$@@@@@@@@@@@@@+X",
"X+@@@@@@@@@@@@@$$@@@@@@@@@@@@@@$$@@@@@@@@@@@@@@$$@@@@@@@@@@@@@@$$@@@@@@@@@@@@@@$$@@@@@@@@@@@@@@$$@@@@@@@@@@@@@@$$@@@@@@@@@@@@@+X",
"X+@@@@@@@@@@@@@$$@@@@@@@@@@@@@@$$@@@@@@@@@@@@@@$$@@@@@@@@@@@@@@$$@@@@@@@@@@@@@@$$@@@@@@@@@@@@@@$$@@@@@@@@@@@@@@$$@@@@@@@@@@@@@+X",
"X+@@@@@@@@@@@@@$$@@@@@@@@@@@@@@$$@@@@@@@@@@@@@@$$@@@@@@@@@@@@@@$$@@@@@@@@@@@@@@$$@@@@@@@@@@@@@@$$@@@@@@@@@@@@@@$$@@@@@@@@@@@@@+X",
"X+@@@@@@@@@@@@@$$@@@@@@@@@@@@@@$$@@@@@@@@@@@@@@$$@@@@@@@@@@@@@@$$@@@@@@@@@@@@@@$$@@@@@@@@@@@@@@$$@@@@@@@@@@@@@@$$@@@@@@@@@@@@@+X",
"X+@@@@@@@@@@@@@$$@@@@@@@@@@@@@@$$@@@@@@@@@@@@@@$$@@@@@@@@@@@@@@$$@@@@@@@@@@@@@@$$@@@@@@@@@@@@@@$$@@@@@@@@@@@@@@$$@@@@@@@@@@@@@+X",
"X+@@@@@@@@@@@@@$$@@@@@@@@@@@@@@$$@@@@@@@@@@@@@@$$@@@@@@@@@@@@@@$$@@@@@@@@@@@@@@$$@@@@@@@@@@@@@@$$@@@@@@@@@@@@@@$$@@@@@@@@@@@@@+X",
"X+@@@@@@@@@@@@@$$@@@@@@@@@@@@@@$$@@@@@@@@@@@@@@$$@@@@@@@@@@@@@@$$@@@@@@@@@@@@@@$$@@@@@@@@@@@@@@$$@@@@@@@@@@@@@@$$@@@@@@@@@@@@@+X",
"X+@@@@@@@@@@@@@$$@@@@@@@@@@@@@@$$@@@@@@@@@@@@@@$$@@@@@@@@@@@@@@$$@@@@@@@@@@@@@@$$@@@@@@@@@@@@@@$$@@@@@@@@@@@@@@$$@@@@@@@@@@@@@+X",
"X+@@@@@@@@@@@@@$$@@@@@@@@@@@@@@$$@@@@@@@@@@@@@@$$@@@@@@@@@@@@@@$$@@@@@@@@@@@@@@$$@@@@@@@@@@@@@@$$@@@@@@@@@@@@@@$$@@@@@@@@@@@@@+X",
"X+@@@@@@@@@@@@@$$@@@@@@@@@@@@@@$$@@@@@@@@@@@@@@$$@@@@@@@@@@@@@@$$@@@@@@@@@@@@@@$$@@@@@@@@@@@@@@$$@@@@@@@@@@@@@@$$@@@@@@@@@@@@@+X",
"X+@@@@@@@@@@@@@$$@@@@@@@@@@@@@@$$@@@@@@@@@@@@@@$$@@@@@@@@@@@@@@$$@@@@@@@@@@@@@@$$@@@@@@@@@@@@@@$$@@@@@@@@@@@@@@$$@@@@@@@@@@@@@+X",
".++++++++++++++@#++++++++++++++@#++++++++++++++@#++++++++++++++@#++++++++++++++@#++++++++++++++@#++++++++++++++@#++++++++++++++.",
" .XXXXXXXXXXXXXoOXXXXXXXXXXXXXXoOXXXXXXXXXXXXXXoOXXXXXXXXXXXXXXoOXXXXXXXXXXXXXXoOXXXXXXXXXXXXXXoOXXXXXXXXXXXXXXoOXXXXXXXXXXXXX. "
};
