/* XPM */
static char *_b8d39933d044e14d6a31c208acde9fazT0HeIsQPKSoysil[] = {
/* columns rows colors chars-per-pixel */
"128 128 35 1 ",
"  c #EEAA57",
". c #EA952F",
"X c #EA9630",
"o c #EC9730",
"O c #FCA030",
"+ c #FFA230",
"@ c #FDA53B",
"# c #ED9C3B",
"$ c #EA9530",
"% c #FFA12F",
"& c #FFB357",
"* c #E57B00",
"= c #E57C00",
"- c #E87E00",
"; c #FC8900",
": c #FF8B00",
"> c #FC900B",
", c #E9840B",
"< c #FF8A00",
"1 c #E57D00",
"2 c #E87F00",
"3 c #FC8A00",
"4 c DarkOrange",
"5 c #FC910E",
"6 c #E9850E",
"7 c #FD910E",
"8 c #EA8000",
"9 c #FA8900",
"0 c #FA8F0E",
"q c #EB870E",
"w c #E9850D",
"e c #FD900D",
"r c #EC8C17",
"t c #FA9417",
"y c white",
/* pixels */
" .XXXXXXXXXXXXXoO++++++++++++++OoXXXXXXXXXXXXXXoO++++++++++++++@#$XXXXXXXXXXXXXoO++++++++++++++OoXXXXXXXXXXXXXXoO+++++++++++++%&",
".*=============-;::::::::::::::;-==============-;::::::::::::::>,*=============-;::::::::::::::;-==============-;:::::::::::::<%",
"X=1111111111111234444444444444432111111111111112344444444444444561111111111111123444444444444443211111111111111234444444444444:+",
"X=1111111111111234444444444444432111111111111112344444444444444561111111111111123444444444444443211111111111111234444444444444:+",
"X=1111111111111234444444444444432111111111111112344444444444444561111111111111123444444444444443211111111111111234444444444444:+",
"X=1111111111111234444444444444432111111111111112344444444444444561111111111111123444444444444443211111111111111234444444444444:+",
"X=1111111111111234444444444444432111111111111112344444444444444561111111111111123444444444444443211111111111111234444444444444:+",
"X=1111111111111234444444444444432111111111111112344444444444444561111111111111123444444444444443211111111111111234444444444444:+",
"X=1111111111111234444444444444432111111111111112344444444444444561111111111111123444444444444443211111111111111234444444444444:+",
"X=1111111111111234444444444444432111111111111112344444444444444561111111111111123444444444444443211111111111111234444444444444:+",
"X=1111111111111234444444444444432111111111111112344444444444444561111111111111123444444444444443211111111111111234444444444444:+",
"X=1111111111111234444444444444432111111111111112344444444444444561111111111111123444444444444443211111111111111234444444444444:+",
"X=1111111111111234444444444444432111111111111112344444444444444561111111111111123444444444444443211111111111111234444444444444:+",
"X=1111111111111234444444444444432111111111111112344444444444444561111111111111123444444444444443211111111111111234444444444444:+",
"X=111111111111123444444444444443211111111111111234444444444444476=111111111111123444444444444443211111111111111234444444444444:+",
"o-22222222222228933333333333333982222222222222289333333333333330q-222222222222289333333333333339822222222222222893333333333333;O",
"O;333333333333398222222222222228933333333333333982222222222222-q03333333333333398222222222222228933333333333333982222222222222-o",
"+:444444444444432111111111111112344444444444444321111111111111=674444444444444432111111111111112344444444444444321111111111111=X",
"+:4444444444444321111111111111123444444444444443211111111111111654444444444444432111111111111112344444444444444321111111111111=X",
"+:4444444444444321111111111111123444444444444443211111111111111654444444444444432111111111111112344444444444444321111111111111=X",
"+:4444444444444321111111111111123444444444444443211111111111111654444444444444432111111111111112344444444444444321111111111111=X",
"+:4444444444444321111111111111123444444444444443211111111111111654444444444444432111111111111112344444444444444321111111111111=X",
"+:4444444444444321111111111111123444444444444443211111111111111654444444444444432111111111111112344444444444444321111111111111=X",
"+:4444444444444321111111111111123444444444444443211111111111111654444444444444432111111111111112344444444444444321111111111111=X",
"+:4444444444444321111111111111123444444444444443211111111111111654444444444444432111111111111112344444444444444321111111111111=X",
"+:4444444444444321111111111111123444444444444443211111111111111654444444444444432111111111111112344444444444444321111111111111=X",
"+:4444444444444321111111111111123444444444444443211111111111111654444444444444432111111111111112344444444444444321111111111111=X",
"+:4444444444444321111111111111123444444444444443211111111111111654444444444444432111111111111112344444444444444321111111111111=X",
"+:4444444444444321111111111111123444444444444443211111111111111654444444444444432111111111111112344444444444444321111111111111=X",
"+:4444444444444321111111111111123444444444444443211111111111111654444444444444432111111111111112344444444444444321111111111111=X",
"+:444444444444432111111111111112344444444444444321111111111111=674444444444444432111111111111112344444444444444321111111111111=X",
"O;333333333333398222222222222228933333333333333982222222222222-q03333333333333398222222222222228933333333333333982222222222222-o",
"o-22222222222228933333333333333982222222222222289333333333333330q-222222222222289333333333333339822222222222222893333333333333;O",
"X=111111111111123444444444444443211111111111111234444444444444476=111111111111123444444444444443211111111111111234444444444444:+",
"X=1111111111111234444444444444432111111111111112344444444444444561111111111111123444444444444443211111111111111234444444444444:+",
"X=1111111111111234444444444444432111111111111112344444444444444561111111111111123444444444444443211111111111111234444444444444:+",
"X=1111111111111234444444444444432111111111111112344444444444444561111111111111123444444444444443211111111111111234444444444444:+",
"X=1111111111111234444444444444432111111111111112344444444444444561111111111111123444444444444443211111111111111234444444444444:+",
"X=1111111111111234444444444444432111111111111112344444444444444561111111111111123444444444444443211111111111111234444444444444:+",
"X=1111111111111234444444444444432111111111111112344444444444444561111111111111123444444444444443211111111111111234444444444444:+",
"X=1111111111111234444444444444432111111111111112344444444444444561111111111111123444444444444443211111111111111234444444444444:+",
"X=1111111111111234444444444444432111111111111112344444444444444561111111111111123444444444444443211111111111111234444444444444:+",
"X=1111111111111234444444444444432111111111111112344444444444444561111111111111123444444444444443211111111111111234444444444444:+",
"X=1111111111111234444444444444432111111111111112344444444444444561111111111111123444444444444443211111111111111234444444444444:+",
"X=1111111111111234444444444444432111111111111112344444444444444561111111111111123444444444444443211111111111111234444444444444:+",
"X=1111111111111234444444444444432111111111111112344444444444444561111111111111123444444444444443211111111111111234444444444444:+",
"X=111111111111123444444444444443211111111111111234444444444444476=111111111111123444444444444443211111111111111234444444444444:+",
"o-22222222222228933333333333333982222222222222289333333333333330q-222222222222289333333333333339822222222222222893333333333333;O",
"O;333333333333398222222222222228933333333333333982222222222222-q03333333333333398222222222222228933333333333333982222222222222-o",
"+:444444444444432111111111111112344444444444444321111111111111=674444444444444432111111111111112344444444444444321111111111111=X",
"+:4444444444444321111111111111123444444444444443211111111111111654444444444444432111111111111112344444444444444321111111111111=X",
"+:4444444444444321111111111111123444444444444443211111111111111654444444444444432111111111111112344444444444444321111111111111=X",
"+:4444444444444321111111111111123444444444444443211111111111111654444444444444432111111111111112344444444444444321111111111111=X",
"+:4444444444444321111111111111123444444444444443211111111111111654444444444444432111111111111112344444444444444321111111111111=X",
"+:4444444444444321111111111111123444444444444443211111111111111654444444444444432111111111111112344444444444444321111111111111=X",
"+:4444444444444321111111111111123444444444444443211111111111111654444444444444432111111111111112344444444444444321111111111111=X",
"+:4444444444444321111111111111123444444444444443211111111111111654444444444444432111111111111112344444444444444321111111111111=X",
"+:4444444444444321111111111111123444444444444443211111111111111654444444444444432111111111111112344444444444444321111111111111=X",
"+:4444444444444321111111111111123444444444444443211111111111111654444444444444432111111111111112344444444444444321111111111111=X",
"+:4444444444444321111111111111123444444444444443211111111111111654444444444444432111111111111112344444444444444321111111111111=X",
"+:4444444444444321111111111111123444444444444443211111111111111654444444444444432111111111111112344444444444444321111111111111=X",
"+:4444444444444321111111111111123444444444444443211111111111111654444444444444432111111111111112344444444444444321111111111111=X",
"+:44444444444443-=111111111111=-3444444444444443-=111111111111=we444444444444443-=111111111111=-3444444444444443-=111111111111*$",
"@>55555555555570q66666666666666q0755555555555570q6666666666666wrte55555555555570q66666666666666q0755555555555570q6666666666666,#",
"#,6666666666666q0755555555555570q66666666666666q07555555555555etrw6666666666666q0755555555555570q66666666666666q07555555555555>@",
"$*111111111111=-3444444444444443-=111111111111=-344444444444444ew=111111111111=-3444444444444443-=111111111111=-34444444444444:+",
"X=1111111111111234444444444444432111111111111112344444444444444561111111111111123444444444444443211111111111111234444444444444:+",
"X=1111111111111234444444444444432111111111111112344444444444444561111111111111123444444444444443211111111111111234444444444444:+",
"X=1111111111111234444444444444432111111111111112344444444444444561111111111111123444444444444443211111111111111234444444444444:+",
"X=1111111111111234444444444444432111111111111112344444444444444561111111111111123444444444444443211111111111111234444444444444:+",
"X=1111111111111234444444444444432111111111111112344444444444444561111111111111123444444444444443211111111111111234444444444444:+",
"X=1111111111111234444444444444432111111111111112344444444444444561111111111111123444444444444443211111111111111234444444444444:+",
"X=1111111111111234444444444444432111111111111112344444444444444561111111111111123444444444444443211111111111111234444444444444:+",
"X=1111111111111234444444444444432111111111111112344444444444444561111111111111123444444444444443211111111111111234444444444444:+",
"X=1111111111111234444444444444432111111111111112344444444444444561111111111111123444444444444443211111111111111234444444444444:+",
"X=1111111111111234444444444444432111111111111112344444444444444561111111111111123444444444444443211111111111111234444444444444:+",
"X=1111111111111234444444444444432111111111111112344444444444444561111111111111123444444444444443211111111111111234444444444444:+",
"X=1111111111111234444444444444432111111111111112344444444444444561111111111111123444444444444443211111111111111234444444444444:+",
"X=111111111111123444444444444443211111111111111234444444444444476=111111111111123444444444444443211111111111111234444444444444:+",
"o-22222222222228933333333333333982222222222222289333333333333330q-222222222222289333333333333339822222222222222893333333333333;O",
"O;333333333333398222222222222228933333333333333982222222222222-q03333333333333398222222222222228933333333333333982222222222222-o",
"+:444444444444432111111111111112344444444444444321111111111111=674444444444444432111111111111112344444444444444321111111111111=X",
"+:4444444444444321111111111111123444444444444443211111111111111654444444444444432111111111111112344444444444444321111111111111=X",
"+:4444444444444321111111111111123444444444444443211111111111111654444444444444432111111111111112344444444444444321111111111111=X",
"+:4444444444444321111111111111123444444444444443211111111111111654444444444444432111111111111112344444444444444321111111111111=X",
"+:4444444444444321111111111111123444444444444443211111111111111654444444444444432111111111111112344444444444444321111111111111=X",
"+:4444444444444321111111111111123444444444444443211111111111111654444444444444432111111111111112344444444444444321111111111111=X",
"+:4444444444444321111111111111123444444444444443211111111111111654444444444444432111111111111112344444444444444321111111111111=X",
"+:4444444444444321111111111111123444444444444443211111111111111654444444444444432111111111111112344444444444444321111111111111=X",
"+:4444444444444321111111111111123444444444444443211111111111111654444444444444432111111111111112344444444444444321111111111111=X",
"+:4444444444444321111111111111123444444444444443211111111111111654444444444444432111111111111112344444444444444321111111111111=X",
"+:4444444444444321111111111111123444444444444443211111111111111654444444444444432111111111111112344444444444444321111111111111=X",
"+:4444444444444321111111111111123444444444444443211111111111111654444444444444432111111111111112344444444444444321111111111111=X",
"+:4444444444444321111111111111123444444444444443211111111111111654444444444444432111111111111112344444444444444321111111111111=X",
"+:444444444444432111111111111112344444444444444321111111111111=674444444444444432111111111111112344444444444444321111111111111=X",
"O;333333333333398222222222222228933333333333333982222222222222-q03333333333333398222222222222228933333333333333982222222222222-o",
"o-22222222222228933333333333333982222222222222289333333333333330q-222222222222289333333333333339822222222222222893333333333333;O",
"X=111111111111123444444444444443211111111111111234444444444444476=111111111111123444444444444443211111111111111234444444444444:+",
"X=1111111111111234444444444444432111111111111112344444444444444561111111111111123444444444444443211111111111111234444444444444:+",
"X=1111111111111234444444444444432111111111111112344444444444444561111111111111123444444444444443211111111111111234444444444444:+",
"X=1111111111111234444444444444432111111111111112344444444444444561111111111111123444444444444443211111111111111234444444444444:+",
"X=1111111111111234444444444444432111111111111112344444444444444561111111111111123444444444444443211111111111111234444444444444:+",
"X=1111111111111234444444444444432111111111111112344444444444444561111111111111123444444444444443211111111111111234444444444444:+",
"X=1111111111111234444444444444432111111111111112344444444444444561111111111111123444444444444443211111111111111234444444444444:+",
"X=1111111111111234444444444444432111111111111112344444444444444561111111111111123444444444444443211111111111111234444444444444:+",
"X=1111111111111234444444444444432111111111111112344444444444444561111111111111123444444444444443211111111111111234444444444444:+",
"X=1111111111111234444444444444432111111111111112344444444444444561111111111111123444444444444443211111111111111234444444444444:+",
"X=1111111111111234444444444444432111111111111112344444444444444561111111111111123444444444444443211111111111111234444444444444:+",
"X=1111111111111234444444444444432111111111111112344444444444444561111111111111123444444444444443211111111111111234444444444444:+",
"X=1111111111111234444444444444432111111111111112344444444444444561111111111111123444444444444443211111111111111234444444444444:+",
"X=111111111111123444444444444443211111111111111234444444444444476=111111111111123444444444444443211111111111111234444444444444:+",
"o-22222222222228933333333333333982222222222222289333333333333330q-222222222222289333333333333339822222222222222893333333333333;O",
"O;333333333333398222222222222228933333333333333982222222222222-q03333333333333398222222222222228933333333333333982222222222222-o",
"+:444444444444432111111111111112344444444444444321111111111111=674444444444444432111111111111112344444444444444321111111111111=X",
"+:4444444444444321111111111111123444444444444443211111111111111654444444444444432111111111111112344444444444444321111111111111=X",
"+:4444444444444321111111111111123444444444444443211111111111111654444444444444432111111111111112344444444444444321111111111111=X",
"+:4444444444444321111111111111123444444444444443211111111111111654444444444444432111111111111112344444444444444321111111111111=X",
"+:4444444444444321111111111111123444444444444443211111111111111654444444444444432111111111111112344444444444444321111111111111=X",
"+:4444444444444321111111111111123444444444444443211111111111111654444444444444432111111111111112344444444444444321111111111111=X",
"+:4444444444444321111111111111123444444444444443211111111111111654444444444444432111111111111112344444444444444321111111111111=X",
"+:4444444444444321111111111111123444444444444443211111111111111654444444444444432111111111111112344444444444444321111111111111=X",
"+:4444444444444321111111111111123444444444444443211111111111111654444444444444432111111111111112344444444444444321111111111111=X",
"+:4444444444444321111111111111123444444444444443211111111111111654444444444444432111111111111112344444444444444321111111111111=X",
"+:4444444444444321111111111111123444444444444443211111111111111654444444444444432111111111111112344444444444444321111111111111=X",
"+:4444444444444321111111111111123444444444444443211111111111111654444444444444432111111111111112344444444444444321111111111111=X",
"+:4444444444444321111111111111123444444444444443211111111111111654444444444444432111111111111112344444444444444321111111111111=X",
"%<:::::::::::::;-==============-;::::::::::::::;-=============*,>::::::::::::::;-==============-;::::::::::::::;-=============*.",
"&%+++++++++++++OoXXXXXXXXXXXXXXoO++++++++++++++OoXXXXXXXXXXXXX$#@++++++++++++++OoXXXXXXXXXXXXXXoO++++++++++++++OoXXXXXXXXXXXXX. "
};
