/* XPM */
static char *_b5b5e4200fc4bbde393cbcc45b07277mJj5UipPOHyq2vRY[] = {
/* columns rows colors chars-per-pixel */
"128 128 7 1 ",
"  c #E57D00",
". c #E87F00",
"X c #FC8A00",
"o c DarkOrange",
"O c #EA8000",
"+ c #FA8900",
"@ c white",
/* pixels */
"                               .XooooooooooooooooooooooooooooooX.                              .Xooooooooooooooooooooooooooooooo",
"                               .XooooooooooooooooooooooooooooooX.                              .Xooooooooooooooooooooooooooooooo",
"                               .XooooooooooooooooooooooooooooooX.                              .Xooooooooooooooooooooooooooooooo",
"                               .XooooooooooooooooooooooooooooooX.                              .Xooooooooooooooooooooooooooooooo",
"                               .XooooooooooooooooooooooooooooooX.                              .Xooooooooooooooooooooooooooooooo",
"                               .XooooooooooooooooooooooooooooooX.                              .Xooooooooooooooooooooooooooooooo",
"                               .XooooooooooooooooooooooooooooooX.                              .Xooooooooooooooooooooooooooooooo",
"                               .XooooooooooooooooooooooooooooooX.                              .Xooooooooooooooooooooooooooooooo",
"                               .XooooooooooooooooooooooooooooooX.                              .Xooooooooooooooooooooooooooooooo",
"                               .XooooooooooooooooooooooooooooooX.                              .Xooooooooooooooooooooooooooooooo",
"                               .XooooooooooooooooooooooooooooooX.                              .Xooooooooooooooooooooooooooooooo",
"                               .XooooooooooooooooooooooooooooooX.                              .Xooooooooooooooooooooooooooooooo",
"                               .XooooooooooooooooooooooooooooooX.                              .Xooooooooooooooooooooooooooooooo",
"                               .XooooooooooooooooooooooooooooooX.                              .Xooooooooooooooooooooooooooooooo",
"                               .XooooooooooooooooooooooooooooooX.                              .Xooooooooooooooooooooooooooooooo",
"                               .XooooooooooooooooooooooooooooooX.                              .Xooooooooooooooooooooooooooooooo",
"                               .XooooooooooooooooooooooooooooooX.                              .Xooooooooooooooooooooooooooooooo",
"                               .XooooooooooooooooooooooooooooooX.                              .Xooooooooooooooooooooooooooooooo",
"                               .XooooooooooooooooooooooooooooooX.                              .Xooooooooooooooooooooooooooooooo",
"                               .XooooooooooooooooooooooooooooooX.                              .Xooooooooooooooooooooooooooooooo",
"                               .XooooooooooooooooooooooooooooooX.                              .Xooooooooooooooooooooooooooooooo",
"                               .XooooooooooooooooooooooooooooooX.                              .Xooooooooooooooooooooooooooooooo",
"                               .XooooooooooooooooooooooooooooooX.                              .Xooooooooooooooooooooooooooooooo",
"                               .XooooooooooooooooooooooooooooooX.                              .Xooooooooooooooooooooooooooooooo",
"                               .XooooooooooooooooooooooooooooooX.                              .Xooooooooooooooooooooooooooooooo",
"                               .XooooooooooooooooooooooooooooooX.                              .Xooooooooooooooooooooooooooooooo",
"                               .XooooooooooooooooooooooooooooooX.                              .Xooooooooooooooooooooooooooooooo",
"                               .XooooooooooooooooooooooooooooooX.                              .Xooooooooooooooooooooooooooooooo",
"                               .XooooooooooooooooooooooooooooooX.                              .Xooooooooooooooooooooooooooooooo",
"                               .XooooooooooooooooooooooooooooooX.                              .Xooooooooooooooooooooooooooooooo",
"                               .XooooooooooooooooooooooooooooooX.                              .Xooooooooooooooooooooooooooooooo",
"...............................O+XXXXXXXXXXXXXXXXXXXXXXXXXXXXXX+O..............................O+XXXXXXXXXXXXXXXXXXXXXXXXXXXXXXX",
"XXXXXXXXXXXXXXXXXXXXXXXXXXXXXXX+O..............................O+XXXXXXXXXXXXXXXXXXXXXXXXXXXXXX+O...............................",
"oooooooooooooooooooooooooooooooX.                              .XooooooooooooooooooooooooooooooX.                               ",
"oooooooooooooooooooooooooooooooX.                              .XooooooooooooooooooooooooooooooX.                               ",
"oooooooooooooooooooooooooooooooX.                              .XooooooooooooooooooooooooooooooX.                               ",
"oooooooooooooooooooooooooooooooX.                              .XooooooooooooooooooooooooooooooX.                               ",
"oooooooooooooooooooooooooooooooX.                              .XooooooooooooooooooooooooooooooX.                               ",
"oooooooooooooooooooooooooooooooX.                              .XooooooooooooooooooooooooooooooX.                               ",
"oooooooooooooooooooooooooooooooX.                              .XooooooooooooooooooooooooooooooX.                               ",
"oooooooooooooooooooooooooooooooX.                              .XooooooooooooooooooooooooooooooX.                               ",
"oooooooooooooooooooooooooooooooX.                              .XooooooooooooooooooooooooooooooX.                               ",
"oooooooooooooooooooooooooooooooX.                              .XooooooooooooooooooooooooooooooX.                               ",
"oooooooooooooooooooooooooooooooX.                              .XooooooooooooooooooooooooooooooX.                               ",
"oooooooooooooooooooooooooooooooX.                              .XooooooooooooooooooooooooooooooX.                               ",
"oooooooooooooooooooooooooooooooX.                              .XooooooooooooooooooooooooooooooX.                               ",
"oooooooooooooooooooooooooooooooX.                              .XooooooooooooooooooooooooooooooX.                               ",
"oooooooooooooooooooooooooooooooX.                              .XooooooooooooooooooooooooooooooX.                               ",
"oooooooooooooooooooooooooooooooX.                              .XooooooooooooooooooooooooooooooX.                               ",
"oooooooooooooooooooooooooooooooX.                              .XooooooooooooooooooooooooooooooX.                               ",
"oooooooooooooooooooooooooooooooX.                              .XooooooooooooooooooooooooooooooX.                               ",
"oooooooooooooooooooooooooooooooX.                              .XooooooooooooooooooooooooooooooX.                               ",
"oooooooooooooooooooooooooooooooX.                              .XooooooooooooooooooooooooooooooX.                               ",
"oooooooooooooooooooooooooooooooX.                              .XooooooooooooooooooooooooooooooX.                               ",
"oooooooooooooooooooooooooooooooX.                              .XooooooooooooooooooooooooooooooX.                               ",
"oooooooooooooooooooooooooooooooX.                              .XooooooooooooooooooooooooooooooX.                               ",
"oooooooooooooooooooooooooooooooX.                              .XooooooooooooooooooooooooooooooX.                               ",
"oooooooooooooooooooooooooooooooX.                              .XooooooooooooooooooooooooooooooX.                               ",
"oooooooooooooooooooooooooooooooX.                              .XooooooooooooooooooooooooooooooX.                               ",
"oooooooooooooooooooooooooooooooX.                              .XooooooooooooooooooooooooooooooX.                               ",
"oooooooooooooooooooooooooooooooX.                              .XooooooooooooooooooooooooooooooX.                               ",
"oooooooooooooooooooooooooooooooX.                              .XooooooooooooooooooooooooooooooX.                               ",
"oooooooooooooooooooooooooooooooX.                              .XooooooooooooooooooooooooooooooX.                               ",
"XXXXXXXXXXXXXXXXXXXXXXXXXXXXXXX+O..............................O+XXXXXXXXXXXXXXXXXXXXXXXXXXXXXX+O...............................",
"...............................O+XXXXXXXXXXXXXXXXXXXXXXXXXXXXXX+O..............................O+XXXXXXXXXXXXXXXXXXXXXXXXXXXXXXX",
"                               .XooooooooooooooooooooooooooooooX.                              .Xooooooooooooooooooooooooooooooo",
"                               .XooooooooooooooooooooooooooooooX.                              .Xooooooooooooooooooooooooooooooo",
"                               .XooooooooooooooooooooooooooooooX.                              .Xooooooooooooooooooooooooooooooo",
"                               .XooooooooooooooooooooooooooooooX.                              .Xooooooooooooooooooooooooooooooo",
"                               .XooooooooooooooooooooooooooooooX.                              .Xooooooooooooooooooooooooooooooo",
"                               .XooooooooooooooooooooooooooooooX.                              .Xooooooooooooooooooooooooooooooo",
"                               .XooooooooooooooooooooooooooooooX.                              .Xooooooooooooooooooooooooooooooo",
"                               .XooooooooooooooooooooooooooooooX.                              .Xooooooooooooooooooooooooooooooo",
"                               .XooooooooooooooooooooooooooooooX.                              .Xooooooooooooooooooooooooooooooo",
"                               .XooooooooooooooooooooooooooooooX.                              .Xooooooooooooooooooooooooooooooo",
"                               .XooooooooooooooooooooooooooooooX.                              .Xooooooooooooooooooooooooooooooo",
"                               .XooooooooooooooooooooooooooooooX.                              .Xooooooooooooooooooooooooooooooo",
"                               .XooooooooooooooooooooooooooooooX.                              .Xooooooooooooooooooooooooooooooo",
"                               .XooooooooooooooooooooooooooooooX.                              .Xooooooooooooooooooooooooooooooo",
"                               .XooooooooooooooooooooooooooooooX.                              .Xooooooooooooooooooooooooooooooo",
"                               .XooooooooooooooooooooooooooooooX.                              .Xooooooooooooooooooooooooooooooo",
"                               .XooooooooooooooooooooooooooooooX.                              .Xooooooooooooooooooooooooooooooo",
"                               .XooooooooooooooooooooooooooooooX.                              .Xooooooooooooooooooooooooooooooo",
"                               .XooooooooooooooooooooooooooooooX.                              .Xooooooooooooooooooooooooooooooo",
"                               .XooooooooooooooooooooooooooooooX.                              .Xooooooooooooooooooooooooooooooo",
"                               .XooooooooooooooooooooooooooooooX.                              .Xooooooooooooooooooooooooooooooo",
"                               .XooooooooooooooooooooooooooooooX.                              .Xooooooooooooooooooooooooooooooo",
"                               .XooooooooooooooooooooooooooooooX.                              .Xooooooooooooooooooooooooooooooo",
"                               .XooooooooooooooooooooooooooooooX.                              .Xooooooooooooooooooooooooooooooo",
"                               .XooooooooooooooooooooooooooooooX.                              .Xooooooooooooooooooooooooooooooo",
"                               .XooooooooooooooooooooooooooooooX.                              .Xooooooooooooooooooooooooooooooo",
"                               .XooooooooooooooooooooooooooooooX.                              .Xooooooooooooooooooooooooooooooo",
"                               .XooooooooooooooooooooooooooooooX.                              .Xooooooooooooooooooooooooooooooo",
"                               .XooooooooooooooooooooooooooooooX.                              .Xooooooooooooooooooooooooooooooo",
"                               .XooooooooooooooooooooooooooooooX.                              .Xooooooooooooooooooooooooooooooo",
"...............................O+XXXXXXXXXXXXXXXXXXXXXXXXXXXXXX+O..............................O+XXXXXXXXXXXXXXXXXXXXXXXXXXXXXXX",
"XXXXXXXXXXXXXXXXXXXXXXXXXXXXXXX+O..............................O+XXXXXXXXXXXXXXXXXXXXXXXXXXXXXX+O...............................",
"oooooooooooooooooooooooooooooooX.                              .XooooooooooooooooooooooooooooooX.                               ",
"oooooooooooooooooooooooooooooooX.                              .XooooooooooooooooooooooooooooooX.                               ",
"oooooooooooooooooooooooooooooooX.                              .XooooooooooooooooooooooooooooooX.                               ",
"oooooooooooooooooooooooooooooooX.                              .XooooooooooooooooooooooooooooooX.                               ",
"oooooooooooooooooooooooooooooooX.                              .XooooooooooooooooooooooooooooooX.                               ",
"oooooooooooooooooooooooooooooooX.                              .XooooooooooooooooooooooooooooooX.                               ",
"oooooooooooooooooooooooooooooooX.                              .XooooooooooooooooooooooooooooooX.                               ",
"oooooooooooooooooooooooooooooooX.                              .XooooooooooooooooooooooooooooooX.                               ",
"oooooooooooooooooooooooooooooooX.                              .XooooooooooooooooooooooooooooooX.                               ",
"oooooooooooooooooooooooooooooooX.                              .XooooooooooooooooooooooooooooooX.                               ",
"oooooooooooooooooooooooooooooooX.                              .XooooooooooooooooooooooooooooooX.                               ",
"oooooooooooooooooooooooooooooooX.                              .XooooooooooooooooooooooooooooooX.                               ",
"oooooooooooooooooooooooooooooooX.                              .XooooooooooooooooooooooooooooooX.                               ",
"oooooooooooooooooooooooooooooooX.                              .XooooooooooooooooooooooooooooooX.                               ",
"oooooooooooooooooooooooooooooooX.                              .XooooooooooooooooooooooooooooooX.                               ",
"oooooooooooooooooooooooooooooooX.                              .XooooooooooooooooooooooooooooooX.                               ",
"oooooooooooooooooooooooooooooooX.                              .XooooooooooooooooooooooooooooooX.                               ",
"oooooooooooooooooooooooooooooooX.                              .XooooooooooooooooooooooooooooooX.                               ",
"oooooooooooooooooooooooooooooooX.                              .XooooooooooooooooooooooooooooooX.                               ",
"oooooooooooooooooooooooooooooooX.                              .XooooooooooooooooooooooooooooooX.                               ",
"oooooooooooooooooooooooooooooooX.                              .XooooooooooooooooooooooooooooooX.                               ",
"oooooooooooooooooooooooooooooooX.                              .XooooooooooooooooooooooooooooooX.                               ",
"oooooooooooooooooooooooooooooooX.                              .XooooooooooooooooooooooooooooooX.                               ",
"oooooooooooooooooooooooooooooooX.                              .XooooooooooooooooooooooooooooooX.                               ",
"oooooooooooooooooooooooooooooooX.                              .XooooooooooooooooooooooooooooooX.                               ",
"oooooooooooooooooooooooooooooooX.                              .XooooooooooooooooooooooooooooooX.                               ",
"oooooooooooooooooooooooooooooooX.                              .XooooooooooooooooooooooooooooooX.                               ",
"oooooooooooooooooooooooooooooooX.                              .XooooooooooooooooooooooooooooooX.                               ",
"oooooooooooooooooooooooooooooooX.                              .XooooooooooooooooooooooooooooooX.                               ",
"oooooooooooooooooooooooooooooooX.                              .XooooooooooooooooooooooooooooooX.                               ",
"oooooooooooooooooooooooooooooooX.                              .XooooooooooooooooooooooooooooooX.                               "
};
