/* XPM */
static char *b81b325f78ce4b81a86fd6c5b3dac6cdyvdO1BIMKKpsjguU[] = {
/* columns rows colors chars-per-pixel */
"128 128 21 1 ",
"  c #FFB357",
". c #FFA12F",
"X c #FFA230",
"o c #FFA231",
"O c #FFA232",
"+ c #FFAE4C",
"@ c #FFAF4D",
"# c #FF8A00",
"$ c #FF8B00",
"% c DarkOrange",
"& c #FF9B21",
"* c #FF8D02",
"= c #FF9C23",
"- c #FF8D01",
"; c #FF8D03",
": c #FF9C24",
"> c #FF8E04",
", c #FF9C25",
"< c #FFA73C",
"1 c #FFA73D",
"2 c white",
/* pixels */
" .XXXXXXXXXXXXXoOXXXXXXXXXXXXXXoOXXXXXXXXXXXXXXoOXXXXXXXXXXXXX.+@.XXXXXXXXXXXXXoOXXXXXXXXXXXXXXoOXXXXXXXXXXXXXXoOXXXXXXXXXXXXX. ",
".#$$$$$$$$$$$$$%%$$$$$$$$$$$$$$%%$$$$$$$$$$$$$$%%$$$$$$$$$$$$$#&&#$$$$$$$$$$$$$%%$$$$$$$$$$$$$$%%$$$$$$$$$$$$$$%%$$$$$$$$$$$$$#.",
"X$%%%%%%%%%%%%%**%%%%%%%%%%%%%%**%%%%%%%%%%%%%%**%%%%%%%%%%%%%$==$%%%%%%%%%%%%%**%%%%%%%%%%%%%%**%%%%%%%%%%%%%%**%%%%%%%%%%%%%$X",
"X$%%%%%%%%%%%%%**%%%%%%%%%%%%%%**%%%%%%%%%%%%%%**%%%%%%%%%%%%%$==$%%%%%%%%%%%%%**%%%%%%%%%%%%%%**%%%%%%%%%%%%%%**%%%%%%%%%%%%%$X",
"X$%%%%%%%%%%%%%**%%%%%%%%%%%%%%**%%%%%%%%%%%%%%**%%%%%%%%%%%%%$==$%%%%%%%%%%%%%**%%%%%%%%%%%%%%**%%%%%%%%%%%%%%**%%%%%%%%%%%%%$X",
"X$%%%%%%%%%%%%%**%%%%%%%%%%%%%%**%%%%%%%%%%%%%%**%%%%%%%%%%%%%$==$%%%%%%%%%%%%%**%%%%%%%%%%%%%%**%%%%%%%%%%%%%%**%%%%%%%%%%%%%$X",
"X$%%%%%%%%%%%%%**%%%%%%%%%%%%%%**%%%%%%%%%%%%%%**%%%%%%%%%%%%%$==$%%%%%%%%%%%%%**%%%%%%%%%%%%%%**%%%%%%%%%%%%%%**%%%%%%%%%%%%%$X",
"X$%%%%%%%%%%%%%**%%%%%%%%%%%%%%**%%%%%%%%%%%%%%**%%%%%%%%%%%%%$==$%%%%%%%%%%%%%**%%%%%%%%%%%%%%**%%%%%%%%%%%%%%**%%%%%%%%%%%%%$X",
"X$%%%%%%%%%%%%%**%%%%%%%%%%%%%%**%%%%%%%%%%%%%%**%%%%%%%%%%%%%$==$%%%%%%%%%%%%%**%%%%%%%%%%%%%%**%%%%%%%%%%%%%%**%%%%%%%%%%%%%$X",
"X$%%%%%%%%%%%%%**%%%%%%%%%%%%%%**%%%%%%%%%%%%%%**%%%%%%%%%%%%%$==$%%%%%%%%%%%%%**%%%%%%%%%%%%%%**%%%%%%%%%%%%%%**%%%%%%%%%%%%%$X",
"X$%%%%%%%%%%%%%**%%%%%%%%%%%%%%**%%%%%%%%%%%%%%**%%%%%%%%%%%%%$==$%%%%%%%%%%%%%**%%%%%%%%%%%%%%**%%%%%%%%%%%%%%**%%%%%%%%%%%%%$X",
"X$%%%%%%%%%%%%%**%%%%%%%%%%%%%%**%%%%%%%%%%%%%%**%%%%%%%%%%%%%$==$%%%%%%%%%%%%%**%%%%%%%%%%%%%%**%%%%%%%%%%%%%%**%%%%%%%%%%%%%$X",
"X$%%%%%%%%%%%%%**%%%%%%%%%%%%%%**%%%%%%%%%%%%%%**%%%%%%%%%%%%%$==$%%%%%%%%%%%%%**%%%%%%%%%%%%%%**%%%%%%%%%%%%%%**%%%%%%%%%%%%%$X",
"X$%%%%%%%%%%%%%**%%%%%%%%%%%%%%**%%%%%%%%%%%%%%**%%%%%%%%%%%%%$==$%%%%%%%%%%%%%**%%%%%%%%%%%%%%**%%%%%%%%%%%%%%**%%%%%%%%%%%%%$X",
"X$%%%%%%%%%%%%%-*%%%%%%%%%%%%%%-*%%%%%%%%%%%%%%-*%%%%%%%%%%%%%$==$%%%%%%%%%%%%%-*%%%%%%%%%%%%%%-*%%%%%%%%%%%%%%-*%%%%%%%%%%%%%$X",
"o%************-;;-************-;;-************-;;-************%::%************-;;-************-;;-************-;;-************%o",
"O%*************;>**************;>**************;>*************%:,%*************;>**************;>**************;>*************%O",
"X$%%%%%%%%%%%%%-*%%%%%%%%%%%%%%-*%%%%%%%%%%%%%%-*%%%%%%%%%%%%%$==$%%%%%%%%%%%%%-*%%%%%%%%%%%%%%-*%%%%%%%%%%%%%%-*%%%%%%%%%%%%%$X",
"X$%%%%%%%%%%%%%**%%%%%%%%%%%%%%**%%%%%%%%%%%%%%**%%%%%%%%%%%%%$==$%%%%%%%%%%%%%**%%%%%%%%%%%%%%**%%%%%%%%%%%%%%**%%%%%%%%%%%%%$X",
"X$%%%%%%%%%%%%%**%%%%%%%%%%%%%%**%%%%%%%%%%%%%%**%%%%%%%%%%%%%$==$%%%%%%%%%%%%%**%%%%%%%%%%%%%%**%%%%%%%%%%%%%%**%%%%%%%%%%%%%$X",
"X$%%%%%%%%%%%%%**%%%%%%%%%%%%%%**%%%%%%%%%%%%%%**%%%%%%%%%%%%%$==$%%%%%%%%%%%%%**%%%%%%%%%%%%%%**%%%%%%%%%%%%%%**%%%%%%%%%%%%%$X",
"X$%%%%%%%%%%%%%**%%%%%%%%%%%%%%**%%%%%%%%%%%%%%**%%%%%%%%%%%%%$==$%%%%%%%%%%%%%**%%%%%%%%%%%%%%**%%%%%%%%%%%%%%**%%%%%%%%%%%%%$X",
"X$%%%%%%%%%%%%%**%%%%%%%%%%%%%%**%%%%%%%%%%%%%%**%%%%%%%%%%%%%$==$%%%%%%%%%%%%%**%%%%%%%%%%%%%%**%%%%%%%%%%%%%%**%%%%%%%%%%%%%$X",
"X$%%%%%%%%%%%%%**%%%%%%%%%%%%%%**%%%%%%%%%%%%%%**%%%%%%%%%%%%%$==$%%%%%%%%%%%%%**%%%%%%%%%%%%%%**%%%%%%%%%%%%%%**%%%%%%%%%%%%%$X",
"X$%%%%%%%%%%%%%**%%%%%%%%%%%%%%**%%%%%%%%%%%%%%**%%%%%%%%%%%%%$==$%%%%%%%%%%%%%**%%%%%%%%%%%%%%**%%%%%%%%%%%%%%**%%%%%%%%%%%%%$X",
"X$%%%%%%%%%%%%%**%%%%%%%%%%%%%%**%%%%%%%%%%%%%%**%%%%%%%%%%%%%$==$%%%%%%%%%%%%%**%%%%%%%%%%%%%%**%%%%%%%%%%%%%%**%%%%%%%%%%%%%$X",
"X$%%%%%%%%%%%%%**%%%%%%%%%%%%%%**%%%%%%%%%%%%%%**%%%%%%%%%%%%%$==$%%%%%%%%%%%%%**%%%%%%%%%%%%%%**%%%%%%%%%%%%%%**%%%%%%%%%%%%%$X",
"X$%%%%%%%%%%%%%**%%%%%%%%%%%%%%**%%%%%%%%%%%%%%**%%%%%%%%%%%%%$==$%%%%%%%%%%%%%**%%%%%%%%%%%%%%**%%%%%%%%%%%%%%**%%%%%%%%%%%%%$X",
"X$%%%%%%%%%%%%%**%%%%%%%%%%%%%%**%%%%%%%%%%%%%%**%%%%%%%%%%%%%$==$%%%%%%%%%%%%%**%%%%%%%%%%%%%%**%%%%%%%%%%%%%%**%%%%%%%%%%%%%$X",
"X$%%%%%%%%%%%%%**%%%%%%%%%%%%%%**%%%%%%%%%%%%%%**%%%%%%%%%%%%%$==$%%%%%%%%%%%%%**%%%%%%%%%%%%%%**%%%%%%%%%%%%%%**%%%%%%%%%%%%%$X",
"X$%%%%%%%%%%%%%-*%%%%%%%%%%%%%%-*%%%%%%%%%%%%%%-*%%%%%%%%%%%%%$==$%%%%%%%%%%%%%-*%%%%%%%%%%%%%%-*%%%%%%%%%%%%%%-*%%%%%%%%%%%%%$X",
"o%************-;;-************-;;-************-;;-************%::%************-;;-************-;;-************-;;-************%o",
"O%*************;>**************;>**************;>*************%:,%*************;>**************;>**************;>*************%O",
"X$%%%%%%%%%%%%%-*%%%%%%%%%%%%%%-*%%%%%%%%%%%%%%-*%%%%%%%%%%%%%$==$%%%%%%%%%%%%%-*%%%%%%%%%%%%%%-*%%%%%%%%%%%%%%-*%%%%%%%%%%%%%$X",
"X$%%%%%%%%%%%%%**%%%%%%%%%%%%%%**%%%%%%%%%%%%%%**%%%%%%%%%%%%%$==$%%%%%%%%%%%%%**%%%%%%%%%%%%%%**%%%%%%%%%%%%%%**%%%%%%%%%%%%%$X",
"X$%%%%%%%%%%%%%**%%%%%%%%%%%%%%**%%%%%%%%%%%%%%**%%%%%%%%%%%%%$==$%%%%%%%%%%%%%**%%%%%%%%%%%%%%**%%%%%%%%%%%%%%**%%%%%%%%%%%%%$X",
"X$%%%%%%%%%%%%%**%%%%%%%%%%%%%%**%%%%%%%%%%%%%%**%%%%%%%%%%%%%$==$%%%%%%%%%%%%%**%%%%%%%%%%%%%%**%%%%%%%%%%%%%%**%%%%%%%%%%%%%$X",
"X$%%%%%%%%%%%%%**%%%%%%%%%%%%%%**%%%%%%%%%%%%%%**%%%%%%%%%%%%%$==$%%%%%%%%%%%%%**%%%%%%%%%%%%%%**%%%%%%%%%%%%%%**%%%%%%%%%%%%%$X",
"X$%%%%%%%%%%%%%**%%%%%%%%%%%%%%**%%%%%%%%%%%%%%**%%%%%%%%%%%%%$==$%%%%%%%%%%%%%**%%%%%%%%%%%%%%**%%%%%%%%%%%%%%**%%%%%%%%%%%%%$X",
"X$%%%%%%%%%%%%%**%%%%%%%%%%%%%%**%%%%%%%%%%%%%%**%%%%%%%%%%%%%$==$%%%%%%%%%%%%%**%%%%%%%%%%%%%%**%%%%%%%%%%%%%%**%%%%%%%%%%%%%$X",
"X$%%%%%%%%%%%%%**%%%%%%%%%%%%%%**%%%%%%%%%%%%%%**%%%%%%%%%%%%%$==$%%%%%%%%%%%%%**%%%%%%%%%%%%%%**%%%%%%%%%%%%%%**%%%%%%%%%%%%%$X",
"X$%%%%%%%%%%%%%**%%%%%%%%%%%%%%**%%%%%%%%%%%%%%**%%%%%%%%%%%%%$==$%%%%%%%%%%%%%**%%%%%%%%%%%%%%**%%%%%%%%%%%%%%**%%%%%%%%%%%%%$X",
"X$%%%%%%%%%%%%%**%%%%%%%%%%%%%%**%%%%%%%%%%%%%%**%%%%%%%%%%%%%$==$%%%%%%%%%%%%%**%%%%%%%%%%%%%%**%%%%%%%%%%%%%%**%%%%%%%%%%%%%$X",
"X$%%%%%%%%%%%%%**%%%%%%%%%%%%%%**%%%%%%%%%%%%%%**%%%%%%%%%%%%%$==$%%%%%%%%%%%%%**%%%%%%%%%%%%%%**%%%%%%%%%%%%%%**%%%%%%%%%%%%%$X",
"X$%%%%%%%%%%%%%**%%%%%%%%%%%%%%**%%%%%%%%%%%%%%**%%%%%%%%%%%%%$==$%%%%%%%%%%%%%**%%%%%%%%%%%%%%**%%%%%%%%%%%%%%**%%%%%%%%%%%%%$X",
"X$%%%%%%%%%%%%%**%%%%%%%%%%%%%%**%%%%%%%%%%%%%%**%%%%%%%%%%%%%$==$%%%%%%%%%%%%%**%%%%%%%%%%%%%%**%%%%%%%%%%%%%%**%%%%%%%%%%%%%$X",
"X$%%%%%%%%%%%%%-*%%%%%%%%%%%%%%-*%%%%%%%%%%%%%%-*%%%%%%%%%%%%%$==$%%%%%%%%%%%%%-*%%%%%%%%%%%%%%-*%%%%%%%%%%%%%%-*%%%%%%%%%%%%%$X",
"o%************-;;-************-;;-************-;;-************%::%************-;;-************-;;-************-;;-************%o",
"O%*************;>**************;>**************;>*************%:,%*************;>**************;>**************;>*************%O",
"X$%%%%%%%%%%%%%-*%%%%%%%%%%%%%%-*%%%%%%%%%%%%%%-*%%%%%%%%%%%%%$==$%%%%%%%%%%%%%-*%%%%%%%%%%%%%%-*%%%%%%%%%%%%%%-*%%%%%%%%%%%%%$X",
"X$%%%%%%%%%%%%%**%%%%%%%%%%%%%%**%%%%%%%%%%%%%%**%%%%%%%%%%%%%$==$%%%%%%%%%%%%%**%%%%%%%%%%%%%%**%%%%%%%%%%%%%%**%%%%%%%%%%%%%$X",
"X$%%%%%%%%%%%%%**%%%%%%%%%%%%%%**%%%%%%%%%%%%%%**%%%%%%%%%%%%%$==$%%%%%%%%%%%%%**%%%%%%%%%%%%%%**%%%%%%%%%%%%%%**%%%%%%%%%%%%%$X",
"X$%%%%%%%%%%%%%**%%%%%%%%%%%%%%**%%%%%%%%%%%%%%**%%%%%%%%%%%%%$==$%%%%%%%%%%%%%**%%%%%%%%%%%%%%**%%%%%%%%%%%%%%**%%%%%%%%%%%%%$X",
"X$%%%%%%%%%%%%%**%%%%%%%%%%%%%%**%%%%%%%%%%%%%%**%%%%%%%%%%%%%$==$%%%%%%%%%%%%%**%%%%%%%%%%%%%%**%%%%%%%%%%%%%%**%%%%%%%%%%%%%$X",
"X$%%%%%%%%%%%%%**%%%%%%%%%%%%%%**%%%%%%%%%%%%%%**%%%%%%%%%%%%%$==$%%%%%%%%%%%%%**%%%%%%%%%%%%%%**%%%%%%%%%%%%%%**%%%%%%%%%%%%%$X",
"X$%%%%%%%%%%%%%**%%%%%%%%%%%%%%**%%%%%%%%%%%%%%**%%%%%%%%%%%%%$==$%%%%%%%%%%%%%**%%%%%%%%%%%%%%**%%%%%%%%%%%%%%**%%%%%%%%%%%%%$X",
"X$%%%%%%%%%%%%%**%%%%%%%%%%%%%%**%%%%%%%%%%%%%%**%%%%%%%%%%%%%$==$%%%%%%%%%%%%%**%%%%%%%%%%%%%%**%%%%%%%%%%%%%%**%%%%%%%%%%%%%$X",
"X$%%%%%%%%%%%%%**%%%%%%%%%%%%%%**%%%%%%%%%%%%%%**%%%%%%%%%%%%%$==$%%%%%%%%%%%%%**%%%%%%%%%%%%%%**%%%%%%%%%%%%%%**%%%%%%%%%%%%%$X",
"X$%%%%%%%%%%%%%**%%%%%%%%%%%%%%**%%%%%%%%%%%%%%**%%%%%%%%%%%%%$==$%%%%%%%%%%%%%**%%%%%%%%%%%%%%**%%%%%%%%%%%%%%**%%%%%%%%%%%%%$X",
"X$%%%%%%%%%%%%%**%%%%%%%%%%%%%%**%%%%%%%%%%%%%%**%%%%%%%%%%%%%$==$%%%%%%%%%%%%%**%%%%%%%%%%%%%%**%%%%%%%%%%%%%%**%%%%%%%%%%%%%$X",
"X$%%%%%%%%%%%%%**%%%%%%%%%%%%%%**%%%%%%%%%%%%%%**%%%%%%%%%%%%%$==$%%%%%%%%%%%%%**%%%%%%%%%%%%%%**%%%%%%%%%%%%%%**%%%%%%%%%%%%%$X",
"X$%%%%%%%%%%%%%**%%%%%%%%%%%%%%**%%%%%%%%%%%%%%**%%%%%%%%%%%%%$==$%%%%%%%%%%%%%**%%%%%%%%%%%%%%**%%%%%%%%%%%%%%**%%%%%%%%%%%%%$X",
".#$$$$$$$$$$$$$%%$$$$$$$$$$$$$$%%$$$$$$$$$$$$$$%%$$$$$$$$$$$$$#&&#$$$$$$$$$$$$$%%$$$$$$$$$$$$$$%%$$$$$$$$$$$$$$%%$$$$$$$$$$$$$#.",
"+&=============::==============::==============::=============&<1&=============::==============::==============::=============&+",
"@&=============:,==============:,==============:,=============&11&=============:,==============:,==============:,=============&@",
".#$$$$$$$$$$$$$%%$$$$$$$$$$$$$$%%$$$$$$$$$$$$$$%%$$$$$$$$$$$$$#&&#$$$$$$$$$$$$$%%$$$$$$$$$$$$$$%%$$$$$$$$$$$$$$%%$$$$$$$$$$$$$#.",
"X$%%%%%%%%%%%%%**%%%%%%%%%%%%%%**%%%%%%%%%%%%%%**%%%%%%%%%%%%%$==$%%%%%%%%%%%%%**%%%%%%%%%%%%%%**%%%%%%%%%%%%%%**%%%%%%%%%%%%%$X",
"X$%%%%%%%%%%%%%**%%%%%%%%%%%%%%**%%%%%%%%%%%%%%**%%%%%%%%%%%%%$==$%%%%%%%%%%%%%**%%%%%%%%%%%%%%**%%%%%%%%%%%%%%**%%%%%%%%%%%%%$X",
"X$%%%%%%%%%%%%%**%%%%%%%%%%%%%%**%%%%%%%%%%%%%%**%%%%%%%%%%%%%$==$%%%%%%%%%%%%%**%%%%%%%%%%%%%%**%%%%%%%%%%%%%%**%%%%%%%%%%%%%$X",
"X$%%%%%%%%%%%%%**%%%%%%%%%%%%%%**%%%%%%%%%%%%%%**%%%%%%%%%%%%%$==$%%%%%%%%%%%%%**%%%%%%%%%%%%%%**%%%%%%%%%%%%%%**%%%%%%%%%%%%%$X",
"X$%%%%%%%%%%%%%**%%%%%%%%%%%%%%**%%%%%%%%%%%%%%**%%%%%%%%%%%%%$==$%%%%%%%%%%%%%**%%%%%%%%%%%%%%**%%%%%%%%%%%%%%**%%%%%%%%%%%%%$X",
"X$%%%%%%%%%%%%%**%%%%%%%%%%%%%%**%%%%%%%%%%%%%%**%%%%%%%%%%%%%$==$%%%%%%%%%%%%%**%%%%%%%%%%%%%%**%%%%%%%%%%%%%%**%%%%%%%%%%%%%$X",
"X$%%%%%%%%%%%%%**%%%%%%%%%%%%%%**%%%%%%%%%%%%%%**%%%%%%%%%%%%%$==$%%%%%%%%%%%%%**%%%%%%%%%%%%%%**%%%%%%%%%%%%%%**%%%%%%%%%%%%%$X",
"X$%%%%%%%%%%%%%**%%%%%%%%%%%%%%**%%%%%%%%%%%%%%**%%%%%%%%%%%%%$==$%%%%%%%%%%%%%**%%%%%%%%%%%%%%**%%%%%%%%%%%%%%**%%%%%%%%%%%%%$X",
"X$%%%%%%%%%%%%%**%%%%%%%%%%%%%%**%%%%%%%%%%%%%%**%%%%%%%%%%%%%$==$%%%%%%%%%%%%%**%%%%%%%%%%%%%%**%%%%%%%%%%%%%%**%%%%%%%%%%%%%$X",
"X$%%%%%%%%%%%%%**%%%%%%%%%%%%%%**%%%%%%%%%%%%%%**%%%%%%%%%%%%%$==$%%%%%%%%%%%%%**%%%%%%%%%%%%%%**%%%%%%%%%%%%%%**%%%%%%%%%%%%%$X",
"X$%%%%%%%%%%%%%**%%%%%%%%%%%%%%**%%%%%%%%%%%%%%**%%%%%%%%%%%%%$==$%%%%%%%%%%%%%**%%%%%%%%%%%%%%**%%%%%%%%%%%%%%**%%%%%%%%%%%%%$X",
"X$%%%%%%%%%%%%%**%%%%%%%%%%%%%%**%%%%%%%%%%%%%%**%%%%%%%%%%%%%$==$%%%%%%%%%%%%%**%%%%%%%%%%%%%%**%%%%%%%%%%%%%%**%%%%%%%%%%%%%$X",
"X$%%%%%%%%%%%%%-*%%%%%%%%%%%%%%-*%%%%%%%%%%%%%%-*%%%%%%%%%%%%%$==$%%%%%%%%%%%%%-*%%%%%%%%%%%%%%-*%%%%%%%%%%%%%%-*%%%%%%%%%%%%%$X",
"o%************-;;-************-;;-************-;;-************%::%************-;;-************-;;-************-;;-************%o",
"O%*************;>**************;>**************;>*************%:,%*************;>**************;>**************;>*************%O",
"X$%%%%%%%%%%%%%-*%%%%%%%%%%%%%%-*%%%%%%%%%%%%%%-*%%%%%%%%%%%%%$==$%%%%%%%%%%%%%-*%%%%%%%%%%%%%%-*%%%%%%%%%%%%%%-*%%%%%%%%%%%%%$X",
"X$%%%%%%%%%%%%%**%%%%%%%%%%%%%%**%%%%%%%%%%%%%%**%%%%%%%%%%%%%$==$%%%%%%%%%%%%%**%%%%%%%%%%%%%%**%%%%%%%%%%%%%%**%%%%%%%%%%%%%$X",
"X$%%%%%%%%%%%%%**%%%%%%%%%%%%%%**%%%%%%%%%%%%%%**%%%%%%%%%%%%%$==$%%%%%%%%%%%%%**%%%%%%%%%%%%%%**%%%%%%%%%%%%%%**%%%%%%%%%%%%%$X",
"X$%%%%%%%%%%%%%**%%%%%%%%%%%%%%**%%%%%%%%%%%%%%**%%%%%%%%%%%%%$==$%%%%%%%%%%%%%**%%%%%%%%%%%%%%**%%%%%%%%%%%%%%**%%%%%%%%%%%%%$X",
"X$%%%%%%%%%%%%%**%%%%%%%%%%%%%%**%%%%%%%%%%%%%%**%%%%%%%%%%%%%$==$%%%%%%%%%%%%%**%%%%%%%%%%%%%%**%%%%%%%%%%%%%%**%%%%%%%%%%%%%$X",
"X$%%%%%%%%%%%%%**%%%%%%%%%%%%%%**%%%%%%%%%%%%%%**%%%%%%%%%%%%%$==$%%%%%%%%%%%%%**%%%%%%%%%%%%%%**%%%%%%%%%%%%%%**%%%%%%%%%%%%%$X",
"X$%%%%%%%%%%%%%**%%%%%%%%%%%%%%**%%%%%%%%%%%%%%**%%%%%%%%%%%%%$==$%%%%%%%%%%%%%**%%%%%%%%%%%%%%**%%%%%%%%%%%%%%**%%%%%%%%%%%%%$X",
"X$%%%%%%%%%%%%%**%%%%%%%%%%%%%%**%%%%%%%%%%%%%%**%%%%%%%%%%%%%$==$%%%%%%%%%%%%%**%%%%%%%%%%%%%%**%%%%%%%%%%%%%%**%%%%%%%%%%%%%$X",
"X$%%%%%%%%%%%%%**%%%%%%%%%%%%%%**%%%%%%%%%%%%%%**%%%%%%%%%%%%%$==$%%%%%%%%%%%%%**%%%%%%%%%%%%%%**%%%%%%%%%%%%%%**%%%%%%%%%%%%%$X",
"X$%%%%%%%%%%%%%**%%%%%%%%%%%%%%**%%%%%%%%%%%%%%**%%%%%%%%%%%%%$==$%%%%%%%%%%%%%**%%%%%%%%%%%%%%**%%%%%%%%%%%%%%**%%%%%%%%%%%%%$X",
"X$%%%%%%%%%%%%%**%%%%%%%%%%%%%%**%%%%%%%%%%%%%%**%%%%%%%%%%%%%$==$%%%%%%%%%%%%%**%%%%%%%%%%%%%%**%%%%%%%%%%%%%%**%%%%%%%%%%%%%$X",
"X$%%%%%%%%%%%%%**%%%%%%%%%%%%%%**%%%%%%%%%%%%%%**%%%%%%%%%%%%%$==$%%%%%%%%%%%%%**%%%%%%%%%%%%%%**%%%%%%%%%%%%%%**%%%%%%%%%%%%%$X",
"X$%%%%%%%%%%%%%**%%%%%%%%%%%%%%**%%%%%%%%%%%%%%**%%%%%%%%%%%%%$==$%%%%%%%%%%%%%**%%%%%%%%%%%%%%**%%%%%%%%%%%%%%**%%%%%%%%%%%%%$X",
"X$%%%%%%%%%%%%%-*%%%%%%%%%%%%%%-*%%%%%%%%%%%%%%-*%%%%%%%%%%%%%$==$%%%%%%%%%%%%%-*%%%%%%%%%%%%%%-*%%%%%%%%%%%%%%-*%%%%%%%%%%%%%$X",
"o%************-;;-************-;;-************-;;-************%::%************-;;-************-;;-************-;;-************%o",
"O%*************;>**************;>**************;>*************%:,%*************;>**************;>**************;>*************%O",
"X$%%%%%%%%%%%%%-*%%%%%%%%%%%%%%-*%%%%%%%%%%%%%%-*%%%%%%%%%%%%%$==$%%%%%%%%%%%%%-*%%%%%%%%%%%%%%-*%%%%%%%%%%%%%%-*%%%%%%%%%%%%%$X",
"X$%%%%%%%%%%%%%**%%%%%%%%%%%%%%**%%%%%%%%%%%%%%**%%%%%%%%%%%%%$==$%%%%%%%%%%%%%**%%%%%%%%%%%%%%**%%%%%%%%%%%%%%**%%%%%%%%%%%%%$X",
"X$%%%%%%%%%%%%%**%%%%%%%%%%%%%%**%%%%%%%%%%%%%%**%%%%%%%%%%%%%$==$%%%%%%%%%%%%%**%%%%%%%%%%%%%%**%%%%%%%%%%%%%%**%%%%%%%%%%%%%$X",
"X$%%%%%%%%%%%%%**%%%%%%%%%%%%%%**%%%%%%%%%%%%%%**%%%%%%%%%%%%%$==$%%%%%%%%%%%%%**%%%%%%%%%%%%%%**%%%%%%%%%%%%%%**%%%%%%%%%%%%%$X",
"X$%%%%%%%%%%%%%**%%%%%%%%%%%%%%**%%%%%%%%%%%%%%**%%%%%%%%%%%%%$==$%%%%%%%%%%%%%**%%%%%%%%%%%%%%**%%%%%%%%%%%%%%**%%%%%%%%%%%%%$X",
"X$%%%%%%%%%%%%%**%%%%%%%%%%%%%%**%%%%%%%%%%%%%%**%%%%%%%%%%%%%$==$%%%%%%%%%%%%%**%%%%%%%%%%%%%%**%%%%%%%%%%%%%%**%%%%%%%%%%%%%$X",
"X$%%%%%%%%%%%%%**%%%%%%%%%%%%%%**%%%%%%%%%%%%%%**%%%%%%%%%%%%%$==$%%%%%%%%%%%%%**%%%%%%%%%%%%%%**%%%%%%%%%%%%%%**%%%%%%%%%%%%%$X",
"X$%%%%%%%%%%%%%**%%%%%%%%%%%%%%**%%%%%%%%%%%%%%**%%%%%%%%%%%%%$==$%%%%%%%%%%%%%**%%%%%%%%%%%%%%**%%%%%%%%%%%%%%**%%%%%%%%%%%%%$X",
"X$%%%%%%%%%%%%%**%%%%%%%%%%%%%%**%%%%%%%%%%%%%%**%%%%%%%%%%%%%$==$%%%%%%%%%%%%%**%%%%%%%%%%%%%%**%%%%%%%%%%%%%%**%%%%%%%%%%%%%$X",
"X$%%%%%%%%%%%%%**%%%%%%%%%%%%%%**%%%%%%%%%%%%%%**%%%%%%%%%%%%%$==$%%%%%%%%%%%%%**%%%%%%%%%%%%%%**%%%%%%%%%%%%%%**%%%%%%%%%%%%%$X",
"X$%%%%%%%%%%%%%**%%%%%%%%%%%%%%**%%%%%%%%%%%%%%**%%%%%%%%%%%%%$==$%%%%%%%%%%%%%**%%%%%%%%%%%%%%**%%%%%%%%%%%%%%**%%%%%%%%%%%%%$X",
"X$%%%%%%%%%%%%%**%%%%%%%%%%%%%%**%%%%%%%%%%%%%%**%%%%%%%%%%%%%$==$%%%%%%%%%%%%%**%%%%%%%%%%%%%%**%%%%%%%%%%%%%%**%%%%%%%%%%%%%$X",
"X$%%%%%%%%%%%%%**%%%%%%%%%%%%%%**%%%%%%%%%%%%%%**%%%%%%%%%%%%%$==$%%%%%%%%%%%%%**%%%%%%%%%%%%%%**%%%%%%%%%%%%%%**%%%%%%%%%%%%%$X",
"X$%%%%%%%%%%%%%-*%%%%%%%%%%%%%%-*%%%%%%%%%%%%%%-*%%%%%%%%%%%%%$==$%%%%%%%%%%%%%-*%%%%%%%%%%%%%%-*%%%%%%%%%%%%%%-*%%%%%%%%%%%%%$X",
"o%************-;;-************-;;-************-;;-************%::%************-;;-************-;;-************-;;-************%o",
"O%*************;>**************;>**************;>*************%:,%*************;>**************;>**************;>*************%O",
"X$%%%%%%%%%%%%%-*%%%%%%%%%%%%%%-*%%%%%%%%%%%%%%-*%%%%%%%%%%%%%$==$%%%%%%%%%%%%%-*%%%%%%%%%%%%%%-*%%%%%%%%%%%%%%-*%%%%%%%%%%%%%$X",
"X$%%%%%%%%%%%%%**%%%%%%%%%%%%%%**%%%%%%%%%%%%%%**%%%%%%%%%%%%%$==$%%%%%%%%%%%%%**%%%%%%%%%%%%%%**%%%%%%%%%%%%%%**%%%%%%%%%%%%%$X",
"X$%%%%%%%%%%%%%**%%%%%%%%%%%%%%**%%%%%%%%%%%%%%**%%%%%%%%%%%%%$==$%%%%%%%%%%%%%**%%%%%%%%%%%%%%**%%%%%%%%%%%%%%**%%%%%%%%%%%%%$X",
"X$%%%%%%%%%%%%%**%%%%%%%%%%%%%%**%%%%%%%%%%%%%%**%%%%%%%%%%%%%$==$%%%%%%%%%%%%%**%%%%%%%%%%%%%%**%%%%%%%%%%%%%%**%%%%%%%%%%%%%$X",
"X$%%%%%%%%%%%%%**%%%%%%%%%%%%%%**%%%%%%%%%%%%%%**%%%%%%%%%%%%%$==$%%%%%%%%%%%%%**%%%%%%%%%%%%%%**%%%%%%%%%%%%%%**%%%%%%%%%%%%%$X",
"X$%%%%%%%%%%%%%**%%%%%%%%%%%%%%**%%%%%%%%%%%%%%**%%%%%%%%%%%%%$==$%%%%%%%%%%%%%**%%%%%%%%%%%%%%**%%%%%%%%%%%%%%**%%%%%%%%%%%%%$X",
"X$%%%%%%%%%%%%%**%%%%%%%%%%%%%%**%%%%%%%%%%%%%%**%%%%%%%%%%%%%$==$%%%%%%%%%%%%%**%%%%%%%%%%%%%%**%%%%%%%%%%%%%%**%%%%%%%%%%%%%$X",
"X$%%%%%%%%%%%%%**%%%%%%%%%%%%%%**%%%%%%%%%%%%%%**%%%%%%%%%%%%%$==$%%%%%%%%%%%%%**%%%%%%%%%%%%%%**%%%%%%%%%%%%%%**%%%%%%%%%%%%%$X",
"X$%%%%%%%%%%%%%**%%%%%%%%%%%%%%**%%%%%%%%%%%%%%**%%%%%%%%%%%%%$==$%%%%%%%%%%%%%**%%%%%%%%%%%%%%**%%%%%%%%%%%%%%**%%%%%%%%%%%%%$X",
"X$%%%%%%%%%%%%%**%%%%%%%%%%%%%%**%%%%%%%%%%%%%%**%%%%%%%%%%%%%$==$%%%%%%%%%%%%%**%%%%%%%%%%%%%%**%%%%%%%%%%%%%%**%%%%%%%%%%%%%$X",
"X$%%%%%%%%%%%%%**%%%%%%%%%%%%%%**%%%%%%%%%%%%%%**%%%%%%%%%%%%%$==$%%%%%%%%%%%%%**%%%%%%%%%%%%%%**%%%%%%%%%%%%%%**%%%%%%%%%%%%%$X",
"X$%%%%%%%%%%%%%**%%%%%%%%%%%%%%**%%%%%%%%%%%%%%**%%%%%%%%%%%%%$==$%%%%%%%%%%%%%**%%%%%%%%%%%%%%**%%%%%%%%%%%%%%**%%%%%%%%%%%%%$X",
"X$%%%%%%%%%%%%%**%%%%%%%%%%%%%%**%%%%%%%%%%%%%%**%%%%%%%%%%%%%$==$%%%%%%%%%%%%%**%%%%%%%%%%%%%%**%%%%%%%%%%%%%%**%%%%%%%%%%%%%$X",
".#$$$$$$$$$$$$$%%$$$$$$$$$$$$$$%%$$$$$$$$$$$$$$%%$$$$$$$$$$$$$#&&#$$$$$$$$$$$$$%%$$$$$$$$$$$$$$%%$$$$$$$$$$$$$$%%$$$$$$$$$$$$$#.",
" .XXXXXXXXXXXXXoOXXXXXXXXXXXXXXoOXXXXXXXXXXXXXXoOXXXXXXXXXXXXX.+@.XXXXXXXXXXXXXoOXXXXXXXXXXXXXXoOXXXXXXXXXXXXXXoOXXXXXXXXXXXXX. "
};
