/* XPM */
static char *fecf9978a433490cbd552b6089dc181c1OffBh001WEVMea7[] = {
/* columns rows colors chars-per-pixel */
"128 128 25 1 ",
"  c #FFB55C",
". c #FFA230",
"X c #FFA231",
"o c #FFA232",
"O c #FFA435",
"+ c #FFA436",
"@ c #FFA940",
"# c DarkOrange",
"$ c #FF8B00",
"% c #FF8D02",
"& c #FF8C01",
"* c #FF920E",
"= c #FF8E04",
"- c #FF8D01",
"; c #FF930F",
": c #FF8D03",
"> c #FF8F08",
", c #FF9008",
"< c #FF9310",
"1 c #FF9009",
"2 c #FF9311",
"3 c #FF9515",
"4 c #FF9615",
"5 c #FF9A20",
"6 c white",
/* pixels */
" ..............Xo.............XO+X.............Xo.............X@@X.............Xo.............XO+X.............Xo.............. ",
".#$$$$$$$$$$$$$##$$$$$$$$$$$$$%&&%$$$$$$$$$$$$$##$$$$$$$$$$$$$&**&$$$$$$$$$$$$$##$$$$$$$$$$$$$%&&%$$$$$$$$$$$$$##$$$$$$$$$$$$$#.",
".#=&###########%%###########&=&-%&=&###########%%###########&=#*;#=&###########%%###########&=&-%&=&###########%%###########&=#.",
".$-=&##########%%##########&=-#%%#-=&##########%%##########&=-#*;#-=&##########%%##########&=-#%%#-=&##########%%##########&=-$.",
".$#-=&#########%%#########&=-##%%##-=&#########%%#########&=-##*;##-=&#########%%#########&=-##%%##-=&#########%%#########&=-#$.",
".$##-=&########%%########&=-###%%###-=&########%%########&=-###*;###-=&########%%########&=-###%%###-=&########%%########&=-##$.",
".$###-=&#######%%#######&=-####%%####-=&#######%%#######&=-####*;####-=&#######%%#######&=-####%%####-=&#######%%#######&=-###$.",
".$####-=&######%%######&=-#####%%#####-=&######%%######&=-#####*;#####-=&######%%######&=-#####%%#####-=&######%%######&=-####$.",
".$#####-=&#####%%#####&=-######%%######-=&#####%%#####&=-######*;######-=&#####%%#####&=-######%%######-=&#####%%#####&=-#####$.",
".$######-=&####%%####&=-#######%%#######-=&####%%####&=-#######*;#######-=&####%%####&=-#######%%#######-=&####%%####&=-######$.",
".$#######-=&###%%###&=-########%%########-=&###%%###&=-########*;########-=&###%%###&=-########%%########-=&###%%###&=-#######$.",
".$########-=&##%%##&=-#########%%#########-=&##%%##&=-#########*;#########-=&##%%##&=-#########%%#########-=&##%%##&=-########$.",
".$#########-=&#%%#&=-##########%%##########-=&#%%#&=-##########*;##########-=&#%%#&=-##########%%##########-=&#%%#&=-#########$.",
".$##########-=&-%&=-###########%%###########-=&-%&=-###########*;###########-=&-%&=-###########%%###########-=&-%&=-##########$.",
".$###########&=%:=&############-%############&=%:=&############*;############&=%:=&############-%############&=%:=&###########$.",
"X#%%%%%%%%%%%-%>,%-%%%%%%%%%%%-::-%%%%%%%%%%%-%>,%-%%%%%%%%%%%&<<&%%%%%%%%%%%-%>,%-%%%%%%%%%%%-::-%%%%%%%%%%%-%>,%-%%%%%%%%%%%#X",
"o#%%%%%%%%%%%%:11:%%%%%%%%%%%%%:=%%%%%%%%%%%%%:11:%%%%%%%%%%%%&<2&%%%%%%%%%%%%:11:%%%%%%%%%%%%%:=%%%%%%%%%%%%%:11:%%%%%%%%%%%%#o",
".$###########&=%:=&############-%############&=%:=&############*;############&=%:=&############-%############&=%:=&###########$.",
".$##########&=&-%&=&###########%%###########&=&-%&=&###########*;###########&=&-%&=&###########%%###########&=&-%&=&##########$.",
".$#########&=-#%%#-=&##########%%##########&=-#%%#-=&##########*;##########&=-#%%#-=&##########%%##########&=-#%%#-=&#########$.",
".$########&=-##%%##-=&#########%%#########&=-##%%##-=&#########*;#########&=-##%%##-=&#########%%#########&=-##%%##-=&########$.",
".$#######&=-###%%###-=&########%%########&=-###%%###-=&########*;########&=-###%%###-=&########%%########&=-###%%###-=&#######$.",
".$######&=-####%%####-=&#######%%#######&=-####%%####-=&#######*;#######&=-####%%####-=&#######%%#######&=-####%%####-=&######$.",
".$#####&=-#####%%#####-=&######%%######&=-#####%%#####-=&######*;######&=-#####%%#####-=&######%%######&=-#####%%#####-=&#####$.",
".$####&=-######%%######-=&#####%%#####&=-######%%######-=&#####*;#####&=-######%%######-=&#####%%#####&=-######%%######-=&####$.",
".$###&=-#######%%#######-=&####%%####&=-#######%%#######-=&####*;####&=-#######%%#######-=&####%%####&=-#######%%#######-=&###$.",
".$##&=-########%%########-=&###%%###&=-########%%########-=&###*;###&=-########%%########-=&###%%###&=-########%%########-=&##$.",
".$#&=-#########%%#########-=&##%%##&=-#########%%#########-=&##*;##&=-#########%%#########-=&##%%##&=-#########%%#########-=&#$.",
".$&=-##########%%##########-=&#%%#&=-##########%%##########-=&#*;#&=-##########%%##########-=&#%%#&=-##########%%##########-=&$.",
".$=-###########%%###########-=&-%&=-###########%%###########-=#*;#=-###########%%###########-=&-%&=-###########%%###########-=$.",
"X%&############-%############&=%:=&############-%############&:;<:&############-%############&=%:=&############-%############&%X",
"O&-%%%%%%%%%%%-::-%%%%%%%%%%%-%>,%-%%%%%%%%%%%-::-%%%%%%%%%%%-%33%-%%%%%%%%%%%-::-%%%%%%%%%%%-%>,%-%%%%%%%%%%%-::-%%%%%%%%%%%-&O",
"+&%%%%%%%%%%%%%:=%%%%%%%%%%%%%:11:%%%%%%%%%%%%%:=%%%%%%%%%%%%%%34%%%%%%%%%%%%%%:=%%%%%%%%%%%%%:11:%%%%%%%%%%%%%:=%%%%%%%%%%%%%&+",
"o%&############-%############&=%:=&############-%############&:;<:&############-%############&=%:=&############-%############&%o",
".#=&###########%%###########&=&-%&=&###########%%###########&=#*;#=&###########%%###########&=&-%&=&###########%%###########&=#.",
".$-=&##########%%##########&=-#%%#-=&##########%%##########&=-#*;#-=&##########%%##########&=-#%%#-=&##########%%##########&=-$.",
".$#-=&#########%%#########&=-##%%##-=&#########%%#########&=-##*;##-=&#########%%#########&=-##%%##-=&#########%%#########&=-#$.",
".$##-=&########%%########&=-###%%###-=&########%%########&=-###*;###-=&########%%########&=-###%%###-=&########%%########&=-##$.",
".$###-=&#######%%#######&=-####%%####-=&#######%%#######&=-####*;####-=&#######%%#######&=-####%%####-=&#######%%#######&=-###$.",
".$####-=&######%%######&=-#####%%#####-=&######%%######&=-#####*;#####-=&######%%######&=-#####%%#####-=&######%%######&=-####$.",
".$#####-=&#####%%#####&=-######%%######-=&#####%%#####&=-######*;######-=&#####%%#####&=-######%%######-=&#####%%#####&=-#####$.",
".$######-=&####%%####&=-#######%%#######-=&####%%####&=-#######*;#######-=&####%%####&=-#######%%#######-=&####%%####&=-######$.",
".$#######-=&###%%###&=-########%%########-=&###%%###&=-########*;########-=&###%%###&=-########%%########-=&###%%###&=-#######$.",
".$########-=&##%%##&=-#########%%#########-=&##%%##&=-#########*;#########-=&##%%##&=-#########%%#########-=&##%%##&=-########$.",
".$#########-=&#%%#&=-##########%%##########-=&#%%#&=-##########*;##########-=&#%%#&=-##########%%##########-=&#%%#&=-#########$.",
".$##########-=&-%&=-###########%%###########-=&-%&=-###########*;###########-=&-%&=-###########%%###########-=&-%&=-##########$.",
".$###########&=%:=&############-%############&=%:=&############*;############&=%:=&############-%############&=%:=&###########$.",
"X#%%%%%%%%%%%-%>,%-%%%%%%%%%%%-::-%%%%%%%%%%%-%>,%-%%%%%%%%%%%&<<&%%%%%%%%%%%-%>,%-%%%%%%%%%%%-::-%%%%%%%%%%%-%>,%-%%%%%%%%%%%#X",
"o#%%%%%%%%%%%%:11:%%%%%%%%%%%%%:=%%%%%%%%%%%%%:11:%%%%%%%%%%%%&<2&%%%%%%%%%%%%:11:%%%%%%%%%%%%%:=%%%%%%%%%%%%%:11:%%%%%%%%%%%%#o",
".$###########&=%:=&############-%############&=%:=&############*;############&=%:=&############-%############&=%:=&###########$.",
".$##########&=&-%&=&###########%%###########&=&-%&=&###########*;###########&=&-%&=&###########%%###########&=&-%&=&##########$.",
".$#########&=-#%%#-=&##########%%##########&=-#%%#-=&##########*;##########&=-#%%#-=&##########%%##########&=-#%%#-=&#########$.",
".$########&=-##%%##-=&#########%%#########&=-##%%##-=&#########*;#########&=-##%%##-=&#########%%#########&=-##%%##-=&########$.",
".$#######&=-###%%###-=&########%%########&=-###%%###-=&########*;########&=-###%%###-=&########%%########&=-###%%###-=&#######$.",
".$######&=-####%%####-=&#######%%#######&=-####%%####-=&#######*;#######&=-####%%####-=&#######%%#######&=-####%%####-=&######$.",
".$#####&=-#####%%#####-=&######%%######&=-#####%%#####-=&######*;######&=-#####%%#####-=&######%%######&=-#####%%#####-=&#####$.",
".$####&=-######%%######-=&#####%%#####&=-######%%######-=&#####*;#####&=-######%%######-=&#####%%#####&=-######%%######-=&####$.",
".$###&=-#######%%#######-=&####%%####&=-#######%%#######-=&####*;####&=-#######%%#######-=&####%%####&=-#######%%#######-=&###$.",
".$##&=-########%%########-=&###%%###&=-########%%########-=&###*;###&=-########%%########-=&###%%###&=-########%%########-=&##$.",
".$#&=-#########%%#########-=&##%%##&=-#########%%#########-=&##*;##&=-#########%%#########-=&##%%##&=-#########%%#########-=&#$.",
".$&=-##########%%##########-=&#%%#&=-##########%%##########-=&#*;#&=-##########%%##########-=&#%%#&=-##########%%##########-=&$.",
".$=-###########%%###########-=&-%&=-###########%%###########-=#*;#=-###########%%###########-=&-%&=-###########%%###########-=$.",
"X&#############&&#############:%%:#############&&#############%;;%#############&&#############:%%:#############&&#############&X",
"@**************<<*************;33;*************<<*************;55;*************<<*************;33;*************<<**************@",
"@*;;;;;;;;;;;;;<2;;;;;;;;;;;;;<34<;;;;;;;;;;;;;<2;;;;;;;;;;;;;;55;;;;;;;;;;;;;;<2;;;;;;;;;;;;;<34<;;;;;;;;;;;;;<2;;;;;;;;;;;;;*@",
"X&#############&&#############:%%:#############&&#############%;;%#############&&#############:%%:#############&&#############&X",
".#=&###########%%###########&=&-%&=&###########%%###########&=#*;#=&###########%%###########&=&-%&=&###########%%###########&=#.",
".$-=&##########%%##########&=-#%%#-=&##########%%##########&=-#*;#-=&##########%%##########&=-#%%#-=&##########%%##########&=-$.",
".$#-=&#########%%#########&=-##%%##-=&#########%%#########&=-##*;##-=&#########%%#########&=-##%%##-=&#########%%#########&=-#$.",
".$##-=&########%%########&=-###%%###-=&########%%########&=-###*;###-=&########%%########&=-###%%###-=&########%%########&=-##$.",
".$###-=&#######%%#######&=-####%%####-=&#######%%#######&=-####*;####-=&#######%%#######&=-####%%####-=&#######%%#######&=-###$.",
".$####-=&######%%######&=-#####%%#####-=&######%%######&=-#####*;#####-=&######%%######&=-#####%%#####-=&######%%######&=-####$.",
".$#####-=&#####%%#####&=-######%%######-=&#####%%#####&=-######*;######-=&#####%%#####&=-######%%######-=&#####%%#####&=-#####$.",
".$######-=&####%%####&=-#######%%#######-=&####%%####&=-#######*;#######-=&####%%####&=-#######%%#######-=&####%%####&=-######$.",
".$#######-=&###%%###&=-########%%########-=&###%%###&=-########*;########-=&###%%###&=-########%%########-=&###%%###&=-#######$.",
".$########-=&##%%##&=-#########%%#########-=&##%%##&=-#########*;#########-=&##%%##&=-#########%%#########-=&##%%##&=-########$.",
".$#########-=&#%%#&=-##########%%##########-=&#%%#&=-##########*;##########-=&#%%#&=-##########%%##########-=&#%%#&=-#########$.",
".$##########-=&-%&=-###########%%###########-=&-%&=-###########*;###########-=&-%&=-###########%%###########-=&-%&=-##########$.",
".$###########&=%:=&############-%############&=%:=&############*;############&=%:=&############-%############&=%:=&###########$.",
"X#%%%%%%%%%%%-%>,%-%%%%%%%%%%%-::-%%%%%%%%%%%-%>,%-%%%%%%%%%%%&<<&%%%%%%%%%%%-%>,%-%%%%%%%%%%%-::-%%%%%%%%%%%-%>,%-%%%%%%%%%%%#X",
"o#%%%%%%%%%%%%:11:%%%%%%%%%%%%%:=%%%%%%%%%%%%%:11:%%%%%%%%%%%%&<2&%%%%%%%%%%%%:11:%%%%%%%%%%%%%:=%%%%%%%%%%%%%:11:%%%%%%%%%%%%#o",
".$###########&=%:=&############-%############&=%:=&############*;############&=%:=&############-%############&=%:=&###########$.",
".$##########&=&-%&=&###########%%###########&=&-%&=&###########*;###########&=&-%&=&###########%%###########&=&-%&=&##########$.",
".$#########&=-#%%#-=&##########%%##########&=-#%%#-=&##########*;##########&=-#%%#-=&##########%%##########&=-#%%#-=&#########$.",
".$########&=-##%%##-=&#########%%#########&=-##%%##-=&#########*;#########&=-##%%##-=&#########%%#########&=-##%%##-=&########$.",
".$#######&=-###%%###-=&########%%########&=-###%%###-=&########*;########&=-###%%###-=&########%%########&=-###%%###-=&#######$.",
".$######&=-####%%####-=&#######%%#######&=-####%%####-=&#######*;#######&=-####%%####-=&#######%%#######&=-####%%####-=&######$.",
".$#####&=-#####%%#####-=&######%%######&=-#####%%#####-=&######*;######&=-#####%%#####-=&######%%######&=-#####%%#####-=&#####$.",
".$####&=-######%%######-=&#####%%#####&=-######%%######-=&#####*;#####&=-######%%######-=&#####%%#####&=-######%%######-=&####$.",
".$###&=-#######%%#######-=&####%%####&=-#######%%#######-=&####*;####&=-#######%%#######-=&####%%####&=-#######%%#######-=&###$.",
".$##&=-########%%########-=&###%%###&=-########%%########-=&###*;###&=-########%%########-=&###%%###&=-########%%########-=&##$.",
".$#&=-#########%%#########-=&##%%##&=-#########%%#########-=&##*;##&=-#########%%#########-=&##%%##&=-#########%%#########-=&#$.",
".$&=-##########%%##########-=&#%%#&=-##########%%##########-=&#*;#&=-##########%%##########-=&#%%#&=-##########%%##########-=&$.",
".$=-###########%%###########-=&-%&=-###########%%###########-=#*;#=-###########%%###########-=&-%&=-###########%%###########-=$.",
"X%&############-%############&=%:=&############-%############&:;<:&############-%############&=%:=&############-%############&%X",
"O&-%%%%%%%%%%%-::-%%%%%%%%%%%-%>,%-%%%%%%%%%%%-::-%%%%%%%%%%%-%33%-%%%%%%%%%%%-::-%%%%%%%%%%%-%>,%-%%%%%%%%%%%-::-%%%%%%%%%%%-&O",
"+&%%%%%%%%%%%%%:=%%%%%%%%%%%%%:11:%%%%%%%%%%%%%:=%%%%%%%%%%%%%%34%%%%%%%%%%%%%%:=%%%%%%%%%%%%%:11:%%%%%%%%%%%%%:=%%%%%%%%%%%%%&+",
"o%&############-%############&=%:=&############-%############&:;<:&############-%############&=%:=&############-%############&%o",
".#=&###########%%###########&=&-%&=&###########%%###########&=#*;#=&###########%%###########&=&-%&=&###########%%###########&=#.",
".$-=&##########%%##########&=-#%%#-=&##########%%##########&=-#*;#-=&##########%%##########&=-#%%#-=&##########%%##########&=-$.",
".$#-=&#########%%#########&=-##%%##-=&#########%%#########&=-##*;##-=&#########%%#########&=-##%%##-=&#########%%#########&=-#$.",
".$##-=&########%%########&=-###%%###-=&########%%########&=-###*;###-=&########%%########&=-###%%###-=&########%%########&=-##$.",
".$###-=&#######%%#######&=-####%%####-=&#######%%#######&=-####*;####-=&#######%%#######&=-####%%####-=&#######%%#######&=-###$.",
".$####-=&######%%######&=-#####%%#####-=&######%%######&=-#####*;#####-=&######%%######&=-#####%%#####-=&######%%######&=-####$.",
".$#####-=&#####%%#####&=-######%%######-=&#####%%#####&=-######*;######-=&#####%%#####&=-######%%######-=&#####%%#####&=-#####$.",
".$######-=&####%%####&=-#######%%#######-=&####%%####&=-#######*;#######-=&####%%####&=-#######%%#######-=&####%%####&=-######$.",
".$#######-=&###%%###&=-########%%########-=&###%%###&=-########*;########-=&###%%###&=-########%%########-=&###%%###&=-#######$.",
".$########-=&##%%##&=-#########%%#########-=&##%%##&=-#########*;#########-=&##%%##&=-#########%%#########-=&##%%##&=-########$.",
".$#########-=&#%%#&=-##########%%##########-=&#%%#&=-##########*;##########-=&#%%#&=-##########%%##########-=&#%%#&=-#########$.",
".$##########-=&-%&=-###########%%###########-=&-%&=-###########*;###########-=&-%&=-###########%%###########-=&-%&=-##########$.",
".$###########&=%:=&############-%############&=%:=&############*;############&=%:=&############-%############&=%:=&###########$.",
"X#%%%%%%%%%%%-%>,%-%%%%%%%%%%%-::-%%%%%%%%%%%-%>,%-%%%%%%%%%%%&<<&%%%%%%%%%%%-%>,%-%%%%%%%%%%%-::-%%%%%%%%%%%-%>,%-%%%%%%%%%%%#X",
"o#%%%%%%%%%%%%:11:%%%%%%%%%%%%%:=%%%%%%%%%%%%%:11:%%%%%%%%%%%%&<2&%%%%%%%%%%%%:11:%%%%%%%%%%%%%:=%%%%%%%%%%%%%:11:%%%%%%%%%%%%#o",
".$###########&=%:=&############-%############&=%:=&############*;############&=%:=&############-%############&=%:=&###########$.",
".$##########&=&-%&=&###########%%###########&=&-%&=&###########*;###########&=&-%&=&###########%%###########&=&-%&=&##########$.",
".$#########&=-#%%#-=&##########%%##########&=-#%%#-=&##########*;##########&=-#%%#-=&##########%%##########&=-#%%#-=&#########$.",
".$########&=-##%%##-=&#########%%#########&=-##%%##-=&#########*;#########&=-##%%##-=&#########%%#########&=-##%%##-=&########$.",
".$#######&=-###%%###-=&########%%########&=-###%%###-=&########*;########&=-###%%###-=&########%%########&=-###%%###-=&#######$.",
".$######&=-####%%####-=&#######%%#######&=-####%%####-=&#######*;#######&=-####%%####-=&#######%%#######&=-####%%####-=&######$.",
".$#####&=-#####%%#####-=&######%%######&=-#####%%#####-=&######*;######&=-#####%%#####-=&######%%######&=-#####%%#####-=&#####$.",
".$####&=-######%%######-=&#####%%#####&=-######%%######-=&#####*;#####&=-######%%######-=&#####%%#####&=-######%%######-=&####$.",
".$###&=-#######%%#######-=&####%%####&=-#######%%#######-=&####*;####&=-#######%%#######-=&####%%####&=-#######%%#######-=&###$.",
".$##&=-########%%########-=&###%%###&=-########%%########-=&###*;###&=-########%%########-=&###%%###&=-########%%########-=&##$.",
".$#&=-#########%%#########-=&##%%##&=-#########%%#########-=&##*;##&=-#########%%#########-=&##%%##&=-#########%%#########-=&#$.",
".$&=-##########%%##########-=&#%%#&=-##########%%##########-=&#*;#&=-##########%%##########-=&#%%#&=-##########%%##########-=&$.",
".$=-###########%%###########-=&-%&=-###########%%###########-=#*;#=-###########%%###########-=&-%&=-###########%%###########-=$.",
".##$$$$$$$$$$$$##$$$$$$$$$$$$#%#&%#$$$$$$$$$$$$##$$$$$$$$$$$$#&**&#$$$$$$$$$$$$##$$$$$$$$$$$$#%#&%#$$$$$$$$$$$$##$$$$$$$$$$$$##.",
" ..............Xo.............oO+o.............Xo.............X@@X.............Xo.............oO+o.............Xo.............. "
};
