/* XPM */
static char *_f0516e9357141cfb35de5733f1a1ab6s27ip2CslhMW9zqS[] = {
/* columns rows colors chars-per-pixel */
"128 128 47 1 ",
"  c #FFBD6C",
". c #FFA435",
"X c #FFA230",
"o c #FFA231",
"O c #FFA232",
"+ c #FFA436",
"@ c #FFA537",
"# c #FFA130",
"$ c #FFA536",
"% c #FFB050",
"& c #FF9411",
"* c #FF8D03",
"= c #FF8B00",
"- c DarkOrange",
"; c #FF8E05",
": c #FF8F07",
"> c #FF8E04",
", c #FF9412",
"< c #FF9413",
"1 c #FF9615",
"2 c #FF8D02",
"3 c #FF9009",
"4 c #FF8F06",
"5 c #FF920E",
"6 c #FF930F",
"7 c #FF8C01",
"8 c #FF8D01",
"9 c #FF8F08",
"0 c #FF9718",
"q c #FF9008",
"w c #FF910A",
"e c #FF9719",
"r c #FF9310",
"t c #FF910B",
"y c #FF9311",
"u c #FF9515",
"i c #FF920D",
"p c #FF9514",
"a c #FF910C",
"s c #FF9D26",
"d c #FF9E28",
"f c #FF9F2A",
"g c #FF9617",
"h c #FF9513",
"j c #FFA334",
"k c #FFB04F",
"l c white",
/* pixels */
" .XXXXXXXXXXXXXoOXXXXXXXXXXXXXX+@XXXXXXXXXXXXXXoOXXXXXXXXXXXX#$%%+XXXXXXXXXXXXXoOXXXXXXXXXXXXXX+@XXXXXXXXXXXXXXoOXXXXXXXXXXXX#. ",
".&*============--==============;:==============--============>,,<,*============--==============;:==============--============>&.",
"#>1;-----------22--------------:3--------------22-----------41>55;1;-----------22--------------:3--------------22-----------41*X",
"X=41;----------22--------------:3--------------22----------41;=56=41;----------22--------------:3--------------22----------41;=X",
"X=-41;---------22--------------:3--------------22---------41;--56--41;---------22--------------:3--------------22---------41;-=X",
"X=--41;--------22--------------:3--------------22--------41;---56---41;--------22--------------:3--------------22--------41;--=X",
"X=---41;-------22--------------:3--------------22-------41;----56----41;-------22--------------:3--------------22-------41;---=X",
"X=----41;------22--------------:3--------------22------41;-----56-----41;------22--------------:3--------------22------41;----=X",
"X=-----41;-----22--------------:3--------------22-----41;------56------41;-----22--------------:3--------------22-----41;-----=X",
"X=------41;----22--------------:3--------------22----41;-------56-------41;----22--------------:3--------------22----41;------=X",
"X=-------41;---22--------------:3--------------22---41;--------56--------41;---22--------------:3--------------22---41;-------=X",
"X=--------41;--22--------------:3--------------22--41;---------56---------41;--22--------------:3--------------22--41;--------=X",
"X=---------41;-22--------------:3--------------22-41;----------56----------41;-22--------------:3--------------22-41;---------=X",
"X=----------41;72--------------:3--------------2841;-----------56-----------41;72--------------:3--------------2841;----------=X",
"X=-----------41:8--------------:3--------------791;------------56------------41:8--------------:3--------------791;-----------=X",
"o-222222222227:0372222222222227qw72222222222227qe:7222222222227rr7222222222227:0372222222222227qw72222222222227qe:722222222222-o",
"O-22222222222283e:82222222222223t8222222222228:e382222222222227ry722222222222283e:82222222222223t8222222222228:e38222222222222-O",
"X=-------------791;------------:3------------;1:8--------------56--------------791;------------:3------------;1:8-------------=X",
"X=-------------2841;-----------:3-----------;1472--------------56--------------2841;-----------:3-----------;1472-------------=X",
"X=-------------22-41;----------:3----------;14-22--------------56--------------22-41;----------:3----------;14-22-------------=X",
"X=-------------22--41;---------:3---------;14--22--------------56--------------22--41;---------:3---------;14--22-------------=X",
"X=-------------22---41;--------:3--------;14---22--------------56--------------22---41;--------:3--------;14---22-------------=X",
"X=-------------22----41;-------:3-------;14----22--------------56--------------22----41;-------:3-------;14----22-------------=X",
"X=-------------22-----41;------:3------;14-----22--------------56--------------22-----41;------:3------;14-----22-------------=X",
"X=-------------22------41;-----:3-----;14------22--------------56--------------22------41;-----:3-----;14------22-------------=X",
"X=-------------22-------41;----:3----;14-------22--------------56--------------22-------41;----:3----;14-------22-------------=X",
"X=-------------22--------41;---:3---;14--------22--------------56--------------22--------41;---:3---;14--------22-------------=X",
"X=-------------22---------41;--:3--;14---------22--------------56--------------22---------41;--:3--;14---------22-------------=X",
"X=-------------22----------41;-:3-;14----------22--------------56--------------22----------41;-:3-;14----------22-------------=X",
"X=-------------22-----------41;4q;14-----------22--------------56--------------22-----------41;4q;14-----------22-------------=X",
"X=-------------72------------;utip;------------72-------------=55=-------------72------------;utip;------------72-------------=X",
"+;:::::::::::::q3::::::::::::4asda4::::::::::::q3:::::::::::::4uu4:::::::::::::q3::::::::::::4asda4::::::::::::q3:::::::::::::;+",
"@:3333333333333wt333333333333qidfiq333333333333wt3333333333333qggq3333333333333wt333333333333qidfiq333333333333wt3333333333333:@",
"X=-------------78------------;pa5p;------------78-------------=55=-------------78------------;pa5p;------------78-------------=X",
"X=-------------22-----------;1;4q;1;-----------22--------------56--------------22-----------;1;4q;1;-----------22-------------=X",
"X=-------------22----------;14-:3-41;----------22--------------56--------------22----------;14-:3-41;----------22-------------=X",
"X=-------------22---------;14--:3--41;---------22--------------56--------------22---------;14--:3--41;---------22-------------=X",
"X=-------------22--------;14---:3---41;--------22--------------56--------------22--------;14---:3---41;--------22-------------=X",
"X=-------------22-------;14----:3----41;-------22--------------56--------------22-------;14----:3----41;-------22-------------=X",
"X=-------------22------;14-----:3-----41;------22--------------56--------------22------;14-----:3-----41;------22-------------=X",
"X=-------------22-----;14------:3------41;-----22--------------56--------------22-----;14------:3------41;-----22-------------=X",
"X=-------------22----;14-------:3-------41;----22--------------56--------------22----;14-------:3-------41;----22-------------=X",
"X=-------------22---;14--------:3--------41;---22--------------56--------------22---;14--------:3--------41;---22-------------=X",
"X=-------------22--;14---------:3---------41;--22--------------56--------------22--;14---------:3---------41;--22-------------=X",
"X=-------------22-;14----------:3----------41;-22--------------56--------------22-;14----------:3----------41;-22-------------=X",
"X=-------------28;14-----------:3-----------41;72--------------56--------------28;14-----------:3-----------41;72-------------=X",
"X=-------------7:14------------:3------------41:8--------------56--------------7:14------------:3------------41:8-------------=X",
"o-2222222222227qe:7222222222227qw7222222222227:0372222222222227rr72222222222227qe:7222222222227qw7222222222227:037222222222222-o",
"O-222222222228:e3822222222222223t822222222222283e:8222222222227ry7222222222228:e3822222222222223t822222222222283e:822222222222-O",
"X=-----------;1:8--------------:3--------------791;------------56------------;1:8--------------:3--------------791;-----------=X",
"X=----------;1472--------------:3--------------2841;-----------56-----------;1472--------------:3--------------2841;----------=X",
"X=---------;14-22--------------:3--------------22-41;----------56----------;14-22--------------:3--------------22-41;---------=X",
"X=--------;14--22--------------:3--------------22--41;---------56---------;14--22--------------:3--------------22--41;--------=X",
"X=-------;14---22--------------:3--------------22---41;--------56--------;14---22--------------:3--------------22---41;-------=X",
"X=------;14----22--------------:3--------------22----41;-------56-------;14----22--------------:3--------------22----41;------=X",
"X=-----;14-----22--------------:3--------------22-----41;------56------;14-----22--------------:3--------------22-----41;-----=X",
"X=----;14------22--------------:3--------------22------41;-----56-----;14------22--------------:3--------------22------41;----=X",
"X=---;14-------22--------------:3--------------22-------41;----56----;14-------22--------------:3--------------22-------41;---=X",
"X=--;14--------22--------------:3--------------22--------41;---56---;14--------22--------------:3--------------22--------41;--=X",
"X=-;14---------22--------------:3--------------22---------41;--56--;14---------22--------------:3--------------22---------41;-=X",
"X=;14----------22--------------:3--------------22----------41;=56=;14----------22--------------:3--------------22----------41;=X",
"X*14-----------22--------------:3--------------22-----------41>55>14-----------22--------------:3--------------22-----------41*X",
"+,;=-----------77-------------=4q=-------------77-----------=;p<<p;=-----------77-------------=4q=-------------77-----------=;,+",
"%,5555555555555rr55555555555555ug55555555555555rr5555555555555hjjh5555555555555rr55555555555555ug55555555555555rr5555555555555,%",
"%,5666666666666ry66666666666665ug56666666666666ry6666666666665hjj<5666666666666ry66666666666665ug56666666666666ry6666666666665<%",
"$,>=-----------77-------------=4q=-------------77-----------=;p<hp>=-----------77-------------=4q=-------------77-----------=;,+",
"#>1;-----------22--------------:3--------------22-----------41>55;1;-----------22--------------:3--------------22-----------41*X",
"X=41;----------22--------------:3--------------22----------41;=56=41;----------22--------------:3--------------22----------41;=X",
"X=-41;---------22--------------:3--------------22---------41;--56--41;---------22--------------:3--------------22---------41;-=X",
"X=--41;--------22--------------:3--------------22--------41;---56---41;--------22--------------:3--------------22--------41;--=X",
"X=---41;-------22--------------:3--------------22-------41;----56----41;-------22--------------:3--------------22-------41;---=X",
"X=----41;------22--------------:3--------------22------41;-----56-----41;------22--------------:3--------------22------41;----=X",
"X=-----41;-----22--------------:3--------------22-----41;------56------41;-----22--------------:3--------------22-----41;-----=X",
"X=------41;----22--------------:3--------------22----41;-------56-------41;----22--------------:3--------------22----41;------=X",
"X=-------41;---22--------------:3--------------22---41;--------56--------41;---22--------------:3--------------22---41;-------=X",
"X=--------41;--22--------------:3--------------22--41;---------56---------41;--22--------------:3--------------22--41;--------=X",
"X=---------41;-22--------------:3--------------22-41;----------56----------41;-22--------------:3--------------22-41;---------=X",
"X=----------41;72--------------:3--------------2841;-----------56-----------41;72--------------:3--------------2841;----------=X",
"X=-----------41:8--------------:3--------------791;------------56------------41:8--------------:3--------------791;-----------=X",
"o-222222222227:0372222222222227qw72222222222227qe:7222222222227rr7222222222227:0372222222222227qw72222222222227qe:722222222222-o",
"O-22222222222283e:82222222222223t8222222222228:e382222222222227ry722222222222283e:82222222222223t8222222222228:e38222222222222-O",
"X=-------------791;------------:3------------;1:8--------------56--------------791;------------:3------------;1:8-------------=X",
"X=-------------2841;-----------:3-----------;1472--------------56--------------2841;-----------:3-----------;1472-------------=X",
"X=-------------22-41;----------:3----------;14-22--------------56--------------22-41;----------:3----------;14-22-------------=X",
"X=-------------22--41;---------:3---------;14--22--------------56--------------22--41;---------:3---------;14--22-------------=X",
"X=-------------22---41;--------:3--------;14---22--------------56--------------22---41;--------:3--------;14---22-------------=X",
"X=-------------22----41;-------:3-------;14----22--------------56--------------22----41;-------:3-------;14----22-------------=X",
"X=-------------22-----41;------:3------;14-----22--------------56--------------22-----41;------:3------;14-----22-------------=X",
"X=-------------22------41;-----:3-----;14------22--------------56--------------22------41;-----:3-----;14------22-------------=X",
"X=-------------22-------41;----:3----;14-------22--------------56--------------22-------41;----:3----;14-------22-------------=X",
"X=-------------22--------41;---:3---;14--------22--------------56--------------22--------41;---:3---;14--------22-------------=X",
"X=-------------22---------41;--:3--;14---------22--------------56--------------22---------41;--:3--;14---------22-------------=X",
"X=-------------22----------41;-:3-;14----------22--------------56--------------22----------41;-:3-;14----------22-------------=X",
"X=-------------22-----------41;4q;14-----------22--------------56--------------22-----------41;4q;14-----------22-------------=X",
"X=-------------72------------;utip;------------72-------------=55=-------------72------------;utip;------------72-------------=X",
"+;:::::::::::::q3::::::::::::4asda4::::::::::::q3:::::::::::::4uu4:::::::::::::q3::::::::::::4asda4::::::::::::q3:::::::::::::;+",
"@:3333333333333wt333333333333qidfiq333333333333wt3333333333333qggq3333333333333wt333333333333qidfiq333333333333wt3333333333333:@",
"X=-------------78------------;pa5p;------------78-------------=55=-------------78------------;pa5p;------------78-------------=X",
"X=-------------22-----------;1;4q;1;-----------22--------------56--------------22-----------;1;4q;1;-----------22-------------=X",
"X=-------------22----------;14-:3-41;----------22--------------56--------------22----------;14-:3-41;----------22-------------=X",
"X=-------------22---------;14--:3--41;---------22--------------56--------------22---------;14--:3--41;---------22-------------=X",
"X=-------------22--------;14---:3---41;--------22--------------56--------------22--------;14---:3---41;--------22-------------=X",
"X=-------------22-------;14----:3----41;-------22--------------56--------------22-------;14----:3----41;-------22-------------=X",
"X=-------------22------;14-----:3-----41;------22--------------56--------------22------;14-----:3-----41;------22-------------=X",
"X=-------------22-----;14------:3------41;-----22--------------56--------------22-----;14------:3------41;-----22-------------=X",
"X=-------------22----;14-------:3-------41;----22--------------56--------------22----;14-------:3-------41;----22-------------=X",
"X=-------------22---;14--------:3--------41;---22--------------56--------------22---;14--------:3--------41;---22-------------=X",
"X=-------------22--;14---------:3---------41;--22--------------56--------------22--;14---------:3---------41;--22-------------=X",
"X=-------------22-;14----------:3----------41;-22--------------56--------------22-;14----------:3----------41;-22-------------=X",
"X=-------------28;14-----------:3-----------41;72--------------56--------------28;14-----------:3-----------41;72-------------=X",
"X=-------------7:14------------:3------------41:8--------------56--------------7:14------------:3------------41:8-------------=X",
"o-2222222222227qe:7222222222227qw7222222222227:0372222222222227rr72222222222227qe:7222222222227qw7222222222227:037222222222222-o",
"O-222222222228:e3822222222222223t822222222222283e:8222222222227ry7222222222228:e3822222222222223t822222222222283e:822222222222-O",
"X=-----------;1:8--------------:3--------------791;------------56------------;1:8--------------:3--------------791;-----------=X",
"X=----------;1472--------------:3--------------2841;-----------56-----------;1472--------------:3--------------2841;----------=X",
"X=---------;14-22--------------:3--------------22-41;----------56----------;14-22--------------:3--------------22-41;---------=X",
"X=--------;14--22--------------:3--------------22--41;---------56---------;14--22--------------:3--------------22--41;--------=X",
"X=-------;14---22--------------:3--------------22---41;--------56--------;14---22--------------:3--------------22---41;-------=X",
"X=------;14----22--------------:3--------------22----41;-------56-------;14----22--------------:3--------------22----41;------=X",
"X=-----;14-----22--------------:3--------------22-----41;------56------;14-----22--------------:3--------------22-----41;-----=X",
"X=----;14------22--------------:3--------------22------41;-----56-----;14------22--------------:3--------------22------41;----=X",
"X=---;14-------22--------------:3--------------22-------41;----56----;14-------22--------------:3--------------22-------41;---=X",
"X=--;14--------22--------------:3--------------22--------41;---56---;14--------22--------------:3--------------22--------41;--=X",
"X=-;14---------22--------------:3--------------22---------41;--56--;14---------22--------------:3--------------22---------41;-=X",
"X=;14----------22--------------:3--------------22----------41;=56=;14----------22--------------:3--------------22----------41;=X",
"X*14-----------22--------------:3--------------22-----------41>55>14-----------22--------------:3--------------22-----------41*X",
".&>============--==============;:==============--============>,,,,>============--==============;:==============--============>&.",
" .#XXXXXXXXXXXXoOXXXXXXXXXXXXXX+@XXXXXXXXXXXXXXoOXXXXXXXXXXXX#$k%$#XXXXXXXXXXXXoOXXXXXXXXXXXXXX+@XXXXXXXXXXXXXXoOXXXXXXXXXXXX#. "
};
