/* XPM */
static char *result[] = {
/* columns rows colors chars-per-pixel */
"128 128 24 1 ",
"  c #FE5622",
". c #FF5622",
"X c #FE5722",
"o c #FF5722",
"O c #FE5623",
"+ c #FF5623",
"@ c #FE5723",
"# c #FF5723",
"$ c #F44236",
"% c #F54236",
"& c #F44336",
"* c #F54336",
"= c #F44237",
"- c #F54237",
"; c #F44337",
": c #F54337",
"> c #EAEAEA",
", c #EBEAEA",
"< c #EAEBEA",
"1 c #EBEBEA",
"2 c #EAEAEB",
"3 c #EBEAEB",
"4 c #EAEBEB",
"5 c gray92",
/* pixels */
"21424<>4,,1<511><5<155,2435131<,<,<1>>3,,>>3,,3,>,53<,22,>545551>>4,52314,1233><<>,>2,431,45,4,31<25<443,4,,<51141>,12,2,2313113",
"44,53>1,425<5<54<5,411,4,55,35><>1454443<4,,14,,,44113<,,23253514>15<544451>>><2123>5>52,>22,3,<>55<<>13,2<2<32>3411<2,513>>3,13",
"35%&%:%$-&-:-$%=$;$*-&:::*&&=%%*$;:;:*;&:&;&***;;%$=$:-&$&%:*:4>1@++o+oX@OX @@@OO @+@+Xo X@..XXo Xo o@OO+## XXX+o+o#@#.O OooO 43",
",5*%::&;=&%:*::%-=:;:$=-=$-%-;*;$;%=:-:$-=$=$*$;---=:&=*$-:-$&35>+@ OOOX++oo#X o#+#OXo@+.O.@+ .+XOo@O@#ooXO.+OO@.OX#@oO#.oo@Xo51",
"<2=%*$%$*;==-;*$$;&=::*::$:-=**%:-$==$%$;;:==:*;-&--;*:;;:*&;;<22 O .+@ ### #.oO++o@oXX.+O XO#.X.O#@.+X+.@ o@+@OX+ #O#+++#++o 5>",
"24:==-$%=;*;%;-&:;;-:*:&;*$-*==$*$&$;;$***:;::*;;$=**%%-&-=:$-<4,@X#.oX#+O#o#.X#O# #OO @@XO+.@  oO#o##O+@++O#.oo#@#@#.X#  #X#o2<",
">5%*=-$;-&;:$$*;::%&$:**:-&;&*=**&%==%*%*;:;-%$=$=&%:*&&;&%*%$,43OX@XXo O X#X+@ .XX X@@  .O@X+@@oX.#..@##+ @X# . o#  O##. @+#+4,",
",,-;$=&-&$=-;=*=%-=:&:-$%=*&;$$:*$$:;;&&&==$&$:*;=;&;;$:;-*$=&>3,X X+@.+...  # .O+##@@XX#@.++. @@ oX#@o#ooo#@+#@ #.O#@OXOX .@.>4",
",5%:-=;*$;&-%;*-;%---$$:$$-*==:%-=&--%&:%$;$&---&%:%::%%::$$**31<@O++O+oo#  X..o.+. +#.X#o@O @ X.o#+@@# X+o X#@#oO.#XOOO@++ O.3>",
"5<%;-&$*&*;=**=&**=*;-:*$-;$*&%=;-:*;;--*$*;-:&$$&%:=-*%&&**=:41>.O#@O+X o ###..oX @#.+#  +XXo@# o+O. +#ooo. XO#oo@#.@. O+oX.@33",
">2%-&*&;-%%:-;::%*%::&=-*%&;$:&&%$:$*&%=$:*&;$=%-&$%-*$:=$%*:-<<1..o++O.X.##  oX#O+Xo +X@@##.X.O@.#XO Oo#X#X#@+@ o@.o@. o#X#X+,5",
",1$&&=;-*=;;-&-:=%--;$$-:&*:::-%*=-;&**%=;&$:--:;$$&;&*:$*%%%-1,5##++O. .+O@@o@oX#O.+#.@OOo@ @o+####+X@O oo@@ #@X#+O##o .#O.O@2>",
"4,*-%;;$:;$:%=-:&*;%$-&:=;-:%*&-%*=:$$$-%==:$&%=:&%:$=:;&-*:;%><3@oX.XO+@OoXOO+@oOXo #.+o#O+@@O  OX.#X+oO#++O.Oo.O +O#Xo@@X.#X13",
"2<;*&$%;-&-:&====$*%*=:-=&&--=$=-%%%&=&:;&*-=-&$-;$%*-;$%*%-;&5,5X@.X@@.+  XX+O+X X+#+o X+#O#XX . OOo.+##  # oo.@ooO o#@OO#X.@34",
"15=**$%;;-;;%%$$*;%=-$=*:$&%$=&**=:;=:&=$*%;=;;-=:=;:;::%&$&%&>1>X @o oo+o#@++@@@#XO+O@#.oooO@@Xooo.++.@.o#.+# OoO..O#@#X#O++O3,",
">,=&%&*&;--=%-*$=%%::%;&&%&;:;;&*&$&*$*;-&-;:-&*-&%$$-:;&;$:%;<<>XXOo.oXOO#OoO Xo.Xo.XOo@ X X#.#OX@Oo#XX +o@XoX#@ oXO#.#O +.X#12",
"4>%:%**=$==;*-&-=-$;;--%-*;-=$;*&%:*$;$*===*-=--&%%;=:*---=%&&>42X@X oX+Xo. oXoO+@+.+#X #Xo.@@.O@@++O@#. +OXO++X@Xo XX#Xo+ o.#,4",
"13&%*;=:%-&%%%$:*$;-*:;;$:-%==$===*%:=*-*=&:**%$%*&*%*$:&===%=2,<X++o##OO#O+#X.+O#.#o#X++o#.@@## O#.o@o.#@##O.#+O.oX.. @X.O. .55",
",5;$%**;-=%$-*=:;;-*$%%&$*:=;*=;=&*-&=&$&*$$;=*&*=*:&:-*-*::%*113@  @O@#.#o+..#@O ++ ..Oo+@  + +#X@o.  .X.+.oXOOoX.....OO.+X.X<4",
"<1%&:&$-*$%-;&%;*=:;%*$----$*;-&:*=$=*--$-$$*-;:&-$;;*%:;&$$%;4,>oo. + OO  +.oO OOX+ #+@o XX.OX.@ X @@X#++@O@ O#X@o+@#@#O. #o+,5",
"42-:$=$$--&&&:-%$%%;=%;$*&%$-&&&$&*:%&;=$$-$%-::$*&&*;%:%%$;%;1<4o X # @# +oo@ O#X#O#+@+ O# o@++# #Xo+Oo#O.#o@@ OX#OXOXXO++@+.43",
"33%*$-*-:%$%--;&=;;-&-&;=::*:&%-*%***=$*&*%$==&:::=%&=:=-;$$&-511o@XO+o.##o@#OOo+.OX.O.O.OX+oO++# +o  X## @+O@#+.OXX oO@.. +@ 11",
"52&-$&&:*;&*&&==:-$$&*$*%;-&-:&%%&:;*=*;=:-=:=-:*;=&$$$*%%&;%;12,OOo#@##+X+#@# o#o@o. ++ .O++.X@#O@+ .#O+@oOo#+#@XOOO.X.oOX.@X32",
"1>&%%=%:;=--$-=-$%:&*%%-%%-=$*$%-*$%%*&=&&*:*$-;*=;*;:$;;%%:$:,43X# ++O @.X@ @ @ ..#.. + #oo..o#@X Oo#ooOO##+OOXO. .#o.o#O X@o3,",
"4,=%=$%:*;-;$%::&;*;:;%$:%;=;=%%:;-:&-:*$;*$*&%;=$&&%*$===%:$:113oO+.##XX @.oooXOX#o+oO O@X+oO. .oX@oOX@  . o+@o#oOo.O+#..++#X13",
"5<%&*%;*-;&*;$%&;;&$-=:;*::%---$-$$&%*;-=%;&%;*:;%-&$%&*$-%*;;2><.O+@#o@+X#OO.@O@o..+##O...+#o @..@ O OO O+o..O.OO+# @ @+o@o+o>2",
">4$%--&=%=&::-&;-&&*&&&;&*:%$$-:----:$&&:*%;=;$=$*%--=-*-;&**$5,1@@O+#@+O#OXOX.. ++O +X#X.o .o#+Xo. .OOOOO..XO#+OOOX@oXoX+X #o,,",
"23=&:*=-**&&&;::&%-*&==--=;:*=$%*$:;;*=;$:&*&:$;;$%;*=-&;&-:&&144.#  #OX.OX@oX+@ #  Oo.+ ..Xoo+@  OOo.XX+X Oo. XoOX#OOOOo.o o@32",
"52%$&:&&-;&%$&=-=%=&--&::$-%&=<52;;-$-$$$&&==$-;-*=&;%:::$*&&&224o+. X.+O.O....OoXo#oOXo+.+oX.5<,#.oX @.#+O+ o.@O.o XoX#o##.@O31",
"45-$=;=%%$:$$&**;=&$&:-%=$=%%=3,5=;$-*&&;$$:::$==&;*:::-=;;;&$>22.##X O.#XXXXO X.o@oOX@O.#O++O<4, X.X# oo+# O#.#+##.oX#XO+..# 1,",
"4>$-$:&=;-$::&%&:&$$*-;-;;;-3435,4<&:$;;%=$%-:=&$*;:$-$&:::$&:4>5+O+o OXXOOX##@O.+.X.@O#.@o.>>2>>5,#O @. X.#+O oo O.XX#+...#@X<,",
"2>&::*:*%=:;=**%-*:=;-=*=$*:22443<4$$-;;;$==$*;&:--=&=;%;%;*;->>, oO . X# .X#Xo@O+.O@O@+.@@ 2133,<1O# +@  oX@O+O#+ @XX..OO#@Xo11",
"55&&&&&&&&&&&&&&&&&&&&&&&&&&5555555&&&&&&&&&&&&&&&&&&&&&&&&&&&555ooooooooooooooooooooooooooo5555555ooooooooooooooooooooooooooo55",
"55&&&&&&&&&&&&&&&&&&&&&&&&&&&&555&&&&&&&&&&&&&&&&&&&&&&&&&&&&&555ooooooooooooooooooooooooooooo555ooooooooooooooooooooooooooooo55",
"55&&&&&&&&&&&&&&&&&&&&&&&&&&&&555&&&&&&&&&&&&&&&&&&&&&&&&&&&&&555ooooooooooooooooooooooooooooo555ooooooooooooooooooooooooooooo55",
"55&&&&&&&&&&&&&&&&&&&&&&&&&&&&&&&&&&&&&&&&&&&&&&&&&&&&&&&&&&&&555ooooooooooooooooooooooooooooooooooooooooooooooooooooooooooooo55",
"55&&&&&&&&&&&&&&&&&&&&&&&&&&&&&&&&&&&&&&&&&&&&&&&&&&&&&&&&&&&&555ooooooooooooooooooooooooooooooooooooooooooooooooooooooooooooo55",
"55&&&&&&&&&&&&&&&&&&&&&&&&&&&&&&&&&&&&&&&&&&&&&&&&&&&&&&&&&&&&555ooooooooooooooooooooooooooooooooooooooooooooooooooooooooooooo55",
"55&&&&&&&&&&&&&&&&&&&&&&&&&&&&&&&&&&&&&&&&&&&&&&&&&&&&&&&&&&&&555ooooooooooooooooooooooooooooooooooooooooooooooooooooooooooooo55",
"55&&&&&&&&&&&&&&&&&&&&&&&&&&&&&&&&&&&&&&&&&&&&&&&&&&&&&&&&&&&&555ooooooooooooooooooooooooooooooooooooooooooooooooooooooooooooo55",
"55&&&&&&&&&&&&&&&&&&&&&&&&&&&&&&&&&&&&&&&&&&&&&&&&&&&&&&&&&&&&555ooooooooooooooooooooooooooooooooooooooooooooooooooooooooooooo55",
"55&&&&&&&&&&&&&&&&&&&&&&&&&&&&&&&&&&&&&&&&&&&&&&&&&&&&&&&&&&&&555ooooooooooooooooooooooooooooooooooooooooooooooooooooooooooooo55",
"55&&&&&&&&&&&&&&&&&&&&&&&&&&&&&&&&&&&&&&&&&&&&&&&&&&&&&&&&&&&&555ooooooooooooooooooooooooooooooooooooooooooooooooooooooooooooo55",
"55&&&&&&&&&&&&&&&&&&&&&&&&&&&&&&&&&&&&&&&&&&&&&&&&&&&&&&&&&&&&555ooooooooooooooooooooooooooooooooooooooooooooooooooooooooooooo55",
"55&&&&&&&&&&&&&&&&&&&&&&&&&&&&&&&&&&&&&&&&&&&&&&&&&&&&&&&&&&&&555ooooooooooooooooooooooooooooooooooooooooooooooooooooooooooooo55",
"55&&&&&&&&&&&&&&&&&&&&&&&&&&&&&&&&&&&&&&&&&&&&&&&&&&&&&&&&&&&&555ooooooooooooooooooooooooooooooooooooooooooooooooooooooooooooo55",
"55&&&&&&&&&&&&&&&&&&&&&&&&&&&&&&&&&&&&&&&&&&&&&&&&&&&&&&&&&&&&555ooooooooooooooooooooooooooooooooooooooooooooooooooooooooooooo55",
"55&&&&&&&&&&&&&&&&&&&&&&&&&&&&&&&&&&&&&&&&&&&&&&&&&&&&&&&&&&&&555ooooooooooooooooooooooooooooooooooooooooooooooooooooooooooooo55",
"55&&&&&&&&&&&&&&&&&&&&&&&&&&&&&&&&&&&&&&&&&&&&&&&&&&&&&&&&&&&&555ooooooooooooooooooooooooooooooooooooooooooooooooooooooooooooo55",
"55&&&&&&&&&&&&&&&&&&&&&&&&&&&&&&&&&&&&&&&&&&&&&&&&&&&&&&&&&&&&555ooooooooooooooooooooooooooooooooooooooooooooooooooooooooooooo55",
"55&&&&&&&&&&&&&&&&&&&&&&&&&&&&&&&&&&&&&&&&&&&&&&&&&&&&&&&&&&&&555ooooooooooooooooooooooooooooooooooooooooooooooooooooooooooooo55",
"55&&&&&&&&&&&&&&&&&&&&&&&&&&&&&&&&&&&&&&&&&&&&&&&&&&&&&&&&&&&&555ooooooooooooooooooooooooooooooooooooooooooooooooooooooooooooo55",
"55&&&&&&&&&&&&&&&&&&&&&&&&&&&&&&&&&&&&&&&&&&&&&&&&&&&&&&&&&&&&555ooooooooooooooooooooooooooooooooooooooooooooooooooooooooooooo55",
"55&&&&&&&&&&&&&&&&&&&&&&&&&&&&&&&&&&&&&&&&&&&&&&&&&&&&&&&&&&&&555ooooooooooooooooooooooooooooooooooooooooooooooooooooooooooooo55",
"55&&&&&&&&&&&&&&&&&&&&&&&&&&&&&&&&&&&&&&&&&&&&&&&&&&&&&&&&&&&&555ooooooooooooooooooooooooooooooooooooooooooooooooooooooooooooo55",
"55&&&&&&&&&&&&&&&&&&&&&&&&&&&&&&&&&&&&&&&&&&&&&&&&&&&&&&&&&&&&555ooooooooooooooooooooooooooooooooooooooooooooooooooooooooooooo55",
"55&&&&&&&&&&&&&&&&&&&&&&&&&&&&&&&&&&&&&&&&&&&&&&&&&&&&&&&&&&&&555ooooooooooooooooooooooooooooooooooooooooooooooooooooooooooooo55",
"55&&&&&&&&&&&&&&&&&&&&&&&&&&&&&&&&&&&&&&&&&&&&&&&&&&&&&&&&&&&&555ooooooooooooooooooooooooooooooooooooooooooooooooooooooooooooo55",
"55&&&&&&&&&&&&&&&&&&&&&&&&&&&&&&&&&&&&&&&&&&&&&&&&&&&&&&&&&&&&555ooooooooooooooooooooooooooooooooooooooooooooooooooooooooooooo55",
"55&&&&&&&&&&&&&&&&&&&&&&&&&&&&&&&&&&&&&&&&&&&&&&&&&&&&&&&&&&&&555ooooooooooooooooooooooooooooooooooooooooooooooooooooooooooooo55",
"55&&&&&&&&&&&&&&&&&&&&&&&&&&&&&&&&&&&&&&&&&&&&&&&&&&&&&&&&&&&&555ooooooooooooooooooooooooooooooooooooooooooooooooooooooooooooo55",
"55&&&&&&&&&&&&&&&&&&&&&&&&&&&&&&&&&&&&&&&&&&&&&&&&&&&&&&&&&&&&555ooooooooooooooooooooooooooooooooooooooooooooooooooooooooooooo55",
"55555555555555555555555555555555555555555555555555555555555555555555555555555555555555555555555555555555555555555555555555555555",
"55555555555555555555555555555555555555555555555555555555555555555555555555555555555555555555555555555555555555555555555555555555",
"55555555555555555555555555555555555555555555555555555555555555555555555555555555555555555555555555555555555555555555555555555555",
"55oooooooooooooooooooooooooooooooooooooooooooooooooooooooooooo555&&&&&&&&&&&&&&&&&&&&&&&&&&&&&&&&&&&&&&&&&&&&&&&&&&&&&&&&&&&&&55",
"55oooooooooooooooooooooooooooooooooooooooooooooooooooooooooooo555&&&&&&&&&&&&&&&&&&&&&&&&&&&&&&&&&&&&&&&&&&&&&&&&&&&&&&&&&&&&&55",
"55oooooooooooooooooooooooooooooooooooooooooooooooooooooooooooo555&&&&&&&&&&&&&&&&&&&&&&&&&&&&&&&&&&&&&&&&&&&&&&&&&&&&&&&&&&&&&55",
"55oooooooooooooooooooooooooooooooooooooooooooooooooooooooooooo555&&&&&&&&&&&&&&&&&&&&&&&&&&&&&&&&&&&&&&&&&&&&&&&&&&&&&&&&&&&&&55",
"55oooooooooooooooooooooooooooooooooooooooooooooooooooooooooooo555&&&&&&&&&&&&&&&&&&&&&&&&&&&&&&&&&&&&&&&&&&&&&&&&&&&&&&&&&&&&&55",
"55oooooooooooooooooooooooooooooooooooooooooooooooooooooooooooo555&&&&&&&&&&&&&&&&&&&&&&&&&&&&&&&&&&&&&&&&&&&&&&&&&&&&&&&&&&&&&55",
"55oooooooooooooooooooooooooooooooooooooooooooooooooooooooooooo555&&&&&&&&&&&&&&&&&&&&&&&&&&&&&&&&&&&&&&&&&&&&&&&&&&&&&&&&&&&&&55",
"55oooooooooooooooooooooooooooooooooooooooooooooooooooooooooooo555&&&&&&&&&&&&&&&&&&&&&&&&&&&&&&&&&&&&&&&&&&&&&&&&&&&&&&&&&&&&&55",
"55oooooooooooooooooooooooooooooooooooooooooooooooooooooooooooo555&&&&&&&&&&&&&&&&&&&&&&&&&&&&&&&&&&&&&&&&&&&&&&&&&&&&&&&&&&&&&55",
"55oooooooooooooooooooooooooooooooooooooooooooooooooooooooooooo555&&&&&&&&&&&&&&&&&&&&&&&&&&&&&&&&&&&&&&&&&&&&&&&&&&&&&&&&&&&&&55",
"55oooooooooooooooooooooooooooooooooooooooooooooooooooooooooooo555&&&&&&&&&&&&&&&&&&&&&&&&&&&&&&&&&&&&&&&&&&&&&&&&&&&&&&&&&&&&&55",
"55oooooooooooooooooooooooooooooooooooooooooooooooooooooooooooo555&&&&&&&&&&&&&&&&&&&&&&&&&&&&&&&&&&&&&&&&&&&&&&&&&&&&&&&&&&&&&55",
"55oooooooooooooooooooooooooooooooooooooooooooooooooooooooooooo555&&&&&&&&&&&&&&&&&&&&&&&&&&&&&&&&&&&&&&&&&&&&&&&&&&&&&&&&&&&&&55",
"55oooooooooooooooooooooooooooooooooooooooooooooooooooooooooooo555&&&&&&&&&&&&&&&&&&&&&&&&&&&&&&&&&&&&&&&&&&&&&&&&&&&&&&&&&&&&&55",
"55oooooooooooooooooooooooooooooooooooooooooooooooooooooooooooo555&&&&&&&&&&&&&&&&&&&&&&&&&&&&&&&&&&&&&&&&&&&&&&&&&&&&&&&&&&&&&55",
"55oooooooooooooooooooooooooooooooooooooooooooooooooooooooooooo555&&&&&&&&&&&&&&&&&&&&&&&&&&&&&&&&&&&&&&&&&&&&&&&&&&&&&&&&&&&&&55",
"55oooooooooooooooooooooooooooooooooooooooooooooooooooooooooooo555&&&&&&&&&&&&&&&&&&&&&&&&&&&&&&&&&&&&&&&&&&&&&&&&&&&&&&&&&&&&&55",
"55oooooooooooooooooooooooooooooooooooooooooooooooooooooooooooo555&&&&&&&&&&&&&&&&&&&&&&&&&&&&&&&&&&&&&&&&&&&&&&&&&&&&&&&&&&&&&55",
"55oooooooooooooooooooooooooooooooooooooooooooooooooooooooooooo555&&&&&&&&&&&&&&&&&&&&&&&&&&&&&&&&&&&&&&&&&&&&&&&&&&&&&&&&&&&&&55",
"55oooooooooooooooooooooooooooooooooooooooooooooooooooooooooooo555&&&&&&&&&&&&&&&&&&&&&&&&&&&&&&&&&&&&&&&&&&&&&&&&&&&&&&&&&&&&&55",
"55oooooooooooooooooooooooooooooooooooooooooooooooooooooooooooo555&&&&&&&&&&&&&&&&&&&&&&&&&&&&&&&&&&&&&&&&&&&&&&&&&&&&&&&&&&&&&55",
"55oooooooooooooooooooooooooooooooooooooooooooooooooooooooooooo555&&&&&&&&&&&&&&&&&&&&&&&&&&&&&&&&&&&&&&&&&&&&&&&&&&&&&&&&&&&&&55",
"55oooooooooooooooooooooooooooooooooooooooooooooooooooooooooooo555&&&&&&&&&&&&&&&&&&&&&&&&&&&&&&&&&&&&&&&&&&&&&&&&&&&&&&&&&&&&&55",
"55oooooooooooooooooooooooooooooooooooooooooooooooooooooooooooo555&&&&&&&&&&&&&&&&&&&&&&&&&&&&&&&&&&&&&&&&&&&&&&&&&&&&&&&&&&&&&55",
"55oooooooooooooooooooooooooooooooooooooooooooooooooooooooooooo555&&&&&&&&&&&&&&&&&&&&&&&&&&&&&&&&&&&&&&&&&&&&&&&&&&&&&&&&&&&&&55",
"55oooooooooooooooooooooooooooooooooooooooooooooooooooooooooooo555&&&&&&&&&&&&&&&&&&&&&&&&&&&&&&&&&&&&&&&&&&&&&&&&&&&&&&&&&&&&&55",
"55oooooooooooooooooooooooooooooooooooooooooooooooooooooooooooo555&&&&&&&&&&&&&&&&&&&&&&&&&&&&&&&&&&&&&&&&&&&&&&&&&&&&&&&&&&&&&55",
"55oooooooooooooooooooooooooooo555ooooooooooooooooooooooooooooo555&&&&&&&&&&&&&&&&&&&&&&&&&&&&&555&&&&&&&&&&&&&&&&&&&&&&&&&&&&&55",
"55oooooooooooooooooooooooooooo555ooooooooooooooooooooooooooooo555&&&&&&&&&&&&&&&&&&&&&&&&&&&&&555&&&&&&&&&&&&&&&&&&&&&&&&&&&&&55",
"55oooooooooooooooooooooooooo5555555ooooooooooooooooooooooooooo555&&&&&&&&&&&&&&&&&&&&&&&&&&&5555555&&&&&&&&&&&&&&&&&&&&&&&&&&&55",
"55oooooooooooooooooooooooooo5555555ooooooooooooooooooooooooooo555&&&&&&&&&&&&&&&&&&&&&&&&&&&5555555&&&&&&&&&&&&&&&&&&&&&&&&&&&55",
"55oooooooooooooooooooooooooo5555555ooooooooooooooooooooooooooo555&&&&&&&&&&&&&&&&&&&&&&&&&&&5555555&&&&&&&&&&&&&&&&&&&&&&&&&&&55",
"55oooooooooooooooooooooooooooo555ooooooooooooooooooooooooooooo555&&&&&&&&&&&&&&&&&&&&&&&&&&&&&555&&&&&&&&&&&&&&&&&&&&&&&&&&&&&55",
"55oooooooooooooooooooooooooooo555ooooooooooooooooooooooooooooo555&&&&&&&&&&&&&&&&&&&&&&&&&&&&&555&&&&&&&&&&&&&&&&&&&&&&&&&&&&&55",
"55oooooooooooooooooooooooooooooooooooooooooooooooooooooooooooo555&&&&&&&&&&&&&&&&&&&&&&&&&&&&&&&&&&&&&&&&&&&&&&&&&&&&&&&&&&&&&55",
"55oooooooooooooooooooooooooooooooooooooooooooooooooooooooooooo555&&&&&&&&&&&&&&&&&&&&&&&&&&&&&&&&&&&&&&&&&&&&&&&&&&&&&&&&&&&&&55",
"55oooooooooooooooooooooooooooooooooooooooooooooooooooooooooooo555&&&&&&&&&&&&&&&&&&&&&&&&&&&&&&&&&&&&&&&&&&&&&&&&&&&&&&&&&&&&&55",
"55oooooooooooooooooooooooooooooooooooooooooooooooooooooooooooo555&&&&&&&&&&&&&&&&&&&&&&&&&&&&&&&&&&&&&&&&&&&&&&&&&&&&&&&&&&&&&55",
"55oooooooooooooooooooooooooooooooooooooooooooooooooooooooooooo555&&&&&&&&&&&&&&&&&&&&&&&&&&&&&&&&&&&&&&&&&&&&&&&&&&&&&&&&&&&&&55",
"55oooooooooooooooooooooooooooooooooooooooooooooooooooooooooooo555&&&&&&&&&&&&&&&&&&&&&&&&&&&&&&&&&&&&&&&&&&&&&&&&&&&&&&&&&&&&&55",
"55oooooooooooooooooooooooooooooooooooooooooooooooooooooooooooo555&&&&&&&&&&&&&&&&&&&&&&&&&&&&&&&&&&&&&&&&&&&&&&&&&&&&&&&&&&&&&55",
"55oooooooooooooooooooooooooooooooooooooooooooooooooooooooooooo555&&&&&&&&&&&&&&&&&&&&&&&&&&&&&&&&&&&&&&&&&&&&&&&&&&&&&&&&&&&&&55",
"55oooooooooooooooooooooooooooooooooooooooooooooooooooooooooooo555&&&&&&&&&&&&&&&&&&&&&&&&&&&&&&&&&&&&&&&&&&&&&&&&&&&&&&&&&&&&&55",
"55oooooooooooooooooooooooooooooooooooooooooooooooooooooooooooo555&&&&&&&&&&&&&&&&&&&&&&&&&&&&&&&&&&&&&&&&&&&&&&&&&&&&&&&&&&&&&55",
"55oooooooooooooooooooooooooooooooooooooooooooooooooooooooooooo555&&&&&&&&&&&&&&&&&&&&&&&&&&&&&&&&&&&&&&&&&&&&&&&&&&&&&&&&&&&&&55",
"55oooooooooooooooooooooooooooooooooooooooooooooooooooooooooooo555&&&&&&&&&&&&&&&&&&&&&&&&&&&&&&&&&&&&&&&&&&&&&&&&&&&&&&&&&&&&&55",
"55oooooooooooooooooooooooooooooooooooooooooooooooooooooooooooo555&&&&&&&&&&&&&&&&&&&&&&&&&&&&&&&&&&&&&&&&&&&&&&&&&&&&&&&&&&&&&55",
"55oooooooooooooooooooooooooooooooooooooooooooooooooooooooooooo555&&&&&&&&&&&&&&&&&&&&&&&&&&&&&&&&&&&&&&&&&&&&&&&&&&&&&&&&&&&&&55",
"55oooooooooooooooooooooooooooooooooooooooooooooooooooooooooooo555&&&&&&&&&&&&&&&&&&&&&&&&&&&&&&&&&&&&&&&&&&&&&&&&&&&&&&&&&&&&&55",
"55oooooooooooooooooooooooooooooooooooooooooooooooooooooooooooo555&&&&&&&&&&&&&&&&&&&&&&&&&&&&&&&&&&&&&&&&&&&&&&&&&&&&&&&&&&&&&55",
"55oooooooooooooooooooooooooooooooooooooooooooooooooooooooooooo555&&&&&&&&&&&&&&&&&&&&&&&&&&&&&&&&&&&&&&&&&&&&&&&&&&&&&&&&&&&&&55",
"55oooooooooooooooooooooooooooooooooooooooooooooooooooooooooooo555&&&&&&&&&&&&&&&&&&&&&&&&&&&&&&&&&&&&&&&&&&&&&&&&&&&&&&&&&&&&&55",
"55oooooooooooooooooooooooooooooooooooooooooooooooooooooooooooo555&&&&&&&&&&&&&&&&&&&&&&&&&&&&&&&&&&&&&&&&&&&&&&&&&&&&&&&&&&&&&55",
"55oooooooooooooooooooooooooooooooooooooooooooooooooooooooooooo555&&&&&&&&&&&&&&&&&&&&&&&&&&&&&&&&&&&&&&&&&&&&&&&&&&&&&&&&&&&&&55",
"55oooooooooooooooooooooooooooooooooooooooooooooooooooooooooooo555&&&&&&&&&&&&&&&&&&&&&&&&&&&&&&&&&&&&&&&&&&&&&&&&&&&&&&&&&&&&&55",
"55oooooooooooooooooooooooooooooooooooooooooooooooooooooooooooo555&&&&&&&&&&&&&&&&&&&&&&&&&&&&&&&&&&&&&&&&&&&&&&&&&&&&&&&&&&&&&55",
"55oooooooooooooooooooooooooooooooooooooooooooooooooooooooooooo555&&&&&&&&&&&&&&&&&&&&&&&&&&&&&&&&&&&&&&&&&&&&&&&&&&&&&&&&&&&&&55",
"55oooooooooooooooooooooooooooooooooooooooooooooooooooooooooooo555&&&&&&&&&&&&&&&&&&&&&&&&&&&&&&&&&&&&&&&&&&&&&&&&&&&&&&&&&&&&&55",
"55oooooooooooooooooooooooooooooooooooooooooooooooooooooooooooo555&&&&&&&&&&&&&&&&&&&&&&&&&&&&&&&&&&&&&&&&&&&&&&&&&&&&&&&&&&&&&55",
"55oooooooooooooooooooooooooooooooooooooooooooooooooooooooooooo555&&&&&&&&&&&&&&&&&&&&&&&&&&&&&&&&&&&&&&&&&&&&&&&&&&&&&&&&&&&&&55",
"55oooooooooooooooooooooooooooooooooooooooooooooooooooooooooooo555&&&&&&&&&&&&&&&&&&&&&&&&&&&&&&&&&&&&&&&&&&&&&&&&&&&&&&&&&&&&&55",
"55555555555555555555555555555555555555555555555555555555555555555555555555555555555555555555555555555555555555555555555555555555",
"55555555555555555555555555555555555555555555555555555555555555555555555555555555555555555555555555555555555555555555555555555555"
};
