/* XPM */
static char *result[] = {
/* columns rows colors chars-per-pixel */
"128 128 24 1 ",
"  c #FE5622",
". c #FF5622",
"X c #FE5722",
"o c #FF5722",
"O c #FE5623",
"+ c #FF5623",
"@ c #FE5723",
"# c #FF5723",
"$ c #F44236",
"% c #F54236",
"& c #F44336",
"* c #F54336",
"= c #F44237",
"- c #F54237",
"; c #F44337",
": c #F54337",
"> c #EAEAEA",
", c #EBEAEA",
"< c #EAEBEA",
"1 c #EBEBEA",
"2 c #EAEAEB",
"3 c #EBEAEB",
"4 c #EAEBEB",
"5 c gray92",
/* pixels */
"34355,12<,3,41452433<5<<3,,215>12113>4234435,4>51413533>4234<3>4333122331>2,<25445<5>2<2<533>,11,4<,<35214345>544234>35314351<,1",
"4;*=%:&=%:%&;*:-:*=$%;::=&**%;&%==&$$=;%;:&**=&&&:$%*$**$--$&$-2. o@#+.o+@#oX#+OoX. oX+@@@    +O#Oo.OOoo+O...@X@Xo#..XX+Xo#OX @5",
"5;**:*%&-$*&=:=&:-=%::%=:-&;&&**:&:&:=:==-%:%=&*-$=-&$&;**%--;*5.@Ooo.+O#@.oO+#@.@XX#X+X @XoO @ @XXoXX.+#O#  o.O.OO@o+o@X@@@++o4",
"<%&=%&%-$%&$$*$:$$$%*;%=*:&%*$%$:;&&*%%-==-&=*:$--*$$&%$$;*$&=:<X#XOo @O@oo.o+#@ .XOX#X.#O+@++o.oXO@@ XXOX.#@.#o+o+. . #O.XOO#@2",
"2*;-%:%*=-%*;%%:;;;=%;&=$%=-%**;%$:-;=&:$$*&&%&:;=*%*&%%%%$%**;3+XXO X.#.oXo.# ..O#O oO+o@X+X#@O+  #O+O.#+@O X#XO+++@  XOoOX#@.<",
"3$*--%*%%$%;;$=;%*:--;:%$-$*%*;$%=&&-=;*%;%*$$-==$-***;*****%&;5#.+XX++Oo@.oXO @+O #.. +++X@@#oX @#o@@.#  +O.++##@oX.#@+.o@o+X@2",
"5====$$&&%&;=;*&$*$&&$%%;$$%&&;**-=**=%-$*%-;%=:$:=$$&%%%*%&&$;3XOX#X o.++ oXo +oo@o#o#.++oOo+@X#@o. .Oo##o+#OooOX@O ..++O+o#+ 5",
"<&:%;$*%*%**%-&$**$=*::-$&:;-%%*$&&=$:$:$%*-**$;*-$-&=*-$-=&%&*5#+X @+XOo+#.#@.O  Xoo@OO@ XXoO@o@. X#+ +oooOo@O@X.X @oX@+.+o###2",
"1$=--$$$&:&=;*%*:-*%;=&$=-:&=-:*%&$%&;&&&*$*;&%%*$%-*=*$-$*-=&&5 X.@X  ..#oo+X ##@O@+X#oo X@O..O.#oOO.X+ oOO++  .o@+.o.+o@@#X @2",
"2**%=%**=**;*&%-%%**&&$$$&$&*;$$&%*%=*&&*=&&&*&;;*&%*$&**&:**%-4 .+@o#X#oo.O.+@o +@XO++OXX.OXX+o#X @#@@+Xoo.oOXXO.+XO.@X@ +#  +,",
",:%=;-&&$;*&:*&$;&$%&&&$&&&$&$&&&;$&*;$&&&$;&$&&=**&&$&:&;-*%=:1X#ooO ..X#o...XoX# X#. XX#o. o  O@+ .O..Oo###@#O@#XO+o+ @.X.oo@<",
"1$=;*;:%$&&$$$&&:&*&*&*;$&;&;&*&;&:$*&&*$**&;*&$&&&&&=&$&*&:;:;3#+O.o...Ooo.o.Oo@.+@ o+#. X @o..++#X+Xo  OO#+ O.   #.o@@  X.+@X,",
"3-&;&;*%$;*$;$&;&&&&&&&&&&&&&&&&&$$&&&&&$$;$&&&&&&&&$:-*:;*;$;;3#+XX#@o. OoXooXoO## #o   X ..XOX o+#.@  .## oo@XX. X. ##.X#. @.3",
"2&:=*&:*&$=&*&&&&&&&&&&&&&&&&&&&&&&&&&&&&&&&&&&&&&&&&**&$&**:*$3#+X+X .X #ooXX#XXOX#XX#XoXooX X@+XX@X.o.o#X..oO@oX .@.++@XO@+oX<",
"1%*=%&*&*%$&&&&&&&&&&&&&&&&&&&&&&&&&&&&&&&&&&&&&&&&&;=$$&:=-%:%1@@##@.+ O+ o.X#@XOXooX.  . oo.OX@ .#. # #X.#X+.XOo.#@o+##+OXO +1",
"5$:**%=&&&$&;&&&&&&&&&&&&&&&&&&&&&&&&&&&&&&&&&&&&&&&$&%%&*$=&;=5XO#X@..+XXo. O..oOoX..+X+  .#. #oX.XX#oooXo+..XO.@#.X. Oo@X.XX.<",
"1$*-&&%%:%*&*&&&&&&&&&&&&&&&&&&&&&&&&&&&&&&&&&&&&&&&$%*$&&=$*$*5#@XX@@@Xo.X#o##.XX@.Xo.oo.#o.oX#XX#Xo#ooXXo.o+@. .@@@#@O @ooX@o4",
"2:$*$$&$&%;*$&&&&&&&&&&&&&&&&&&&&&&&&&&&&&&&&&&&&&&*%$&&=&$;%-%4X#oX@# @+++.+o.oX.o@o.ooo oooo##oooooooooX.o .. XO oX.X o  o# #5",
",:=:%-&%&:*$$&&&&&&&&&&&&&&&&&&&&&&&&&&&&&&&&&&&&&&&$;$-*&;%-:=3o#+#O#@..+X+Xo.X#X#o#oo.oXooooooooooooooXX.. OoX# X.@o Ooo++..O5",
"5%=*&-$%:&&*&&&&&&&&&&&&&&&&&&&&&&&&&&&&&&&&&&&&&&&$:$*%&*;$:&%,. +@+#@X@.@#+ooooooooooooooooooooooooooX+oX O  ...O. oOXXo+ooO#1",
"3=:-&:-::*$&$&&&&&&&&&&&&&&&&&&&&&&&&&&&&&&&&&&&&&&&&%%&=&:*$=-,XO#O@# . +o@...oooooooooooooooooooooooo. oo #+ +.XOo@+o+..@ +#X1",
"<-;%%$;&&&$%$&&&&&&&&&&&&&&&&&&&&&&&&&&&&&&&&&&&&&&&;*&$-%&&=&->O++@..X++@ X#+Xooooooooooooooooooooooooo.X X.+X.X  O+.@X@o.++o+5",
"3;-*=%;-*:%&&&&&&&&&&&&&&&&&&&&&&&&&&&&&&&&&&&&&&&&&$&*&:;%-%&%4+.+ @@.#@ @o .@oooooooooooooooooooooooooooXX@ooX# o++@@oXX#oO++5",
"5*=%&%;-$&$&*&&&&&&&&&&&&&&&&&&&&&&&&&&&&&&&&&&&&&&&&&&*;=%:;$$1.X+O .o XX X@o oooooooooooooooooooooooo#ooo@oXXo+@o.oO#X O@XOo.4",
"1**%;;;$--$&&&&&&&&&&&&&&&&&&&&&&&&&&&&&&&&&&&&&&&&&&$:%:;-:;$:2o@ Xo.O o#o.oo.ooooooooooooooooooooooooo@ooo  OX@o +Xo .+ X.@O 2",
">*$%=;;:%=%;&&&&&&&&&&&&&&&&&&&&&&&&&&&&&&&&&&&&&&&&&$:-%%;;*&;2X X.o . #@ .oO.oooooooooooooooooooooooo.ooo.o.+ o@X o@  @OX@o.+2",
"4&;$:%&&%%;&&&&&&&&&&&&&&&&&&&&&&&&&&&&&&&&&&&&&&&&*$$%%:&%%&=:4@ +O+ #Xoo.#+.XoooooooooooooooooooooooooooX. +oo X.XXXO@ #oX#o#2",
"5**$;%&:$&&;&&&&&&&&&&&&&&&&&&&&&&&&&&&&&&&&&&&&&&&$*=$%$;*;=--2+XO#o.X+XX@ X#oooooooooooooooooooooooooo.o.X+@O+#XO #XO@XOO.@@o1",
"1%*;-$&*$%&&;&&&&&&&&&&&&&&&&&&&&&&&&&&&&&&&&&&&&&&;$$=:&-&:-&$3@@@oo@.+.o@XO@@ooooooooooooooooooooooooooo+ooXO+@#OXXo# # X@# +,",
">:&-:$&*==;%$&&&&&&&&&&&&&&&&&&&&&&&&&&&&&&&&&&&&&&*&$*$*--&-&%4#O#. #@+Oo.OX#o.ooooooooooooooooooooooooX#OO + .+.X+O.o.O##OoOo4",
">&-$=&&%&$*$&&&&&&&&&&&&&&&&&&&&&&&&&&&&&&&&&&&&&&&&&:&$&$&-$*$<O.O@+X#X  X+ooooooooooooooooooooooooooooXXXo O#X#@X O+OXO@o +oX1",
",%-:-==%&**&$&&&&&&&&&&&&&&&&&&&&&&&&&&&&&&&&&&&&&&&&&*&$;%&=*&2O@ . ooo#X# .ooooooooooooooooooooooooooooX ..X@## Xoo@#O#@O@Xo#<",
"5&&&&&&&&&&&&&&&&&&&&&&&&&&&&&&&&&&&&&&&&&&&&&&&&&&&&&&&&&&&&&&5ooooooooooooooooooooooooooooooooooooooooooooooooooooooooooooooo5",
"5&&&&&&&&&&&&&&&&&&&&&&&&&&&&&&&&&&&&&&&&&&&&&&&&&&&&&&&&&&&&&&5ooooooooooooooooooooooooooooooooooooooooooooooooooooooooooooooo5",
"5&&&&&&&&&&&&&&&&&&&&&&&&&&&&&&&&&&&&&&&&&&&&&&&&&&&&&&&&&&&&&&5ooooooooooooooooooooooooooooooooooooooooooooooooooooooooooooooo5",
"5&&&&&&&&&&&&&&&&&&&&&&&&&&&&&&&&&&&&&&&&&&&&&&&&&&&&&&&&&&&&&&5ooooooooooooooooooooooooooooooooooooooooooooooooooooooooooooooo5",
"5&&&&&&&&&&&&&&&&&&&&&&&&&&&&&&&&&&&&&&&&&&&&&&&&&&&&&&&&&&&&&&5ooooooooooooooooooooooooooooooooooooooooooooooooooooooooooooooo5",
"5&&&&&&&&&&&&&&&&&&&&&&&&&&&&&&&&&&&&&&&&&&&&&&&&&&&&&&&&&&&&&&5ooooooooooooooooooooooooooooooooooooooooooooooooooooooooooooooo5",
"5&&&&&&&&&&&&&&&&&&&&&&&&&&&&&&&&&&&&&&&&&&&&&&&&&&&&&&&&&&&&&&5ooooooooooooooooooooooooooooooooooooooooooooooooooooooooooooooo5",
"5&&&&&&&&&&&&&&&&&&&&&&&&&&&&&&&&&&&&&&&&&&&&&&&&&&&&&&&&&&&&&&5ooooooooooooooooooooooooooooooooooooooooooooooooooooooooooooooo5",
"5&&&&&&&&&&&&&&&&&&&&&&&&&&&&&&&&&&&&&&&&&&&&&&&&&&&&&&&&&&&&&&5ooooooooooooooooooooooooooooooooooooooooooooooooooooooooooooooo5",
"5&&&&&&&&&&&&&&&&&&&&&&&&&&&&&&&&&&&&&&&&&&&&&&&&&&&&&&&&&&&&&&5ooooooooooooooooooooooooooooooooooooooooooooooooooooooooooooooo5",
"5&&&&&&&&&&&&&&&&&&&&&&&&&&&&&&&&&&&&&&&&&&&&&&&&&&&&&&&&&&&&&&5ooooooooooooooooooooooooooooooooooooooooooooooooooooooooooooooo5",
"5&&&&&&&&&&&&&&&&&&&&&&&&&&&&&&&&&&&&&&&&&&&&&&&&&&&&&&&&&&&&&&5ooooooooooooooooooooooooooooooooooooooooooooooooooooooooooooooo5",
"5&&&&&&&&&&&&&&&&&&&&&&&&&&&&&&&&&&&&&&&&&&&&&&&&&&&&&&&&&&&&&&5ooooooooooooooooooooooooooooooooooooooooooooooooooooooooooooooo5",
"5&&&&&&&&&&&&&&&&&&&&&&&&&&&&&&&&&&&&&&&&&&&&&&&&&&&&&&&&&&&&&&5ooooooooooooooooooooooooooooooooooooooooooooooooooooooooooooooo5",
"5&&&&&&&&&&&&&&&&&&&&&&&&&&&&&&&&&&&&&&&&&&&&&&&&&&&&&&&&&&&&&&5ooooooooooooooooooooooooooooooooooooooooooooooooooooooooooooooo5",
"5&&&&&&&&&&&&&&&&&&&&&&&&&&&&&&&&&&&&&&&&&&&&&&&&&&&&&&&&&&&&&&5ooooooooooooooooooooooooooooooooooooooooooooooooooooooooooooooo5",
"5&&&&&&&&&&&&&&&&&&&&&&&&&&&&&&&&&&&&&&&&&&&&&&&&&&&&&&&&&&&&&&5ooooooooooooooooooooooooooooooooooooooooooooooooooooooooooooooo5",
"5&&&&&&&&&&&&&&&&&&&&&&&&&&&&&&&&&&&&&&&&&&&&&&&&&&&&&&&&&&&&&&5ooooooooooooooooooooooooooooooooooooooooooooooooooooooooooooooo5",
"5&&&&&&&&&&&&&&&&&&&&&&&&&&&&&&&&&&&&&&&&&&&&&&&&&&&&&&&&&&&&&&5ooooooooooooooooooooooooooooooooooooooooooooooooooooooooooooooo5",
"5&&&&&&&&&&&&&&&&&&&&&&&&&&&&&&&&&&&&&&&&&&&&&&&&&&&&&&&&&&&&&&5ooooooooooooooooooooooooooooooooooooooooooooooooooooooooooooooo5",
"5&&&&&&&&&&&&&&&&&&&&&&&&&&&&&&&&&&&&&&&&&&&&&&&&&&&&&&&&&&&&&&5ooooooooooooooooooooooooooooooooooooooooooooooooooooooooooooooo5",
"5&&&&&&&&&&&&&&&&&&&&&&&&&&&&&&&&&&&&&&&&&&&&&&&&&&&&&&&&&&&&&&5ooooooooooooooooooooooooooooooooooooooooooooooooooooooooooooooo5",
"5&&&&&&&&&&&&&&&&&&&&&&&&&&&&&&&&&&&&&&&&&&&&&&&&&&&&&&&&&&&&&&5ooooooooooooooooooooooooooooooooooooooooooooooooooooooooooooooo5",
"5&&&&&&&&&&&&&&&&&&&&&&&&&&&&&&&&&&&&&&&&&&&&&&&&&&&&&&&&&&&&&&5ooooooooooooooooooooooooooooooooooooooooooooooooooooooooooooooo5",
"5&&&&&&&&&&&&&&&&&&&&&&&&&&&&&&&&&&&&&&&&&&&&&&&&&&&&&&&&&&&&&&5ooooooooooooooooooooooooooooooooooooooooooooooooooooooooooooooo5",
"5&&&&&&&&&&&&&&&&&&&&&&&&&&&&&&&&&&&&&&&&&&&&&&&&&&&&&&&&&&&&&&5ooooooooooooooooooooooooooooooooooooooooooooooooooooooooooooooo5",
"5&&&&&&&&&&&&&&&&&&&&&&&&&&&&&&&&&&&&&&&&&&&&&&&&&&&&&&&&&&&&&&5ooooooooooooooooooooooooooooooooooooooooooooooooooooooooooooooo5",
"5&&&&&&&&&&&&&&&&&&&&&&&&&&&&&&&&&&&&&&&&&&&&&&&&&&&&&&&&&&&&&&5ooooooooooooooooooooooooooooooooooooooooooooooooooooooooooooooo5",
"5&&&&&&&&&&&&&&&&&&&&&&&&&&&&&&&&&&&&&&&&&&&&&&&&&&&&&&&&&&&&&&5ooooooooooooooooooooooooooooooooooooooooooooooooooooooooooooooo5",
"5&&&&&&&&&&&&&&&&&&&&&&&&&&&&&&&&&&&&&&&&&&&&&&&&&&&&&&&&&&&&&&5ooooooooooooooooooooooooooooooooooooooooooooooooooooooooooooooo5",
"5&&&&&&&&&&&&&&&&&&&&&&&&&&&&&&&&&&&&&&&&&&&&&&&&&&&&&&&&&&&&&&5ooooooooooooooooooooooooooooooooooooooooooooooooooooooooooooooo5",
"55555555555555555555555555555555555555555555555555555555555555555555555555555555555555555555555555555555555555555555555555555555",
"5oooooooooooooooooooooooooooooooooooooooooooooooooooooooooooooo5&&&&&&&&&&&&&&&&&&&&&&&&&&&&&&&&&&&&&&&&&&&&&&&&&&&&&&&&&&&&&&&5",
"5oooooooooooooooooooooooooooooooooooooooooooooooooooooooooooooo5&&&&&&&&&&&&&&&&&&&&&&&&&&&&&&&&&&&&&&&&&&&&&&&&&&&&&&&&&&&&&&&5",
"5oooooooooooooooooooooooooooooooooooooooooooooooooooooooooooooo5&&&&&&&&&&&&&&&&&&&&&&&&&&&&&&&&&&&&&&&&&&&&&&&&&&&&&&&&&&&&&&&5",
"5oooooooooooooooooooooooooooooooooooooooooooooooooooooooooooooo5&&&&&&&&&&&&&&&&&&&&&&&&&&&&&&&&&&&&&&&&&&&&&&&&&&&&&&&&&&&&&&&5",
"5oooooooooooooooooooooooooooooooooooooooooooooooooooooooooooooo5&&&&&&&&&&&&&&&&&&&&&&&&&&&&&&&&&&&&&&&&&&&&&&&&&&&&&&&&&&&&&&&5",
"5oooooooooooooooooooooooooooooooooooooooooooooooooooooooooooooo5&&&&&&&&&&&&&&&&&&&&&&&&&&&&&&&&&&&&&&&&&&&&&&&&&&&&&&&&&&&&&&&5",
"5oooooooooooooooooooooooooooooooooooooooooooooooooooooooooooooo5&&&&&&&&&&&&&&&&&&&&&&&&&&&&&&&&&&&&&&&&&&&&&&&&&&&&&&&&&&&&&&&5",
"5oooooooooooooooooooooooooooooooooooooooooooooooooooooooooooooo5&&&&&&&&&&&&&&&&&&&&&&&&&&&&&&&&&&&&&&&&&&&&&&&&&&&&&&&&&&&&&&&5",
"5oooooooooooooooooooooooooooooooooooooooooooooooooooooooooooooo5&&&&&&&&&&&&&&&&&&&&&&&&&&&&&&&&&&&&&&&&&&&&&&&&&&&&&&&&&&&&&&&5",
"5oooooooooooooooooooooooooooooooooooooooooooooooooooooooooooooo5&&&&&&&&&&&&&&&&&&&&&&&&&&&&&&&&&&&&&&&&&&&&&&&&&&&&&&&&&&&&&&&5",
"5oooooooooooooooooooooooooooooooooooooooooooooooooooooooooooooo5&&&&&&&&&&&&&&&&&&&&&&&&&&&&&&&&&&&&&&&&&&&&&&&&&&&&&&&&&&&&&&&5",
"5oooooooooooooooooooooooooooooooooooooooooooooooooooooooooooooo5&&&&&&&&&&&&&&&&&&&&&&&&&&&&&&&&&&&&&&&&&&&&&&&&&&&&&&&&&&&&&&&5",
"5oooooooooooooooooooooooooooooooooooooooooooooooooooooooooooooo5&&&&&&&&&&&&&&&&&&&&&&&&&&&&&&&&&&&&&&&&&&&&&&&&&&&&&&&&&&&&&&&5",
"5oooooooooooooooooooooooooooooooooooooooooooooooooooooooooooooo5&&&&&&&&&&&&&&&&&&&&&&&&&&&&&&&&&&&&&&&&&&&&&&&&&&&&&&&&&&&&&&&5",
"5oooooooooooooooooooooooooooooooooooooooooooooooooooooooooooooo5&&&&&&&&&&&&&&&&&&&&&&&&&&&&&&&&&&&&&&&&&&&&&&&&&&&&&&&&&&&&&&&5",
"5oooooooooooooooooooooooooooooooooooooooooooooooooooooooooooooo5&&&&&&&&&&&&&&&&&&&&&&&&&&&&&&&&&&&&&&&&&&&&&&&&&&&&&&&&&&&&&&&5",
"5oooooooooooooooooooooooooooooooooooooooooooooooooooooooooooooo5&&&&&&&&&&&&&&&&&&&&&&&&&&&&&&&&&&&&&&&&&&&&&&&&&&&&&&&&&&&&&&&5",
"5oooooooooooooooooooooooooooooooooooooooooooooooooooooooooooooo5&&&&&&&&&&&&&&&&&&&&&&&&&&&&&&&&&&&&&&&&&&&&&&&&&&&&&&&&&&&&&&&5",
"5oooooooooooooooooooooooooooooooooooooooooooooooooooooooooooooo5&&&&&&&&&&&&&&&&&&&&&&&&&&&&&&&&&&&&&&&&&&&&&&&&&&&&&&&&&&&&&&&5",
"5oooooooooooooooooooooooooooooooooooooooooooooooooooooooooooooo5&&&&&&&&&&&&&&&&&&&&&&&&&&&&&&&&&&&&&&&&&&&&&&&&&&&&&&&&&&&&&&&5",
"5oooooooooooooooooooooooooooooooooooooooooooooooooooooooooooooo5&&&&&&&&&&&&&&&&&&&&&&&&&&&&&&&&&&&&&&&&&&&&&&&&&&&&&&&&&&&&&&&5",
"5oooooooooooooooooooooooooooooooooooooooooooooooooooooooooooooo5&&&&&&&&&&&&&&&&&&&&&&&&&&&&&&&&&&&&&&&&&&&&&&&&&&&&&&&&&&&&&&&5",
"5oooooooooooooooooooooooooooooooooooooooooooooooooooooooooooooo5&&&&&&&&&&&&&&&&&&&&&&&&&&&&&&&&&&&&&&&&&&&&&&&&&&&&&&&&&&&&&&&5",
"5oooooooooooooooooooooooooooooooooooooooooooooooooooooooooooooo5&&&&&&&&&&&&&&&&&&&&&&&&&&&&&&&&&&&&&&&&&&&&&&&&&&&&&&&&&&&&&&&5",
"5oooooooooooooooooooooooooooooooooooooooooooooooooooooooooooooo5&&&&&&&&&&&&&&&&&&&&&&&&&&&&&&&&&&&&&&&&&&&&&&&&&&&&&&&&&&&&&&&5",
"5oooooooooooooooooooooooooooooooooooooooooooooooooooooooooooooo5&&&&&&&&&&&&&&&&&&&&&&&&&&&&&&&&&&&&&&&&&&&&&&&&&&&&&&&&&&&&&&&5",
"5oooooooooooooooooooooooooooooooooooooooooooooooooooooooooooooo5&&&&&&&&&&&&&&&&&&&&&&&&&&&&&&&&&&&&&&&&&&&&&&&&&&&&&&&&&&&&&&&5",
"5oooooooooooooooooooooooooooooooooooooooooooooooooooooooooooooo5&&&&&&&&&&&&&&&&&&&&&&&&&&&&&&&&&&&&&&&&&&&&&&&&&&&&&&&&&&&&&&&5",
"5oooooooooooooooooooooooooooooooooooooooooooooooooooooooooooooo5&&&&&&&&&&&&&&&&&&&&&&&&&&&&&&&&&&&&&&&&&&&&&&&&&&&&&&&&&&&&&&&5",
"5oooooooooooooooooooooooooooooooooooooooooooooooooooooooooooooo5&&&&&&&&&&&&&&&&&&&&&&&&&&&&&&&&&&&&&&&&&&&&&&&&&&&&&&&&&&&&&&&5",
"5oooooooooooooooooooooooooooooooooooooooooooooooooooooooooooooo5&&&&&&&&&&&&&&&&&&&&&&&&&&&&&&&&&&&&&&&&&&&&&&&&&&&&&&&&&&&&&&&5",
"5oooooooooooooooooooooooooooooooooooooooooooooooooooooooooooooo5&&&&&&&&&&&&&&&&&&&&&&&&&&&&&&&&&&&&&&&&&&&&&&&&&&&&&&&&&&&&&&&5",
"5oooooooooooooooooooooooooooooooooooooooooooooooooooooooooooooo5&&&&&&&&&&&&&&&&&&&&&&&&&&&&&&&&&&&&&&&&&&&&&&&&&&&&&&&&&&&&&&&5",
"5oooooooooooooooooooooooooooooooooooooooooooooooooooooooooooooo5&&&&&&&&&&&&&&&&&&&&&&&&&&&&&&&&&&&&&&&&&&&&&&&&&&&&&&&&&&&&&&&5",
"5oooooooooooooooooooooooooooooooooooooooooooooooooooooooooooooo5&&&&&&&&&&&&&&&&&&&&&&&&&&&&&&&&&&&&&&&&&&&&&&&&&&&&&&&&&&&&&&&5",
"5oooooooooooooooooooooooooooooooooooooooooooooooooooooooooooooo5&&&&&&&&&&&&&&&&&&&&&&&&&&&&&&&&&&&&&&&&&&&&&&&&&&&&&&&&&&&&&&&5",
"5oooooooooooooooooooooooooooooooooooooooooooooooooooooooooooooo5&&&&&&&&&&&&&&&&&&&&&&&&&&&&&&&&&&&&&&&&&&&&&&&&&&&&&&&&&&&&&&&5",
"5oooooooooooooooooooooooooooooooooooooooooooooooooooooooooooooo5&&&&&&&&&&&&&&&&&&&&&&&&&&&&&&&&&&&&&&&&&&&&&&&&&&&&&&&&&&&&&&&5",
"5oooooooooooooooooooooooooooooooooooooooooooooooooooooooooooooo5&&&&&&&&&&&&&&&&&&&&&&&&&&&&&&&&&&&&&&&&&&&&&&&&&&&&&&&&&&&&&&&5",
"5oooooooooooooooooooooooooooooooooooooooooooooooooooooooooooooo5&&&&&&&&&&&&&&&&&&&&&&&&&&&&&&&&&&&&&&&&&&&&&&&&&&&&&&&&&&&&&&&5",
"5oooooooooooooooooooooooooooooooooooooooooooooooooooooooooooooo5&&&&&&&&&&&&&&&&&&&&&&&&&&&&&&&&&&&&&&&&&&&&&&&&&&&&&&&&&&&&&&&5",
"5oooooooooooooooooooooooooooooooooooooooooooooooooooooooooooooo5&&&&&&&&&&&&&&&&&&&&&&&&&&&&&&&&&&&&&&&&&&&&&&&&&&&&&&&&&&&&&&&5",
"5oooooooooooooooooooooooooooooooooooooooooooooooooooooooooooooo5&&&&&&&&&&&&&&&&&&&&&&&&&&&&&&&&&&&&&&&&&&&&&&&&&&&&&&&&&&&&&&&5",
"5oooooooooooooooooooooooooooooooooooooooooooooooooooooooooooooo5&&&&&&&&&&&&&&&&&&&&&&&&&&&&&&&&&&&&&&&&&&&&&&&&&&&&&&&&&&&&&&&5",
"5oooooooooooooooooooooooooooooooooooooooooooooooooooooooooooooo5&&&&&&&&&&&&&&&&&&&&&&&&&&&&&&&&&&&&&&&&&&&&&&&&&&&&&&&&&&&&&&&5",
"5oooooooooooooooooooooooooooooooooooooooooooooooooooooooooooooo5&&&&&&&&&&&&&&&&&&&&&&&&&&&&&&&&&&&&&&&&&&&&&&&&&&&&&&&&&&&&&&&5",
"5oooooooooooooooooooooooooooooooooooooooooooooooooooooooooooooo5&&&&&&&&&&&&&&&&&&&&&&&&&&&&&&&&&&&&&&&&&&&&&&&&&&&&&&&&&&&&&&&5",
"5oooooooooooooooooooooooooooooooooooooooooooooooooooooooooooooo5&&&&&&&&&&&&&&&&&&&&&&&&&&&&&&&&&&&&&&&&&&&&&&&&&&&&&&&&&&&&&&&5",
"5oooooooooooooooooooooooooooooooooooooooooooooooooooooooooooooo5&&&&&&&&&&&&&&&&&&&&&&&&&&&&&&&&&&&&&&&&&&&&&&&&&&&&&&&&&&&&&&&5",
"5oooooooooooooooooooooooooooooooooooooooooooooooooooooooooooooo5&&&&&&&&&&&&&&&&&&&&&&&&&&&&&&&&&&&&&&&&&&&&&&&&&&&&&&&&&&&&&&&5",
"5oooooooooooooooooooooooooooooooooooooooooooooooooooooooooooooo5&&&&&&&&&&&&&&&&&&&&&&&&&&&&&&&&&&&&&&&&&&&&&&&&&&&&&&&&&&&&&&&5",
"5oooooooooooooooooooooooooooooooooooooooooooooooooooooooooooooo5&&&&&&&&&&&&&&&&&&&&&&&&&&&&&&&&&&&&&&&&&&&&&&&&&&&&&&&&&&&&&&&5",
"5oooooooooooooooooooooooooooooooooooooooooooooooooooooooooooooo5&&&&&&&&&&&&&&&&&&&&&&&&&&&&&&&&&&&&&&&&&&&&&&&&&&&&&&&&&&&&&&&5",
"5oooooooooooooooooooooooooooooooooooooooooooooooooooooooooooooo5&&&&&&&&&&&&&&&&&&&&&&&&&&&&&&&&&&&&&&&&&&&&&&&&&&&&&&&&&&&&&&&5",
"5oooooooooooooooooooooooooooooooooooooooooooooooooooooooooooooo5&&&&&&&&&&&&&&&&&&&&&&&&&&&&&&&&&&&&&&&&&&&&&&&&&&&&&&&&&&&&&&&5",
"5oooooooooooooooooooooooooooooooooooooooooooooooooooooooooooooo5&&&&&&&&&&&&&&&&&&&&&&&&&&&&&&&&&&&&&&&&&&&&&&&&&&&&&&&&&&&&&&&5",
"5oooooooooooooooooooooooooooooooooooooooooooooooooooooooooooooo5&&&&&&&&&&&&&&&&&&&&&&&&&&&&&&&&&&&&&&&&&&&&&&&&&&&&&&&&&&&&&&&5",
"5oooooooooooooooooooooooooooooooooooooooooooooooooooooooooooooo5&&&&&&&&&&&&&&&&&&&&&&&&&&&&&&&&&&&&&&&&&&&&&&&&&&&&&&&&&&&&&&&5",
"5oooooooooooooooooooooooooooooooooooooooooooooooooooooooooooooo5&&&&&&&&&&&&&&&&&&&&&&&&&&&&&&&&&&&&&&&&&&&&&&&&&&&&&&&&&&&&&&&5",
"5oooooooooooooooooooooooooooooooooooooooooooooooooooooooooooooo5&&&&&&&&&&&&&&&&&&&&&&&&&&&&&&&&&&&&&&&&&&&&&&&&&&&&&&&&&&&&&&&5",
"5oooooooooooooooooooooooooooooooooooooooooooooooooooooooooooooo5&&&&&&&&&&&&&&&&&&&&&&&&&&&&&&&&&&&&&&&&&&&&&&&&&&&&&&&&&&&&&&&5",
"5oooooooooooooooooooooooooooooooooooooooooooooooooooooooooooooo5&&&&&&&&&&&&&&&&&&&&&&&&&&&&&&&&&&&&&&&&&&&&&&&&&&&&&&&&&&&&&&&5",
"5oooooooooooooooooooooooooooooooooooooooooooooooooooooooooooooo5&&&&&&&&&&&&&&&&&&&&&&&&&&&&&&&&&&&&&&&&&&&&&&&&&&&&&&&&&&&&&&&5",
"55555555555555555555555555555555555555555555555555555555555555555555555555555555555555555555555555555555555555555555555555555555"
};
