/* XPM */
static char *result[] = {
/* columns rows colors chars-per-pixel */
"128 128 24 1 ",
"  c #FE5622",
". c #FF5622",
"X c #FE5722",
"o c #FF5722",
"O c #FE5623",
"+ c #FF5623",
"@ c #FE5723",
"# c #FF5723",
"$ c #F44236",
"% c #F54236",
"& c #F44336",
"* c #F54336",
"= c #F44237",
"- c #F54237",
"; c #F44337",
": c #F54337",
"> c #EAEAEA",
", c #EBEAEA",
"< c #EAEBEA",
"1 c #EBEBEA",
"2 c #EAEAEB",
"3 c #EBEAEB",
"4 c #EAEBEB",
"5 c gray92",
/* pixels */
"5,,>2>15,>>52<>>4<3<,542,,1555,54<54<>11242>><4<1,212,4,,4>,211<45444152341343<<452<,32>142554>5,31<3<213,34>32253,4>,,42,3<<545",
"142312355454<152111,,3>33,34<5<,51<>54,2512243443544,45155<543415135,5>5><<<4,324155123331525244455532312242455,32<255343424545<",
"54*%-*::%%::::&:*:*=-;=&:-$%%%-&*;=;==:%%-%&%%$:*&&**;*=*;$=;*<5,@OXoO#..#@#@@XX#O @+.o@. .+#+@.+O#.+# .OO+o..OOo#o .++#O@+oX@11",
"4<%:*%*:*-&&&&:=;%=;*$:&&;:%%=*=-;*:%*=%-&;*=&&&=:$&:$$-::%$&%334+oX .++O.X+O. O.Oo##+o@+ +O#+++o .#+O.++@oo #o#OX@@.# ##+.+@ 44",
"5>:&$*:=&-$&%-=$;%$=&;&-=:=;$*;=*&--=:&==:*&$-%=*-*-$=$:;**&-*1<4oo..O+..#XXX@+.++@#  #. @XX XOo. #+#.. @O@#XoXOo#+ @+.+#@##o 32",
"52;*%$$%&;**$::&%::=--*=$-*%:$&:-;&%::*$;&;$;&:*;=**&:=;;-&=:=<31o@.oO oOo . .+@X.@o #  O#@+@@+oo.OO@+#+o.#OoO..X.oO+#XX .@ .@5,",
"52&=;;*=$*=-;&$:=$%-*&;;&&*&;$:$$--=;%%$$*%%=%%;;::**-==&*%&=%23<#O @#X@oX@oO.+O#o X# .O@.X# X XOo o XO. @@ .@.o +oXo#.@O@oo@#44",
"23-&&$;:$$::%$;=$&=:$:=$--*;:*$$;*:%;=$;*=:&&==%;**;-&--;%;:;=1,<OO.@X+X.# oo@XO+Oo O#.O#.@@.@#.o.O#O##@Xo ##X@O@ +OOoXoo O+o#25",
">4;&:&%:*;$-;&;:;;-;%%**&::==:&:%%;=&&-&&=;-;%=**&==*-=;-=;=-:5>1O X@oXo ..X+X@#+X@XO..+@Xo.##.oO #X@@  oo O.Oo @#X@Oo@#o.+##.>2",
"24&$-*=%&*%&;&=;;&$&:$;*:&$:=%=-;*-$$*-;$*&-*-:=;%;%$;&**&;%&&>4,@@X@@X@+o++.OXX@ .##.Xo @ #XO@#+X.#oo#@+X.XXO+oXX.#X.+o#@oX. 41",
">4$:&;%:&=*-=$&%%&*&;**%&=$$:=$%$:%%=&&&-:%$%*%$-&-*;*;%**=;&:442@.#.@Oo@ @XX oo X X@oOX  +...  O+XX#o@#+X#.X@O +#.+O X.OX #@#41",
"2,:=;=;-*%=-*&%$=%:=$-**=&--;-&:&*-%&$=;&%*;-*%*-&*%-=&;&%=%-:1<4..OO#X.++o + X+X.+XXX@.@o O Oo+X.+ +# ..+.X#@@@+X +O.#  oo#@@><",
"52;&*%==&::&-&$&:&&;:%&$-&$%=&;;*&&-&;*$:*&%:--**&=*-*;&%&:::*>52#o+@.+O@#OXX+O+O@+..X@ ++ .+o##OX#O#.o.o.#XO#@OX@#O.@ #@ O o@42",
"55=:*;$$&-*$-$-*=%::=-$%*%;$%%=$%;&*$;%&**--$%$%:&&$==$*-*;&=%541@X+O@Oo#+ X+o#..#+..X#@.@#@.O+o#X#O..+XO O.. @ o @+@X.O# X#X@14",
",>&;=%%&%$%*$=:&%&&%=*$$$;$$&-;=$:%$*&**:=:**:=**%**&-:%:;=*$;2>5 @+@ +OX+ o.#+#.+o + o#X# Oo#+#.O.O# @ @+oO#+o# OXoOX #+.#+.#21",
"52:;-=;*%&$;:=&$$&:--%-$*:::%;**&=&:&$$;:%%%%:&*$*::$:-%;::*=%23<O X @+o+ ....X.@..OXO@ @o Xo.oO@XOXO##XXO#oX+@ #@ .oOo.Oo .@O<3",
",5&%$$&%:*%%%&:-%*%$:&;**&$$&=-*&$%%%::*$*&*:&--$&%*:-&$:%--;;>2>.  . # X##oOX+X .OO. #@ O + oo o o.o.OXO XX oo.@@+# O@OO +Xo+>>",
"51=%===*%$:-%$&%*$:&$**$&*$&$%$$*%;*$$&$%*-$**%%*%%;;-$&$&=%%:1>2Xo#oo+O+.+o@O@o.++@X.O@+ ..oo+@+.@O#.O#o #X ##  #X+#.#oO+XoOX,1",
"53=&*-;-$:*$:*%*$*&;$&$$*$$&%%:;%*$*&=:*&$;:**%;=&%;--$-*&%:;*<<1  #.O+ #Xo@o@X . .#X.#+@ X O#@@@X.oX +.+o. ...+O #+@@O+OXX.  >,",
"<2-*&%:=$$:&$$::*-;&&$;$&&&&:;;:&**%$::*&&$%$;&;$--%=-%=$:-=;:,,<.XOoO+O. X#.oo+X@  Xo O X@.#o.o#..oXooooOX+X#OX.o.o .OO.X.oo.<>",
"5<;;==*%%-:$$:-&&%$*$&&&&&&&&*&&$&&&&&&&*&***&&;&==&$:;*$&==*%353o#.o#oO+#o Oo#o O.Oo+  #+.oX#.oO.oX @ +  #O.XX+++.. .O##O#o@@24",
"25%&-&:$=:=&$:%%;$&;$&&&&&&&&&&&&&&&&&&&&&&&*$=%=$%--**&;$=;=;4,5OOOXoo .. +oXo@O#.  ..+ oO@+.+X##.XX##X###X O o+X  #+O#o@o.oO5<",
"14%&;=$:=;:%%$=*;&&&&&&&&&&&&&&&&&&&&&&&&&&&*=$$;%%=%;-=%;&&;%13<O. X#OX@@OoX@#  o#@X+O  @#XXXX ooXo.. X@ #XO @  O+X@oOX.o oOO5,",
"14==*$%-*%*%&*&$*$=&*&&&&&&&&&&&&&&&&&&&&&&*&**%*::-*;%%%:;;;:342.#O.X#oOoo@ .@#  oO@O@.@# oo+oXo@X .OO@ @+oO oX#+.X @@.. +##o,,",
"31;%;:&:$-=%$$-$*%$&*&&&&&&&&&&&&&&&&&&&&&&&*%;%$&-&&-&:--=$%$5<5 @ @X+.XX#O@o.o..+X#X. o#. o+ooX#Oo@o +OooXo#+.+#O oXXOO+@#.X34",
"45$:&:=-:%&&-:-*&;**&&&&&&&&&&&&&&&&&&&&&&&&&&:%&:*%%%:=-&-=-=<3>OooO@@@. +oX+.Oo#@oooooXXo#XoXo.o XoO@X+#.  @o#+O..+##@@ + OX<5",
",4&$=*=--&*&-%=:&$&;&&&&&&&&&&&&&&&&&&&&&&&;&*$-*=:=:*;%;*-$:=5<2XX..@#X.X++@     Xo#ooooo#XX.oooo  +o..o ..+# .oXoO @XOX   ##3<",
"5,&=%;-%$%=*=:&%=%&*&&&&&&&&&&&&&&&&&&&&&&&&&**&-$*:*=$:*-%=*:>,2+.@+o#@+XXO  .X@+o .o ooooooooX @o Xo#oXOo @++O+o#o # @#Ooo#+44",
",5*-=%%%$:;$%$-;;**=&&&&&&&&&&&&&&&&&&&&&&&&%&&=*:%-*;:=;*-:=$4>2# oX+X.+O@@O## .ooO. oooooooooo  oXoO O.# .o @.+O@X  XoXX.++@41",
"<4;;=:$;&&$*-&;&:%$$&&&&&&&&&&&&&&&&&&&&&&&&*&;*%*-;;:&=&;:%;=24<oX#Oo# @#.OX+#X@# XXoo.oooooooo. .o..@.O+Oo@O #@.##o# o.# OO 32",
"25%&%:;&%-;*&;%**;$$$&&&&&&&&&&&&&&&&&&&&&&&&&*$%%&%-=*=*:::;-4<>.+@  OXoX+o.# +  o+oX.Xooooooo#oXX+# .X.o#oO#@@o##X#  O +..@@2<",
"3<:&-&;&;=:$;=;:;*$$;&&&&&&&&&&&&&&&&&&&&&&&&&&*%*%=&*-&&$;*-:<>< +OX.@Xo@  . @ O OXooXXoooooooo.oo X.#++O ++@+ ..@.o#..@@O+@#2>",
"55&&&&&&&&&&&&&&&&&&&&&&&&&&&&&&&&&&&&&&&&&&&&&&&&&&&&&&&&&&&&555ooooooooooooooooooooooooooooooooooooooooooooooooooooooooooooo55",
"55&&&&&&&&&&&&&&&&&&&&&&&&&&&&&&&&&&&&&&&&&&&&&&&&&&&&&&&&&&&&555ooooooooooooooooooooooooooooooooooooooooooooooooooooooooooooo55",
"55&&&&&&&&&&&&&&&&&&&&&&&&&&&&&&&&&&&&&&&&&&&&&&&&&&&&&&&&&&&&555ooooooooooooooooooooooooooooooooooooooooooooooooooooooooooooo55",
"55&&&&&&&&&&&&&&&&&&&&&&&&&&&&&&&&&&&&&&&&&&&&&&&&&&&&&&&&&&&&555ooooooooooooooooooooooooooooooooooooooooooooooooooooooooooooo55",
"55&&&&&&&&&&&&&&&&&&&&&&&&&&&&&&&&&&&&&&&&&&&&&&&&&&&&&&&&&&&&555ooooooooooooooooooooooooooooooooooooooooooooooooooooooooooooo55",
"55&&&&&&&&&&&&&&&&&&&&&&&&&&&&&&&&&&&&&&&&&&&&&&&&&&&&&&&&&&&&555ooooooooooooooooooooooooooooooooooooooooooooooooooooooooooooo55",
"55&&&&&&&&&&&&&&&&&&&&&&&&&&&&&&&&&&&&&&&&&&&&&&&&&&&&&&&&&&&&555ooooooooooooooooooooooooooooooooooooooooooooooooooooooooooooo55",
"55&&&&&&&&&&&&&&&&&&&&&&&&&&&&&&&&&&&&&&&&&&&&&&&&&&&&&&&&&&&&555ooooooooooooooooooooooooooooooooooooooooooooooooooooooooooooo55",
"55&&&&&&&&&&&&&&&&&&&&&&&&&&&&&&&&&&&&&&&&&&&&&&&&&&&&&&&&&&&&555ooooooooooooooooooooooooooooooooooooooooooooooooooooooooooooo55",
"55&&&&&&&&&&&&&&&&&&&&&&&&&&&&&&&&&&&&&&&&&&&&&&&&&&&&&&&&&&&&555ooooooooooooooooooooooooooooooooooooooooooooooooooooooooooooo55",
"55&&&&&&&&&&&&&&&&&&&&&&&&&&&&&&&&&&&&&&&&&&&&&&&&&&&&&&&&&&&&555ooooooooooooooooooooooooooooooooooooooooooooooooooooooooooooo55",
"55&&&&&&&&&&&&&&&&&&&&&&&&&&&&&&&&&&&&&&&&&&&&&&&&&&&&&&&&&&&&555ooooooooooooooooooooooooooooooooooooooooooooooooooooooooooooo55",
"55&&&&&&&&&&&&&&&&&&&&&&&&&&&&&&&&&&&&&&&&&&&&&&&&&&&&&&&&&&&&555ooooooooooooooooooooooooooooooooooooooooooooooooooooooooooooo55",
"55&&&&&&&&&&&&&&&&&&&&&&&&&&&&&&&&&&&&&&&&&&&&&&&&&&&&&&&&&&&&555ooooooooooooooooooooooooooooooooooooooooooooooooooooooooooooo55",
"55&&&&&&&&&&&&&&&&&&&&&&&&&&&&&&&&&&&&&&&&&&&&&&&&&&&&&&&&&&&&555ooooooooooooooooooooooooooooooooooooooooooooooooooooooooooooo55",
"55&&&&&&&&&&&&&&&&&&&&&&&&&&&&&&&&&&&&&&&&&&&&&&&&&&&&&&&&&&&&555ooooooooooooooooooooooooooooooooooooooooooooooooooooooooooooo55",
"55&&&&&&&&&&&&&&&&&&&&&&&&&&&&&&&&&&&&&&&&&&&&&&&&&&&&&&&&&&&&555ooooooooooooooooooooooooooooooooooooooooooooooooooooooooooooo55",
"55&&&&&&&&&&&&&&&&&&&&&&&&&&&&&&&&&&&&&&&&&&&&&&&&&&&&&&&&&&&&555ooooooooooooooooooooooooooooooooooooooooooooooooooooooooooooo55",
"55&&&&&&&&&&&&&&&&&&&&&&&&&&&&&&&&&&&&&&&&&&&&&&&&&&&&&&&&&&&&555ooooooooooooooooooooooooooooooooooooooooooooooooooooooooooooo55",
"55&&&&&&&&&&&&&&&&&&&&&&&&&&&&&&&&&&&&&&&&&&&&&&&&&&&&&&&&&&&&555ooooooooooooooooooooooooooooooooooooooooooooooooooooooooooooo55",
"55&&&&&&&&&&&&&&&&&&&&&&&&&&&&&&&&&&&&&&&&&&&&&&&&&&&&&&&&&&&&555ooooooooooooooooooooooooooooooooooooooooooooooooooooooooooooo55",
"55&&&&&&&&&&&&&&&&&&&&&&&&&&&&&&&&&&&&&&&&&&&&&&&&&&&&&&&&&&&&555ooooooooooooooooooooooooooooooooooooooooooooooooooooooooooooo55",
"55&&&&&&&&&&&&&&&&&&&&&&&&&&&&&&&&&&&&&&&&&&&&&&&&&&&&&&&&&&&&555ooooooooooooooooooooooooooooooooooooooooooooooooooooooooooooo55",
"55&&&&&&&&&&&&&&&&&&&&&&&&&&&&&&&&&&&&&&&&&&&&&&&&&&&&&&&&&&&&555ooooooooooooooooooooooooooooooooooooooooooooooooooooooooooooo55",
"55&&&&&&&&&&&&&&&&&&&&&&&&&&&&&&&&&&&&&&&&&&&&&&&&&&&&&&&&&&&&555ooooooooooooooooooooooooooooooooooooooooooooooooooooooooooooo55",
"55&&&&&&&&&&&&&&&&&&&&&&&&&&&&&&&&&&&&&&&&&&&&&&&&&&&&&&&&&&&&555ooooooooooooooooooooooooooooooooooooooooooooooooooooooooooooo55",
"55&&&&&&&&&&&&&&&&&&&&&&&&&&&&&&&&&&&&&&&&&&&&&&&&&&&&&&&&&&&&555ooooooooooooooooooooooooooooooooooooooooooooooooooooooooooooo55",
"55&&&&&&&&&&&&&&&&&&&&&&&&&&&&&&&&&&&&&&&&&&&&&&&&&&&&&&&&&&&&555ooooooooooooooooooooooooooooooooooooooooooooooooooooooooooooo55",
"55&&&&&&&&&&&&&&&&&&&&&&&&&&&&&&&&&&&&&&&&&&&&&&&&&&&&&&&&&&&&555ooooooooooooooooooooooooooooooooooooooooooooooooooooooooooooo55",
"55&&&&&&&&&&&&&&&&&&&&&&&&&&&&&&&&&&&&&&&&&&&&&&&&&&&&&&&&&&&&555ooooooooooooooooooooooooooooooooooooooooooooooooooooooooooooo55",
"55555555555555555555555555555555555555555555555555555555555555555555555555555555555555555555555555555555555555555555555555555555",
"55555555555555555555555555555555555555555555555555555555555555555555555555555555555555555555555555555555555555555555555555555555",
"55555555555555555555555555555555555555555555555555555555555555555555555555555555555555555555555555555555555555555555555555555555",
"55oooooooooooooooooooooooooooooooooooooooooooooooooooooooooooo555&&&&&&&&&&&&&&&&&&&&&&&&&&&&&&&&&&&&&&&&&&&&&&&&&&&&&&&&&&&&&55",
"55oooooooooooooooooooooooooooooooooooooooooooooooooooooooooooo555&&&&&&&&&&&&&&&&&&&&&&&&&&&&&&&&&&&&&&&&&&&&&&&&&&&&&&&&&&&&&55",
"55oooooooooooooooooooooooooooooooooooooooooooooooooooooooooooo555&&&&&&&&&&&&&&&&&&&&&&&&&&&&&&&&&&&&&&&&&&&&&&&&&&&&&&&&&&&&&55",
"55oooooooooooooooooooooooooooooooooooooooooooooooooooooooooooo555&&&&&&&&&&&&&&&&&&&&&&&&&&&&&&&&&&&&&&&&&&&&&&&&&&&&&&&&&&&&&55",
"55oooooooooooooooooooooooooooooooooooooooooooooooooooooooooooo555&&&&&&&&&&&&&&&&&&&&&&&&&&&&&&&&&&&&&&&&&&&&&&&&&&&&&&&&&&&&&55",
"55oooooooooooooooooooooooooooooooooooooooooooooooooooooooooooo555&&&&&&&&&&&&&&&&&&&&&&&&&&&&&&&&&&&&&&&&&&&&&&&&&&&&&&&&&&&&&55",
"55oooooooooooooooooooooooooooooooooooooooooooooooooooooooooooo555&&&&&&&&&&&&&&&&&&&&&&&&&&&&&&&&&&&&&&&&&&&&&&&&&&&&&&&&&&&&&55",
"55oooooooooooooooooooooooooooooooooooooooooooooooooooooooooooo555&&&&&&&&&&&&&&&&&&&&&&&&&&&&&&&&&&&&&&&&&&&&&&&&&&&&&&&&&&&&&55",
"55oooooooooooooooooooooooooooooooooooooooooooooooooooooooooooo555&&&&&&&&&&&&&&&&&&&&&&&&&&&&&&&&&&&&&&&&&&&&&&&&&&&&&&&&&&&&&55",
"55oooooooooooooooooooooooooooooooooooooooooooooooooooooooooooo555&&&&&&&&&&&&&&&&&&&&&&&&&&&&&&&&&&&&&&&&&&&&&&&&&&&&&&&&&&&&&55",
"55oooooooooooooooooooooooooooooooooooooooooooooooooooooooooooo555&&&&&&&&&&&&&&&&&&&&&&&&&&&&&&&&&&&&&&&&&&&&&&&&&&&&&&&&&&&&&55",
"55oooooooooooooooooooooooooooooooooooooooooooooooooooooooooooo555&&&&&&&&&&&&&&&&&&&&&&&&&&&&&&&&&&&&&&&&&&&&&&&&&&&&&&&&&&&&&55",
"55oooooooooooooooooooooooooooooooooooooooooooooooooooooooooooo555&&&&&&&&&&&&&&&&&&&&&&&&&&&&&&&&&&&&&&&&&&&&&&&&&&&&&&&&&&&&&55",
"55oooooooooooooooooooooooooooooooooooooooooooooooooooooooooooo555&&&&&&&&&&&&&&&&&&&&&&&&&&&&&&&&&&&&&&&&&&&&&&&&&&&&&&&&&&&&&55",
"55oooooooooooooooooooooooooooooooooooooooooooooooooooooooooooo555&&&&&&&&&&&&&&&&&&&&&&&&&&&&&&&&&&&&&&&&&&&&&&&&&&&&&&&&&&&&&55",
"55oooooooooooooooooooooooooooooooooooooooooooooooooooooooooooo555&&&&&&&&&&&&&&&&&&&&&&&&&&&&&&&&&&&&&&&&&&&&&&&&&&&&&&&&&&&&&55",
"55oooooooooooooooooooooooooooooooooooooooooooooooooooooooooooo555&&&&&&&&&&&&&&&&&&&&&&&&&&&&&&&&&&&&&&&&&&&&&&&&&&&&&&&&&&&&&55",
"55oooooooooooooooooooooooooooooooooooooooooooooooooooooooooooo555&&&&&&&&&&&&&&&&&&&&&&&&&&&&&&&&&&&&&&&&&&&&&&&&&&&&&&&&&&&&&55",
"55oooooooooooooooooooooooooooooooooooooooooooooooooooooooooooo555&&&&&&&&&&&&&&&&&&&&&&&&&&&&&&&&&&&&&&&&&&&&&&&&&&&&&&&&&&&&&55",
"55oooooooooooooooooooooooooooooooooooooooooooooooooooooooooooo555&&&&&&&&&&&&&&&&&&&&&&&&&&&&&&&&&&&&&&&&&&&&&&&&&&&&&&&&&&&&&55",
"55oooooooooooooooooooooooooooooooooooooooooooooooooooooooooooo555&&&&&&&&&&&&&&&&&&&&&&&&&&&&&&&&&&&&&&&&&&&&&&&&&&&&&&&&&&&&&55",
"55oooooooooooooooooooooooooooooooooooooooooooooooooooooooooooo555&&&&&&&&&&&&&&&&&&&&&&&&&&&&&&&&&&&&&&&&&&&&&&&&&&&&&&&&&&&&&55",
"55oooooooooooooooooooooooooooooooooooooooooooooooooooooooooooo555&&&&&&&&&&&&&&&&&&&&&&&&&&&&&&&&&&&&&&&&&&&&&&&&&&&&&&&&&&&&&55",
"55oooooooooooooooooooooooooooooooooooooooooooooooooooooooooooo555&&&&&&&&&&&&&&&&&&&&&&&&&&&&&&&&&&&&&&&&&&&&&&&&&&&&&&&&&&&&&55",
"55oooooooooooooooooooooooooooooooooooooooooooooooooooooooooooo555&&&&&&&&&&&&&&&&&&&&&&&&&&&&&&&&&&&&&&&&&&&&&&&&&&&&&&&&&&&&&55",
"55oooooooooooooooooooooooooooooooooooooooooooooooooooooooooooo555&&&&&&&&&&&&&&&&&&&&&&&&&&&&&&&&&&&&&&&&&&&&&&&&&&&&&&&&&&&&&55",
"55oooooooooooooooooooooooooooooooooooooooooooooooooooooooooooo555&&&&&&&&&&&&&&&&&&&&&&&&&&&&&&&&&&&&&&&&&&&&&&&&&&&&&&&&&&&&&55",
"55oooooooooooooooooooooooooooooooooooooooooooooooooooooooooooo555&&&&&&&&&&&&&&&&&&&&&&&&&&&&&&&&&&&&&&&&&&&&&&&&&&&&&&&&&&&&&55",
"55oooooooooooooooooooooooooooooooooooooooooooooooooooooooooooo555&&&&&&&&&&&&&&&&&&&&&&&&&&&&&&&&&&&&&&&&&&&&&&&&&&&&&&&&&&&&&55",
"55oooooooooooooooooooooooooooooooooooooooooooooooooooooooooooo555&&&&&&&&&&&&&&&&&&&&&&&&&&&&&&&&&&&&&&&&&&&&&&&&&&&&&&&&&&&&&55",
"55oooooooooooooooooooooooooooooooooooooooooooooooooooooooooooo555&&&&&&&&&&&&&&&&&&&&&&&&&&&&&&&&&&&&&&&&&&&&&&&&&&&&&&&&&&&&&55",
"55oooooooooooooooooooooooooooooooooooooooooooooooooooooooooooo555&&&&&&&&&&&&&&&&&&&&&&&&&&&&&&&&&&&&&&&&&&&&&&&&&&&&&&&&&&&&&55",
"55oooooooooooooooooooooooooooooooooooooooooooooooooooooooooooo555&&&&&&&&&&&&&&&&&&&&&&&&&&&&&&&&&&&&&&&&&&&&&&&&&&&&&&&&&&&&&55",
"55oooooooooooooooooooooooooooooooooooooooooooooooooooooooooooo555&&&&&&&&&&&&&&&&&&&&&&&&&&&&&&&&&&&&&&&&&&&&&&&&&&&&&&&&&&&&&55",
"55oooooooooooooooooooooooooooooooooooooooooooooooooooooooooooo555&&&&&&&&&&&&&&&&&&&&&&&&&&&&&&&&&&&&&&&&&&&&&&&&&&&&&&&&&&&&&55",
"55oooooooooooooooooooooooooooooooooooooooooooooooooooooooooooo555&&&&&&&&&&&&&&&&&&&&&&&&&&&&&&&&&&&&&&&&&&&&&&&&&&&&&&&&&&&&&55",
"55oooooooooooooooooooooooooooooooooooooooooooooooooooooooooooo555&&&&&&&&&&&&&&&&&&&&&&&&&&&&&&&&&&&&&&&&&&&&&&&&&&&&&&&&&&&&&55",
"55oooooooooooooooooooooooooooooooooooooooooooooooooooooooooooo555&&&&&&&&&&&&&&&&&&&&&&&&&&&&&&&&&&&&&&&&&&&&&&&&&&&&&&&&&&&&&55",
"55oooooooooooooooooooooooooooooooooooooooooooooooooooooooooooo555&&&&&&&&&&&&&&&&&&&&&&&&&&&&&&&&&&&&&&&&&&&&&&&&&&&&&&&&&&&&&55",
"55oooooooooooooooooooooooooooooooooooooooooooooooooooooooooooo555&&&&&&&&&&&&&&&&&&&&&&&&&&&&&&&&&&&&&&&&&&&&&&&&&&&&&&&&&&&&&55",
"55oooooooooooooooooooooooooooooooooooooooooooooooooooooooooooo555&&&&&&&&&&&&&&&&&&&&&&&&&&&&&&&&&&&&&&&&&&&&&&&&&&&&&&&&&&&&&55",
"55oooooooooooooooooooooooooooooooooooooooooooooooooooooooooooo555&&&&&&&&&&&&&&&&&&&&&&&&&&&&&&&&&&&&&&&&&&&&&&&&&&&&&&&&&&&&&55",
"55oooooooooooooooooooooooooooooooooooooooooooooooooooooooooooo555&&&&&&&&&&&&&&&&&&&&&&&&&&&&&&&&&&&&&&&&&&&&&&&&&&&&&&&&&&&&&55",
"55oooooooooooooooooooooooooooooooooooooooooooooooooooooooooooo555&&&&&&&&&&&&&&&&&&&&&&&&&&&&&&&&&&&&&&&&&&&&&&&&&&&&&&&&&&&&&55",
"55oooooooooooooooooooooooooooooooooooooooooooooooooooooooooooo555&&&&&&&&&&&&&&&&&&&&&&&&&&&&&&&&&&&&&&&&&&&&&&&&&&&&&&&&&&&&&55",
"55oooooooooooooooooooooooooooooooooooooooooooooooooooooooooooo555&&&&&&&&&&&&&&&&&&&&&&&&&&&&&&&&&&&&&&&&&&&&&&&&&&&&&&&&&&&&&55",
"55oooooooooooooooooooooooooooooooooooooooooooooooooooooooooooo555&&&&&&&&&&&&&&&&&&&&&&&&&&&&&&&&&&&&&&&&&&&&&&&&&&&&&&&&&&&&&55",
"55oooooooooooooooooooooooooooooooooooooooooooooooooooooooooooo555&&&&&&&&&&&&&&&&&&&&&&&&&&&&&&&&&&&&&&&&&&&&&&&&&&&&&&&&&&&&&55",
"55oooooooooooooooooooooooooooooooooooooooooooooooooooooooooooo555&&&&&&&&&&&&&&&&&&&&&&&&&&&&&&&&&&&&&&&&&&&&&&&&&&&&&&&&&&&&&55",
"55oooooooooooooooooooooooooooooooooooooooooooooooooooooooooooo555&&&&&&&&&&&&&&&&&&&&&&&&&&&&&&&&&&&&&&&&&&&&&&&&&&&&&&&&&&&&&55",
"55oooooooooooooooooooooooooooooooooooooooooooooooooooooooooooo555&&&&&&&&&&&&&&&&&&&&&&&&&&&&&&&&&&&&&&&&&&&&&&&&&&&&&&&&&&&&&55",
"55oooooooooooooooooooooooooooooooooooooooooooooooooooooooooooo555&&&&&&&&&&&&&&&&&&&&&&&&&&&&&&&&&&&&&&&&&&&&&&&&&&&&&&&&&&&&&55",
"55oooooooooooooooooooooooooooooooooooooooooooooooooooooooooooo555&&&&&&&&&&&&&&&&&&&&&&&&&&&&&&&&&&&&&&&&&&&&&&&&&&&&&&&&&&&&&55",
"55oooooooooooooooooooooooooooooooooooooooooooooooooooooooooooo555&&&&&&&&&&&&&&&&&&&&&&&&&&&&&&&&&&&&&&&&&&&&&&&&&&&&&&&&&&&&&55",
"55oooooooooooooooooooooooooooooooooooooooooooooooooooooooooooo555&&&&&&&&&&&&&&&&&&&&&&&&&&&&&&&&&&&&&&&&&&&&&&&&&&&&&&&&&&&&&55",
"55oooooooooooooooooooooooooooooooooooooooooooooooooooooooooooo555&&&&&&&&&&&&&&&&&&&&&&&&&&&&&&&&&&&&&&&&&&&&&&&&&&&&&&&&&&&&&55",
"55oooooooooooooooooooooooooooooooooooooooooooooooooooooooooooo555&&&&&&&&&&&&&&&&&&&&&&&&&&&&&&&&&&&&&&&&&&&&&&&&&&&&&&&&&&&&&55",
"55oooooooooooooooooooooooooooooooooooooooooooooooooooooooooooo555&&&&&&&&&&&&&&&&&&&&&&&&&&&&&&&&&&&&&&&&&&&&&&&&&&&&&&&&&&&&&55",
"55oooooooooooooooooooooooooooooooooooooooooooooooooooooooooooo555&&&&&&&&&&&&&&&&&&&&&&&&&&&&&&&&&&&&&&&&&&&&&&&&&&&&&&&&&&&&&55",
"55oooooooooooooooooooooooooooooooooooooooooooooooooooooooooooo555&&&&&&&&&&&&&&&&&&&&&&&&&&&&&&&&&&&&&&&&&&&&&&&&&&&&&&&&&&&&&55",
"55oooooooooooooooooooooooooooooooooooooooooooooooooooooooooooo555&&&&&&&&&&&&&&&&&&&&&&&&&&&&&&&&&&&&&&&&&&&&&&&&&&&&&&&&&&&&&55",
"55555555555555555555555555555555555555555555555555555555555555555555555555555555555555555555555555555555555555555555555555555555",
"55555555555555555555555555555555555555555555555555555555555555555555555555555555555555555555555555555555555555555555555555555555"
};
